<?xml version="1.0" encoding="UTF-8"?>
<svg id="Layer_1" data-name="Layer 1" xmlns="http://www.w3.org/2000/svg" xmlns:xlink="http://www.w3.org/1999/xlink" viewBox="0 0 1080 1080">
  <defs>
    <style>
      .cls-1, .cls-2, .cls-3, .cls-4, .cls-5, .cls-6, .cls-7, .cls-8, .cls-9, .cls-10, .cls-11, .cls-12, .cls-13, .cls-14 {
        stroke: #4b4b4d;
      }

      .cls-1, .cls-2, .cls-3, .cls-4, .cls-6, .cls-7, .cls-8, .cls-10, .cls-11, .cls-12, .cls-13, .cls-14 {
        stroke-miterlimit: 10;
      }

      .cls-1, .cls-3, .cls-7, .cls-8, .cls-9, .cls-10, .cls-11 {
        fill: none;
      }

      .cls-1, .cls-12 {
        stroke-width: 11.43px;
      }

      .cls-15 {
        clip-path: url(#clippath);
      }

      .cls-16, .cls-5, .cls-17, .cls-14 {
        fill: #eeedf0;
      }

      .cls-18, .cls-13, .cls-19 {
        fill: #ebc97f;
      }

      .cls-20, .cls-21 {
        fill: #4b4b4d;
      }

      .cls-22, .cls-2, .cls-4, .cls-12, .cls-23 {
        fill: #506b5f;
      }

      .cls-2, .cls-8 {
        stroke-width: 10.48px;
      }

      .cls-3, .cls-14 {
        stroke-width: 12.89px;
      }

      .cls-4, .cls-10 {
        stroke-width: 10.17px;
      }

      .cls-5, .cls-9 {
        stroke-linecap: round;
        stroke-linejoin: round;
        stroke-width: 10.12px;
      }

      .cls-6, .cls-11 {
        stroke-width: 8.33px;
      }

      .cls-6, .cls-24 {
        fill: #7a6661;
      }

      .cls-7, .cls-13 {
        stroke-width: 6.07px;
      }

      .cls-25 {
        clip-path: url(#clippath-1);
      }

      .cls-26 {
        clip-path: url(#clippath-4);
      }

      .cls-27 {
        clip-path: url(#clippath-3);
      }

      .cls-28 {
        clip-path: url(#clippath-2);
      }

      .cls-29 {
        clip-path: url(#clippath-8);
      }

      .cls-30 {
        clip-path: url(#clippath-6);
      }

      .cls-31 {
        clip-path: url(#clippath-5);
      }

      .cls-32 {
        clip-path: url(#clippath-9);
      }

      .cls-33 {
        clip-path: url(#clippath-12);
      }

      .cls-34 {
        clip-path: url(#clippath-10);
      }

      .cls-35 {
        clip-path: url(#clippath-11);
      }

      .cls-36 {
        fill: #f7f7f7;
      }

      .cls-36, .cls-24, .cls-21, .cls-23, .cls-37, .cls-38, .cls-39, .cls-40, .cls-41, .cls-42, .cls-43, .cls-19, .cls-17 {
        stroke-width: 0px;
      }

      .cls-37 {
        fill: #6d5b57;
      }

      .cls-38 {
        fill: #3f3f3f;
      }

      .cls-39 {
        fill: #41564c;
      }

      .cls-40 {
        fill: #dbdbdb;
      }

      .cls-41 {
        fill: #d8b877;
      }

      .cls-42 {
        fill: #7e7e7f;
      }

      .cls-43 {
        fill: #685653;
      }
    </style>
    <clipPath id="clippath">
      <path class="cls-23" d="M484.03,382.58c12.4-4.98,25.6-10.69,38.28-19.91,24.07-17.54,52.51-52.39,62.5-129.74.71.14,1.41.27,2.11.41-4.57-8.23-7.08-15.59-8.11-18.61-1.9-5.56-7.97-23.38-.62-33.45,3.68-5.05,8.63-6.38,8.63-6.38,5.97-1.6,10.81,1.89,11.4,2.33,10.55,7.87,5.83,32.03,7.4,32.09,1.01.04,4.46-9.66,4.75-24.18.58-28.11-11.33-42.86-3.81-52.72.3-.38,2.94-3.76,6.92-4.56,7.66-1.52,14.11,7.7,15.35,9.46,10.61,15.16,6.06,37.33,6.79,37.31.48,0,2.49-9.5,2.44-23.81-.05-14.45-2.15-21.95,2.42-26.84,1.96-2.09,4.75-3.29,7.25-3.16,9.13.48,13.52,18.66,14.2,21.67,5.11,22.53-4.3,44.17-3.81,44.43.3.06,3.08-6.79,4.71-16.97.48-2.96.9-6.55,1.77-24.54.54-11.14.6-14.61,3.29-17.74,2.35-2.72,6.49-4.94,10.11-4.13,8.37,1.88,11.7,19.57,11.2,32.66-.6,15.71-6.85,29.02-5.99,29.33.38.14,1.4-2.4,4.13-7.07,4.12-7.02,7.05-11.88,10.79-12.31,2.23-.25,3.95,1.18,4.55,1.68,7.18,5.93,5.01,37.98-10.04,61.89-1.27,2.02-7.74,11.99-18.45,20.99,1.5.3,3.02.6,4.52.9.23,14.63.16,103.94-72.08,172.62-67.23,63.91-148.66,64.04-164.77,63.74-6.78-13.59-14.1-32.28-13.16-50.63"/>
    </clipPath>
    <clipPath id="clippath-1">
      <path class="cls-14" d="M574.62,676.2c-13.45,78.07-129.34,152.79-212.06,125.58-46.38-15.26-70.32-67.68-118.2-172.51-39.77-87.07-59.65-130.6-46.89-170.59,28.3-88.65,170.52-143.63,235.93-101.64,9.6,6.16,15.97,13.25,19.46,17.58,15.99,37.75,41.11,95.71,74.03,166.22,40.98,87.74,52.72,106.4,47.73,135.37Z"/>
    </clipPath>
    <clipPath id="clippath-2">
      <path class="cls-4" d="M638.4,751.5c3.51-15.1,20.94-85.03,60.31-92.43,16.18-3.04,44.26,7.11,98.89,31.03,22.31,9.77,45.73,16.85,68.1,26.48,12.29,5.29,16.67,7.47,23.51,6.85,17.81-1.63,26.94-20.03,51.54-62.76,36.18-62.82,46.88-75.87,40.38-93.54-3.62-9.86-12.61-21.18-25.2-24.77-11.85-3.38-22.4,1.36-31.35,5.53-25.19,11.75-40.08,32.26-47.88,45.75-28.09-10.16-50.06-20.47-64.94-28.02-34.52-17.51-53.87-31.79-93.66-46.75-18.99-7.14-28.65-10.24-39.7-10.87-43.46-2.45-77.31,26.02-93.18,39.38-11.73,9.87-28.58,26.48-43.3,51.96"/>
    </clipPath>
    <clipPath id="clippath-3">
      <path class="cls-12" d="M671.05,692.19c-6.76,68.24-138.02,142.72-234.27,106.47-52.35-19.72-75.68-65.17-111.62-135.2-19.02-37.05-77.55-150.59-29.66-222.69,4.41-6.64,8.82-11.68,12.06-15.08,43.06-9.17,86.12-18.33,129.17-27.5,7.15-3.23,18.47-7.04,31.3-4.97,42.8,6.91,53.17,71.63,91.79,142.19,58.96,107.71,115.84,110.14,111.22,156.79Z"/>
    </clipPath>
    <clipPath id="clippath-4">
      <path class="cls-23" d="M309.39,543.86c-8.62,10.21-17.61,21.44-24.48,35.53-13.05,26.77-21.84,70.89,5.59,143.9-.69.21-1.37.42-2.06.62,7.89,5.13,13.56,10.46,15.89,12.64,4.29,4.02,18,16.92,16.23,29.26-.89,6.18-4.64,9.68-4.64,9.68-4.53,4.21-10.44,3.4-11.16,3.29-13-2.01-20.16-25.57-21.58-24.88-.91.44.59,10.62,7.14,23.58,12.66,25.11,30.09,32.55,28.08,44.78-.09.47-.83,4.7-3.98,7.27-6.05,4.93-16.07-.19-17.99-1.16-16.48-8.42-22.85-30.14-23.48-29.78-.42.23,2.26,9.56,9,22.18,6.82,12.74,12.19,18.39,10.44,24.84-.76,2.76-2.65,5.13-4.92,6.19-8.29,3.86-20.69-10.15-22.69-12.49-15.07-17.51-16.91-41.03-17.45-41.03-.3.09.46,7.44,3.79,17.2.96,2.84,2.27,6.21,9.93,22.51,4.75,10.1,6.31,13.19,5.4,17.21-.8,3.51-3.42,7.41-6.99,8.39-8.28,2.26-19.5-11.81-25.2-23.6-6.83-14.16-7.54-28.84-8.45-28.71-.41.05-.11,2.77-.34,8.18-.35,8.13-.66,13.8-3.76,15.93-1.85,1.26-4.05.81-4.81.65-9.12-1.87-22.22-31.2-20.14-59.38.18-2.38,1.22-14.22,6.46-27.19-1.47.44-2.95.89-4.42,1.33-7.06-12.82-48.85-91.74-17.22-186.27,29.44-87.97,101.31-126.24,115.68-133.53"/>
    </clipPath>
    <clipPath id="clippath-5">
      <path class="cls-5" d="M364.79,735.45c24.29-4.98,42.63-103.54,14.72-186.48-8.51-25.3-28.29-69.8-77.7-112.63-.79-1.42-5.78-10.11-15.61-11.8-9.2-1.58-19.93,3.45-22.13,11.14-1.26,4.39-.14,11.06,3.68,12.25,3.52,1.1,7.48-3.03,7.82-3.39,17.39,14.07,58.68,51.37,79.32,115.28,23.79,73.64,5.09,135.96-1.94,156.22-1.93,1.82-7.94,7.83-6.36,12.75,1.82,5.64,12.98,7.72,18.19,6.66Z"/>
    </clipPath>
    <clipPath id="clippath-6">
      <path class="cls-21" d="M719.62,661.89c35.17,13.49,59.48,23.44,75.58,30.22,7.12,3,10.43,4.51,17.2,7.17,16.88,6.64,34.08,12.53,50.69,19.83,12.25,5.38,16.62,7.6,23.45,7.03,17.83-1.49,27.09-19.82,52.02-62.36,36.66-62.54,47.46-75.51,41.1-93.23-3.55-9.89-12.45-21.28-25.01-24.97-11.82-3.47-22.41,1.19-31.39,5.29-25.28,11.55-40.33,31.95-48.23,45.38-27.78-10.88-49.83-21.19-64.72-28.52-22.56-11.11-38.97-20.21-42.43-22.11-16.09,38.75-32.18,77.51-48.26,116.26Z"/>
    </clipPath>
    <clipPath id="clippath-8">
      <rect class="cls-19" x="689.18" y="594.31" width="138.55" height="29" rx="4.73" ry="4.73" transform="translate(-99.27 1067.29) rotate(-66.88)"/>
    </clipPath>
    <clipPath id="clippath-9">
      <path class="cls-2" d="M530.81,803.79c46.91-15.32,69.11-3.21,76.89,2.2,14.16,9.87,27.34,36.31,50.06,90.75,9.38,22.47,21.42,43.77,30.94,66.19,5.23,12.31,6.89,16.92,12.27,21.19,14.01,11.13,33.32,4.13,80.62-9.77,69.55-20.43,86.31-22.47,93.82-39.74,4.19-9.63,5.51-24.03-1.1-35.32-6.23-10.63-17.14-14.5-26.49-17.66-26.33-8.91-51.26-4.37-66.23,0-12.77-26.96-21.77-49.58-27.59-65.12-25.27-67.49-31.16-110.06-67.67-145.35-8.03-7.76-15.3-13.01-23.95-16.91-31.71-14.29-64.4-2.45-77.26,2.21-25.25,9.14-42.61,24.24-52.98,35.32"/>
    </clipPath>
    <clipPath id="clippath-10">
      <path class="cls-21" d="M623.42,822.94c16.37,33.93,27.26,57.83,34.33,73.8,3.13,7.06,4.51,10.43,7.61,17.01,7.75,16.41,16.24,32.48,23.33,49.18,5.23,12.31,6.89,16.92,12.27,21.19,14.01,11.13,33.32,4.13,80.62-9.77,69.55-20.43,86.31-22.47,93.82-39.74,4.19-9.63,5.51-24.03-1.1-35.32-6.23-10.63-17.14-14.5-26.49-17.66-26.33-8.91-51.26-4.37-66.23,0-12.77-26.96-21.77-49.58-27.59-65.12-8.82-23.55-14.53-41.42-15.75-45.18-38.27,17.2-76.55,34.4-114.82,51.6Z"/>
    </clipPath>
    <clipPath id="clippath-11">
      <path class="cls-13" d="M792.49,879.83c-11.73,16.93-16,36.1-18.5,49.59-2.44,13.18-4.93,30.39-6.07,50.81,8.7-2.68,17.39-5.36,26.09-8.04.72-16.71,2.74-30.66,4.7-41.1,5.58-29.71,12.36-39.96,15.01-43.68,5.15-7.22,10.75-12.2,14.85-15.38.5-1.47.39-2.52.06-3.29-1.88-4.44-14.25-4.47-23.1-.43-6.97,3.17-10.94,8.49-13.04,11.53Z"/>
    </clipPath>
    <clipPath id="clippath-12">
      <rect class="cls-19" x="618.81" y="796.38" width="138.55" height="29" rx="4.73" ry="4.73" transform="translate(-267.3 343.73) rotate(-23.63)"/>
    </clipPath>
  </defs>
  <path class="cls-42" d="M192.31,745.24c-20.42,2.8-41.54.83-60.98-6.04-17.75-6.27-33.54-17.12-46.59-30.6-24.88-25.69-39.05-60.01-46.49-94.58-3.94-18.32-5.94-36.85-6.49-55.61-.62-21.13.65-42.4,4.83-63.15s11.05-40.59,21.52-58.82c9.62-16.74,21.98-31.66,36.02-44.86,29.12-27.39,64.69-47.15,100.92-63.51,5.21-2.35,10.45-4.63,15.73-6.83,2.46-1.02,4.22-3.27,3.45-6.07-.64-2.32-3.59-4.48-6.07-3.45-39.54,16.45-78.38,36.36-111.24,64.17-15.34,12.98-29.15,27.8-40.41,44.47-12.01,17.79-20.67,37.73-26.2,58.44-10.89,40.71-10.94,84.67-3.85,126.04,6.31,36.81,19.72,73.37,43.8,102.37,12.21,14.7,27.43,27.34,44.65,35.73,19.79,9.64,41.93,14.02,63.9,13.27,5.4-.18,10.77-.73,16.12-1.46,2.64-.36,4.08-3.74,3.45-6.07-.78-2.85-3.42-3.81-6.07-3.45h0Z"/>
  <g>
    <path class="cls-22" d="M484.03,382.58c12.4-4.98,25.6-10.69,38.28-19.91,24.07-17.54,52.51-52.39,62.5-129.74.71.14,1.41.27,2.11.41-4.57-8.23-7.08-15.59-8.11-18.61-1.9-5.56-7.97-23.38-.62-33.45,3.68-5.05,8.63-6.38,8.63-6.38,5.97-1.6,10.81,1.89,11.4,2.33,10.55,7.87,5.83,32.03,7.4,32.09,1.01.04,4.46-9.66,4.75-24.18.58-28.11-11.33-42.86-3.81-52.72.3-.38,2.94-3.76,6.92-4.56,7.66-1.52,14.11,7.7,15.35,9.46,10.61,15.16,6.06,37.33,6.79,37.31.48,0,2.49-9.5,2.44-23.81-.05-14.45-2.15-21.95,2.42-26.84,1.96-2.09,4.75-3.29,7.25-3.16,9.13.48,13.52,18.66,14.2,21.67,5.11,22.53-4.3,44.17-3.81,44.43.3.06,3.08-6.79,4.71-16.97.48-2.96.9-6.55,1.77-24.54.54-11.14.6-14.61,3.29-17.74,2.35-2.72,6.49-4.94,10.11-4.13,8.37,1.88,11.7,19.57,11.2,32.66-.6,15.71-6.85,29.02-5.99,29.33.38.14,1.4-2.4,4.13-7.07,4.12-7.02,7.05-11.88,10.79-12.31,2.23-.25,3.95,1.18,4.55,1.68,7.18,5.93,5.01,37.98-10.04,61.89-1.27,2.02-7.74,11.99-18.45,20.99,1.5.3,3.02.6,4.52.9.23,14.63.16,103.94-72.08,172.62-67.23,63.91-148.66,64.04-164.77,63.74-6.78-13.59-14.1-32.28-13.16-50.63"/>
    <g class="cls-15">
      <path class="cls-24" d="M674.21,250.7c-4.98,1.19-12.3,2.43-21.12,2.09-7.11-.28-12.32-1.7-16.41-2.42-14.89-2.63-28.24-6.16-39.88-9.93-1.8-.87-4.15-2.11-6.77-3.82-.44-.29-3.98-2.61-6.67-5.04,0,0-5.44-4.92-9.13-13.35-4.09-9.34-8.79-54.04,22.98-85.91,4.64-4.65,40.91-41.04,73.4-24.6,19.46,9.85,30.62,35.13,27.4,62.77,0,0,.23-7.93,3.01-9,.94-.36,1.8-.16,1.8-.16.85.2,1.5.89,2.05,1.57,5.36,6.78,5.53,16.31,4.01,24.81-1.54,8.61-4.53,16.89-7.97,24.93-1.36,3.18-.35.59-7.22,15.32-4.7,10.08-6.22,13.6-10.14,17.16-3.38,3.07-6.92,4.69-9.33,5.57Z"/>
      <path class="cls-39" d="M481.09,376.69c14.86-16.55,53.3-68.1,102.53-138.89,12.9,4.01,28.42,7.83,46.17,10.27,16.58,2.28,31.58,2.86,44.41,2.63-9.77,2.11-24.05,4.28-41.26,3.46-18.91-.9-25.22-4.38-32.35.22-8.8,5.68-4.16,15.7-13.54,43.52-4.65,13.79-6.97,20.68-12.3,27.81-9.43,12.62-21.37,18.82-19.63,26.67,1.01,4.51,6.11,7.65,5.12,8.96-.64.85-3.29.17-7.09-.81-3.72-.96-4.66-1.63-5.28-1.11-1.48,1.23,2.91,5.94,2.73,11.37-.22,6.6-7.02,9.43-12.43,15.86-6.27,7.45-6.91,15.26-8.57,25.3-6.16,37.13-8.78,59.4-23.15,69.45-12.65,8.86-34.66,12.82-51.42,3.2-8.73-5.01-13.18-12.14-14.86-14.73-8.42-12.94-8.66-30.17-2.76-44.44,3.41-8.24,6.73-8.66,30.33-34.05,0,0,1.22-1.18,13.35-14.69Z"/>
      <path class="cls-43" d="M599.37,171.57c4.27,5.33-6.47,14.94-8.77,33.66-1.73,14.12,2.2,26.47,6.2,35.21-5.05-1.01-10.1-2.02-15.16-3.03-2.42,1.5-5.7,2.9-9.1,2.18-9.76-2.09-13.2-20.27-13.5-30.23-.2-6.8-.62-21.07,9.99-31.01,9.68-9.07,26.02-12.16,30.33-6.78Z"/>
    </g>
  </g>
  <path class="cls-21" d="M484.75,383.1c10.74-5.12,21.31-10.22,31.06-16.92,9.64-6.51,18.29-14.44,25.67-23.42,24.46-29.98,38.15-71.06,43.19-109.22,0,0,.83.15.83.15l2.12.39-.85,1.19c-7.16-13.29-18.17-35.33-11.22-50.13,2.12-4.62,6.13-8.41,10.85-10.34,4.88-1.68,10.58-.4,14.39,3.03,8.35,8.31,6.46,21.26,6.32,31.87.02.41.09.4-.09.13-.03-.04-.2-.24-.34-.3-.17-.13-.55-.19-.69-.17-.16,0-.38.07-.47.13-.25.14-.2.17-.18.13,1.42-2.37,2.04-5.33,2.72-8.05,1.69-7.82,2.09-15.97,1.38-23.94-.72-8.07-2.97-15.77-5.22-23.54-1.11-4.07-2.25-8.08-2.3-12.44-.52-10.24,10.55-19.02,19.99-13.14,7.71,4.75,12.27,12.74,14.32,21.15,2,8.41,1.41,17.08.48,25.5,0,0-.02.33-.02.33v.11s0,.02,0-.02c0,.02,0-.13-.22-.36-.78-.54-1.11-.08-1.28.12,0-.03.02-.02.04-.07,3.01-11.05,2.1-22.72,1.31-34.03-.21-4.19-.73-8.34.46-12.55,1.54-5.64,8.11-9.86,13.85-7.63,7.11,3.2,10.77,11.45,13.07,18.33,4.84,15.86.92,32.32-4.33,47.44,0,0-.23.71-.23.71l-.1.33-.04.13s0,0,0,.01c-.1-.08.27,0-.4-.66l-.22-.08c-.41-.09-.74.25-.65.17-.02.01-.06.08-.05.05.11-.19.21-.43.29-.66.53-1.6.34-3.38.71-5.01.86-3.23,1.68-6.47,2.34-9.76,1.13-5.27,1.57-10.71,2.05-16.09.44-5.44.61-10.89.84-16.37.14-6.21.86-11.6,6.97-14.99,16.06-8.48,20.77,19.78,20.51,30.5.19,10.9-4.9,20.81-7.31,31.13,0,.04.02.1-.01-.05,0-.02-.03-.1-.1-.21-.03-.06-.25-.26-.39-.28-.14-.09-.47-.02-.59.05.83-1.73,2.58-5.4,3.59-7.5,2.71-4.91,5.02-12.66,11.48-13.8,3.01-.39,5.97,1.16,7.84,3.37,2.6,3.19,3.36,7.34,3.78,11.22.93,11.51-2.08,22.54-5.93,33.15-2.97,7.81-6.36,15.53-11,22.52-4.69,6.99-10.1,13.39-16.32,19.12,0,0-1.24-4.74-1.24-4.74,0,0,4.56.71,4.56.71l2.19.34c.6,8.7.65,17.44.21,26.14-3.48,88.23-64.12,168.58-146.07,199.87-29.39,11.45-60.92,17.36-92.47,16.85,0,0,.07-5.42.07-5.42,61.22-.15,122.63-24.7,165.25-68.98,32.39-32.67,52-75.8,61.63-120.4,3.2-14.94,5.45-30.2,5.76-45.51,0,0,2.33,2.77,2.33,2.77-2.45-.55-7.63-1.78-10.11-2.33,14.31-10.52,26.5-24.86,31.43-42.2,3.1-11.27,4.68-23.48,2.88-34.96-.39-1.84-.8-3.51-1.92-4.89-1.51-1.55-2.82-1.97-4.71-.52-3.92,3.29-6.74,8.12-9.59,12.44-.72,1.17-1.33,2.31-2.13,3.58-.15.18-.15.3-.6.65-.17.14-.58.21-.83.12-.46-.13-.63-.59-.64-.69-.11-.72.1-1.13.24-1.69,2.53-7.03,3.82-14.52,4.08-21.9.42-10.36.49-21.54-3.58-31.16-1.05-2.3-2.54-4.42-4.48-5.47-4.09-2.09-10.08,1.45-11.7,5.53-.89,2.3-1.09,5.07-1.29,7.76-.34,5.43-.54,10.9-.68,16.37-.09,8.85-.18,18.13-2.94,26.74-.69,1.84-2.03,3.39-2.86,5.17-.12.22-.19.4-.39.6.07-.04-.3.32-.75.24l-.17-.03s-.05-.05-.05-.05c-.71-.7-.33-.71-.44-.84,0,0,.02-.18.02-.18.1-.52.21-.91.34-1.39,2.1-7.2,3.28-14.74,3.33-22.21.09-7.94-.87-15.69-3.01-23.11-1.76-5.67-4.16-16.87-11.05-17.46-6.27.27-8.6,5.87-8.38,11.54.28,10.11.59,20.33-.49,30.44-.37,3.47-.55,7-1.51,10.38-.06.18-.16.37-.29.52-.19.13-.58.64-1.37.07-.26-.28-.27-.49-.29-.53-.04-.22-.05-.3-.06-.48,0,0,0-.43,0-.43v-.79c.65-14.82-2.17-32.81-15.38-41.48-4.46-2.9-9.68-.41-12.01,3.95-2.36,5.12-.53,10.82.42,16.43,3.33,15.98,5.09,32.55,2.37,48.78-.62,3.17-1.05,6.39-2.73,9.27-.13.16-.26.38-.72.66-.59.36-1.62.15-1.99-.47-.66-1.1-.48-2.09-.57-3.16-.14-7.79,0-16.06-3.23-23.09-2.2-5.04-7.87-8.02-13.26-7.13-2.43.53-4.66,1.92-6.45,3.65-3.49,3.28-4.62,8.26-4.59,12.9-.05,5.91,1.09,11.76,2.67,17.44,2.32,8.29,5.31,16.44,9.65,23.91-.95-.17-2.86-.57-3.81-.74,0,0,.94-.68.94-.68-6.17,52.85-18.64,106.61-67.02,136.74-10.35,6.35-21.7,11.08-33.09,14.95,0,0-1.29-3.15-1.29-3.15h0Z"/>
  <g>
    <path class="cls-16" d="M574.62,676.2c-13.45,78.07-129.34,152.79-212.06,125.58-46.38-15.26-70.32-67.68-118.2-172.51-39.77-87.07-59.65-130.6-46.89-170.59,28.3-88.65,170.52-143.63,235.93-101.64,9.6,6.16,15.97,13.25,19.46,17.58,15.99,37.75,41.11,95.71,74.03,166.22,40.98,87.74,52.72,106.4,47.73,135.37Z"/>
    <g class="cls-25">
      <path class="cls-40" d="M284.98,393.53c-24.96,14.51-38.5,43.75-41.1,72.5-2.6,28.75,4.19,57.45,11.53,85.37,5.65,21.47,11.68,42.92,20.49,63.3,4.34,10.04,9.34,19.8,12.97,30.12,7.44,21.16,8.95,44.25,18.15,64.71,9.59,21.33,26.91,38.29,45.65,52.29,10.39,7.76,21.65,14.92,34.32,17.69,11.96,2.62,24.42,1.16,36.48-.95,9.71-1.69,19.71-3.96,27.51-9.98,8.05-6.21,12.83-15.71,16.57-25.17,8.07-20.43,12.53-42.1,16.06-63.78,4.21-25.86,7.15-52.28,3.35-78.2-3.15-21.46-10.83-41.97-18.57-62.23-12.84-33.62-26.28-67.68-48.57-95.94-9.99-12.66-21.75-24.07-35.5-32.48-19.26-11.79-41.61-17.28-63.56-22.61-13.04-3.17-28.78-5.64-38.18,3.94"/>
    </g>
    <path class="cls-3" d="M574.62,676.2c-13.45,78.07-129.34,152.79-212.06,125.58-46.38-15.26-70.32-67.68-118.2-172.51-39.77-87.07-59.65-130.6-46.89-170.59,28.3-88.65,170.52-143.63,235.93-101.64,9.6,6.16,15.97,13.25,19.46,17.58,15.99,37.75,41.11,95.71,74.03,166.22,40.98,87.74,52.72,106.4,47.73,135.37Z"/>
  </g>
  <g>
    <path class="cls-22" d="M638.4,751.5c3.51-15.1,20.94-85.03,60.31-92.43,16.18-3.04,44.26,7.11,98.89,31.03,22.31,9.77,45.73,16.85,68.1,26.48,12.29,5.29,16.67,7.47,23.51,6.85,17.81-1.63,26.94-20.03,51.54-62.76,36.18-62.82,46.88-75.87,40.38-93.54-3.62-9.86-12.61-21.18-25.2-24.77-11.85-3.38-22.4,1.36-31.35,5.53-25.19,11.75-40.08,32.26-47.88,45.75-28.09-10.16-50.06-20.47-64.94-28.02-34.52-17.51-53.87-31.79-93.66-46.75-18.99-7.14-28.65-10.24-39.7-10.87-43.46-2.45-77.31,26.02-93.18,39.38-11.73,9.87-28.58,26.48-43.3,51.96"/>
    <g class="cls-28">
      <path class="cls-39" d="M595.7,524.39c28.04-3.56,57.15,1.84,82.06,15.2,35.67,19.15,60.9,52.83,84.1,86.01,9.43,13.49,19.05,27.99,19.97,44.42.34,6.12-.87,12.87-5.53,16.85-4.51,3.85-10.98,4.11-16.91,4.02-60.62-.91-120.87-19.34-171.63-52.48-9.41-6.15-18.66-12.93-25.33-21.98-10.88-14.76-13.74-33.84-15.12-52.12-.42-5.58-.68-11.46,1.77-16.49,2.19-4.49,6.27-7.73,10.35-10.63,13.61-9.67,30.49-17.54,46.6-13.18"/>
    </g>
    <path class="cls-10" d="M638.4,751.5c3.51-15.1,20.94-85.03,60.31-92.43,16.18-3.04,44.26,7.11,98.89,31.03,22.31,9.77,45.73,16.85,68.1,26.48,12.29,5.29,16.67,7.47,23.51,6.85,17.81-1.63,26.94-20.03,51.54-62.76,36.18-62.82,46.88-75.87,40.38-93.54-3.62-9.86-12.61-21.18-25.2-24.77-11.85-3.38-22.4,1.36-31.35,5.53-25.19,11.75-40.08,32.26-47.88,45.75-28.09-10.16-50.06-20.47-64.94-28.02-34.52-17.51-53.87-31.79-93.66-46.75-18.99-7.14-28.65-10.24-39.7-10.87-43.46-2.45-77.31,26.02-93.18,39.38-11.73,9.87-28.58,26.48-43.3,51.96"/>
  </g>
  <g>
    <path class="cls-22" d="M671.05,692.19c-6.76,68.24-138.02,142.72-234.27,106.47-52.35-19.72-75.68-65.17-111.62-135.2-19.02-37.05-77.55-150.59-29.66-222.69,4.41-6.64,8.82-11.68,12.06-15.08,43.06-9.17,86.12-18.33,129.17-27.5,7.15-3.23,18.47-7.04,31.3-4.97,42.8,6.91,53.17,71.63,91.79,142.19,58.96,107.71,115.84,110.14,111.22,156.79Z"/>
    <g class="cls-27">
      <path class="cls-39" d="M264.85,456.19c25.18,12.59,42.06,37.22,54.93,62.26,21.92,42.67,35.55,90.59,32.12,138.44-1.59,22.22-6.77,44.91-1,66.42,21.1-15.2,28.35-42.84,33.74-68.28,6.08-28.69,11.55-59.14,1.85-86.82-5.39-15.4-15.14-28.82-24.76-42-14.07-19.28-28.15-38.56-42.22-57.84-6.84-9.37-14.17-19.14-24.8-23.79-10.63-4.65-25.45-1.83-29.97,8.86"/>
      <path class="cls-39" d="M260.92,475.68c4.45-3.29,20.84-14.73,34.44-8.86,3.33,1.43,5.83,3.62,11.9,11.9,12.06,16.46,18.88,30.64,25.21,42.71,8.23,15.69,11.03,19.04,15.41,27.31,10.52,19.89,2.97,67.45,20.31,82.63,17.58,15.39,51.12-12.28,63.93.51,18.8,18.77-32.92,98.89-25.66,103.33,4.39,2.68,20.49-28.28,56.17-41.61,22.63-8.45,46.31-7.26,47.85-2.08,1.64,5.54-23.21,11.54-45.77,37.45-15.03,17.26-23.9,37.01-20.81,39.53,3.62,2.94,19.99-20.57,54.58-35.58,3.37-1.46,20.34-6.38,38.63-10.65,20.82-4.87,51.91-2.18,96.68,31.54-27.64,57.93-57.46,75.45-79.34,80.88-38.87,9.65-55.72-18.11-130.94-18.46-39.39-.18-52.67,6.75-67.92-4.9-9.93-7.58-11.45-15.58-35.08-77.69-12.05-31.66-12.82-28.87-16.46-43.1-6.54-25.55-14.45-50.74-23.69-75.44-12.48-33.37-27.58-66.7-29.27-102.28-.96-20.04,8.96-35.67,14.32-45.26"/>
      <path class="cls-39" d="M457.72,398.81c8.42,17.38,18.73,13.75,34.11,31.58,14.13,16.39,6.71,23.57,25.27,53.31,6.34,10.16,10.47,14.71,18.44,23.5,17.88,19.7,24.52,19.39,27.38,18.6,2.2-.61,3.54-1.85,5.39-3.7,7.74-7.72,10.46-19.41,9.56-30.31s-5.02-21.25-9.31-31.31c-9.51-22.27-20.34-44.37-36.39-62.5-16.23-18.34-37.1-31.85-57.75-45.01-2.74-1.75-5.55-3.52-8.69-4.36-1.17-.31-5.99-1.09-9.32,1.39-3.66,2.72-3.81,8.19-3.76,12.29.19,17.76.28,26.63,5.07,36.52Z"/>
    </g>
    <path class="cls-1" d="M671.05,692.19c-6.76,68.24-138.02,142.72-234.27,106.47-52.35-19.72-75.68-65.17-111.62-135.2-19.02-37.05-77.55-150.59-29.66-222.69,4.41-6.64,8.82-11.68,12.06-15.08,43.06-9.17,86.12-18.33,129.17-27.5,7.15-3.23,18.47-7.04,31.3-4.97,42.8,6.91,53.17,71.63,91.79,142.19,58.96,107.71,115.84,110.14,111.22,156.79Z"/>
  </g>
  <path class="cls-39" d="M455.81,582.41l-48.49,19.61c-.89.29-2.15.65-3.43.79-3.53.39-4.4-1.22-5.5-3.64-3.42-7.56-2.77-9.23-.42-10.99,1.1-.82,2.28-1.45,3.01-1.81l48.49-19.61c.87-.28,2.12-.63,3.43-.79,1.89-.24,4.77-.2,7.13,5.21,2.71,6.22-.06,8.56-1.21,9.42-1.06.79-2.2,1.41-3.01,1.81Z"/>
  <g>
    <path class="cls-24" d="M521.9,535.7l-126.7,51.24c-2.42.56-5.89,1.05-9.66.3-10.48-2.09-15.11-12.1-21.4-26.9-19.66-46.28-19.67-54.86-14.5-61.88,2.41-3.27,5.32-5.36,7.16-6.5l126.7-51.24c2.36-.5,5.82-.95,9.66-.3,5.57.93,14.54,4.59,28.35,37.65,15.86,37.98,10.1,47.72,7.55,51.13-2.33,3.14-5.12,5.22-7.16,6.5Z"/>
    <path class="cls-21" d="M523.58,538.96c-21.25,8.35-43.12,15.42-64.24,24.06-10.56,4.3-21.07,8.7-31.55,13.22-10.52,4.54-21,9.19-31.49,13.83-5.7,1.6-12.16,1.52-17.6-1.37-9.92-5.44-14.06-16.91-18.45-26.43-6.02-14.11-12.03-28.13-15.9-43.08-1.42-6.29-2.74-12.9,0-19.26,2.29-4.82,6.54-8.71,11.12-11.23,30.8-11.38,65.37-24.7,95.5-37.25.16-.03,31.54-13.28,31.68-13.31,2.77-.65,5.66-.97,8.59-.8,14.19.51,22.14,16.56,27.99,27.48,4.58,9.22,8.62,18.76,11.88,28.52,3.2,10.17,6.51,21.13,3.94,31.94-1.59,5.97-6.39,10.55-11.49,13.67h0ZM520.23,532.44c3.21-2.24,6.64-5.32,7.52-9.16,1.31-5.4.33-11.54-.78-17.01-1.27-5.89-3.17-12.05-5.24-17.72-4.88-12.68-14.23-38.44-26.25-44.48-3.58-1.46-7.6-1.44-11.43-.73,0,0,.45-.14.45-.14l-31.85,12.38c-30.35,11.86-64.54,26.46-94.55,39.61,0,0,.54-.28.54-.28-1.86,1.24-3.51,2.69-4.89,4.32-1.09,1.32-2.07,2.76-2.58,4.38-1.27,4.03.23,9.33,1.25,13.5,3.91,13.68,10.47,28.45,15.81,41.77,4.32,9.42,8.23,23.84,19.78,25.13,2.07.26,4.25.14,6.44-.29l-.49.16c21.36-7.8,42.72-15.74,63.81-24.25,21.11-8.44,41.48-18.44,62.46-27.18h0Z"/>
  </g>
  <g>
    <path class="cls-17" d="M509.24,529.69l-101.95,41.23c-1.95.45-4.74.84-7.78.24-8.43-1.68-12.16-9.73-17.22-21.65-15.82-37.24-15.83-44.14-11.67-49.79,1.94-2.63,4.28-4.31,5.76-5.23l101.95-41.23c1.9-.4,4.68-.76,7.78-.24,4.48.75,11.7,3.69,22.81,30.29,12.76,30.56,8.12,38.39,6.08,41.14-1.88,2.52-4.12,4.2-5.76,5.23Z"/>
    <path class="cls-21" d="M510.66,532.47c-17.11,6.71-34.73,12.33-51.73,19.29-14.99,6.03-36.01,15.36-51,21.91-16.74,4.36-23.46-9.64-28.94-22.51-4.86-11.36-9.69-22.65-12.79-34.69-2.79-11.08-1.46-18.63,9.08-24.72,24.8-9.12,52.62-19.81,76.87-29.92.14-.04,25.37-10.7,25.49-10.74,2.25-.53,4.59-.79,6.96-.65,7.16.11,12.62,5.76,16.31,11.27,5.87,8.73,10.04,18.25,13.82,27.98.57,1.45,1.62,4.4,2.1,5.88,2.58,8.39,5.26,16.62,3.18,25.79-1.29,4.85-5.19,8.58-9.33,11.1h0ZM507.82,526.92c2.53-1.78,5.27-4.23,5.96-7.27,1.24-5.28-.08-11.21-1.28-16.46-2.88-11.06-14.62-44.49-25.71-47.51-2.55-.72-5.32-.69-7.98-.18,0,0,.38-.12.38-.12l-25.63,9.94c-16.52,6.49-34.48,13.91-50.84,20.93,0,0-25.21,10.99-25.21,10.99,0,0,.46-.24.46-.24-2.44,1.66-4.6,3.77-5.76,6.43-.99,2.5-.42,5.69.17,8.48,1.08,4.73,2.74,9.33,4.45,13.96,2.28,6.56,6.38,15.82,8.96,22.38,4.67,10.72,7.91,22.08,20.46,20.05,15.25-5.68,36.55-13.34,51.37-19.45,16.99-6.79,33.34-14.9,50.21-21.94h0Z"/>
  </g>
  <path class="cls-39" d="M463.36,597.21l-48.49,19.61c-.89.29-2.15.65-3.43.79-3.53.39-4.4-1.22-5.5-3.64-3.42-7.56-2.77-9.23-.42-10.99,1.1-.82,2.28-1.45,3.01-1.81l48.49-19.61c.87-.28,2.12-.63,3.43-.79,1.89-.24,4.77-.2,7.13,5.21,2.71,6.22-.06,8.56-1.21,9.42-1.06.79-2.2,1.41-3.01,1.81Z"/>
  <path class="cls-39" d="M527.02,569.5l-48.49,19.61c-.89.29-2.15.65-3.43.79-3.53.39-4.4-1.22-5.5-3.64-3.42-7.56-2.77-9.23-.42-10.99,1.1-.82,2.28-1.45,3.01-1.81l48.49-19.61c.87-.28,2.12-.63,3.43-.79,1.89-.24,4.77-.2,7.13,5.21,2.71,6.22-.06,8.56-1.21,9.42-1.06.79-2.2,1.41-3.01,1.81Z"/>
  <g>
    <path class="cls-24" d="M515.74,555.26l-98.06,39.65c-1.78.65-4.28,1.51-6.72,2.12-6.77,1.7-7.84.17-9.03-2.21-3.74-7.43-1.93-9.57,3.12-12.43,2.35-1.33,4.8-2.47,6.3-3.14l98.06-39.65c1.73-.63,4.2-1.47,6.72-2.12,3.63-.94,9.04-1.93,11.54,3.43,2.88,6.15-3.15,9.81-5.63,11.21-2.27,1.28-4.63,2.39-6.3,3.14Z"/>
    <path class="cls-21" d="M516.25,556.46c-28.37,10.57-56.94,22.32-84.74,34.41-4.88,1.95-12.1,5.27-17.08,6.82-3.81.98-9.25,3.18-12.51-.08-1.71-2.2-2.39-4.24-3.18-6.88-1.12-4.11,1.13-7.05,4.6-8.92,2.75-1.57,5.51-2.89,8.4-4.04,22.8-8.7,45.44-17.74,67.95-27.13,0,0,16.9-7.01,16.9-7.01,4.93-1.97,12.02-5.24,17.09-6.75,4.52-1.48,10.82-2.8,14.14,1.74,6.43,9.43-4.25,14.66-11.57,17.85h0ZM515.23,554.06c4.31-2.23,12-4.79,11.82-10.34-.22-2.39-1.82-4.95-4.33-5.47-2.5-.6-5.45.22-8.31,1.03-2.45.66-6.12,2.05-8.52,3.02-31.03,12.16-62.58,24.59-93.16,37.75-2.73,1.19-5.45,2.59-7.94,4.12-1.2.77-2.37,1.61-2.89,2.56-1.21,2.38.28,4.96,1.31,7.25.61,1.15.88,1.93,2.12,2.17,4.03.3,8.55-1.59,12.4-2.91,7.59-3.08,22.02-8.58,29.82-11.56,22.86-8.47,45.3-17.99,67.69-27.6h0Z"/>
  </g>
  <g>
    <path class="cls-17" d="M467.81,593.35l-48.49,19.61c-.89.29-2.15.65-3.43.79-3.53.39-4.4-1.22-5.5-3.64-3.42-7.56-2.77-9.23-.42-10.99,1.1-.82,2.28-1.45,3.01-1.81l48.49-19.61c.87-.28,2.12-.63,3.43-.79,1.89-.24,4.77-.2,7.13,5.21,2.71,6.22-.06,8.56-1.21,9.42-1.06.79-2.2,1.41-3.01,1.81Z"/>
    <path class="cls-21" d="M468.19,594.19c-15.33,5.58-30.71,11.93-45.65,18.55-.26.09-2.58,1.09-2.84,1.19-2.41.74-4.99,1.56-7.48.37-1.83-1.01-2.4-2.88-3.16-4.54-.95-2.38-2.12-4.82-2.05-7.53.13-3.05,3.29-4.56,5.65-5.74,0,0,12.22-4.67,12.22-4.67,12.2-4.71,24.24-9.81,36.3-14.86,1.12-.38,2.27-.68,3.47-.86,5.44-1.13,8.64,4.93,9.39,9.48.74,4.41-2.19,6.92-5.85,8.61h0ZM467.43,592.51c1.66-.9,3.81-1.95,4.49-3.82,1.11-3.24-1.22-9-4.21-10.61-1.71-.89-4.35-.07-5.93.35-8.11,3.19-16.26,6.29-24.34,9.57-7.05,2.78-17.05,7.1-24.12,10.11-.96.52-2.81,1.58-3.65,2.58-.92,1.06-.61,2.44-.3,3.76.41,1.48,1.02,2.97,1.68,4.44.66,1.48,1.31,3,2.24,3.47,1.2.7,3.57.25,5.17-.22,2.28-.81,10.17-3.87,12.58-4.74,12.33-4.47,24.39-9.63,36.39-14.88h0Z"/>
  </g>
  <g>
    <path class="cls-19" d="M441.98,580.84l-11.62,4.7c-.22.05-.54.09-.89.02-.97-.21-1.4-1.16-2-2.56-1.86-4.39-1.87-5.2-1.4-5.85.22-.31.48-.5.65-.61l11.62-4.7c.22-.04.53-.08.89-.02.51.09,1.34.45,2.65,3.58,1.5,3.6.98,4.51.75,4.83-.21.29-.47.49-.65.61Z"/>
    <path class="cls-21" d="M442.4,581.65c-4.06,1.22-8.01,2.57-11.73,4.64-.64.22-1.41.25-2.15-.13-.67-.37-1.06-.91-1.34-1.37-1.01-1.86-1.66-3.47-2.2-5.5-.11-.52-.24-1.07-.06-1.88.3-.93.85-1.32,1.48-1.66,1.77-.57,4.23-1.38,5.93-2.05,1.96-.75,3.89-1.61,5.8-2.48.6-.14,1.27-.2,1.97.18.59.35.94.8,1.25,1.23,1.15,1.78,1.91,3.48,2.4,5.55.25.97.09,2.51-.89,3.16-.14.1-.31.24-.46.32h0ZM441.56,580.03s-.07.04-.02,0c.16-.13.38-.32.4-.51.13-1.12-.38-2.45-.79-3.59-.46-1.15-.93-2.52-1.8-3.31-.16-.14-.52-.2-.88-.15,0,0,.11-.03.11-.03-3.9,1.34-7.85,3.03-11.54,4.89,0,0,.14-.07.14-.07-.25.18-.45.5-.4.57.34,1.88,1.51,4.16,2.19,5.98.38.76.51.98,1.22.94,3.39-.86,7.89-2.86,11.38-4.72h0Z"/>
  </g>
  <g>
    <path class="cls-19" d="M462.93,572.32l-11.62,4.7c-.22.05-.54.09-.89.02-.97-.21-1.4-1.16-2-2.56-1.86-4.39-1.87-5.2-1.4-5.85.22-.31.48-.5.65-.61l11.62-4.7c.22-.04.53-.08.89-.02.51.09,1.34.45,2.65,3.58,1.5,3.6.98,4.51.75,4.83-.21.29-.47.49-.65.61Z"/>
    <path class="cls-21" d="M463.35,573.13c-4.06,1.22-8.01,2.57-11.73,4.64-.64.22-1.41.25-2.15-.13-.67-.37-1.06-.91-1.34-1.37-1-1.86-1.66-3.47-2.2-5.5-.11-.52-.24-1.07-.06-1.88.3-.93.85-1.32,1.48-1.66,1.77-.57,4.23-1.38,5.93-2.05,1.97-.75,3.89-1.61,5.8-2.48.6-.14,1.27-.2,1.97.18.59.35.94.8,1.25,1.23,1.15,1.78,1.91,3.48,2.4,5.55.25.97.09,2.51-.89,3.16-.14.1-.31.24-.46.32h0ZM462.52,571.51s-.07.04-.02,0c.16-.13.38-.32.4-.51.13-1.12-.38-2.45-.79-3.59-.46-1.15-.93-2.52-1.8-3.31-.16-.14-.52-.2-.88-.15l.11-.03c-3.9,1.34-7.85,3.03-11.54,4.89,0,0,.14-.07.14-.07-.25.18-.45.5-.4.57.34,1.88,1.51,4.16,2.19,5.98.38.76.51.98,1.22.94,3.39-.86,7.89-2.86,11.38-4.72h0Z"/>
  </g>
  <g>
    <path class="cls-19" d="M483.89,563.86l-11.62,4.7c-.22.05-.54.09-.89.02-.97-.21-1.4-1.16-2-2.56-1.86-4.39-1.87-5.2-1.4-5.85.22-.31.48-.5.65-.61l11.62-4.7c.22-.04.53-.08.89-.02.51.09,1.34.45,2.65,3.58,1.5,3.6.98,4.51.75,4.83-.21.29-.47.49-.65.61Z"/>
    <path class="cls-21" d="M484.3,564.67c-4.06,1.22-8.01,2.57-11.73,4.64-.64.22-1.41.25-2.15-.13-.67-.37-1.06-.91-1.34-1.37-1.01-1.86-1.66-3.47-2.2-5.5-.11-.52-.24-1.07-.06-1.88.3-.93.85-1.32,1.48-1.66,1.77-.57,4.23-1.38,5.93-2.05,1.97-.75,3.89-1.61,5.8-2.48.61-.14,1.27-.2,1.97.18.59.35.94.8,1.25,1.23,1.15,1.78,1.91,3.48,2.4,5.55.25.97.09,2.51-.89,3.16-.14.1-.31.24-.46.32h0ZM483.47,563.05s-.07.04-.02,0c.16-.12.38-.32.4-.51.13-1.13-.38-2.45-.79-3.59-.46-1.15-.93-2.52-1.8-3.31-.16-.14-.52-.2-.88-.15l.11-.03c-3.9,1.34-7.85,3.03-11.54,4.89,0,0,.14-.07.14-.07-.25.18-.45.5-.4.57.34,1.88,1.51,4.16,2.19,5.98.38.76.51.98,1.22.94,3.39-.86,7.89-2.86,11.38-4.72h0Z"/>
  </g>
  <g>
    <path class="cls-19" d="M504.84,555.23l-11.62,4.7c-.22.05-.54.09-.89.02-.97-.21-1.4-1.16-2-2.56-1.86-4.39-1.87-5.2-1.4-5.85.22-.31.48-.5.65-.61l11.62-4.7c.22-.04.53-.08.89-.02.51.09,1.34.45,2.65,3.58,1.5,3.6.98,4.51.75,4.83-.21.29-.47.49-.65.61Z"/>
    <path class="cls-21" d="M505.26,556.04c-4.06,1.22-8.01,2.57-11.73,4.64-.64.22-1.41.25-2.15-.13-.67-.37-1.06-.91-1.34-1.37-1.01-1.86-1.66-3.47-2.2-5.5-.11-.52-.24-1.07-.06-1.88.3-.93.85-1.32,1.48-1.66,1.77-.57,4.23-1.38,5.93-2.05,1.97-.75,3.89-1.61,5.8-2.48.61-.14,1.27-.2,1.97.18.59.35.94.8,1.25,1.23,1.15,1.78,1.91,3.48,2.4,5.55.25.97.09,2.51-.89,3.16-.14.1-.31.24-.46.32h0ZM504.42,554.42s-.07.04-.02,0c.16-.12.38-.32.4-.51.13-1.12-.38-2.45-.79-3.59-.46-1.15-.93-2.52-1.8-3.31-.16-.14-.52-.2-.88-.15l.11-.03c-3.9,1.34-7.85,3.03-11.54,4.89,0,0,.14-.07.14-.07-.25.18-.45.5-.4.57.34,1.88,1.51,4.16,2.19,5.98.38.76.51.98,1.22.94,3.39-.86,7.89-2.86,11.38-4.72h0Z"/>
  </g>
  <g>
    <path class="cls-17" d="M532.97,567.17l-48.49,19.61c-.89.29-2.15.65-3.43.79-3.53.39-4.4-1.22-5.5-3.64-3.42-7.56-2.77-9.23-.42-10.99,1.1-.82,2.28-1.45,3.01-1.81l48.49-19.61c.87-.28,2.12-.63,3.43-.79,1.89-.24,4.77-.2,7.13,5.21,2.71,6.22-.06,8.56-1.21,9.42-1.06.79-2.2,1.41-3.01,1.81Z"/>
    <path class="cls-21" d="M533.35,568.01c-15.33,5.58-30.71,11.93-45.65,18.55-.26.09-2.58,1.09-2.84,1.19-2.41.74-4.99,1.56-7.48.37-1.83-1.01-2.4-2.88-3.16-4.54-.95-2.38-2.12-4.82-2.05-7.53.13-3.05,3.29-4.56,5.65-5.74,0,0,12.22-4.67,12.22-4.67,12.2-4.71,24.24-9.81,36.3-14.86,1.12-.38,2.27-.68,3.47-.86,5.44-1.13,8.64,4.93,9.39,9.48.74,4.41-2.19,6.92-5.85,8.61h0ZM532.6,566.33c1.66-.9,3.81-1.95,4.49-3.82,1.11-3.24-1.22-9-4.21-10.61-1.71-.89-4.35-.07-5.93.35-8.11,3.19-16.26,6.29-24.34,9.57-7.05,2.78-17.05,7.1-24.12,10.11-.96.52-2.81,1.58-3.65,2.58-.92,1.06-.61,2.44-.3,3.76.41,1.48,1.02,2.97,1.68,4.44.66,1.48,1.31,3,2.24,3.47,1.2.7,3.57.25,5.17-.22,2.28-.81,10.17-3.87,12.59-4.74,12.33-4.47,24.39-9.63,36.39-14.88h0Z"/>
  </g>
  <g>
    <path class="cls-22" d="M309.39,543.86c-8.62,10.21-17.61,21.44-24.48,35.53-13.05,26.77-21.84,70.89,5.59,143.9-.69.21-1.37.42-2.06.62,7.89,5.13,13.56,10.46,15.89,12.64,4.29,4.02,18,16.92,16.23,29.26-.89,6.18-4.64,9.68-4.64,9.68-4.53,4.21-10.44,3.4-11.16,3.29-13-2.01-20.16-25.57-21.58-24.88-.91.44.59,10.62,7.14,23.58,12.66,25.11,30.09,32.55,28.08,44.78-.09.47-.83,4.7-3.98,7.27-6.05,4.93-16.07-.19-17.99-1.16-16.48-8.42-22.85-30.14-23.48-29.78-.42.23,2.26,9.56,9,22.18,6.82,12.74,12.19,18.39,10.44,24.84-.76,2.76-2.65,5.13-4.92,6.19-8.29,3.86-20.69-10.15-22.69-12.49-15.07-17.51-16.91-41.03-17.45-41.03-.3.09.46,7.44,3.79,17.2.96,2.84,2.27,6.21,9.93,22.51,4.75,10.1,6.31,13.19,5.4,17.21-.8,3.51-3.42,7.41-6.99,8.39-8.28,2.26-19.5-11.81-25.2-23.6-6.83-14.16-7.54-28.84-8.45-28.71-.41.05-.11,2.77-.34,8.18-.35,8.13-.66,13.8-3.76,15.93-1.85,1.26-4.05.81-4.81.65-9.12-1.87-22.22-31.2-20.14-59.38.18-2.38,1.22-14.22,6.46-27.19-1.47.44-2.95.89-4.42,1.33-7.06-12.82-48.85-91.74-17.22-186.27,29.44-87.97,101.31-126.24,115.68-133.53"/>
    <g class="cls-26">
      <path class="cls-24" d="M211.61,741.51c7.59-3.24,15.89-6.4,24.89-9.32,14.38-4.66,27.83-7.79,39.89-9.92,1.99-.08,4.65-.08,7.77.2.52.05,4.74.44,8.25,1.32,0,0,7.11,1.79,14.33,7.51,7.99,6.33,33.09,43.61,19.96,86.66-1.92,6.28-16.91,55.42-53.31,56.13-21.8.42-43.51-16.68-53.62-42.61,0,0,3.52,7.12,1.56,9.36-.67.76-1.52.99-1.52.99-.85.22-1.74-.08-2.54-.43-7.91-3.47-12.53-11.82-15.17-20.04-2.67-8.32-3.91-17.05-4.64-25.76-.65-7.72-1.12-11.57-.81-16.91.31-5.27,1.16-15.73,7.44-26.85,2.6-4.6,5.42-8.04,7.53-10.33Z"/>
      <path class="cls-39" d="M265.09,449.63c2.47,3.3,6.37,8.47,11.21,14.76,27.41,35.64,33.5,40.22,36.16,53.28,2.74,13.44-.32,25.19-1.96,31.49-3.43,13.18-9.4,22.73-13.5,28.28,12.6-13.37,25.27-27.97,29.17-45.92,2.5-11.52,1.13-23.65-2.59-34.83-3.73-11.18-9.74-21.48-16.53-31.11-4.19-5.95-8.78-11.75-14.64-16.06-9.05-6.66-18.97-7.63-24.54-7.89"/>
      <path class="cls-39" d="M274.04,616.7c-.25-1.32-2.61-12.65-12.05-16.34-7.77-3.03-16.62.57-16.56,1.87.04,1.01,5.41.41,12.24,3.56,4.74,2.19,8.07,5.21,10.22,7.55-2.04.22-4.09-.23-6.14-.28-1.13-.03-6.23.52-12.5,4.14-4.67,2.7-10.63,7.54-9.85,8.96.87,1.59,8.81-3.35,19.92-3.49,8.05-.1,14.77,2.35,19.49,4.68-2.04-4.08-4.09-8.17-6.13-12.25"/>
      <path class="cls-43" d="M211.61,741.51c7.59-3.24,15.89-6.4,24.89-9.32,14.38-4.66,27.83-7.79,39.89-9.92,3.72-.17,7.72-.26,7.77.2.06.5-5.75,1.15-11.52,2.85-8.17,2.4-13.65,6.12-18.53,9.44-6.59,4.48-21.39,14.8-30.97,34.51-4.88,10.05-6.53,18.67-7.09,22.05-2.97,18.03,1.07,32.71,3.71,40.17,0,0,3.52,7.12,1.56,9.36-.67.76-1.52.99-1.52.99-.85.22-1.74-.08-2.54-.43-7.91-3.47-12.53-11.82-15.17-20.04-2.67-8.32-3.91-17.05-4.64-25.76-.65-7.72-1.12-11.57-.81-16.91.31-5.27,1.16-15.73,7.44-26.85,2.6-4.6,5.42-8.04,7.53-10.33Z"/>
      <path class="cls-39" d="M312.02,444.33c-18.44,7.96-32.9,22.99-45.17,38.89-12.27,15.9-22.96,33.1-36.71,47.74-6.05,6.44-12.77,12.49-16.96,20.28-5.26,9.79-5.98,21.27-7.81,32.23-1.11,6.62-2.65,13.13-4.41,19.6-11.12,40.91-15.02,40.12-14.83,54.65.22,16.72,7.56,13.24,16.72,48.93,5.28,20.57,5.13,26.66,11.59,29.51,2.03.9,3.71.88,29.16-6.41,1.69-.49,7.93-2.1,20.41-5.32,5.63-1.45,10.44-2.66,16.87-2.46,4.02.12,7.34.76,9.62,1.31-.69.21-1.37.42-2.06.62-45.47,15.02-66.17,25.97-76.59,33.39-2.65,1.88-10.29,8.49-21.79,9.41-8.2.65-16.62.16-24.35-2.65-21.75-7.89-33.21-31.74-38.41-54.29-14.62-63.31,3.03-130.22,32.22-188.26,9.41-18.72,20.31-37.19,36.11-50.95,17.57-15.3,40.82-23.93,64.12-23.81,2.79.02,5.64.14,8.3-.69,5.19-1.62,8.56-6.45,12.21-10.48,4.73-5.22,11.3-9.7,18.29-8.82,6.98.88,8.3,13.71,8.5,15.3"/>
    </g>
  </g>
  <path class="cls-6" d="M297.24,431l1.39,13.99c19.29,4.16,55.54,9.33,99.12-.83,43.14-10.07,73.15-30.43,88.62-42.61-2.48-4.72-4.96-9.43-7.44-14.15-16.77,11.86-44.2,28.2-81.36,37.98-42.62,11.21-78.89,8.74-100.32,5.63Z"/>
  <path class="cls-37" d="M347.93,433.42c13.74,4.19,27.47,8.38,41.21,12.57,0,0-68.22,7.61-90.51-1l-1.19-12.03c16.83.15,33.66.31,50.49.46Z"/>
  <path class="cls-11" d="M297.24,431l1.39,13.99c19.29,4.16,55.54,9.33,99.12-.83,43.14-10.07,73.15-30.43,88.62-42.61-2.48-4.72-4.96-9.43-7.44-14.15-16.77,11.86-44.2,28.2-81.36,37.98-42.62,11.21-78.89,8.74-100.32,5.63Z"/>
  <g>
    <path class="cls-16" d="M364.79,735.45c24.29-4.98,42.63-103.54,14.72-186.48-8.51-25.3-28.29-69.8-77.7-112.63-.79-1.42-5.78-10.11-15.61-11.8-9.2-1.58-19.93,3.45-22.13,11.14-1.26,4.39-.14,11.06,3.68,12.25,3.52,1.1,7.48-3.03,7.82-3.39,17.39,14.07,58.68,51.37,79.32,115.28,23.79,73.64,5.09,135.96-1.94,156.22-1.93,1.82-7.94,7.83-6.36,12.75,1.82,5.64,12.98,7.72,18.19,6.66Z"/>
    <g class="cls-31">
      <path class="cls-40" d="M261.08,445.69c-.71-2.83-2.93-11.61,2.01-17.39,5.76-6.75,17.13-4.61,18.74-4.28,13.86,2.81,21.99,16.56,25.7,23.02,38.23,66.68,57.35,100.02,65.15,136.39,7.62,35.49,7.64,62.66,7.55,70.7-.33,29.61-4.94,54.43-9.66,72.66-3.42,2.78-11.66,8.69-19.61,6.49-15.73-4.36-15.98-36.59-15.97-38.01.04-17.62,8.49-28.15,11.58-39.29,8.72-31.45,8.06-65.44-1.88-96.53,0,0-15.4-46.81-54.48-79.71-3.96-3.33-6.01-5.33-10.1-9.32-16.57-16.16-18.46-22.49-19.02-24.72Z"/>
    </g>
    <path class="cls-9" d="M364.79,735.45c24.29-4.98,42.63-103.54,14.72-186.48-8.51-25.3-28.29-69.8-77.7-112.63-.79-1.42-5.78-10.11-15.61-11.8-9.2-1.58-19.93,3.45-22.13,11.14-1.26,4.39-.14,11.06,3.68,12.25,3.52,1.1,7.48-3.03,7.82-3.39,17.39,14.07,58.68,51.37,79.32,115.28,23.79,73.64,5.09,135.96-1.94,156.22-1.93,1.82-7.94,7.83-6.36,12.75,1.82,5.64,12.98,7.72,18.19,6.66Z"/>
  </g>
  <g>
    <path class="cls-17" d="M548.48,513.33c-.37-16.12-2.83-36.12-10.44-57.74-23.27-66.06-77.8-99.22-96.95-109.69l-25.23,12.4c22.14,11.06,60.79,34.17,93.23,77.74,21.55,28.95,33.06,57.13,39.4,77.28Z"/>
    <path class="cls-21" d="M548.11,511.09c-.39-.52-1.1-.84-1.58-.77-.27,0-.49.18-.56.04,0,0-.02-.19-.02-.19,0,0-.31-3.21-.31-3.21-4.48-49.35-27.82-95.08-64.46-128.32-12.56-11.61-26.43-21.85-41.18-30.74,0,0,2.09.05,2.09.05,0,0-25.23,12.4-25.23,12.4v-4.07c31.53,15.77,59.97,37.73,82.89,64.52,21.53,25.07,38.17,54.32,48.83,85.59,0,0,.53,1.56.53,1.56s.27.78.27.78c.05.15.06.22.04.31-.03.17-.28.29-.6.63-.31.33-.59.86-.71,1.43h0ZM548.85,515.57c-1.53-1.32-3.27-3.33-3.79-5.42-.16-.46-.62-1.82-.79-2.31-7.69-22.54-18.52-44-32.1-63.56-9.88-14.17-21.22-27.48-33.76-39.36-18.8-17.94-40.36-32.94-63.58-44.59-1.12-.56-1.58-1.93-1.02-3.05.23-.46.6-.81,1.03-1.02,0,0,25.23-12.4,25.23-12.4.69-.34,1.47-.3,2.1.05,15.76,7.79,30.52,17.68,43.9,29.22,38.82,32.95,64.36,82.21,64.72,133.54,0,0,0,3.31,0,3.31,0,0,0,.59,0,.59,0,.26-.02.52-.05.8-.03,1.43-1.26,3.4-1.9,4.21h0Z"/>
  </g>
  <g>
    <g>
      <path class="cls-20" d="M719.62,661.89c35.17,13.49,59.48,23.44,75.58,30.22,7.12,3,10.43,4.51,17.2,7.17,16.88,6.64,34.08,12.53,50.69,19.83,12.25,5.38,16.62,7.6,23.45,7.03,17.83-1.49,27.09-19.82,52.02-62.36,36.66-62.54,47.46-75.51,41.1-93.23-3.55-9.89-12.45-21.28-25.01-24.97-11.82-3.47-22.41,1.19-31.39,5.29-25.28,11.55-40.33,31.95-48.23,45.38-27.78-10.88-49.83-21.19-64.72-28.52-22.56-11.11-38.97-20.21-42.43-22.11-16.09,38.75-32.18,77.51-48.26,116.26Z"/>
      <g class="cls-30">
        <path class="cls-38" d="M745.08,603.3c19.27,19.7,48.49,48.36,83.51,78.03,20.92,17.72,35.5,28.68,55.25,29.52,10.37.44,15.98-2.16,24.61,1.37,16.36,6.7,28.53,29.31,25.52,45.71-6.28,34.23-81.32,58.29-141.28,42.46-27.83-7.35-53.91-25.79-64.58-52.53-4.65-11.65-6.23-24.27-7.4-36.75-1.04-11.07-1.78-22.16-2.24-33.27-.34-8.15-.51-16.38.89-24.42.51-2.96,1.85-10.05,5.19-18.5,5.55-14.05,13.68-24.51,20.54-31.62Z"/>
      </g>
    </g>
    <g>
      <path class="cls-18" d="M881.74,587.49c3.06,20.37,13.08,37.26,20.51,48.8,7.26,11.27,17.23,25.52,30.4,41.16,4.5-7.91,8.99-15.82,13.49-23.73-10.92-12.66-19.01-24.21-24.74-33.16-16.29-25.46-18.38-37.57-18.99-42.1-1.19-8.79-.54-16.25.27-21.38-.65-1.41-1.45-2.1-2.21-2.44-4.41-1.95-13.44,6.51-17.12,15.51-2.9,7.08-2.15,13.68-1.6,17.33Z"/>
      <path class="cls-7" d="M881.74,587.49c3.06,20.37,13.08,37.26,20.51,48.8,7.26,11.27,17.23,25.52,30.4,41.16,4.5-7.91,8.99-15.82,13.49-23.73-10.92-12.66-19.01-24.21-24.74-33.16-16.29-25.46-18.38-37.57-18.99-42.1-1.19-8.79-.54-16.25.27-21.38-.65-1.41-1.45-2.1-2.21-2.44-4.41-1.95-13.44,6.51-17.12,15.51-2.9,7.08-2.15,13.68-1.6,17.33Z"/>
    </g>
    <g>
      <rect class="cls-18" x="689.18" y="594.31" width="138.55" height="29" rx="4.73" ry="4.73" transform="translate(-99.27 1067.29) rotate(-66.88)"/>
      <g class="cls-29">
        <path class="cls-41" d="M742.75,599.93c9.16,9.58,18.33,19.16,27.49,28.73,1.64-.35,12.6-2.54,17.89,3.64,2.71,3.17,2.68,7.29,2.66,10.88-.11,18.93-12.07,35.52-23.94,50.27-5.57,6.92-11.38,13.89-18.95,18.54-3.42,2.1-7.3,3.72-11.32,3.63-4.8-.1-9.19-2.6-13.2-5.23-5.6-3.68-11-7.85-15.1-13.16-3.89-5.04-6.49-10.95-8.68-16.92-1.99-5.44-3.7-11.19-3.02-16.94.86-7.3,4.46-12.46,6.81-15.64,14.05-19.08,36.88-44.99,39.36-47.8Z"/>
      </g>
    </g>
  </g>
  <path class="cls-36" d="M496.8,493.78c-4.37-6.15-7.99-13.07-11.92-19.33-1.04-1.47-1.52-2.37-2.91-2.99-3.01-1.05-9.1.02-12.79.41-4.96.67-9.95,1.67-15.23,2.68-1,.23-1.67-1.15-.89-1.8,7.2-6.67,25.52-15.54,34.96-9.91,7.93,4.51,12.76,20.93,12.97,29.55.08,2.23-2.95,3.21-4.19,1.38h0Z"/>
  <path class="cls-36" d="M445.74,479.59c3.33,0,3.33-5.17,0-5.17s-3.33,5.17,0,5.17h0Z"/>
  <path class="cls-21" d="M802.22,555.36c-5.62,12.79-11.68,25.38-17.48,38.09-10.22,22.03-22.97,54.55-32.12,77.4,0,0-.98,2.43-.98,2.43,0,0-.49,1.21-.49,1.21l-.24.61c-1.18,3.02-4.68,4.81-7.85,3.96-1.53-.45-3.71-1.49-5.23-2.07-5.94-2.47-12.2-5.1-18.04-7.77-3.35-1.34-5.09-5.6-3.55-8.88,6.16-13.52,20.13-44.14,25.72-57.35,8.63-20.16,17.56-42.09,25.8-62.3,1.35-3.46,5.67-4.9,8.93-3.17.76.29,2.85,1.18,3.64,1.48,3.08,1.26,11.38,4.59,14.58,5.86.78.3,2.88,1.18,3.64,1.47,3.43,1.32,5.24,5.64,3.69,9.02h0ZM797.2,553.22c.27-.71-.07-1.56-.81-1.85,0,0-1.19-.54-1.19-.54,0,0-2.39-1.07-2.39-1.07l-9.54-4.34c-1.57-.7-5.65-2.53-7.17-3.21-.53-.23-1.56-.72-2.09-.91-.74-.25-1.7.09-2.13.78-17.43,38.13-35.59,81.01-50.95,120.26-.29.8.12,1.72.95,1.99,0,0,1.21.49,1.21.49l2.43.99c5.52,2.35,13.34,5.6,18.88,8.13.68.22,1.52-.15,1.83-.84.16-.36.64-1.41.81-1.79,10.58-23.52,25.52-55.37,34.76-79.12,5.17-12.98,10.07-26.07,15.42-38.97h0Z"/>
  <path class="cls-21" d="M310.7,544.96c-7.14,9.52-14.14,18.94-19.67,29.4-5.52,10.23-9.5,21.27-11.88,32.66-7.77,37.91-.84,80.65,12.4,116.79,0,0-.8.25-.8.25,0,0-2.06.63-2.06.63,0,0,.21-1.45.21-1.45,12.51,8.45,32.49,22.87,33.19,39.21.25,5.2-1.59,10.68-5.16,14.53-3.55,3.52-9,4.88-13.81,3.65-11.25-3.49-15.59-15.84-20.38-25.3-.21-.36-.27-.32.02-.16.04.02.29.12.44.11.21.04.57-.08.69-.17.15-.07.3-.24.36-.33.16-.24.1-.24.1-.2-.16,2.76.67,5.67,1.32,8.39,2.13,7.71,5.56,15.11,9.89,21.85,4.38,6.81,9.94,12.6,15.55,18.44,2.87,3.1,5.74,6.12,7.81,9.95,5.21,8.83-.52,21.74-11.61,20.91-9.03-.63-16.78-5.6-22.49-12.1-5.49-6.33-9-14.02-11.97-21.69-.13-.32-.32-.79-.47-1.08,0-.01-.01-.02.02.01,0-.02.06.12.36.21.89.12.98-.43,1.06-.58,1.37,6.62,4.92,14.07,8.4,20.34,1.99,3.51,4.09,6.94,6.24,10.38,3.17,5.29,7.59,11.7,4.7,18.11-5.88,13.09-21.35,3.32-28.1-3.76-9-9.13-13.68-21.25-16.25-33.47-.89-3.89-1.45-7.85-2.13-11.78.12-.04-.24.13.66.38,0,0,.23-.03.23-.03.4-.11.54-.57.49-.45.01-.02.02-.1.02-.07,0,1.95,1.27,3.65,1.75,5.49.74,3.26,1.51,6.51,2.46,9.73,3.08,10.42,7.85,20.27,12.49,30.1,1.11,2.51,2.42,4.97,2.9,7.95.72,5.93-3.41,13.07-9.79,13.5-10.08.06-20.45-14.28-24.65-22.45-5.22-9.57-5.31-20.71-7.96-30.97-.01-.04-.06-.08.03.04.01.01.07.08.19.14.06.04.34.11.48.07.17.01.43-.2.5-.32.1-.21.02.03.03.14,0,2.33.23,5.78.27,8.17-.13,5.61,1.42,13.54-3.77,17.55-3.28,2.27-7.84,1.6-10.88-.67-10.8-8.56-14.54-26.05-16.31-38.98-.99-8.3-1.57-16.71-.7-25.06.92-8.37,2.74-16.55,5.6-24.51,0,0,3.3,3.62,3.3,3.62l-4.37,1.49s-2.09.71-2.09.71c-4.57-7.43-8.67-15.15-12.31-23.07-37.84-79.78-21.38-179.09,36.71-244.82,20.73-23.78,45.92-43.63,74.11-57.81,0,0,2.45,4.83,2.45,4.83-54.17,28.53-97.19,78.76-114.41,137.75-13.54,43.97-10.91,91.27,1.24,135.25,4.09,14.72,9.18,29.29,16,42.99,0,0-3.35-1.37-3.35-1.37,2.42-.65,7.58-1.97,10.04-2.62-7.8,15.96-11.94,34.32-8.27,51.97,2.12,10.27,6.06,20.5,11.51,29.31,1.68,2.45,3.46,5.2,6.13,6.45,2.05.67,3.41.44,4.42-1.72,1.53-3.48,1.84-7.54,2.35-11.42.37-2.79.42-5.34.61-8.21.05-.23,0-.34.23-.86.09-.2.42-.46.68-.49.76-.08,1.02.43,1.17.79.66,2.41.83,4.79,1.41,7.19,2.93,12.56,13.02,33.25,23.06,41.18,2,1.55,4.3,2.74,6.51,2.77,4.59-.05,8.26-5.96,7.8-10.33-.28-2.45-1.39-5-2.45-7.47-2.22-4.96-4.58-9.91-6.99-14.81-3.7-7.28-7.63-14.84-9.38-23-.79-2.42-.35-4.92-.28-7.4,0-.35-.02-.73.02-1.07,0-.02.02-.13.04-.19-.05.07.12-.42.55-.56,0,0,.16-.05.16-.05,0,0,.06.02.06.02.96.29.62.47.78.54l.06.16c.51,1.88.86,3.93,1.35,5.82,3.4,13.32,10.34,26.01,19.73,35.87,5.04,5.31,15.7,17.18,21.32,6.65,2.51-5.5-1.76-10.91-4.27-15.69-4.08-7.02-7.69-14.4-10.78-21.94-1.28-3.34-2.91-6.64-3.5-10.2.05-.39.15-1.15,1.22-1,.36.12.47.31.5.33.4.52.54.93.83,1.47,6.31,13.43,17.15,28.06,32.88,29.61,5.33.48,8.75-4.09,8.8-9.07-.28-5.63-4.55-9.83-7.99-14.36-10.36-12.61-19.6-26.48-24.72-42.12-.92-3.09-2.03-6.15-1.89-9.48.04-.21.05-.46.34-.92.35-.6,1.36-.88,1.98-.51,1.09.67,1.39,1.63,1.97,2.54,3.73,6.84,7.45,14.23,13.57,18.95,4.42,3.57,11.19,3.47,15.5-.21,4.58-4.58,5.31-10.94,2.87-16.8-2.71-6.32-6.99-11.82-11.68-16.81-5.9-6.27-12.33-12.1-19.64-16.71.92-.29,2.8-.82,3.72-1.11,0,0-.51,1.04-.51,1.04-8.41-22.45-16.21-45.51-19.38-69.45-3.66-28.23.5-58.08,15.33-82.77,6.22-10.42,14.08-19.88,22.38-28.59,0,0,2.6,2.2,2.6,2.2h0Z"/>
  <path class="cls-42" d="M759.95,814.37c24.58-31.19,44.54-66.12,55.59-104.43,11.37-39.39,13.08-81.54,2.24-121.23-8.85-32.42-25.29-61.89-40.83-91.45-16.92-32.19-31.86-65.18-39.06-101.04-4.52-22.51-6.04-45.39-5-68.29,1.14-25.16,4.61-49.91,10.8-74.36,7.93-31.3,20.44-61.74,39.84-87.74,21.2-28.41,50.57-48.42,84.03-59.7,35.63-12.01,76.42-15.98,112.2-2.36,18.52,7.05,34.9,19.51,46.27,35.78,11.12,15.91,17.55,34.5,20.57,53.58.98,6.17,1.52,12.41,1.78,18.66s10.13,6.36,9.87,0c-1.55-37.27-14.55-75.6-44.43-99.63-31.44-25.3-73.27-30.22-112.12-24.44-36.72,5.46-72.97,20.35-101,45-26,22.86-44.13,53.23-56.27,85.38-10.46,27.7-16.53,56.94-19.63,86.34-1.62,15.36-2.56,30.92-2.02,46.37,1.43,40.87,11.76,80.09,28.65,117.21,14.15,31.09,32.32,60.22,45.73,91.66,6.63,15.54,11.85,31.73,14.93,48.36,3.52,18.99,3.97,38.45,2.06,57.65-4.4,44.16-22.12,85.9-46.97,122.34-4.51,6.62-9.25,13.07-14.21,19.36-1.66,2.11-2.02,4.91,0,6.98,1.7,1.73,5.33,2.09,6.98,0h0Z"/>
  <path class="cls-42" d="M518.7,286.05c16.72,6.71,31.49,17.65,42.01,32.36,9.62,13.46,15.79,28.99,18.98,45.18,7.12,36.13-2.4,72.87-18.99,105.07-18.41,35.73-44.59,66.89-71.39,96.57-27.96,30.97-57.42,60.61-83.81,92.98-24.36,29.88-45.94,62.26-60.6,98.05-13.5,32.93-21.51,70.26-15.96,105.82,5.14,32.91,24.46,61.24,52.81,78.47,24.86,15.1,54.13,21.75,82.86,24.01,27.03,2.13,54.58.37,81.15-5.03,34.26-6.95,66.77-21.59,95.16-41.91,5.65-4.04,11.15-8.3,16.5-12.73,4.9-4.05-2.12-11-6.98-6.98-25.2,20.87-54.3,37.14-85.65,46.65-26.82,8.13-55.11,11.4-83.08,10.94-28.05-.46-57.02-4.78-82.59-16.83-28.36-13.37-49.95-36.49-58.14-67.2-8.99-33.73-2-70.96,9.76-103.11,13.1-35.8,34.09-68.53,57.76-98.23,25.67-32.22,54.65-61.59,82.4-91.99,26.99-29.57,53.62-60.38,73.39-95.38,18.07-31.98,30.39-68.56,27.18-105.69-2.87-33.28-17.18-65.91-44.31-86.37-7.91-5.96-16.66-10.49-25.83-14.17-2.49-1-5.39,1.09-6.07,3.45-.8,2.8.99,5.08,3.45,6.07h0Z"/>
  <g>
    <path class="cls-21" d="M358.4,144.58c-83.11,0-145.27,72.38-147.01,147.01-1.32,56.53,32.12,110.58,85.84,139.42,29.73,4.05,54.56,2.39,71.86,0,41.26-5.71,70.57-20.27,80.8-25.64,12.4-6.5,22.19-13.03,29.02-17.97,10.11-15.55,29.75-50.79,26.49-95.81-4.9-67.56-60.62-147-147.01-147.01Z"/>
    <path class="cls-21" d="M358.4,146.29c-85.34-.89-153.1,83.53-141.99,166.34,6.74,51.08,39.97,92.11,81.1,116.38,62.49,9.44,129.01-5.86,179.71-43.96,0,0-.74.77-.73.76,6.95-11.57,12.71-23.8,16.98-36.48,32.28-88.98-36.92-203.93-135.08-203.05h0ZM358.4,142.87c57.63-.54,107.51,36.29,133.11,86.53,27.51,52.95,24.01,111.27-10.5,160.06-39.68,27.96-87.56,43.43-135.95,45.43-16.24.59-32.71.24-48.77-2.12-45.82-22.78-80.88-67.9-87.54-119.13-11.99-87.22,61.4-171.63,149.65-170.77h0Z"/>
  </g>
  <g>
    <path class="cls-23" d="M358.4,144.58c-83.11,0-145.27,72.38-147.01,147.01-1.32,56.53,32.12,110.58,85.84,139.42,29.73,4.05,54.56,2.39,71.86,0,41.26-5.71,70.57-20.27,80.8-25.64,12.4-6.5,22.19-13.03,29.02-17.97,10.11-15.55,29.75-50.79,26.49-95.81-4.9-67.56-60.62-147-147.01-147.01Z"/>
    <path class="cls-21" d="M358.4,146.29c-85.34-.89-153.1,83.53-141.99,166.34,6.74,51.08,39.97,92.11,81.1,116.38,62.49,9.44,129.01-5.86,179.71-43.96,0,0-.74.77-.73.76,6.95-11.57,12.71-23.8,16.98-36.48,32.28-88.98-36.92-203.93-135.08-203.05h0ZM358.4,142.87c57.63-.54,107.51,36.29,133.11,86.53,27.51,52.95,24.01,111.27-10.5,160.06-39.68,27.96-87.56,43.43-135.95,45.43-16.24.59-32.71.24-48.77-2.12-45.82-22.78-80.88-67.9-87.54-119.13-11.99-87.22,61.4-171.63,149.65-170.77h0Z"/>
  </g>
  <path class="cls-39" d="M349.4,144.88c-.54,9.22-2.79,22.27-11.57,33.51-18.17,23.28-44.05,12.89-68.05,34.24-20.21,17.97-30.31,50.63-21.13,72.7,7.26,17.48,20.37,13.32,33.82,33.5,17.34,26.02,4.16,45.86,17.75,73.02,6.02,12.04,18.72,28.34,49.19,41.11,0,0-18.13-.68-52.16-1.96,0,0-95.05-53.57-85.84-139.42,9.21-85.84,67.03-138.69,138-146.71Z"/>
  <path class="cls-39" d="M273.7,363.84c-8.12-10.11-7.97-22.87-6.81-37.85,3.96-51.48,5.94-77.22,20.35-100.68,2.54-4.14,42.38-66.97,102.34-65.66,76.19,1.66,139.83,105.87,114.18,164.61-16.74,38.33-68.96,51.53-87.98,56.34-18.1,4.58-44.07,2.29-96.06-1.56-21.28-1.58-36.65-3.54-46.02-15.21Z"/>
  <path class="cls-21" d="M358.4,146.29c-85.34-.89-153.1,83.53-141.99,166.34,6.74,51.08,39.97,92.11,81.1,116.38,62.49,9.44,129.01-5.86,179.71-43.96,0,0-.74.77-.73.76,6.95-11.57,12.71-23.8,16.98-36.48,32.28-88.98-36.92-203.93-135.08-203.05h0ZM358.4,142.87c57.63-.54,107.51,36.29,133.11,86.53,27.51,52.95,24.01,111.27-10.5,160.06-39.68,27.96-87.56,43.43-135.95,45.43-16.24.59-32.71.24-48.77-2.12-45.82-22.78-80.88-67.9-87.54-119.13-11.99-87.22,61.4-171.63,149.65-170.77h0Z"/>
  <g>
    <g>
      <g>
        <g>
          <path class="cls-19" d="M245.51,379.13c-.05,0-.1-.02-.14-.07-.04-.05-.05-.11-.03-.17l3.78-9.65s.04-.07.08-.09l22.92-12.45s.05-.02.08-.02c.05,0,.1.02.14.07l.76.95c.05.07.05.16,0,.22l-17.22,19.6s-.06.05-.1.06c0,0-10.27,1.55-10.28,1.55Z"/>
          <path class="cls-19" d="M272.21,356.85l.76.96c-5.74,6.53-11.48,13.07-17.22,19.6-1.72.26-3.44.52-5.16.78l-5.09.77,1.88-4.79,1.9-4.86c7.64-4.15,15.28-8.3,22.92-12.45M272.21,356.5c-.06,0-.11.01-.17.04l-22.92,12.45c-.07.04-.13.1-.16.18l-.95,2.43-.95,2.43-1.88,4.79c-.05.12-.03.25.05.34.07.08.17.13.27.13.02,0,.03,0,.05,0l5.09-.77c1.72-.26,3.44-.52,5.16-.78.08-.01.16-.05.21-.11l8.61-9.8,8.61-9.8c.11-.13.12-.32.01-.45l-.76-.96c-.07-.08-.17-.13-.27-.13h0Z"/>
        </g>
        <g>
          <path class="cls-19" d="M249.03,367.25s-.06-.01-.08-.03c-.04-.03-.05-.09-.03-.14l1.33-3.39,8.21-4.52,10.98-6s.04-.02.06-.02c.03,0,.07.01.09.04l1.59,1.73s.04.07.03.1-.03.07-.06.09l-22.05,12.11s-.04.02-.06.02Z"/>
          <path class="cls-19" d="M269.49,353.28c.53.58,1.06,1.16,1.59,1.73-7.35,4.04-14.7,8.08-22.05,12.11l1.33-3.39c6.38-3.49,12.75-6.97,19.13-10.46M269.49,353.03s-.08.01-.12.03l-18.92,10.34-.21.12c-.05.03-.09.07-.11.13l-1.33,3.39c-.04.1-.01.21.07.27.05.04.1.06.16.06.04,0,.08,0,.12-.03l22.05-12.11c.07-.04.11-.1.12-.18.01-.07-.01-.15-.06-.21l-.79-.87-.79-.87c-.05-.05-.11-.08-.18-.08h0Z"/>
        </g>
        <g>
          <path class="cls-19" d="M257.91,378.36s-.09-.02-.11-.06c-.02-.05-.02-.1.02-.14l16.69-18.82s.06-.04.09-.04c0,0,0,0,0,0,.04,0,.07.02.09.05l1.34,1.93s.03.11,0,.15l-14.43,16.34s-3.69.59-3.69.59Z"/>
          <path class="cls-19" d="M274.6,359.42c.45.64.89,1.29,1.34,1.93-4.81,5.45-9.62,10.9-14.43,16.34l-3.6.54c5.56-6.27,11.13-12.55,16.69-18.82M274.6,359.17c-.07,0-.14.03-.18.08l-16.05,18.1-.64.72c-.07.08-.08.19-.03.28.04.08.13.13.22.13.01,0,.02,0,.04,0l3.6-.54c.06,0,.11-.04.15-.08l7.3-8.27,7.13-8.08c.08-.08.08-.21.02-.3l-.39-.56-.95-1.37c-.04-.06-.11-.1-.19-.11h-.01Z"/>
        </g>
      </g>
      <g>
        <g>
          <path class="cls-19" d="M294.34,411.97c-.06,0-.11-.05-.14-.1l-4.15-9.5s-.02-.08,0-.12l7.4-25.01c.02-.07.09-.12.17-.12,0,0,1.21.13,1.21.13.08,0,.17.08.18.16l1.68,26.03s0,.08-.03.11l-6.15,8.35s-.09.07-.14.07c0,0-.01,0-.02,0Z"/>
          <path class="cls-19" d="M297.62,377.28c.4.04.81.09,1.21.14.56,8.68,1.12,17.35,1.68,26.03-1.03,1.4-2.07,2.8-3.09,4.2l-3.06,4.14-2.06-4.71c-.7-1.6-1.39-3.19-2.09-4.78,2.47-8.34,4.94-16.67,7.4-25.01M297.62,376.93c-.15,0-.29.1-.33.25l-7.4,25.01c-.02.08-.02.16.01.24l2.09,4.78,2.06,4.71c.05.11.16.19.28.21.01,0,.03,0,.04,0,.11,0,.21-.05.28-.14l3.06-4.14c1.03-1.4,2.06-2.8,3.09-4.2.05-.07.07-.15.07-.23l-.84-13.02-.84-13.02c-.01-.17-.14-.3-.31-.32l-1.21-.14s-.03,0-.04,0h0Z"/>
        </g>
        <g>
          <path class="cls-19" d="M288.49,401.06s-.09-.03-.11-.07l-1.46-3.34,3.06-10.55,3.07-10.46c.02-.05.06-.09.12-.09,0,0,2.35.1,2.35.1.04,0,.07.02.09.05.02.03.03.07.02.11l-7.02,24.15s-.06.09-.11.09c0,0,0,0,0,0Z"/>
          <path class="cls-19" d="M293.17,376.68c.78.03,1.57.07,2.35.1-2.34,8.05-4.68,16.1-7.02,24.15l-1.46-3.34c2.04-6.97,4.09-13.95,6.13-20.92M293.21,376.44c-.11,0-.25.07-.28.17l-1.9,6.47-4.24,14.45c-.02.06-.01.11.01.17l1.46,3.34c.04.09.13.15.23.15,0,0,.01,0,.02,0,.1,0,.19-.08.22-.18l7.02-24.15c.02-.07,0-.15-.04-.21s-.11-.1-.19-.1l-2.3-.1h-.01Z"/>
        </g>
        <g>
          <path class="cls-19" d="M302.59,402.64s-.08-.06-.09-.11l-1.51-25.11s.01-.07.04-.1c.02-.02.05-.03.08-.03,0,0,2.33.42,2.33.42.06.01.1.06.1.11l1.35,21.76-2.18,3.01s-.06.05-.1.05c-.01,0-.02,0-.03,0Z"/>
          <path class="cls-19" d="M301.12,377.41c.77.14,1.54.28,2.31.42.45,7.25.9,14.51,1.35,21.76l-2.16,2.93c-.5-8.37-1-16.74-1.51-25.11M301.12,377.16c-.06,0-.12.02-.16.06-.06.05-.09.12-.08.2l.91,15.13.6,9.98c0,.1.08.19.18.22.02,0,.05.01.07.01.08,0,.15-.04.2-.1l2.16-2.93s.05-.1.05-.16l-.67-10.77-.68-10.99c0-.11-.09-.21-.2-.23l-1.16-.21-1.16-.21s-.03,0-.04,0h0Z"/>
        </g>
      </g>
      <g>
        <g>
          <path class="cls-19" d="M237.25,334.2s-.07-.01-.1-.03l-8.35-6.15c-.05-.04-.08-.1-.07-.16,0-.06.05-.12.1-.14l9.5-4.15s.05-.01.07-.01c.02,0,.03,0,.05,0l25.01,7.4c.08.02.13.1.12.19l-.14,1.21c0,.08-.08.15-.16.15,0,0-26.04,1.68-26.04,1.68Z"/>
          <path class="cls-19" d="M238.4,323.72c8.34,2.47,16.67,4.94,25.01,7.4l-.14,1.21c-8.68.56-17.35,1.12-26.03,1.68-1.4-1.03-2.8-2.06-4.2-3.09l-4.14-3.06,4.71-2.06c1.59-.7,3.19-1.39,4.78-2.09M238.4,323.37s-.1,0-.14.03l-2.13.93-2.66,1.16-4.71,2.06c-.11.05-.19.16-.21.28s.04.25.14.32l4.14,3.06c1.4,1.03,2.8,2.06,4.2,3.09.06.04.13.07.21.07,0,0,.01,0,.02,0l12.89-.83,13.14-.85c.17-.01.3-.14.32-.31l.14-1.21c.02-.17-.09-.32-.25-.37l-18.16-5.38-6.85-2.03s-.07-.01-.1-.01h0Z"/>
        </g>
        <g>
          <path class="cls-19" d="M263.88,329.14l-24.15-7.02s-.09-.06-.09-.11c0-.05.03-.1.07-.12l3.34-1.46,4.78,1.37,16.22,4.76c.05.02.09.07.09.12l-.1,2.35s-.02.07-.05.09c-.02.02-.05.02-.07.02-.01,0-.02,0-.03,0Z"/>
          <path class="cls-19" d="M243.09,320.54c6.97,2.04,13.95,4.09,20.92,6.13l-.1,2.35c-8.05-2.34-16.1-4.68-24.15-7.02l3.34-1.46M243.09,320.3s-.07,0-.1.02l-3.34,1.46c-.09.04-.15.14-.15.24,0,.1.08.19.18.22l11.24,3.27,12.91,3.75s.05,0,.07,0c.05,0,.1-.02.14-.05.06-.04.1-.11.1-.19l.1-2.35c0-.11-.07-.22-.18-.25l-18.46-5.41-2.46-.72s-.05,0-.07,0h0Z"/>
        </g>
        <g>
          <path class="cls-19" d="M241.1,338.41s-.05,0-.07-.02l-2.93-2.16s-.06-.08-.05-.13c.01-.05.06-.08.11-.09,0,0,25.11-1.51,25.12-1.51.04,0,.07.02.09.04.03.03.04.07.03.1l-.42,2.31c-.01.06-.06.1-.11.1,0,0-21.77,1.35-21.77,1.35Z"/>
          <path class="cls-19" d="M263.28,334.62h0M263.28,334.62c-.14.77-.28,1.54-.42,2.31-7.25.45-14.51.9-21.76,1.35l-2.93-2.16c8.37-.5,16.74-1,25.11-1.51M263.29,334.38h0s-.01,0-.02,0l-6.27.38-18.84,1.13c-.1,0-.19.08-.22.18-.03.1,0,.21.09.27l2.93,2.16s.09.05.15.05h.02l10.88-.68,10.88-.68c.11,0,.21-.09.23-.2l.21-1.18.2-1.1s.01-.05.01-.08c0-.14-.11-.25-.24-.25h0ZM263.28,334.87h0,0Z"/>
        </g>
      </g>
    </g>
    <g>
      <path class="cls-19" d="M267.54,317.09c-5.75,22,2.63,44.88,23.68,54.82,6.52,3.12,13.8,4.72,21.27,4.81.4,0,.73.33.73.74,0,.36-.27.66-.61.72-7.6,1.28-15.67.35-22.99-2.6-14.85-5.77-25.98-20.23-27.26-36.17-.39-3.93-.22-7.88.39-11.73.67-3.84,1.66-7.6,3.32-11.13.18-.39.65-.56,1.04-.38.36.17.52.57.42.93h0Z"/>
      <g>
        <g>
          <path class="cls-41" d="M237.25,334.2s-.07-.01-.1-.03l-8.35-6.15c-.05-.04-.08-.1-.07-.16,0-.06.05-.12.1-.14l9.5-4.15s.05-.01.07-.01c.02,0,.03,0,.05,0l23.83,7.04c.07.02.12.09.12.17v1.71c0,.09-.07.17-.16.17,0,0-24.99,1.56-24.99,1.56Z"/>
          <path class="cls-41" d="M238.4,323.72c7.94,2.35,15.88,4.69,23.83,7.04v1.71c-8.33.52-16.65,1.04-24.98,1.56l-8.35-6.15,9.5-4.15M238.4,323.37s-.1,0-.14.03l-9.5,4.15c-.11.05-.19.16-.21.28s.04.25.14.32l8.35,6.15c.06.04.13.07.21.07,0,0,.01,0,.02,0l12.49-.78,12.49-.78c.18-.01.33-.16.33-.35v-1.71c0-.15-.1-.29-.25-.33l-11.91-3.52-11.91-3.52s-.07-.01-.1-.01h0Z"/>
        </g>
        <g>
          <path class="cls-41" d="M241.1,338.46s-.07-.01-.1-.03l-2.93-2.16c-.06-.04-.08-.12-.06-.19s.08-.12.16-.12c0,0,25.12-1.51,25.12-1.51.05,0,.1.02.13.06.04.04.05.1.04.15l-.52,2.33c-.02.08-.08.13-.16.14,0,0-21.67,1.34-21.67,1.34Z"/>
          <path class="cls-41" d="M263.28,334.62c-.17.78-.35,1.55-.52,2.33-7.22.45-14.44.89-21.66,1.34l-2.93-2.16c8.37-.5,16.74-1,25.11-1.51M263.28,334.28s-.01,0-.02,0l-12.68.76-12.43.75c-.15,0-.27.11-.31.25-.04.14,0,.29.13.38l2.93,2.16c.06.04.13.07.21.07,0,0,.01,0,.02,0l10.99-.68,10.67-.66c.15,0,.28-.12.32-.27l.52-2.33c.02-.11,0-.22-.07-.3-.07-.08-.16-.12-.26-.12h0ZM263.28,334.97h0,0Z"/>
        </g>
        <g>
          <path class="cls-41" d="M263.92,329.17l-24.17-6.98c-.07-.02-.12-.08-.13-.16,0-.07.04-.14.1-.17l3.33-1.46s.05-.01.07-.01c.02,0,.03,0,.05,0l20.84,6.06c.07.02.13.09.13.17v2.38c0,.05-.03.11-.07.14-.03.02-.07.03-.1.03-.02,0-.03,0-.05,0Z"/>
          <path class="cls-41" d="M243.13,320.56c6.95,2.02,13.89,4.04,20.84,6.06,0,.79,0,1.59,0,2.38-8.06-2.33-16.11-4.66-24.17-6.98l3.33-1.46M243.13,320.21s-.1,0-.14.03l-3.33,1.46c-.13.06-.22.2-.21.34,0,.15.11.27.25.31l20.06,5.8,4.11,1.19s.06.01.1.01c.07,0,.15-.02.21-.07.09-.07.14-.17.14-.28v-1.19s0-1.19,0-1.19c0-.16-.1-.29-.25-.34l-20.84-6.06s-.06-.01-.1-.01h0Z"/>
        </g>
        <g>
          <path class="cls-41" d="M245.46,379.16c-.05,0-.1-.02-.14-.07-.04-.05-.05-.11-.03-.17l3.77-9.66s.04-.07.08-.09l21.81-11.89s.05-.02.08-.02c.04,0,.09.02.12.05l1.21,1.21c.06.06.07.17,0,.24l-16.54,18.78s-.06.05-.1.06c0,0-10.27,1.56-10.27,1.56Z"/>
          <path class="cls-41" d="M271.05,357.43c.4.4.8.8,1.21,1.21-5.51,6.26-11.03,12.52-16.54,18.78l-10.25,1.56,3.77-9.66c7.27-3.96,14.54-7.93,21.81-11.89M271.05,357.09c-.06,0-.11.01-.17.04l-10.93,5.96-10.88,5.93c-.07.04-.13.1-.16.18l-3.77,9.66c-.05.12-.03.25.05.34.07.08.17.13.27.13.02,0,.03,0,.05,0l10.25-1.56c.08-.01.15-.05.21-.11l9.86-11.2,6.68-7.58c.12-.14.11-.35-.02-.48l-1.21-1.21c-.07-.07-.16-.1-.25-.1h0Z"/>
        </g>
        <g>
          <path class="cls-41" d="M257.86,378.43c-.06,0-.12-.03-.15-.09-.04-.06-.03-.14.02-.2l16.67-18.84s.08-.06.13-.06c0,0,0,0,.01,0,.05,0,.1.03.13.08l1.28,2.01c.04.07.04.15-.02.21l-14.35,16.28s-.06.05-.1.06c0,0-3.62.55-3.62.55Z"/>
          <path class="cls-41" d="M274.53,359.42c.43.67.85,1.34,1.28,2.01l-14.35,16.28-3.6.55c5.56-6.28,11.12-12.56,16.67-18.84M274.53,359.07c-.1,0-.19.04-.26.12l-8.34,9.42-8.34,9.42c-.1.11-.11.27-.04.4.06.11.18.18.31.18.02,0,.03,0,.05,0l3.6-.55c.08-.01.15-.05.21-.11l7.18-8.14,7.18-8.14c.1-.12.12-.29.03-.42l-1.28-2.01c-.06-.09-.16-.15-.27-.16,0,0-.02,0-.03,0h0Z"/>
        </g>
        <g>
          <path class="cls-41" d="M249.02,367.31s-.08-.01-.11-.04c-.06-.05-.07-.13-.05-.19l1.32-3.39s.04-.07.08-.09l19.01-10.46s.06-.02.08-.02c.05,0,.09.02.12.05l1.68,1.69s.06.09.05.15c0,.05-.04.1-.09.13l-22.01,12.17s-.06.02-.08.02Z"/>
          <path class="cls-41" d="M269.36,353.28c.56.56,1.12,1.12,1.68,1.69-7.34,4.06-14.68,8.11-22.01,12.17l1.32-3.39c6.34-3.49,12.67-6.98,19.01-10.47M269.36,352.93c-.06,0-.12.01-.17.04l-9.51,5.23-9.51,5.23c-.07.04-.13.1-.16.18l-1.32,3.39c-.05.14-.01.29.1.39.06.06.15.09.23.09.06,0,.12-.01.17-.04l11.01-6.09,11.01-6.09c.1-.05.16-.15.18-.26s-.02-.22-.1-.29l-.42-.42-1.27-1.27c-.07-.07-.16-.1-.25-.1h0Z"/>
        </g>
        <g>
          <path class="cls-41" d="M294.36,411.94c-.06,0-.12-.05-.14-.1l-4.18-9.49s-.02-.08,0-.12l5.75-19.39c.02-.07.08-.12.16-.12,0,0,0,0,.01,0,.07,0,.13.04.16.11l3.81,8.83.39,5.86.38,5.88s0,.08-.03.11l-6.13,8.36s-.09.07-.14.07c0,0-.01,0-.02,0Z"/>
          <path class="cls-41" d="M295.95,382.9c1.27,2.94,2.54,5.89,3.81,8.83.25,3.89.5,7.79.75,11.68l-6.13,8.36-4.17-9.49c1.92-6.46,3.83-12.92,5.75-19.39M295.95,382.55s-.01,0-.02,0c-.15,0-.27.11-.31.25l-2.87,9.69-2.87,9.69c-.02.08-.02.16.02.24l4.17,9.49c.05.11.16.19.28.21.01,0,.03,0,.04,0,.11,0,.21-.05.28-.14l6.13-8.36c.05-.07.07-.15.07-.23l-.37-5.83-.37-5.85s-.01-.08-.03-.12l-3.81-8.83c-.06-.13-.18-.21-.32-.21h0Z"/>
        </g>
        <g>
          <path class="cls-41" d="M302.57,402.65c-.07-.02-.12-.09-.12-.16l-.25-5.87c0-.08.05-.15.12-.17.02,0,.03,0,.05,0,.06,0,.12.03.15.08l2.05,3.31c.04.06.03.13,0,.19l-1.8,2.55s-.09.07-.14.07c-.02,0-.03,0-.05,0Z"/>
          <path class="cls-41" d="M302.37,396.61c.68,1.1,1.36,2.21,2.05,3.31-.6.85-1.2,1.7-1.8,2.55-.08-1.96-.17-3.91-.25-5.87M302.37,396.26s-.07,0-.1.02c-.15.05-.25.19-.25.35l.12,2.93.12,2.93c0,.15.11.28.25.32.03,0,.07.01.1.01.11,0,.22-.05.28-.15l.9-1.28.9-1.28c.08-.11.08-.27.01-.38l-1.03-1.67-1.01-1.64c-.06-.1-.18-.17-.3-.17h0Z"/>
        </g>
        <g>
          <path class="cls-41" d="M288.51,401.06c-.07,0-.13-.04-.16-.1l-1.47-3.33s-.02-.08,0-.12l6.01-20.85c.02-.07.09-.13.17-.13h1.19c.08,0,.15.06.17.13l.53,2.29-3.25,11.43-3.02,10.55c-.02.07-.08.12-.16.13,0,0,0,0-.01,0Z"/>
          <path class="cls-41" d="M294.24,376.7l.53,2.29c-2.09,7.3-4.18,14.59-6.27,21.89l-1.47-3.33c2-6.95,4.01-13.9,6.01-20.85.4,0,.79,0,1.19,0M294.24,376.36h-.6s-.6,0-.6,0c-.16,0-.29.1-.33.25l-6.01,20.85c-.02.08-.02.16.02.24l1.47,3.33c.06.13.18.21.32.21,0,0,.02,0,.02,0,.15,0,.27-.11.31-.25l3.05-10.65,3.22-11.24c.02-.06.02-.12,0-.17l-.27-1.15-.27-1.15c-.04-.16-.18-.27-.34-.27h0Z"/>
        </g>
      </g>
      <path class="cls-41" d="M296.05,381.34l4.06,10.32h-1.12c-1.14-2.88-2.28-5.76-3.42-8.64.16-.56.33-1.12.49-1.68Z"/>
      <path class="cls-41" d="M301.93,395.08c1,1.58,1.99,3.16,2.99,4.75-.1.14-.2.28-.3.41-.87-1.22-1.73-2.44-2.6-3.66-.03-.5-.06-1-.08-1.5Z"/>
      <path class="cls-41" d="M265.87,316.81s.43-.94,1.1-.7c.67.24.57.7.57.7-1.42,5.33-1.75,9.92-1.75,13.19-.02,9.32,2.5,16.11,3.21,17.94,1.28,3.27,2.65,5.65,3.25,6.65,3.79,6.35,8.22,10.08,9.37,11.02,0,0,2.07,1.69,12.59,7.6l.83,4.19c-3.17-.79-7.69-2.27-12.49-5.24-3.04-1.88-12.63-8.33-17.66-20.83-6.7-16.67-.29-31.7.98-34.53Z"/>
      <path class="cls-41" d="M295.04,377.41l.25,1.05c-.06.22-.13.44-.19.66-.19-.61-.38-1.22-.56-1.84l.51.13Z"/>
    </g>
  </g>
  <g>
    <path class="cls-17" d="M284.31,355.04c-8.2-10.22-7.4-23.63-6.23-34.6,5.96-55.9,8.94-83.85,31.78-111.25,22.88-27.44,70.79-61.65,121.43-48.48,68.06,17.69,104.64,111.49,76.91,161.12-18.64,33.36-63.96,42.5-94,48.55-18.43,3.72-41.56,2-87.82-1.43-19.46-1.44-33.51-3.24-42.07-13.9Z"/>
    <path class="cls-21" d="M282.16,356.76c-10.66-12.94-7.59-31.06-6.16-46.39,3.31-30.59,4.75-63.16,21.38-90.09,20.42-31.92,57.53-57.39,95.02-63.21,7.69-1.18,15.6-1.32,23.35-.76,7.79.47,15.55,2.02,23,4.33,30.23,9.58,53.96,33.81,67.53,61.98,16.46,33.99,22.51,80.99-4.21,111.42-21.13,23.63-53.55,31.92-83.32,38.31-22.71,5.28-46.41,2.77-69.4,1.39,0,0-22.9-1.84-22.9-1.84-15.24-1.47-33.75-2.09-44.29-15.15h0ZM286.46,353.31c9.79,11.65,26.26,11.43,40.42,12.7,0,0,22.9,1.5,22.9,1.5,18.88,1.08,37.91,2.97,56.74,1.09,25.9-4.19,52.61-9.47,75.31-23.04,43.06-25.01,37.83-80.98,18.35-119.92-16.49-32.79-46.62-62.4-84.71-65.76-18.76-1.46-37.57,3.78-54.2,12.24-22.92,12.1-43.95,30-57.55,52.02-11.58,19.09-15.47,42.13-18.57,64.2-1.59,10.91-2.91,23.06-4.26,34.08-1.17,10.57-1.27,22.22,5.57,30.89h0Z"/>
  </g>
  <path class="cls-36" d="M410.94,187.73c3.32-7.63,10.59-13.41,19.14-14,12.7-.46,24.8,11.49,30.2,21.9.48.9-.62,1.92-1.47,1.37-6.2-3.35-11.67-6.82-17.83-9.76-2.61-1.19-5.34-2.37-8.15-2.81-6.59-.95-12.71,2.98-18.44,6.04-1.9,1.29-4.34-.6-3.46-2.74h0Z"/>
  <path class="cls-36" d="M403.63,203.89c2.7,0,5.29-2.38,5.17-5.17s-2.27-5.17-5.17-5.17c-2.7,0-5.29,2.38-5.17,5.17s2.27,5.17,5.17,5.17h0Z"/>
  <g>
    <path class="cls-22" d="M530.81,803.79c46.91-15.32,69.11-3.21,76.89,2.2,14.16,9.87,27.34,36.31,50.06,90.75,9.38,22.47,21.42,43.77,30.94,66.19,5.23,12.31,6.89,16.92,12.27,21.19,14.01,11.13,33.32,4.13,80.62-9.77,69.55-20.43,86.31-22.47,93.82-39.74,4.19-9.63,5.51-24.03-1.1-35.32-6.23-10.63-17.14-14.5-26.49-17.66-26.33-8.91-51.26-4.37-66.23,0-12.77-26.96-21.77-49.58-27.59-65.12-25.27-67.49-31.16-110.06-67.67-145.35-8.03-7.76-15.3-13.01-23.95-16.91-31.71-14.29-64.4-2.45-77.26,2.21-25.25,9.14-42.61,24.24-52.98,35.32"/>
    <g class="cls-32">
      <path class="cls-39" d="M531.48,723.55c17.46-1.6,44.57-2.1,76.07,5.97,25.51,6.54,45.09,11.55,60.92,27.3,12.23,12.17,18.4,26.93,26.98,114.66,7.7,78.7,5.1,90.92.88,91.96-11.06,2.73-19.82-61.96-62.79-74.97-26.21-7.94-39.08,14.62-67.14.73-20.92-10.36-36.83-29.16-47.09-50.12-2.8-5.72-5.04-12.73-5.13-20.74-.04-3.9.44-7.15.86-9.3.27-1.35.52-2.33.56-2.49.4-1.57-4.97-39.51-5.48-44.94-.83-8.74,2.56-21.33,21.36-38.04Z"/>
    </g>
    <path class="cls-8" d="M530.81,803.79c46.91-15.32,69.11-3.21,76.89,2.2,14.16,9.87,27.34,36.31,50.06,90.75,9.38,22.47,21.42,43.77,30.94,66.19,5.23,12.31,6.89,16.92,12.27,21.19,14.01,11.13,33.32,4.13,80.62-9.77,69.55-20.43,86.31-22.47,93.82-39.74,4.19-9.63,5.51-24.03-1.1-35.32-6.23-10.63-17.14-14.5-26.49-17.66-26.33-8.91-51.26-4.37-66.23,0-12.77-26.96-21.77-49.58-27.59-65.12-25.27-67.49-31.16-110.06-67.67-145.35-8.03-7.76-15.3-13.01-23.95-16.91-31.71-14.29-64.4-2.45-77.26,2.21-25.25,9.14-42.61,24.24-52.98,35.32"/>
  </g>
  <g>
    <path class="cls-20" d="M623.42,822.94c16.37,33.93,27.26,57.83,34.33,73.8,3.13,7.06,4.51,10.43,7.61,17.01,7.75,16.41,16.24,32.48,23.33,49.18,5.23,12.31,6.89,16.92,12.27,21.19,14.01,11.13,33.32,4.13,80.62-9.77,69.55-20.43,86.31-22.47,93.82-39.74,4.19-9.63,5.51-24.03-1.1-35.32-6.23-10.63-17.14-14.5-26.49-17.66-26.33-8.91-51.26-4.37-66.23,0-12.77-26.96-21.77-49.58-27.59-65.12-8.82-23.55-14.53-41.42-15.75-45.18-38.27,17.2-76.55,34.4-114.82,51.6Z"/>
    <g class="cls-34">
      <path class="cls-38" d="M674.38,800.03c27.51,57.73,42.27,93.29,48.47,114.37,1.21,4.1,4.36,14.14,13.14,22.55,9.48,9.08,23.56,11.29,36.69,11.49,39.92.63,79.73-13,119.24-7.26-8.62,16.88-22.68,30.35-37.47,42.21-40.15,32.17-89.29,55.22-140.73,56.36-51.43,1.14-104.76-22.24-131.99-65.89-15.24-24.42-21.59-55.73-11.04-82.51,4.59-11.67,12.09-21.94,19.8-31.84,6.83-8.77,13.89-17.36,21.17-25.77,5.34-6.17,10.85-12.28,17.38-17.18,2.88-2.16,8.42-6.34,16.46-9.92,5.88-2.62,15.76-6.12,28.89-6.62Z"/>
    </g>
  </g>
  <g>
    <path class="cls-18" d="M792.49,879.83c-11.73,16.93-16,36.1-18.5,49.59-2.44,13.18-4.93,30.39-6.07,50.81,8.7-2.68,17.39-5.36,26.09-8.04.72-16.71,2.74-30.66,4.7-41.1,5.58-29.71,12.36-39.96,15.01-43.68,5.15-7.22,10.75-12.2,14.85-15.38.5-1.47.39-2.52.06-3.29-1.88-4.44-14.25-4.47-23.1-.43-6.97,3.17-10.94,8.49-13.04,11.53Z"/>
    <g class="cls-35">
      <path class="cls-41" d="M767.94,948.28c10.42-.38,20.85-.77,31.27-1.15,1.67,4.62,7.78,23.09-.49,39.34-1.55,3.04-4.26,8.15-10.01,11.96-5.04,3.34-11.24,4.4-17.28,4.67-3.89.17-7.85.04-11.58-1.1s-7.23-3.36-9.3-6.66c-3.12-4.98-2.52-11.42-.93-17.07,1.3-4.63,3.2-9.09,5.62-13.25,2.09-3.58,4.2-3.91,7.42-8.04,2.62-3.37,4.28-6.52,5.28-8.69Z"/>
    </g>
    <path class="cls-7" d="M792.49,879.83c-11.73,16.93-16,36.1-18.5,49.59-2.44,13.18-4.93,30.39-6.07,50.81,8.7-2.68,17.39-5.36,26.09-8.04.72-16.71,2.74-30.66,4.7-41.1,5.58-29.71,12.36-39.96,15.01-43.68,5.15-7.22,10.75-12.2,14.85-15.38.5-1.47.39-2.52.06-3.29-1.88-4.44-14.25-4.47-23.1-.43-6.97,3.17-10.94,8.49-13.04,11.53Z"/>
  </g>
  <g>
    <rect class="cls-18" x="618.81" y="796.38" width="138.55" height="29" rx="4.73" ry="4.73" transform="translate(-267.3 343.73) rotate(-23.63)"/>
    <g class="cls-33">
      <path class="cls-41" d="M684.97,792.85c1.66,6.28,3.11,14.44,2.99,23.98-.06,4.69-.48,8.97-1.07,12.76,1.74,1.92,8.41,9.69,6.71,18.74-.79,4.19-3.11,7.22-5.52,9.75-13.06,13.71-33.13,17.6-51.89,20.21-8.8,1.22-17.81,2.32-26.51.51-3.93-.82-7.87-2.29-10.73-5.11-3.42-3.36-4.91-8.19-6.02-12.86-1.56-6.52-2.63-13.25-1.98-19.93.62-6.33,2.78-12.42,5.28-18.27,2.27-5.33,4.97-10.69,9.41-14.41,5.67-4.76,11.9-6.04,15.67-6.73,24.38-4.41,61.31-8.39,63.66-8.65Z"/>
    </g>
  </g>
  <path class="cls-21" d="M755.4,802.19c-12.85,5.47-25.9,10.48-38.83,15.76-22.54,9.04-54.11,23.99-76.43,34.36,0,0-2.38,1.1-2.38,1.1,0,0-1.19.55-1.19.55,0,0-.59.27-.59.27-2.93,1.39-6.71.3-8.43-2.5-.83-1.42-1.67-3.59-2.4-5.09-2.64-5.87-5.39-12.07-7.81-18.02-1.52-3.27.13-7.56,3.5-8.9,13.75-5.62,44.91-18.36,58.03-24.14,20.1-8.77,41.63-18.63,61.48-27.7,3.36-1.59,7.49.32,8.67,3.81.36.73,1.27,2.81,1.63,3.57,1.38,3.03,5.15,11.14,6.6,14.26.36.76,1.29,2.83,1.64,3.57,1.6,3.31-.05,7.7-3.5,9.1h0ZM753.21,797.19c.68-.33,1.02-1.18.68-1.91,0,0-.5-1.21-.5-1.21,0,0-1-2.42-1-2.42,0,0-3.98-9.69-3.98-9.69-.66-1.59-2.38-5.71-3.03-7.25-.23-.53-.65-1.6-.9-2.1-.37-.69-1.3-1.1-2.09-.89-38.82,15.82-81.43,34.62-119.51,52.68-.76.38-1.09,1.34-.67,2.1,0,0,.54,1.19.54,1.19,0,0,1.09,2.38,1.09,2.38,2.41,5.5,5.88,13.22,8.18,18.86.34.63,1.22.93,1.91.64.36-.15,1.44-.59,1.82-.75,23.83-9.88,56.53-22.84,79.53-33.81,12.66-5.91,25.2-12.09,37.94-17.82h0Z"/>
</svg>