<?xml version="1.0" encoding="UTF-8"?><svg id="Layer_1" xmlns="http://www.w3.org/2000/svg" viewBox="0 0 300 300"><defs><style>.cls-1{fill:#cc582b;stroke:#cc582b;}.cls-1,.cls-2,.cls-3,.cls-4,.cls-5,.cls-6{stroke-miterlimit:10;stroke-width:.25px;}.cls-7,.cls-6{fill:#e1d8c7;}.cls-2{fill:#e5a44f;stroke:#e5a44f;}.cls-8{fill:#fff;}.cls-3{fill:#57574f;stroke:#57574f;}.cls-4{fill:#d09648;stroke:#d09648;}.cls-5,.cls-6{stroke:#e1d8c7;}</style></defs><g id="aoS9qH"><path class="cls-7" d="M61.46,69.28c-3.58,0-6.46-2.14-7.32-5.45-.56-2.17-.17-4.27,1.11-5.93.95-1.23,2.36-2.13,4.06-2.62-.09-.38-.18-.81-.29-1.24-1.18-5.07-1.85-8.28-1.41-10.53.13-.64.51-2.58,2.27-3.96l.15-.11s.1-.07.15-.1l.16-.1c1.11-.67,2.23-1.31,3.34-1.95,1.14-.65,2.28-1.3,3.4-1.98.08-.05.17-.12.28-.2l.13-.09c1.53-1.08,2.83-1.91,4.49-1.97h.17c1.69,0,4.63.72,5.62,5.59l.04.2c.45,2.03.79,4.12,1.12,6.14.19,1.16.38,2.32.58,3.46.06.32.14.67.23,1.04.53,2.2,1.23,5.12-.01,7.86-1.23,2.73-4.34,4.5-7.92,4.5-.53,0-1.05-.04-1.55-.12-.16,3.12-1.81,5.38-4.92,6.73-1.23.54-2.58.82-3.89.82h0Z"/><path class="cls-7" d="M72.19,34.55c2.14,0,3.53,1.48,4.12,4.39l.04.21c.45,2,.78,4.07,1.11,6.07.19,1.17.38,2.34.59,3.49.07.36.17.77.27,1.19.49,2.03,1.09,4.55.06,6.82-.99,2.2-3.57,3.62-6.55,3.62-1.15,0-2.22-.22-3.15-.62.03.2.05.4.07.61.3,3.25-1,5.45-3.99,6.75-1.05.46-2.19.7-3.29.7h0c-2.92,0-5.17-1.66-5.86-4.33-.44-1.71-.14-3.36.85-4.64.99-1.28,2.65-2.12,4.65-2.37,0-.01,0-.03,0-.04-.11-.62-.35-1.66-.61-2.76-1.09-4.67-1.77-7.89-1.38-9.83.11-.56.4-2.03,1.73-3.07l.15-.11.16-.1c1.1-.66,2.21-1.29,3.32-1.93,1.15-.66,2.29-1.31,3.42-2,.13-.08.3-.2.5-.34,1.37-.96,2.43-1.65,3.68-1.7h.14M66.92,51.28c1-1.14,2.46-1.91,4.22-2.17l-.26-1.46-4.16,2.44c.01.1.03.2.05.3.04.29.1.58.15.88M72.19,31.55s-.03,0-.05,0h-.14s-.04,0-.06,0c-2.23.09-3.93,1.28-5.3,2.24l-.13.09c-.08.06-.15.11-.21.15-1.08.66-2.23,1.31-3.34,1.95-1.11.64-2.25,1.29-3.38,1.96l-.16.1c-.1.06-.2.13-.29.2l-.15.11c-2.2,1.73-2.67,4.08-2.82,4.85-.5,2.54.2,5.89,1.41,11.1h0c-1.42.62-2.61,1.53-3.49,2.66-1.55,2-2.05,4.64-1.38,7.23,1.04,3.99,4.48,6.57,8.77,6.57,1.52,0,3.07-.33,4.49-.94,3.07-1.33,5-3.58,5.62-6.49.09,0,.18,0,.26,0,4.17,0,7.81-2.11,9.29-5.38,1.45-3.21.65-6.55.12-8.76l-.02-.06c-.08-.35-.16-.67-.22-.97-.21-1.14-.4-2.35-.58-3.42-.33-2.04-.67-4.15-1.14-6.25l-.03-.17c-1.24-6.12-5.35-6.78-7.06-6.78h0Z"/><path d="M61.46,66.28c-2.24,0-3.89-1.2-4.41-3.2-.42-1.6.09-2.7.58-3.34,1.31-1.69,3.8-1.88,4.82-1.88.14,0,.27,0,.41,0-.09-.62-.19-1.19-.29-1.74-.12-.65-.35-1.66-.62-2.83-.98-4.21-1.7-7.56-1.37-9.2.09-.45.29-1.49,1.18-2.18.05-.04.1-.07.15-.1,1.09-.65,2.19-1.28,3.29-1.91,1.16-.66,2.32-1.32,3.46-2.02.15-.09.35-.24.58-.4,1.19-.84,2.04-1.39,2.88-1.43h0c2.09,0,2.54,2.24,2.74,3.19l.05.24c.44,1.95.77,4,1.09,5.99.19,1.18.38,2.36.59,3.52.07.39.17.82.28,1.27.43,1.81.97,4.05.16,5.86-.75,1.66-2.79,2.73-5.19,2.73-1.72,0-3.19-.57-4.04-1.55-.65-.75-.92-1.69-.77-2.71.36-2.51,2.48-4.07,5.54-4.07.12,0,.24,0,.37,0l-.93-5.25-6.88,4.04c.06.48.11.91.18,1.32.2,1.29.52,2.64.87,4.08.46,1.92.93,3.91,1.1,5.76.24,2.62-.68,4.19-3.09,5.23-.86.37-1.79.57-2.7.57Z"/><path class="cls-8" d="M72.19,37.55c.88,0,1.08,1.55,1.24,2.26.68,3.06,1.1,6.35,1.67,9.45.33,1.82,1.33,4.51.55,6.23-.56,1.23-2.23,1.85-3.82,1.85-1.84,0-3.58-.84-3.33-2.55.3-2.07,2.18-2.78,4.05-2.78.77,0,1.55.12,2.21.32l-1.68-9.44-9.57,5.62c.07.79.16,1.58.29,2.36.49,3.13,1.67,6.68,1.95,9.74.18,1.98-.4,2.94-2.2,3.72-.65.28-1.39.45-2.1.45-1.33,0-2.57-.58-2.96-2.08-.65-2.52,1.87-3.34,3.95-3.34.36,0,.7.02,1.01.07.17.02.71.23.99.23.09,0,.15-.02.17-.07-.17-1.24-.36-2.49-.58-3.72-.45-2.49-2.4-9.46-2-11.48.09-.47.24-.98.63-1.29,2.23-1.34,4.53-2.58,6.75-3.93.62-.37,2.11-1.59,2.74-1.61,0,0,.02,0,.03,0M72.19,34.55s-.11,0-.14,0c-1.25.05-2.31.73-3.68,1.7-.2.14-.37.27-.5.34-1.12.68-2.3,1.35-3.43,2-1.08.62-2.21,1.26-3.31,1.92-.11.06-.21.14-.31.21-1.32,1.04-1.61,2.51-1.72,3.07-.38,1.95.3,5.15,1.38,9.83.26,1.1.5,2.15.61,2.76,0,.01,0,.03,0,.04-2,.26-3.66,1.09-4.65,2.37-.99,1.28-1.29,2.93-.85,4.64.69,2.67,2.94,4.33,5.86,4.33,1.11,0,2.25-.24,3.29-.7,2.98-1.29,4.29-3.5,3.99-6.75-.02-.2-.04-.4-.07-.61.93.4,2,.62,3.15.62,2.99,0,5.56-1.42,6.56-3.62,1.03-2.27.42-4.79-.07-6.82-.11-.44-.21-.86-.27-1.19-.21-1.13-.4-2.33-.59-3.49-.32-2-.66-4.07-1.11-6.07l-.04-.21c-.59-2.91-1.98-4.39-4.12-4.39h0ZM66.72,50.1l4.16-2.44.26,1.46c-1.76.26-3.22,1.03-4.22,2.17-.06-.3-.11-.59-.16-.88-.02-.1-.03-.2-.05-.3h0Z"/><path class="cls-7" d="M44.41,44.04c-4.21,0-8.55-3.27-9.67-7.29-.88-3.15.39-6.29,3.23-8,1.27-.76,2.64-1.15,4.09-1.15s2.99.42,4.4,1.23l5.17-8.35c.99-1.73,2.8-2.79,4.81-2.79s4.04,1.04,6.21,3.19c2.91,2.88,4.18,6.53,3.59,10.27-.62,3.9-3.19,7.26-7.06,9.22l-6.45,3.26c-.21.11-.45.16-.68.16-.35,0-.7-.12-.98-.36-.46-.4-.64-1.03-.45-1.6l.42-1.3c-.87,1.12-1.95,2.15-3.32,2.79-1.04.48-2.16.73-3.34.73Z"/><path class="cls-7" d="M56.44,19.19c1.6,0,3.28.9,5.15,2.75,2.55,2.53,3.68,5.72,3.17,8.97-.54,3.42-2.82,6.38-6.25,8.11l-6.45,3.26,2.24-6.87c.31-.94.8-1.71,1.19-2.33.24-.37.48-.76.55-.98.13-.43,0-1.11-.36-1.73-.48.75-.96,1.49-1.44,2.21-.57.87-1.15,1.74-1.7,2.63-.22.36-.46.78-.71,1.23-1.09,1.98-2.45,4.44-4.73,5.5-.84.39-1.75.59-2.71.59h0c-3.52,0-7.29-2.84-8.23-6.19-.7-2.52.28-4.94,2.56-6.31,1.03-.62,2.14-.94,3.31-.94,1.66,0,3.32.63,4.86,1.85l5.99-9.67c.75-1.31,2.06-2.08,3.54-2.08M56.44,16.19c-2.54,0-4.82,1.32-6.11,3.54l-4.43,7.15c-1.25-.52-2.55-.79-3.84-.79-1.72,0-3.36.46-4.86,1.37-3.43,2.07-4.96,5.87-3.9,9.69,1.29,4.63,6.28,8.39,11.12,8.39,1.4,0,2.74-.29,3.97-.87.43-.2.83-.43,1.21-.68.15.21.32.41.52.58.56.48,1.25.72,1.95.72.46,0,.92-.11,1.35-.32l6.45-3.26c4.3-2.18,7.17-5.94,7.86-10.32.67-4.23-.76-8.34-4.02-11.57-2.46-2.44-4.83-3.62-7.26-3.62h0Z"/><path d="M44.41,41.04c-2.86,0-6.02-2.38-6.78-5.1-.52-1.87.19-3.6,1.89-4.63.79-.48,1.65-.72,2.54-.72,2.05,0,3.74,1.25,4.81,2.3.13.13.25.26.36.39l6.99-11.28c.43-.81,1.26-1.32,2.22-1.32,1.18,0,2.52.76,4.1,2.32,2.2,2.18,3.18,4.91,2.74,7.67-.46,2.94-2.45,5.49-5.45,7.01-.21.11-.45.16-.68.16-.35,0-.7-.12-.98-.36-.46-.4-.64-1.03-.45-1.6.25-.76.66-1.42,1.03-1.99.3-.48.59-.93.72-1.34.26-.83.07-1.93-.5-2.93-.4-.7-.95-1.29-1.55-1.68-.79,1.31-1.62,2.58-2.44,3.83-.58.88-1.16,1.76-1.72,2.65-.24.38-.48.83-.75,1.31-.98,1.79-2.21,4.01-4.05,4.87-.64.3-1.33.45-2.07.45h0Z"/><path class="cls-8" d="M56.44,22.19c1.05,0,2.44,1.29,3.04,1.88,4.14,4.1,2.63,9.77-2.33,12.28.39-1.19,1.39-2.16,1.76-3.36.85-2.74-1.36-6.3-4.11-6.95-1.47,2.61-3.21,5.04-4.79,7.57-1.06,1.69-2.33,4.76-4.16,5.61-.45.21-.94.31-1.44.31-3.54,0-7.6-4.83-4.12-6.94.59-.35,1.18-.5,1.76-.5,1.39,0,2.72.85,3.75,1.87.59.58,1,1.34,1.61,1.86l8.07-13.03c.23-.44.57-.61.95-.61M56.44,19.19h0c-1.48,0-2.79.78-3.53,2.08l-5.99,9.67c-1.54-1.21-3.2-1.85-4.86-1.85-1.17,0-2.29.31-3.31.94-2.28,1.38-3.26,3.79-2.56,6.31.93,3.36,4.7,6.2,8.23,6.2.96,0,1.87-.2,2.71-.59,2.29-1.06,3.64-3.53,4.73-5.5.26-.47.5-.91.7-1.23.55-.87,1.13-1.76,1.7-2.62.48-.73.96-1.46,1.44-2.22.35.62.49,1.3.36,1.73-.07.22-.32.61-.55.99-.39.62-.88,1.39-1.19,2.33-.38,1.15-.02,2.42.9,3.21.56.48,1.25.72,1.95.72.46,0,.92-.11,1.35-.32,3.43-1.74,5.71-4.69,6.25-8.11.51-3.25-.61-6.44-3.16-8.97-1.87-1.85-3.55-2.75-5.15-2.75h0Z"/><path class="cls-7" d="M87.02,44.83c-3.09,0-6.88-1.45-8.38-4.7-1.14-2.45-.66-5.27,1.28-7.56,1.02-1.21,2.87-2.64,5.93-2.7.03-.99.04-1.99.06-2.96.02-1.41.05-2.82.1-4.22,0-.09,0-.18,0-.28-.24-4.83,2.66-6.71,5.45-6.89.21-.01.41-.02.63-.02,2.65,0,5.7,1.02,7.76,2.6,4.63,3.55,5.54,9.92,2.21,15.48l-2.16,3.6c-.25.42-.68.68-1.17.72-.04,0-.08,0-.12,0-.44,0-.86-.19-1.15-.53l-1.78-2.1c0,1.7-.15,3.67-1.13,5.46-1.41,2.57-4.22,4.1-7.52,4.1h0Z"/><path class="cls-7" d="M92.07,16.99c2.31,0,5.06.92,6.85,2.29,4.01,3.07,4.76,8.63,1.83,13.52l-2.16,3.6-2.71-3.2c-.83-.98-.83-2.12-.83-2.61,0-.41,0-.77,0-1.12.02-.52.03-.97-.05-1.23-.07-.21-.3-.47-.61-.69-.03.84-.08,1.68-.13,2.51-.05.95-.11,1.9-.14,2.84-.01.39,0,.82.01,1.27.05,1.76.11,3.96-.93,5.84-1.14,2.08-3.46,3.32-6.21,3.32-2.61,0-5.79-1.18-7.02-3.83-.9-1.93-.51-4.1,1.06-5.96.84-.99,2.38-2.17,4.97-2.17.42,0,.85.03,1.26.09.05-1.51.08-3.04.11-4.53.02-1.4.05-2.8.1-4.2,0-.16,0-.32-.02-.48-.22-4.48,2.76-5.15,4.06-5.23.17-.01.35-.02.53-.02M92.07,13.99c-.25,0-.49,0-.72.02-3.35.21-7.16,2.54-6.87,8.38v.09c0,.06.01.11.01.17-.05,1.39-.07,2.81-.1,4.22,0,.53-.02,1.07-.03,1.62-2.23.35-4.18,1.42-5.6,3.1-2.32,2.75-2.88,6.17-1.49,9.16,1.91,4.11,6.44,5.57,9.74,5.57,3.86,0,7.16-1.82,8.84-4.88.48-.87.79-1.75.98-2.62.51.37,1.12.57,1.76.57.08,0,.16,0,.24,0,.96-.08,1.83-.62,2.33-1.45l2.16-3.6c3.74-6.24,2.68-13.41-2.58-17.44-2.31-1.77-5.71-2.91-8.67-2.91h0Z"/><path d="M87.01,41.83c-2.06,0-4.72-.93-5.66-2.96-.38-.81-.77-2.45.85-4.36.91-1.07,2.23-1.64,3.82-1.64.92,0,1.84.18,2.69.44,0-.1.02-.43.02-.43.1-1.96.13-3.97.17-5.92.02-1.39.05-2.79.09-4.18,0-.2,0-.4-.02-.61-.04-.86-.17-3.48,2.65-3.66.14,0,.29-.01.44-.01,1.97,0,4.41.81,5.93,1.98,3.44,2.64,4.02,7.28,1.46,11.56-.25.42-.68.69-1.17.72-.04,0-.08,0-.12,0-.44,0-.86-.19-1.15-.53-.47-.56-.48-1.27-.48-1.65,0-.42,0-.75,0-1.07.02-.65.04-1.22-.12-1.72-.39-1.26-2.22-2.3-3.57-2.38,0,.13.01.26.02.39.02.43.04.86.03,1.22-.03.98-.09,1.97-.14,2.95-.05.96-.11,1.92-.14,2.88-.01.42,0,.88.01,1.36.05,1.66.1,3.55-.74,5.08-.89,1.62-2.67,2.54-4.89,2.54Z"/><path class="cls-8" d="M92.07,19.99c1.65,0,3.77.7,5.02,1.67,3.14,2.41,2.99,6.42,1.09,9.6-.14-.17-.12-.58-.12-.81-.03-1.06.15-2.08-.18-3.12-.61-1.95-3.05-3.37-5.02-3.44-.07,0-.16,0-.26,0-.47,0-1.15.06-1.2.47-.08.68.05,1.82.03,2.6-.06,1.95-.22,3.89-.28,5.83-.06,1.77.32,4.19-.54,5.76-.68,1.24-2.11,1.76-3.58,1.76-2.92,0-6.01-2.09-3.67-4.86.69-.81,1.65-1.1,2.68-1.1,1.39,0,2.89.53,3.99,1.04.12-.07.2-2.13.21-2.46.16-3.36.15-6.75.26-10.12.04-1.21-.44-2.72,1.23-2.82.11,0,.22-.01.34-.01M92.07,16.99c-.18,0-.36,0-.53.02-1.29.08-4.28.76-4.06,5.23,0,.16.02.33.01.49-.05,1.39-.07,2.79-.09,4.19-.03,1.49-.05,3.02-.11,4.53-.42-.06-.84-.09-1.26-.09-2.59,0-4.13,1.18-4.97,2.17-1.57,1.86-1.96,4.03-1.06,5.96,1.23,2.65,4.41,3.83,7.02,3.83,2.74,0,5.06-1.24,6.21-3.32,1.04-1.89.98-4.08.93-5.84-.01-.47-.03-.91-.01-1.27.03-.94.08-1.86.14-2.84.05-.82.09-1.66.13-2.51.31.23.54.48.61.69.08.26.07.71.05,1.23-.01.36-.02.71-.01,1.07v.05c0,.49,0,1.63.83,2.61.57.68,1.41,1.07,2.29,1.07.08,0,.16,0,.24,0,.97-.08,1.83-.62,2.33-1.45,2.93-4.89,2.18-10.45-1.83-13.52-1.78-1.37-4.54-2.29-6.85-2.29h0Z"/></g><path class="cls-6" d="M98.67,190.14c.33.75.71,1.18,1.26,1.59-.45-.46-.91-1.02-1.26-1.59ZM100.66,195.87l-.02-.02c-.92-.69-1.81-1.16-2.61-1.78.65.63,1.16,1,1.17,1.01.48.35,1.02.67,1.61.97l-.15-.18ZM100.95,192.43c-.39-.25-.72-.47-1.01-.69.39.39.75.72,1.01.9.49.35,1.06.67,1.7.97-.61-.48-1.2-.86-1.7-1.18ZM106.25,202.96s-.03-.04-.04-.06c.02.04.05.09.07.13.05.08.09.15.14.23-.05-.1-.11-.2-.17-.3ZM106.88,198.47h0s-.16-.02-.16-.02c.2.24.39.48.58.73.19.24.37.49.54.74.18.25.35.51.52.77-.41-.67-.92-1.44-1.48-2.22ZM114.26,224.98h-.15c.14.14.29.33.44.53-.1-.17-.2-.35-.29-.53ZM114.57,225.55c.52.89,1.13,1.72,1.83,2.46-.63-.76-1.28-1.73-1.83-2.46ZM116.4,228.01c.27.34.54.63.8.84.34.28.69.53,1.05.77-.68-.48-1.3-1.02-1.85-1.61ZM119.99,199.71v.08s.03.21.03.21c0,.13-.01.44-.02.7-.02.32-.04.7-.04,1.1.04-.67.09-1.34.14-2.01.01-.02.01-.05.01-.07h-.12ZM120.12,211.88v.04s.01-.04.01-.04h-.01ZM121.32,196.82l-.26.02c.27.01.54.02.8.03l-.54-.05ZM123.01,199.91c.03.58-.06,1.25-.04,1.88.04-.61.08-1.22.13-1.83v-.05h-.09ZM123.34,212.71h-.01s.01.03.02.04c-.01-.01-.01-.02-.01-.04ZM124.14,216.26s-.06-.01-.09-.02c.28.97.62,1.92,1.04,2.83-.42-.96-.74-1.91-.95-2.81ZM132.76,230.06c.58.15,1.19.27,1.8.37-.63-.37-1.22-.45-1.8-.37ZM163.24,221.91c-.32-.38-.7-.72-1.13-1.03,1.2.93,1.93,2.13,2.36,3.46-.26-.91-.65-1.76-1.23-2.43ZM167.54,224.24c.37,1.69.42,3.48.33,5.14.04,0,.08,0,.12-.01.05-1.56-.01-3.35-.45-5.13ZM180.16,163.95l.72,1.2c.35-.36.68-.74.98-1.14l-1.7-.06ZM181.81,225.76l-.15-.06c-.4-.16-1.06-.43-1.95-.43-.08,0-.16,0-.24.01-.33.88-.31,1.78.28,2.72.91-.66,1.77-1.35,2.59-2.04-.18-.07-.35-.14-.53-.2ZM182.33,226.19c-.05.12-.05.22,0,.29-.05-.07-.04-.16,0-.29ZM182.33,225.96l.09.03h.01s.02-.04.03-.06c.02-.02.03-.04.05-.07.03-.04.07-.09.1-.14-.09.08-.18.16-.28.24ZM185.24,218.23c-.04.05-.08.11-.13.17-.14.19-.29.39-.44.58-.5.67-1.01,1.36-1.47,1.87-.11.12-.31.3-.55.53-.72.68-1.49,1.41-2.1,2.15v.02c.05-.05.1-.1.16-.15.13-.1.26-.22.39-.33.09-.07.25-.22.46-.43.04-.04.08-.08.13-.13.14-.13.29-.28.45-.45.05-.05.11-.11.17-.17.6-.6,1.31-1.35,1.86-2.02.08-.09.15-.18.23-.26.05-.06.1-.12.14-.18.06-.08.12-.15.17-.22.07-.1.14-.19.2-.27.01,0,.02-.02.02-.03.06-.09.11-.17.16-.25h0c.05-.08.08-.16.11-.22.05-.09.06-.16.04-.21ZM187.32,215.97l-.22-.1-.07.08c.13.06.26.11.39.17.59.24,1.19.48,1.78.72l-1.88-.87ZM186.09,172.97c-.27-.48-1.48-2.12-2.51-3.31l4,6.67c-.36-1.08-1.15-2.76-1.49-3.36ZM187.5,183.86c-.04.16-.08.33-.12.49.18-.25.38-.69.38-.73v-.84c-.08.35-.17.71-.26,1.08ZM187.94,219.56s-.03.09-.06.14c.04-.04.07-.08.1-.12-.01,0-.03-.01-.04-.02ZM190.24,174.82s-.03.01-.04.02l.07.12h.02s-.04-.09-.05-.14ZM190.61,183.73c-.09.38-.18.76-.27,1.13-.06.24-.12.48-.17.71.4-.73.58-1.49.58-1.95v-.5c-.05.2-.09.41-.14.61ZM195.94,189.94s-.05-.04-.08-.06c.23.19.45.39.67.59.04.03.08.07.11.1.26.23.51.46.76.69.24.23.47.46.71.68-.67-.69-1.39-1.35-2.17-2ZM196.26,194.33c.2.31.53.82,1.04,1.26-.31-.43-.66-.85-1.04-1.26ZM198.45,192.27c-.1-.1-.2-.19-.3-.29.16.17.31.33.46.5-.05-.09-.11-.16-.16-.21ZM198.68,192.57c.21.32.46.75.73.85-.23-.28-.47-.57-.73-.85ZM200.09,192.46c-.08.25-.15.5-.22.75-.03.04-.06.08-.09.11-.09.09-.17.13-.25.13-.04,0-.08-.01-.12-.03.12.16.24.32.36.48.59-2.11,1.44-4.24,2.55-6.24-.91,1.52-1.7,3.1-2.23,4.8ZM202.4,187.52c.5-.84,1.03-1.65,1.58-2.47-.58.78-1.1,1.61-1.58,2.47ZM204.37,177.74c-.18.04-.35.07-.53.1.19.11.38.23.56.35-.07-.1-.07-.19-.03-.45ZM204.4,178.19c.05.05.12.11.22.21.55.51,1.33,1.03,2.02,1.6-.7-.7-1.45-1.3-2.24-1.81ZM222.17,213.49s-.05.09-.08.13h.01l.13.03s.05-.08.07-.12c-.04-.01-.09-.02-.13-.04ZM222.81,203.17c.09-.43.17-.85.23-1.27.03-.23.07-.46.09-.69-.09.67-.2,1.33-.32,1.96ZM225.47,204.89c.09-.34.17-.67.24-1.01.03-.1.05-.2.06-.3-.09.44-.19.88-.3,1.31ZM225.97,202.49c.01-.05.02-.11.03-.16.03-.18.05-.36.07-.54-.03.23-.06.47-.1.7ZM226.37,199.12s.01-.09.02-.13c0-.05,0-.1.01-.15.01-.11.02-.22.02-.33.01-.06.01-.13.01-.19-.02.27-.04.54-.06.8ZM255.97,211.27l-.16.2-.08.1c.15.09.29.17.43.26.69.42,1.33.87,1.9,1.36l-2.09-1.92ZM182.79,96.02c.55-1.49.89-2.98,1.04-4.38.01-.12.02-.24.03-.36-.18,1.61-.54,3.21-1.07,4.74ZM171.54,108.06c0,.23.02.47.03.7l.25-1.03c-.15.11-.25.23-.28.33ZM171.56,108.76l-.06.26c.03.42.06.82.08,1.23,0-.49-.01-.99-.02-1.49ZM168.44,108.54l-.05.2.07-.03s-.01-.11-.02-.17ZM162.92,99.08c-.23-.67-.61-1.22-1.1-1.64.5.97.95,1.96,1.35,2.94-.02-.46-.1-.9-.25-1.3ZM147.93,75.05c-.02.09-.01.16.03.21l2.31.99.03-.03c-.79-.43-1.58-.82-2.37-1.17ZM141.12,195.84c-.01.05-.02.09-.03.15.07-.2.11-.39.13-.59l-.1.44ZM138.12,195.34s.02-.01.03-.02c.01-.02.01-.03.02-.05-.01.02-.03.04-.05.07ZM133.41,141.37v.02c.45.07.91.13,1.38.17-.46-.05-.93-.11-1.38-.19ZM125.17,156.85c-1.12.45-2.08,1-2.87,1.6,1.98-1.23,4.67-2.15,7.14-2.54-1.48.11-2.92.39-4.27.94ZM98.31,181.85c.27.49.55.97.85,1.45-.17-.35-.43-.79-.85-1.45ZM98.9,83.53c.15-.05.38-.24.64-.48-.22.18-.44.34-.64.48ZM97.66,58.03c-.07.05-.15.09-.22.15.19-.13.39-.26.59-.38-.13.08-.25.15-.37.23ZM95.61,183.21c.3.51.59,1.01.9,1.51-.11-.25-.45-.82-.9-1.51ZM93.56,85.94s-.06-.05-.09-.06c.24.21.49.41.74.61-.21-.19-.43-.38-.65-.55ZM91.7,88.29c-.06-.05-.12-.09-.18-.13.17.15.34.28.48.4.09.07.17.14.26.21-.18-.17-.37-.33-.56-.48ZM90.01,79.88l-.09.36c.04-.12.08-.24.12-.36h-.03ZM82.04,74.35c-.08,0-.16,0-.24.01h.43c-.06,0-.13-.01-.19-.01ZM77.52,122.43h-.05s.15.14.15.14c-.04-.04-.08-.09-.1-.14ZM74.52,116.87c-.12-.01-.22-.02-.31-.02-.31-.02-.4.03-.42.18l.45.05.38.05c-.04-.09-.07-.17-.1-.26ZM73.42,113.91c-.06,0-.13.02-.19.03.07.01.13.02.2.03,0-.02-.01-.04-.01-.06ZM65.57,105.54l.21-2.64-.47-.1c-.06,1.3.04,2.59.31,3.8-.06-.37-.08-.73-.05-1.06ZM65.12,91.27c.19.47.35.83.31,1.1-.02.14-.23.57-.51,1.11.16-.25.34-.5.51-.74.14-.19.33-.45.49-.69-.26-.2-.54-.45-.8-.78ZM64.32,94.51c-.11.22-.21.45-.3.68.29-.57.63-1.19.9-1.71-.22.33-.43.67-.6,1.03ZM62.58,105.29c-.08-.02-.14-.03-.2-.03.06.6.15,1.21.27,1.8-.09-.61-.12-1.2-.07-1.77ZM58.91,104.71c.05-.11.11-.21.17-.32.03-.08.06-.16.1-.24-.1.18-.19.37-.27.56Z"/><path class="cls-6" d="M82.04,74.35c-.08,0-.16,0-.24.01h.43c-.06,0-.13-.01-.19-.01ZM106.25,202.96s-.03-.04-.04-.06c.02.04.05.09.07.13,0-.02-.02-.04-.03-.07Z"/><path class="cls-6" d="M226.37,199.12c.02-.2.04-.41.05-.61.01-.06.01-.13.01-.19-.02.27-.04.54-.06.8Z"/><path class="cls-6" d="M263.25,215.13c-2.43-5.63-9.57-8.09-15.87-10.26-1.14-.4-2.25-.78-3.26-1.16,3.72-7.32,6.04-17.69,1.98-26.65-2.58-5.71-7.07-8.98-12.31-8.98s-9.85,3.06-12.87,7.87c-1.76-.89-3.56-1.34-5.37-1.34-.54,0-1.08.04-1.6.12.25-.67.34-1.27.37-1.71.12-1.75-.46-6.1-8.35-8.77-4.49-1.51-9.75-2.43-16.35-2.82,2.29-10.82-4.62-21.65-19.87-31.04,3.3-6.47,4.92-13.45,4.84-20.81.26-.13.53-.25.72-.35.7-.33,1.31-.61,1.78-.93,10.03-6.66,13.03-21.78,6.41-32.34-.42-.68-1.14-1.45-2.11-2.48-.05-.05-.09-.1-.14-.14.01-.13.01-.28.02-.45.05-1.07.13-2.69-.9-4.69-2.83-5.44-10.05-9.24-17.56-9.24-2.01,0-3.93.29-5.65.85-.12-.13-.25-.26-.37-.39-.6-.62-1.28-1.32-2.08-1.94-8.17-6.3-19.12-9.77-30.83-9.77-18.99,0-35.03,9.2-41.57,23.63h-.03c-8.58,0-19.51,6.87-20.76,15.72-.32,2.29.29,4.03.72,5.08-.11.21-.23.43-.32.61-.65,1.23-1.1,2.09-1.34,2.75-.27.75-.47,1.74-.66,2.69-.04.18-.09.42-.13.63-.49.33-1.04.74-1.48,1.27-5.76,6.76-3.66,18.18-2.88,21.52l.04.16.05.15c2.36,6.69,4.65,13.6,6.86,20.29,6.97,21.02,14.17,42.77,25.01,62.45,3.77,6.84,10.79,19.57,19.91,22.08.99.27,2.33.37,3.62.47.37.03.86.06,1.23.1.21.28.47.64.67.92.77,1.07,1.56,2.18,2.48,2.94,2.78,2.27,6.43,3.47,10.56,3.47,1,0,2.03-.07,3.06-.21,1.27-.17,2.3-.62,3.14-.98.07-.04.15-.07.23-.11l.71,5.23c-8.61,1.89-16.08,4.21-22.74,7.06-14.94,6.39-16.33,12.91-14.86,17.25.58,1.72,2.31,4.61,7.34,4.61,3.02,0,6.25-1.04,7.99-1.6,3-.98,5.97-2.21,8.85-3.41,5.21-2.16,10.16-4.22,15.33-4.9.33,1.13.65,2.28.98,3.47,1.31,4.66,2.65,9.48,4.71,13.87,1.41,3.02,4.49,8.09,9.24,8.09,1.41,0,3.52-.49,5.59-2.82,4.01-4.49,2.93-12.06,1.98-18.74-.11-.74-.21-1.47-.31-2.17,1.01.32,2.02.65,3.03.98,4.35,1.43,8.86,2.9,13.39,4.11.46.13.96.26,1.48.41,3.4.94,8.06,2.24,12.16,2.24,2.38,0,4.3-.42,5.9-1.28,2.34-1.26,3.84-3.25,4.21-5.6.42-2.71-.67-5.65-2.99-8.07-4.26-4.44-14-8.52-30.65-12.83-.49-.12-.98-.26-1.47-.39-2.09-.56-4.24-1.13-6.46-1.42-.01-.68-.05-1.37-.11-2.09,2.31.23,4.77.39,7.23.39,4.58,0,8.62-.57,12.28-1.74,3.25,7.19,9.9,9.93,16.52,12.09l1.73.56c7.75,2.55,17.4,5.72,26.29,5.72,3.03,0,5.85-.37,8.39-1.11,8.17-2.36,30.99-18.48,34.71-26.71,1.55-3.43,1.72-6.6.51-9.41ZM183.85,91.28c-.01.12-.02.24-.03.36-.15,1.4-.49,2.89-1.04,4.38.53-1.53.89-3.13,1.07-4.74ZM59.08,104.39c-.06.11-.12.21-.17.32.08-.19.17-.38.27-.56-.04.08-.07.16-.1.24ZM62.38,105.26c.06,0,.12.01.2.03-.05.57-.02,1.16.07,1.77-.12-.59-.21-1.2-.27-1.8ZM65.62,106.6c-.27-1.21-.37-2.5-.31-3.8l.47.1-.21,2.64c-.03.33-.01.69.05,1.06ZM65.43,92.74c-.17.24-.35.49-.51.74-.27.52-.61,1.14-.9,1.71.09-.23.19-.46.3-.68.17-.36.38-.7.6-1.03.28-.54.49-.97.51-1.11.04-.27-.12-.63-.31-1.1.26.33.54.58.8.78-.16.24-.35.5-.49.69ZM82.04,74.35c.06,0,.13.01.19.01h-.43c.08-.01.16-.01.24-.01ZM73.24,113.94c.06,0,.13-.03.19-.03,0,.02.01.04.01.06-.07-.01-.13-.02-.2-.03ZM74.24,117.08l-.45-.05c.02-.15.11-.2.42-.18.09,0,.19.01.31.02.03.09.06.17.1.26l-.38-.05ZM77.46,122.44h.05s.06.09.1.13l-.15-.13ZM150.31,76.22l-.03.03-2.31-.99c-.04-.05-.05-.12-.03-.21.79.35,1.58.74,2.37,1.17ZM147.96,102.47c0-.07,0-.15.01-.23.42.84.75,1.68,1.03,2.52-.09-.09-.16-.18-.23-.27-.09-.12-.17-.24-.25-.36-.18-.27-.32-.56-.41-.84-.05-.13-.08-.26-.1-.38-.01-.02-.02-.04-.01-.06-.03-.13-.04-.26-.04-.38ZM145.97,105.18c.07.19.14.37.2.55.09.19.16.38.21.57-.02-.02-.04-.04-.05-.07,0,0-.01,0-.01-.01-.13-.16-.24-.33-.35-.5-.52-.82-.84-1.67-.96-2.51-.01-.07-.02-.14-.02-.21.39.7.71,1.43.98,2.18ZM144.61,111.03l-.12,1.87c0-1.05-.07-1.98-.19-2.68-.02-.15-.05-.31-.08-.47.12.42.24.84.39,1.28ZM134.74,124.71c-.18-.12-.32-.25-.38-.36.12.12.25.25.38.36ZM133.38,106.47c-.03.13-.06.26-.09.4-.04.13-.07.26-.09.4-.06.26-.11.53-.15.8-.04.24-.08.48-.11.72-.03.25-.06.51-.09.75,0-.28,0-.53.03-.76.1-.8.27-1.57.5-2.31ZM130.93,65.65c-.28.03-.56.07-.83.11-.08-.1-.16-.19-.25-.29.36.06.73.11,1.08.18ZM129.85,109.57c0-.39.01-.78.06-1.16.12-.98.34-1.98.65-2.95-.39,1.4-.6,2.83-.71,4.11,0,.66.05,1.33.05,1.99,0,.42-.02.83-.09,1.24-.02-.27-.03-.57-.04-.91,0-.67.01-1.46.08-2.32ZM126.93,108.03c.03-.25.07-.5.12-.75-.02.6-.09,1.19-.2,1.76.01-.33.03-.66.08-1.01ZM99.54,83.05c-.26.24-.49.43-.64.48.2-.14.42-.3.64-.48ZM99.93,191.73c-.55-.41-.93-.84-1.26-1.59.35.57.81,1.13,1.26,1.59ZM99.16,183.3c-.3-.48-.58-.96-.85-1.45.42.66.68,1.1.85,1.45ZM90.01,79.88h.03c-.04.12-.08.24-.12.36l.09-.36ZM92.01,88.56c-.14-.12-.31-.25-.48-.4.06.04.12.08.18.13.19.15.38.31.56.48-.09-.07-.17-.14-.26-.21ZM93.47,85.88s.06.04.09.06c.22.17.44.36.65.55-.25-.2-.5-.4-.74-.61ZM95.61,183.21c.45.69.79,1.26.9,1.51-.31-.5-.6-1-.9-1.51ZM97.66,58.03c.12-.08.24-.15.37-.23-.2.12-.4.25-.59.38.07-.06.15-.1.22-.15ZM99.2,195.08s-.52-.38-1.17-1.01c.8.62,1.69,1.09,2.61,1.78l.02.02.15.18c-.59-.3-1.13-.62-1.61-.97ZM100.95,192.64c-.26-.18-.62-.51-1.01-.9.29.22.62.44,1.01.69.5.32,1.09.7,1.7,1.18-.64-.3-1.21-.62-1.7-.97ZM106.27,203.03s-.05-.09-.07-.13c.01.02.03.04.04.06.06.1.12.2.17.3-.05-.08-.09-.15-.14-.23ZM107.31,199.18c-.19-.25-.38-.49-.58-.73h.16v.02c.56.78,1.07,1.55,1.48,2.22-.17-.26-.34-.52-.52-.77-.17-.25-.35-.5-.54-.74ZM114.1,224.97h.15c.09.19.19.37.29.54-.15-.2-.3-.39-.44-.54ZM117.2,228.85c-.26-.21-.53-.5-.8-.84-.7-.74-1.31-1.57-1.83-2.46.55.73,1.2,1.7,1.83,2.46.55.59,1.17,1.13,1.85,1.61-.36-.24-.71-.49-1.05-.77ZM120.09,199.79c-.05.67-.1,1.34-.14,2.01,0-.4.02-.78.04-1.1.01-.26.03-.57.02-.7l-.02-.21v-.08s.11.01.11.01c0,.02,0,.05-.01.07ZM120.13,211.92v-.04s0,0,0,0v.04ZM121.06,196.84l.26-.02.54.05c-.26-.01-.53-.02-.8-.03ZM123.09,199.96c-.05.61-.09,1.22-.13,1.83-.02-.63.07-1.3.04-1.88h.09v.05ZM123.33,212.71h.01s0,.03.01.04c-.01-.01-.01-.02-.02-.04ZM124.06,216.24s.06.01.09.02c.21.9.53,1.85.95,2.81-.42-.91-.76-1.86-1.04-2.83ZM122.31,158.45c.79-.6,1.75-1.15,2.87-1.6,1.35-.55,2.79-.83,4.27-.94-2.47.39-5.16,1.31-7.14,2.54ZM132.76,230.06c.58-.08,1.17,0,1.8.37-.61-.1-1.22-.22-1.8-.37ZM133.41,141.39v-.02c.45.08.92.14,1.38.19-.47-.04-.93-.1-1.38-.17ZM135.16,102.71c.26-.31.55-.57.87-.77-.32.21-.6.47-.87.77ZM138.15,195.32s-.02.01-.03.02c.02-.03.04-.05.05-.07-.01.02-.01.03-.02.05ZM141.09,195.99c.01-.06.02-.1.03-.15l.1-.44c-.02.2-.06.39-.13.59ZM141.81,125.98c.28-.16.61-.3.96-.47-.31.19-.63.35-.96.47ZM171.54,108.06c.03-.1.13-.22.28-.33l-.25,1.03c.01.5.02,1,.02,1.49-.02-.41-.05-.81-.08-1.23l.06-.26c0-.23-.02-.47-.03-.7ZM168.44,108.54c.01.06.01.12.02.17l-.07.03.05-.2ZM162.92,99.08c.15.4.23.84.25,1.3-.4-.98-.85-1.97-1.35-2.94.49.42.87.97,1.1,1.64ZM162.1,220.88c.43.31.81.65,1.13,1.03.58.67.97,1.52,1.23,2.43-.43-1.33-1.16-2.53-2.36-3.46ZM167.99,229.37s-.08.01-.12.01c.09-1.66.04-3.45-.33-5.14.44,1.78.5,3.57.45,5.13ZM186.09,172.97c.34.6,1.13,2.28,1.49,3.36l-4-6.67c1.03,1.19,2.24,2.83,2.51,3.31ZM187.76,182.78v.84s-.2.48-.38.73c.04-.16.08-.33.12-.49.09-.37.18-.73.26-1.08ZM181.86,164.01c-.3.4-.63.78-.98,1.14l-.72-1.2,1.7.06ZM182.33,226.48c-.05-.07-.05-.17,0-.29-.04.13-.05.22,0,.29ZM182.52,225.86s-.03.05-.05.07c-.01.02-.02.04-.03.06h-.01l-.09-.03c-.82.69-1.68,1.38-2.59,2.04-.59-.94-.61-1.84-.28-2.72.08-.01.16-.01.24-.01.89,0,1.55.27,1.95.43l.15.06c.18.06.35.13.53.2.1-.08.19-.16.28-.24-.03.05-.07.1-.1.14ZM185.19,218.44c-.02.06-.06.13-.11.21h0c-.05.09-.1.17-.16.26,0,0-.01.02-.02.03-.06.08-.13.17-.2.27-.05.07-.11.14-.17.22-.04.06-.09.12-.14.18-.08.08-.15.17-.23.26-.55.67-1.26,1.42-1.86,2.02-.06.06-.12.12-.17.17-.16.17-.31.32-.45.45-.05.05-.09.09-.13.13-.21.21-.37.36-.46.43-.13.11-.26.23-.39.33-.06.05-.11.1-.17.15v-.02c.62-.74,1.39-1.47,2.11-2.15.24-.23.44-.41.55-.53.46-.51.97-1.2,1.47-1.87.15-.19.3-.39.44-.58.05-.06.09-.12.13-.17.02.05.01.12-.04.21ZM187.88,219.7c.03-.05.05-.1.06-.14.01.01.03.02.04.02-.03.04-.06.08-.1.12ZM187.42,216.12c-.13-.06-.26-.11-.39-.17l.07-.08.22.1,1.88.87c-.59-.24-1.19-.48-1.78-.72ZM190.24,174.82c.01.05.03.1.05.14h-.02l-.07-.12s.02-.01.04-.02ZM190.76,183.62c0,.46-.18,1.22-.58,1.95.05-.23.11-.47.17-.71.09-.37.18-.75.27-1.13.05-.2.09-.41.14-.61v.5ZM196.26,194.33c.38.41.73.83,1.04,1.26-.51-.44-.84-.95-1.04-1.26ZM197.4,191.26c-.25-.23-.5-.46-.76-.69-.03-.03-.07-.07-.11-.1-.22-.2-.44-.4-.67-.59.03.02.05.04.08.06.78.65,1.5,1.31,2.17,2-.24-.22-.47-.45-.71-.68ZM198.15,191.98c.1.1.2.19.3.29.05.05.11.12.16.21-.15-.17-.3-.33-.46-.5ZM199.77,193.9c-.12-.16-.24-.32-.36-.48-.27-.1-.52-.53-.73-.85.26.28.5.57.73.85.04.02.08.03.12.03.08,0,.16-.04.25-.13.03-.03.06-.07.09-.11.07-.25.14-.5.22-.75.53-1.7,1.32-3.28,2.23-4.8-1.11,2-1.96,4.13-2.55,6.24ZM202.4,187.52c.48-.86,1-1.69,1.58-2.47-.55.82-1.08,1.63-1.58,2.47ZM204.62,178.4c-.1-.1-.17-.16-.22-.21-.18-.12-.37-.24-.56-.35.18-.03.35-.06.53-.1-.04.26-.04.35.03.45.79.51,1.54,1.11,2.24,1.81-.69-.57-1.47-1.09-2.02-1.6ZM222.24,213.65l-.13-.03h-.01s.06-.09.08-.13c.04.02.09.03.13.04-.02.04-.04.08-.07.12ZM223.04,201.9c-.06.42-.14.84-.23,1.27.12-.63.23-1.29.32-1.96-.02.23-.06.46-.09.69ZM225.71,203.88c-.07.34-.15.67-.24,1.01.11-.43.21-.87.3-1.31,0,.1-.03.2-.06.3ZM226.01,202.33c-.01.05-.02.11-.03.16.04-.23.07-.47.1-.7-.02.18-.04.36-.07.54ZM226.42,198.51c0,.11-.01.22-.02.33-.01.05-.01.1-.01.15-.01.04-.01.09-.02.13.02-.26.04-.53.06-.8,0,.06,0,.13-.01.19ZM256.16,211.83c-.14-.09-.28-.17-.43-.26l.08-.1.16-.2,2.09,1.92c-.57-.49-1.21-.94-1.9-1.36Z"/><path class="cls-5" d="M163.24,221.91c-.32-.38-.7-.72-1.13-1.03,1.2.93,1.93,2.13,2.36,3.46-.26-.91-.65-1.76-1.23-2.43ZM141.12,195.84c-.01.05-.02.09-.03.15.07-.2.11-.39.13-.59l-.1.44ZM138.12,195.34s.02-.01.03-.02c.01-.02.01-.03.02-.05-.01.02-.03.04-.05.07ZM98.67,190.14c.33.75.71,1.18,1.26,1.59-.45-.46-.91-1.02-1.26-1.59ZM106.25,202.96s-.03-.04-.04-.06c.02.04.05.09.07.13.05.08.09.15.14.23-.05-.1-.11-.2-.17-.3ZM106.72,198.45l.16.02h0s-.16-.02-.16-.02ZM114.26,224.98h-.15c.14.14.29.33.44.53-.1-.17-.2-.35-.29-.53ZM116.4,228.01c.27.34.54.63.8.84.34.28.69.53,1.05.77-.68-.48-1.3-1.02-1.85-1.61ZM124.14,216.26s-.06-.01-.09-.02c.28.97.62,1.92,1.04,2.83-.42-.96-.74-1.91-.95-2.81ZM163.24,221.91c-.32-.38-.7-.72-1.13-1.03,1.2.93,1.93,2.13,2.36,3.46-.26-.91-.65-1.76-1.23-2.43ZM181.81,225.76l-.15-.06c-.4-.16-1.06-.43-1.95-.43-.08,0-.16,0-.24.01-.33.88-.31,1.78.28,2.72.91-.66,1.77-1.35,2.59-2.04-.18-.07-.35-.14-.53-.2ZM182.33,226.19c-.05.12-.05.22,0,.29-.05-.07-.04-.16,0-.29ZM182.33,225.96l.09.03s.02-.04.04-.06.03-.04.05-.07c.03-.04.07-.09.1-.14-.09.08-.18.16-.28.24ZM187.94,219.56s-.03.09-.06.14c.04-.04.07-.08.1-.12-.01,0-.03-.01-.04-.02ZM198.45,192.27c-.1-.1-.2-.19-.3-.29.16.17.31.33.46.5-.05-.09-.11-.16-.16-.21ZM200.09,192.46c-.08.25-.15.5-.22.75-.03.04-.06.08-.09.11-.09.09-.17.13-.25.13-.04,0-.08-.01-.12-.03.12.16.24.32.36.48.59-2.11,1.44-4.24,2.55-6.24-.91,1.52-1.7,3.1-2.23,4.8ZM204.37,177.74c-.18.04-.35.07-.53.1.19.11.38.23.56.35-.07-.1-.07-.19-.03-.45ZM222.81,203.17c.09-.43.17-.85.23-1.27.03-.23.07-.46.09-.69-.09.67-.2,1.33-.32,1.96ZM225.97,202.49c.01-.05.02-.11.03-.16.03-.18.05-.36.07-.54-.03.23-.06.47-.1.7ZM163.24,221.91c-.32-.38-.7-.72-1.13-1.03,1.2.93,1.93,2.13,2.36,3.46-.26-.91-.65-1.76-1.23-2.43ZM171.56,108.76l-.06.26c.03.42.06.82.08,1.23,0-.49-.01-.99-.02-1.49ZM141.12,195.84c-.01.05-.02.09-.03.15.07-.2.11-.39.13-.59l-.1.44ZM138.12,195.34s.02-.01.03-.02c.01-.02.01-.03.02-.05-.01.02-.03.04-.05.07ZM82.04,74.35c-.08,0-.16,0-.24.01h.43c-.06,0-.13-.01-.19-.01ZM65.12,91.27c.19.47.35.83.31,1.1-.02.14-.23.57-.51,1.11.16-.25.34-.5.51-.74.14-.19.33-.45.49-.69-.26-.2-.54-.45-.8-.78ZM58.91,104.71c.05-.11.11-.21.17-.32.03-.08.06-.16.1-.24-.1.18-.19.37-.27.56Z"/><path class="cls-6" d="M119.99,199.71v.08s.03.21.03.21c0,.13-.01.44-.02.7-.02.32-.04.7-.04,1.1.04-.67.09-1.34.14-2.01.01-.02.01-.05.01-.07h-.12ZM121.32,196.82l-.26.02c.27.01.54.02.8.03l-.54-.05ZM123.01,199.91c.03.58-.06,1.25-.04,1.88.04-.61.08-1.22.13-1.83v-.05h-.09ZM180.16,163.95l.72,1.2c.35-.36.68-.74.98-1.14l-1.7-.06ZM185.24,218.23c-.04.05-.08.11-.13.17.03.02.06.03.09.04.05-.09.06-.16.04-.21ZM187.32,215.97l-.22-.1-.07.08c.13.06.26.11.39.17.59.24,1.19.48,1.78.72l-1.88-.87ZM186.09,172.97c-.27-.48-1.48-2.12-2.51-3.31l4,6.67c-.36-1.08-1.15-2.76-1.49-3.36ZM187.5,183.86c-.04.16-.08.33-.12.49.18-.25.38-.69.38-.73v-.84c-.08.35-.17.71-.26,1.08ZM190.24,174.82s-.03.01-.04.02l.07.12h.02s-.04-.09-.05-.14ZM190.61,183.73c-.09.38-.18.76-.27,1.13-.06.24-.12.48-.17.71.4-.73.58-1.49.58-1.95v-.5c-.05.2-.09.41-.14.61ZM195.94,189.94s-.05-.04-.08-.06c.23.19.45.39.67.59.04.03.08.07.11.1.26.23.51.46.76.69.24.23.47.46.71.68-.67-.69-1.39-1.35-2.17-2ZM196.26,194.33c.2.31.53.82,1.04,1.26-.31-.43-.66-.85-1.04-1.26ZM198.68,192.57c.21.32.46.75.73.85-.23-.28-.47-.57-.73-.85ZM202.4,187.52c.5-.84,1.03-1.65,1.58-2.47-.58.78-1.1,1.61-1.58,2.47ZM222.17,213.49s-.05.09-.08.13h.01l.13.03s.05-.08.07-.12c-.04-.01-.09-.02-.13-.04ZM222.81,203.17c.09-.43.17-.85.23-1.27.03-.23.07-.46.09-.69-.09.67-.2,1.33-.32,1.96ZM225.47,204.89c.09-.34.17-.67.24-1.01.03-.1.05-.2.06-.3-.09.44-.19.88-.3,1.31ZM226.37,199.12s.01-.09.02-.13c0-.05,0-.1.01-.15.01-.11.02-.22.02-.33.01-.06.01-.13.01-.19-.02.27-.04.54-.06.8ZM168.44,108.54l-.05.2.07-.03s-.01-.11-.02-.17ZM147.93,75.05c-.02.09-.01.16.03.21l2.31.99.03-.03c-.79-.43-1.58-.82-2.37-1.17ZM141.12,195.84c-.01.05-.02.09-.03.15.07-.2.11-.39.13-.59l-.1.44ZM133.41,141.37v.02c.45.07.91.13,1.38.17-.46-.05-.93-.11-1.38-.19ZM129.85,109.57c-.07.86-.09,1.65-.08,2.32.01.34.02.64.04.91.07-.41.09-.82.09-1.24,0-.66-.05-1.33-.05-1.99ZM129.91,108.41c-.05.38-.06.77-.06,1.16.11-1.28.32-2.71.71-4.11-.31.97-.53,1.97-.65,2.95ZM135.16,102.71c.27-.3.55-.56.87-.77-.32.2-.61.46-.87.77ZM146.17,105.73c-.06-.18-.13-.36-.2-.55-.27-.75-.59-1.48-.98-2.18,0,.07.01.14.02.21.12.84.44,1.69.96,2.51.11.17.22.34.35.5,0,.01.01.01.01.01.01.03.03.05.05.07-.05-.19-.12-.38-.21-.57ZM147.97,102.24c-.01.08-.01.16-.01.23,0,.12.01.25.04.38-.01.02,0,.04.01.06.02.12.05.25.1.38.09.28.23.57.41.84.08.12.16.24.25.36.07.09.14.18.23.27-.28-.84-.61-1.68-1.03-2.52ZM162.92,99.08c-.23-.67-.61-1.22-1.1-1.64.5.97.95,1.96,1.35,2.94-.02-.46-.1-.9-.25-1.3ZM126.93,108.03c-.05.35-.07.68-.08,1.01.11-.57.18-1.16.2-1.76-.05.25-.09.5-.12.75ZM125.17,156.85c-1.12.45-2.08,1-2.87,1.6,1.98-1.23,4.67-2.15,7.14-2.54-1.48.11-2.92.39-4.27.94ZM98.9,83.53c.15-.05.38-.24.64-.48-.22.18-.44.34-.64.48ZM93.56,85.94s-.06-.05-.09-.06c.24.21.49.41.74.61-.21-.19-.43-.38-.65-.55ZM91.7,88.29c-.06-.05-.12-.09-.18-.13.17.15.34.28.48.4.09.07.17.14.26.21-.18-.17-.37-.33-.56-.48ZM90.01,79.88l-.09.36c.04-.12.08-.24.12-.36h-.03Z"/><path class="cls-1" d="M196.26,194.33c.2.31.53.82,1.04,1.26-.31-.43-.66-.85-1.04-1.26ZM187.5,183.86c-.04.16-.08.33-.12.49.18-.25.38-.69.38-.73v-.84c-.08.35-.17.71-.26,1.08ZM186.09,172.97c-.27-.48-1.48-2.12-2.51-3.31l4,6.67c-.36-1.08-1.15-2.76-1.49-3.36ZM187.32,215.97l-.22-.1-.07.08c.13.06.26.11.39.17.59.24,1.19.48,1.78.72l-1.88-.87ZM180.16,163.95l.72,1.2c.35-.36.68-.74.98-1.14l-1.7-.06ZM168.44,108.54l-.05.2.07-.03s-.01-.11-.02-.17ZM146.17,105.73c.05.16.1.32.15.49,0,.01.01.01.01.01.01.03.03.05.05.07-.05-.19-.12-.38-.21-.57ZM162.92,99.08c-.23-.67-.61-1.22-1.1-1.64.5.97.95,1.96,1.35,2.94-.02-.46-.1-.9-.25-1.3ZM133.41,141.37v.02c.45.07.91.13,1.38.17-.46-.05-.93-.11-1.38-.19ZM123.01,199.91c.03.58-.06,1.25-.04,1.88.04-.61.08-1.22.13-1.83v-.05h-.09ZM129.85,109.57c-.07.86-.09,1.65-.08,2.32.01.34.02.64.04.91.07-.41.09-.82.09-1.24,0-.66-.05-1.33-.05-1.99ZM126.93,108.03c-.05.35-.07.68-.08,1.01.11-.57.18-1.16.2-1.76-.05.25-.09.5-.12.75ZM93.56,85.94s-.06-.05-.09-.06c.24.21.49.41.74.61-.21-.19-.43-.38-.65-.55Z"/><path class="cls-6" d="M62.65,107.06c-.12-.59-.21-1.2-.27-1.8.06,0,.12.01.2.03-.05.57-.02,1.16.07,1.77Z"/><path class="cls-6" d="M65.62,106.6c-.27-1.21-.37-2.5-.31-3.8l.47.1-.21,2.64c-.03.33-.01.69.05,1.06Z"/><path class="cls-6" d="M74.24,117.08l-.45-.05c.02-.15.11-.2.42-.18.01.08.02.15.03.23Z"/><path class="cls-6" d="M96.52,184.72c-.31-.5-.6-1-.9-1.51.45.69.79,1.26.9,1.51Z"/><path class="cls-6" d="M99.16,183.3c-.3-.48-.58-.96-.85-1.45.42.66.68,1.1.85,1.45Z"/><path class="cls-6" d="M100.81,196.05c-.59-.3-1.13-.62-1.61-.97-.01-.01-.52-.38-1.17-1.01.8.62,1.69,1.09,2.61,1.78l.02.02.15.18Z"/><path class="cls-6" d="M102.65,193.61c-.64-.3-1.21-.62-1.7-.97-.26-.18-.62-.51-1.01-.9.29.22.62.44,1.01.69.5.32,1.09.7,1.7,1.18Z"/><path class="cls-6" d="M106.41,203.26c-.05-.08-.09-.15-.14-.23-.02-.04-.05-.09-.07-.13.01.02.03.04.04.06.06.1.12.2.17.3Z"/><path class="cls-6" d="M108.36,200.69c-.17-.26-.34-.52-.52-.77-.17-.25-.35-.5-.54-.74-.19-.25-.38-.49-.58-.73h.16v.02c.56.78,1.07,1.55,1.48,2.22Z"/><path class="cls-6" d="M62.65,107.06c-.12-.59-.21-1.2-.27-1.8.06,0,.12.01.2.03-.05.57-.02,1.16.07,1.77Z"/><path class="cls-6" d="M96.52,184.72c-.31-.5-.6-1-.9-1.51.45.69.79,1.26.9,1.51Z"/><path class="cls-6" d="M100.81,196.05c-.59-.3-1.13-.62-1.61-.97-.01-.01-.52-.38-1.17-1.01.8.62,1.69,1.09,2.61,1.78l.02.02.15.18Z"/><path class="cls-6" d="M182.33,225.96c-.82.69-1.68,1.38-2.59,2.04-.59-.94-.61-1.84-.28-2.72.08-.01.16-.01.24-.01.89,0,1.55.27,1.95.43l.15.06c.18.06.35.13.53.2Z"/><path class="cls-6" d="M182.33,226.48c-.05-.07-.05-.17,0-.29-.04.13-.05.22,0,.29Z"/><path class="cls-6" d="M182.61,225.72c-.03.05-.07.1-.1.14-.02.03-.03.05-.05.07-.01.02-.02.04-.03.06h-.01l-.09-.03c.1-.08.19-.16.28-.24Z"/><path class="cls-6" d="M185.19,218.44c-.03.06-.06.14-.11.21h0c-.05.09-.1.17-.16.26,0,0-.01.02-.02.03-.06.08-.13.17-.2.27-.05.07-.11.14-.17.22-.04.06-.09.12-.14.18-.08.08-.15.17-.23.26-.55.67-1.26,1.42-1.86,2.02-.06.06-.12.12-.17.17-.16.17-.31.32-.45.45-.05.05-.09.09-.13.13-.21.21-.37.36-.46.43-.13.11-.26.23-.39.33-.06.05-.11.1-.17.15v-.02c.62-.74,1.39-1.47,2.11-2.15.24-.23.44-.41.55-.53.46-.51.97-1.2,1.47-1.87.15-.19.3-.39.44-.58.05-.06.09-.12.13-.17.02.05.01.12-.04.21Z"/><path class="cls-6" d="M189.2,216.84c-.59-.24-1.19-.48-1.78-.72-.13-.06-.26-.11-.39-.17l.07-.08.22.1,1.88.87Z"/><path class="cls-6" d="M187.99,219.58s-.06.08-.1.12c.03-.05.05-.1.06-.14.01.01.03.02.04.02Z"/><path class="cls-6" d="M222.31,213.53s-.04.08-.07.12l-.13-.03h-.01s.06-.09.08-.13c.04.02.09.03.13.04Z"/><path class="cls-6" d="M256.16,211.83c-.14-.09-.28-.17-.43-.26l.08-.1.28.11.07.25Z"/><path class="cls-3" d="M182.33,226.48c-.05-.07-.05-.17,0-.29-.04.13-.05.22,0,.29Z"/><path class="cls-3" d="M222.31,213.53s-.04.08-.07.12l-.13-.03s.05-.09.07-.13c.04.02.09.03.13.04Z"/><path class="cls-6" d="M149.77,279.76c-1.33,0-2.64-.58-3.77-1.68-2.63-2.55-4.29-7.81-6.52-15.55-.94-3.27-1.83-6.36-2.64-8.12-.02-.05-.04-.09-.06-.12-.06,0-.14-.01-.26-.01-.39,0-.91.06-1.46.12l-.68.07c-4.99.5-10.2,2.74-15.25,4.91-4.1,1.76-8.33,3.58-12.55,4.52-1.59.35-2.79.52-3.8.52-2.83,0-3.97-1.45-4.39-2.32-1.29-2.62.86-5.4,1.67-6.45,1.73-2.24,4.87-4.35,9.87-6.63,7.56-3.44,15.72-5.54,23.61-7.57l5.49-1.42,1.03,2.34c1.02,2.33,2.34,3.5,3.92,3.5.97,0,2.13-.41,3.36-1.2.29-.24.96-1.34,1.25-1.81.58-.95,1-1.63,1.77-2.11.69-.43,1.54-.64,2.6-.64,1.77,0,4.22.58,6.37,1.13l.63.16c6.33,1.52,13.43,3.65,18.98,5.69,5.87,2.15,13.22,5.53,14.91,9.4,1.06,2.43.34,4.14-.18,4.93-1.62,2.47-5.03,2.47-6.15,2.48-2.89,0-6.16-.7-7.56-1-5.47-1.16-10.86-2.91-16.07-4.59-3.42-1.11-6.94-2.24-10.41-3.19,0,.13.01.25.02.36.04.93.32,2.69.62,4.56,1.42,8.92,2.2,15.97-1.62,18.81-.8.6-1.74.91-2.72.91Z"/><path class="cls-3" d="M148.09,275.92c-3.6-3.47-6.09-17.47-8.53-22.77-1.09-2.37-3.06-1.91-5.48-1.66-9.64.97-19.08,7.46-28.14,9.48-3.82.85-6.86.87-3.49-3.49,1.86-2.41,5.96-4.47,8.74-5.73,8.26-3.77,17.37-5.9,26.13-8.18,2.32,5.29,6.58,6.85,11.64,3.64,1.31-.83,2.54-3.62,2.99-3.9,1.1-.68,5.84.65,7.32,1.01,5.89,1.42,12.96,3.5,18.65,5.59,3.21,1.18,11.82,4.65,13.19,7.79,2.19,5.03-8.22,2.77-10.58,2.27-9.55-2.03-19.04-5.96-28.54-8.33-1.99-.18-1.54,2.59-1.48,3.98.18,4.25,3.81,18.15.2,20.83-.91.67-1.89.19-2.62-.51Z"/><path class="cls-6" d="M77.61,122.57l-.15-.13h.05s.06.09.1.13Z"/><path class="cls-6" d="M90.04,79.88c-.04.12-.08.24-.12.36l.09-.36h.03Z"/><path class="cls-6" d="M92.27,88.77c-.09-.07-.17-.14-.26-.21-.14-.12-.31-.25-.48-.4.06.04.12.08.18.13.19.15.38.31.56.48Z"/><path class="cls-6" d="M94.21,86.49c-.25-.2-.5-.4-.74-.61.03.01.06.04.09.06.22.17.44.36.65.55Z"/><path class="cls-6" d="M98.04,57.8c-.2.12-.4.25-.59.38.07-.06.15-.1.22-.15.12-.08.24-.15.37-.23Z"/><path class="cls-2" d="M90.04,79.88c-.04.12-.08.24-.12.36l.09-.36h.03Z"/><path class="cls-2" d="M92.27,88.77c-.09-.07-.17-.14-.26-.21-.14-.12-.31-.25-.48-.4.06.04.12.08.18.13.19.15.38.31.56.48Z"/><path class="cls-6" d="M73.43,113.97c-.07-.01-.13-.02-.2-.03.06,0,.13-.03.19-.03,0,.02.01.04.01.06Z"/><path class="cls-6" d="M74.61,117.13l-.38-.05-.45-.05c.02-.15.11-.2.42-.18.09,0,.19.01.31.02.03.09.06.17.1.26Z"/><path class="cls-6" d="M77.61,122.57l-.15-.13h.05s.06.09.1.13Z"/><path class="cls-6" d="M96.52,184.72c-.31-.5-.6-1-.9-1.51.45.69.79,1.26.9,1.51Z"/><path class="cls-6" d="M99.16,183.3c-.3-.48-.58-.96-.85-1.45.42.66.68,1.1.85,1.45Z"/><path class="cls-3" d="M74.61,117.13l-.38-.05-.45-.05c.02-.15.11-.2.42-.18.09,0,.19.01.31.02.03.09.06.17.1.26Z"/><path class="cls-3" d="M77.61,122.57l-.15-.13h.05s.06.09.1.13Z"/><path class="cls-3" d="M99.16,183.3c-.3-.48-.58-.96-.85-1.45.42.66.68,1.1.85,1.45Z"/><path class="cls-6" d="M182.33,225.96c-.82.69-1.68,1.38-2.59,2.04-.59-.94-.61-1.84-.28-2.72.08-.01.16-.01.24-.01.89,0,1.55.27,1.95.43l.15.06c.18.06.35.13.53.2Z"/><path class="cls-6" d="M182.33,226.48c-.05-.07-.05-.17,0-.29-.04.13-.05.22,0,.29Z"/><path class="cls-6" d="M258.06,213.19c-.57-.49-1.21-.94-1.9-1.36-.14-.09-.28-.17-.43-.26l.08-.1.16-.2,2.09,1.92Z"/><path class="cls-6" d="M179.44,228.3c.53-.11.89.12,1.34.28,7.92,2.89,15.34,7.06,23.7,9.58,13.84,4.17,19.54,3.95,31.5-4.14,7.51-5.08,14.66-11.31,20.33-18.38,4.69,4.28-1.35,9.99-4.71,13.01-5.86,5.27-20.68,16.76-28.24,17.71-7.98,1-26.37-4.26-34.15-7.39-4.78-1.93-8.68-5.49-9.77-10.66Z"/><path class="cls-6" d="M222.31,213.53s-.04.08-.07.12l-.13-.03h-.01s.06-.09.08-.13c.04.02.09.03.13.04Z"/><path class="cls-6" d="M225.77,203.58c0,.1-.03.2-.06.3-.07.34-.15.67-.24,1.01.11-.43.21-.87.3-1.31Z"/><path class="cls-6" d="M226.07,201.79c-.02.18-.04.36-.07.54-.01.05-.02.11-.03.16.04-.23.07-.47.1-.7Z"/><path class="cls-6" d="M226.12,201.46c.03-.2.05-.41.08-.61-.02.16-.04.33-.06.49-.01.04-.01.08-.02.12Z"/><path class="cls-6" d="M226.43,198.32c0,.06,0,.13-.01.19,0,.11-.01.22-.02.33-.01.05-.01.1-.01.15-.01.04-.01.09-.02.13.02-.26.04-.53.06-.8Z"/><path class="cls-1" d="M226.12,201.46c.03-.2.05-.41.08-.61-.02.16-.04.33-.06.49-.01.04-.01.08-.02.12Z"/><polygon class="cls-6" points="120.13 211.88 120.13 211.92 120.12 211.88 120.13 211.88"/><path class="cls-6" d="M123.35,212.75s-.01-.02-.02-.04h.01s0,.03.01.04Z"/><path class="cls-6" d="M167.99,229.37s-.08.01-.12.01c.09-1.66.04-3.45-.33-5.14.44,1.78.5,3.57.45,5.13Z"/><path class="cls-6" d="M182.33,225.96c-.82.69-1.68,1.38-2.59,2.04-.59-.94-.61-1.84-.28-2.72.08-.01.16-.01.24-.01.89,0,1.55.27,1.95.43l.15.06c.18.06.35.13.53.2Z"/><path class="cls-6" d="M185.19,218.44c-.03.06-.06.14-.11.21h0c-.05.09-.1.17-.16.26,0,0-.01.02-.02.03-.06.08-.13.17-.2.27-.05.07-.11.14-.17.22-.04.06-.09.12-.14.18-.08.08-.15.17-.23.26-.55.67-1.26,1.42-1.86,2.02-.06.06-.12.12-.17.17-.16.17-.31.32-.45.45-.05.05-.09.09-.13.13-.21.21-.37.36-.46.43-.13.11-.26.23-.39.33-.06.05-.11.1-.17.15v-.02c.62-.74,1.39-1.47,2.11-2.15.24-.23.44-.41.55-.53.46-.51.97-1.2,1.47-1.87.15-.19.3-.39.44-.58.05-.06.09-.12.13-.17.02.05.01.12-.04.21Z"/><path class="cls-6" d="M187.42,216.12c-.13-.06-.26-.11-.39-.17l.07-.08.22.1.1.15Z"/><path class="cls-3" d="M167.99,229.37s-.08.01-.12.01c.09-1.66.04-3.45-.33-5.14.44,1.78.5,3.57.45,5.13Z"/><path class="cls-3" d="M185.19,218.44c-.03.06-.06.14-.11.21h0c-.05.09-.1.17-.16.26,0,0-.01.02-.02.03-.06.08-.13.17-.2.27-.05.07-.11.14-.17.22-.04.06-.09.12-.14.18-.08.08-.15.17-.23.26-.55.67-1.26,1.42-1.86,2.02-.06.06-.12.12-.17.17-.16.17-.31.32-.45.45-.05.05-.09.09-.13.13-.21.21-.37.36-.46.43-.13.11-.26.23-.39.33-.06.05-.11.09-.16.13.61-.74,1.38-1.47,2.1-2.15.24-.23.44-.41.55-.53.46-.51.97-1.2,1.47-1.87.15-.19.3-.39.44-.58.05-.06.09-.12.13-.17.02.05.01.12-.04.21Z"/><polygon class="cls-6" points="120.13 211.88 120.13 211.92 120.12 211.88 120.13 211.88"/><path class="cls-6" d="M123.35,212.75s-.01-.02-.02-.04h.01s0,.03.01.04Z"/><path class="cls-6" d="M125.09,219.07c-.42-.91-.76-1.86-1.04-2.83.03.01.06.01.09.02.21.9.53,1.85.95,2.81Z"/><path class="cls-6" d="M134.56,230.43c-.61-.1-1.22-.22-1.8-.37.58-.08,1.17,0,1.8.37Z"/><path class="cls-6" d="M164.46,224.34c-.43-1.33-1.16-2.53-2.36-3.46.43.31.81.65,1.13,1.03.58.67.97,1.52,1.23,2.43Z"/><path class="cls-6" d="M167.99,229.37s-.08.01-.12.01c.09-1.66.04-3.45-.33-5.14.44,1.78.5,3.57.45,5.13Z"/><path class="cls-6" d="M164.97,229.74c-5.78.35-11.47-.92-17.19-1.45-4.95-.45-14,.21-17.91-2.71-2.77-2.07-5.05-6.25-5.78-9.59,3.71.96,7.57,1.6,11.4,1.8,6.74.36,21.09-.97,26.4,2.9,2.92,2.12,3.24,5.68,3.08,9.04Z"/><path class="cls-6" d="M62.65,107.06c-.12-.59-.21-1.2-.27-1.8.06,0,.12.01.2.03-.05.57-.02,1.16.07,1.77Z"/><path class="cls-6" d="M64.92,93.48c-.27.52-.61,1.14-.9,1.71.09-.23.19-.46.3-.68.17-.36.38-.7.6-1.03Z"/><path class="cls-6" d="M65.62,106.6c-.27-1.21-.37-2.5-.31-3.8l.47.1-.21,2.64c-.03.33-.01.69.05,1.06Z"/><path class="cls-6" d="M73.43,113.97c-.07-.01-.13-.02-.2-.03.06,0,.13-.03.19-.03,0,.02.01.04.01.06Z"/><path class="cls-6" d="M74.61,117.13l-.38-.05-.45-.05c.02-.15.11-.2.42-.18.09,0,.19.01.31.02.03.09.06.17.1.26Z"/><path class="cls-1" d="M65.62,106.6c-.27-1.21-.37-2.5-.31-3.8l.47.1-.21,2.64c-.03.33-.01.69.05,1.06Z"/><path class="cls-1" d="M73.43,113.97c-.07-.01-.13-.02-.2-.03.06,0,.13-.03.19-.03,0,.02.01.04.01.06Z"/><path class="cls-6" d="M168.46,108.71l-.07.03.05-.2c.01.06.01.12.02.17Z"/><path class="cls-6" d="M183.85,91.28c-.01.12-.02.24-.03.36-.15,1.4-.49,2.89-1.04,4.38.53-1.53.89-3.13,1.07-4.74Z"/><path class="cls-6" d="M99.93,191.73c-.55-.41-.93-.84-1.26-1.59.35.57.81,1.13,1.26,1.59Z"/><path class="cls-6" d="M100.81,196.05c-.59-.3-1.13-.62-1.61-.97-.01-.01-.52-.38-1.17-1.01.8.62,1.69,1.09,2.61,1.78l.02.02.15.18Z"/><path class="cls-6" d="M102.65,193.61c-.64-.3-1.21-.62-1.7-.97-.26-.18-.62-.51-1.01-.9.29.22.62.44,1.01.69.5.32,1.09.7,1.7,1.18Z"/><path class="cls-6" d="M120.1,199.72s0,.05-.01.07h-.1v-.08s.11.01.11.01Z"/><path class="cls-6" d="M121.86,196.87c-.26-.01-.53-.02-.8-.03l.26-.02.54.05Z"/><path class="cls-6" d="M138.17,195.27s-.01.03-.02.05c-.01.01-.02.01-.03.02.02-.03.04-.05.05-.07Z"/><path class="cls-3" d="M102.65,193.61c-.64-.3-1.21-.62-1.7-.97-.26-.18-.62-.51-1.01-.9.29.22.62.44,1.01.69.5.32,1.09.7,1.7,1.18Z"/><path class="cls-3" d="M121.86,196.87c-.26-.01-.53-.02-.8-.03l.26-.02.54.05Z"/><path class="cls-6" d="M108.36,200.69c-.17-.26-.34-.52-.52-.77-.17-.25-.35-.5-.54-.74-.19-.25-.38-.49-.58-.73h.16v.02c.56.78,1.07,1.55,1.48,2.22Z"/><path class="cls-6" d="M112.26,209.31c.27.79.53,1.57.78,2.36-.12-.38-.24-.75-.38-1.13-.13-.41-.26-.82-.4-1.23Z"/><path class="cls-6" d="M116.4,228.01c-.7-.74-1.31-1.57-1.83-2.46.55.73,1.2,1.7,1.83,2.46Z"/><path class="cls-6" d="M120.1,199.72s0,.05-.01.07c-.05.67-.1,1.34-.14,2.01,0-.4.02-.78.04-1.1.01-.26.03-.57.02-.7l-.02-.21v-.08s.11.01.11.01Z"/><polygon class="cls-6" points="120.13 211.88 120.13 211.92 120.12 211.88 120.13 211.88"/><path class="cls-6" d="M121.86,196.87c-.26-.01-.53-.02-.8-.03l.26-.02.54.05Z"/><path class="cls-6" d="M123.09,199.91v.05c-.05.61-.09,1.22-.13,1.83-.02-.63.07-1.3.04-1.88h.09Z"/><path class="cls-6" d="M124.52,228.67c.16.01.37.02.6.03-.23,0-.44-.01-.6-.03Z"/><path class="cls-6" d="M108.36,200.69c-.17-.26-.34-.52-.52-.77-.17-.25-.35-.5-.54-.74-.19-.25-.38-.49-.58-.73h.16v.02c.56.78,1.07,1.55,1.48,2.22Z"/><path class="cls-6" d="M120.1,199.72s0,.05-.01.07c-.05.67-.1,1.34-.14,2.01,0-.4.02-.78.04-1.1.01-.26.03-.57.02-.7l-.02-.21v-.08s.11.01.11.01Z"/><polygon class="cls-6" points="120.13 211.88 120.13 211.92 120.12 211.88 120.13 211.88"/><path class="cls-6" d="M124.52,228.67c.16.01.37.02.6.03-.23,0-.44-.01-.6-.03Z"/><path class="cls-6" d="M171.81,107.73l-.25,1.03c0-.23-.02-.47-.03-.7.03-.1.13-.22.28-.33Z"/><path class="cls-6" d="M187.76,182.78v.84s-.2.48-.38.73c.04-.16.08-.33.12-.49.09-.37.18-.73.26-1.08Z"/><path class="cls-6" d="M190.29,174.96h-.02l-.07-.12s.02-.01.04-.02c.01.05.03.1.05.14Z"/><path class="cls-6" d="M190.76,183.12v.5c0,.46-.18,1.22-.58,1.95.05-.23.11-.47.17-.71.09-.37.18-.75.27-1.13.05-.2.09-.41.14-.61Z"/><path class="cls-6" d="M192.79,174.97c-.85-.02-1.69-.04-2.51-.01.82-.03,1.66-.02,2.51.01Z"/><path class="cls-6" d="M198.11,191.94c-.24-.22-.47-.45-.71-.68-.25-.23-.5-.46-.76-.69-.03-.03-.07-.07-.11-.1-.22-.2-.44-.4-.67-.59.03.02.05.04.08.06.78.65,1.5,1.31,2.17,2Z"/><path class="cls-6" d="M197.29,195.59c-.51-.44-.84-.95-1.04-1.26.38.41.73.83,1.04,1.26Z"/><path class="cls-6" d="M198.61,192.48c-.15-.17-.3-.33-.46-.5.1.1.2.19.3.29.05.05.11.12.16.21Z"/><path class="cls-6" d="M199.41,193.42c-.27-.1-.52-.53-.73-.85.26.28.5.57.73.85Z"/><path class="cls-6" d="M202.32,187.66c-1.11,2-1.96,4.13-2.55,6.24-.12-.16-.24-.32-.36-.48.04.02.08.03.12.03.08,0,.16-.04.25-.13.03-.03.06-.07.09-.11.07-.25.14-.5.22-.75.53-1.7,1.32-3.28,2.23-4.8Z"/><path class="cls-6" d="M203.99,185.05c-.55.82-1.08,1.63-1.58,2.47.48-.86,1-1.69,1.58-2.47Z"/><path class="cls-6" d="M206.64,180c-.69-.57-1.47-1.09-2.02-1.6-.1-.1-.17-.16-.22-.21.79.51,1.54,1.11,2.24,1.81Z"/><path class="cls-1" d="M190.76,183.12v.5c0,.46-.18,1.22-.58,1.95.05-.23.11-.47.17-.71.09-.37.18-.75.27-1.13.05-.2.09-.41.14-.61Z"/><path class="cls-1" d="M198.11,191.94c-.24-.22-.47-.45-.71-.68-.25-.23-.5-.46-.76-.69-.03-.03-.07-.07-.11-.1-.19-.18-.39-.35-.59-.53.78.65,1.5,1.31,2.17,2Z"/><path class="cls-1" d="M199.41,193.42c-.27-.1-.52-.53-.73-.85.26.28.5.57.73.85Z"/><path class="cls-1" d="M203.99,185.05c-.55.82-1.08,1.63-1.58,2.47.48-.86,1-1.69,1.58-2.47Z"/><path class="cls-6" d="M144.14,248.73c-1.86,0-3.53-.64-4.68-1.79-.42-.42-1.53-1.52-3.39-8.57-1.99-7.52-1.43-8.56-.37-9.64l.99-1,14.15,1.18.67,1.78c1.61,4.28,2.39,12.12-2.06,16.13-1.33,1.2-3.31,1.92-5.29,1.92Z"/><path class="cls-3" d="M141.57,244.81c-1.29-1.29-4.42-13.3-3.74-13.99l10.86.9c1.36,3.62,1.88,10.01-1.27,12.85-1.44,1.29-4.42,1.66-5.85.23Z"/><path class="cls-6" d="M181.86,164.01c-.3.4-.63.78-.98,1.14l-.72-1.2,1.7.06Z"/><path class="cls-6" d="M187.58,176.33l-4-6.67c1.03,1.19,2.24,2.83,2.51,3.31.34.6,1.13,2.28,1.49,3.36Z"/><path class="cls-6" d="M190.29,174.96h-.02l-.07-.12s.02-.01.04-.02c.01.05.03.1.05.14Z"/><path class="cls-6" d="M192.79,174.97c-.85-.02-1.69-.04-2.51-.01.82-.03,1.66-.02,2.51.01Z"/><path class="cls-3" d="M190.29,174.96h-.02l-.07-.12s.02-.01.04-.02c.01.05.03.1.05.14Z"/><path class="cls-6" d="M129.44,155.91c-2.47.39-5.16,1.31-7.14,2.54.79-.6,1.75-1.15,2.87-1.6,1.35-.55,2.79-.83,4.27-.94Z"/><path class="cls-1" d="M129.44,155.91c-2.47.39-5.16,1.31-7.14,2.54.79-.6,1.75-1.15,2.87-1.6,1.35-.55,2.79-.83,4.27-.94Z"/><path class="cls-6" d="M150.31,76.22l-.03.03-2.31-.99c-.04-.05-.05-.12-.03-.21.79.35,1.58.74,2.37,1.17Z"/><path class="cls-1" d="M150.31,76.22l-.03.03-2.31-.99c-.04-.05-.05-.12-.03-.21.79.35,1.58.74,2.37,1.17Z"/><path class="cls-6" d="M129.85,109.57c-.07.86-.09,1.65-.08,2.32.01.34.02.64.04.91.07-.41.09-.82.09-1.24,0-.66-.05-1.33-.05-1.99ZM129.91,108.41c-.05.38-.06.77-.06,1.16.11-1.28.32-2.71.71-4.11-.31.97-.53,1.97-.65,2.95ZM132.88,108.78c-.03.23-.03.48-.03.76.03-.24.06-.5.09-.75.03-.24.07-.48.11-.72.04-.27.09-.54.15-.8.02-.14.05-.27.09-.4.03-.14.06-.27.09-.4-.23.74-.4,1.51-.5,2.31ZM134.35,124.35c.06.11.2.24.38.36-.13-.11-.26-.24-.38-.36ZM135.16,102.71c.27-.3.55-.56.87-.77-.32.2-.61.46-.87.77ZM141.81,125.98c.33-.12.65-.28.96-.47-.35.17-.68.31-.96.47ZM144.22,109.75c.03.16.06.32.08.47.12.7.19,1.63.19,2.68l.12-1.87c-.15-.44-.27-.86-.39-1.28ZM146.17,105.73c-.06-.18-.13-.36-.2-.55-.27-.75-.59-1.48-.98-2.18,0,.07.01.14.02.21.12.84.44,1.69.96,2.51.11.17.22.34.35.5,0,.01.01.01.01.01.01.03.03.05.05.07-.05-.19-.12-.38-.21-.57ZM147.97,102.24c-.01.08-.01.16-.01.23,0,.12.01.25.04.38-.01.02,0,.04.01.06.02.12.05.25.1.38.09.28.23.57.41.84.08.12.16.24.25.36.07.09.14.18.23.27-.28-.84-.61-1.68-1.03-2.52ZM133.41,141.37v.02c.45.07.91.13,1.38.17-.46-.05-.93-.11-1.38-.19ZM126.93,108.03c-.05.35-.07.68-.08,1.01.11-.57.18-1.16.2-1.76-.05.25-.09.5-.12.75Z"/><path d="M129.91,108.41c-.05.38-.06.77-.06,1.16.11-1.28.32-2.71.71-4.11-.31.97-.53,1.97-.65,2.95ZM132.88,108.78c-.03.23-.03.48-.03.76.03-.24.06-.5.09-.75.03-.24.07-.48.11-.72.04-.27.09-.54.15-.8.02-.14.05-.27.09-.4.03-.14.06-.27.09-.4-.23.74-.4,1.51-.5,2.31ZM134.35,124.35c.06.11.2.24.38.36-.13-.11-.26-.24-.38-.36ZM135.16,102.71c.27-.3.55-.56.87-.77-.32.2-.61.46-.87.77ZM144.22,109.75c.03.16.06.32.08.47.12.7.19,1.63.19,2.68l.12-1.87c-.15-.44-.27-.86-.39-1.28ZM146.17,105.73c-.06-.18-.13-.36-.2-.55-.27-.75-.59-1.48-.98-2.18,0,.07.01.14.02.21.12.84.44,1.69.96,2.51.11.17.22.34.35.5-.05-.17-.1-.33-.15-.49Z"/><path class="cls-6" d="M127.06,107.28c-.02.6-.09,1.19-.2,1.76.01-.33.03-.66.08-1.01.03-.25.07-.5.12-.75Z"/><path class="cls-6" d="M146.38,106.3s-.04-.04-.05-.07c0,0-.01,0-.01-.01-.13-.16-.24-.33-.35-.5-.52-.82-.84-1.67-.96-2.51-.01-.07-.02-.14-.02-.21.39.7.71,1.43.98,2.18.07.19.14.37.2.55.09.19.16.38.21.57Z"/><path class="cls-6" d="M149.01,104.76c-.09-.09-.16-.18-.23-.27-.09-.12-.17-.24-.25-.36-.18-.27-.32-.56-.41-.84-.05-.13-.08-.26-.1-.38-.01-.02-.02-.04-.01-.06-.03-.13-.04-.26-.04-.38,0-.07,0-.15.01-.23.42.84.75,1.68,1.03,2.52Z"/><path class="cls-6" d="M163.17,100.38c-.4-.98-.85-1.97-1.35-2.94.49.42.87.97,1.1,1.64.15.4.23.84.25,1.3Z"/><path d="M149.01,104.76c-.09-.09-.16-.18-.23-.27-.09-.12-.17-.24-.25-.36-.18-.27-.32-.56-.41-.84-.05-.13-.08-.26-.1-.38-.01-.02-.02-.04-.01-.06-.03-.13-.04-.26-.04-.38,0-.07,0-.15.01-.23.42.84.75,1.68,1.03,2.52Z"/><path class="cls-6" d="M134.79,141.56c-.47-.04-.93-.1-1.38-.17v-.02c.45.08.92.14,1.38.19Z"/><path class="cls-6" d="M129.9,111.56c0,.42-.02.83-.09,1.24-.02-.27-.03-.57-.04-.91l.13-.33Z"/><path class="cls-6" d="M134.74,124.71c-.18-.12-.32-.25-.38-.36.12.12.25.25.38.36Z"/><path class="cls-6" d="M142.77,125.51c-.31.19-.63.35-.96.47.28-.16.61-.3.96-.47Z"/><path class="cls-6" d="M142.77,125.51c-.31.19-.63.35-.96.47.28-.16.61-.3.96-.47Z"/><path class="cls-6" d="M129.9,111.56c0,.42-.02.83-.09,1.24-.02-.27-.03-.57-.04-.91,0-.67.01-1.46.08-2.32,0,.66.05,1.33.05,1.99Z"/><path class="cls-6" d="M133.38,106.47c-.03.13-.06.26-.09.4-.04.13-.07.26-.09.4-.06.26-.11.53-.15.8-.04.24-.08.48-.11.72-.03.25-.06.51-.09.75,0-.28,0-.53.03-.76.1-.8.27-1.57.5-2.31Z"/><path class="cls-6" d="M136.04,101.94c-.32.21-.6.47-.87.77.26-.31.55-.57.87-.77Z"/><path class="cls-6" d="M142.77,125.51c-.31.19-.63.35-.96.47.28-.16.61-.3.96-.47Z"/><path class="cls-6" d="M144.61,111.03l-.12,1.87c0-1.05-.07-1.98-.19-2.68-.02-.15-.05-.31-.08-.47.12.42.24.84.39,1.28Z"/><path class="cls-6" d="M146.38,106.3s-.04-.04-.05-.07c0,0-.01,0-.01-.01-.13-.16-.24-.33-.35-.5-.52-.82-.84-1.67-.96-2.51.37.64.69,1.3.96,1.97.07.19.14.37.2.55.09.19.16.38.21.57Z"/><path d="M136.04,101.94c-.32.21-.6.47-.87.77.26-.31.55-.57.87-.77Z"/><path class="cls-5" d="M152.88,59.86c1.3,1,2.32,2.44,3.66,3.42,6.57-3.24,17.73-.29,21.16,6.3,1.12,2.15.21,3.43.72,5.07.06.18,2.04,2.1,2.54,2.89,5.58,8.92,3.4,22.32-5.53,28.26-.83.55-3.66,1.59-3.89,2.26.39,8.34-1.58,16.29-5.82,23.42,11.2,6.4,26.11,18.05,19.88,32.77,6.37.18,13.36.79,19.42,2.83,8.86,2.99,8.2,8.84-.61,10.56-.09.5-.07.46.23.75.8.76,2.12,1.52,2.89,2.48,4.01-2.75,7.81-4.62,12.48-2.02.56.31,1.69,1.62,2.11,1.32,4.04-10.02,16.07-13.3,21.24-1.88,3.81,8.4,1.28,19.32-3.51,26.84,7.44,3.89,25.72,5.85,20.15,18.17-3.22,7.13-25.2,22.86-32.82,25.07-10.67,3.09-24.24-1.75-34.64-5.15-7.21-2.35-13.48-5.1-15.66-13.11-7.9,3.46-16.57,2.84-24.94,1.8.76,2.77.84,5.45.72,8.32,3.43-.04,6.9,1.05,10.21,1.91,7.66,1.98,23.9,6.43,29.24,12,2.7,2.81,3.43,6.84-.48,8.95-4.33,2.34-12.68-.38-17.34-1.62-6.92-1.86-13.7-4.3-20.54-6.41-.1,6.07,3.85,18.17-.57,23.13-4.18,4.69-8.12-.8-9.87-4.55-2.8-5.98-4.27-12.97-6.24-19.26-9.67.44-18.36,5.76-27.27,8.65-3.07.99-10.1,3.22-11.56-1.11-2.16-6.4,8.71-11.62,13.2-13.54,7.98-3.41,16.41-5.73,24.91-7.46l-1.39-10.22c-2.27-1.74-3.95.42-6.44.76-3.95.53-8.17-.03-11.31-2.61-1.23-1.01-2.79-3.92-3.6-4.31-.66-.32-4.11-.31-5.51-.69-7.75-2.13-14.42-13.99-18.08-20.63-14.16-25.7-21.95-54.72-31.67-82.29-1.33-5.71-1.8-14.15,2.24-18.9.48-.57,1.66-1.16,1.81-1.44.27-.48.61-2.98,1-4.06.36-1.01,1.97-3.75,2.03-4.15.11-.75-1.31-2.25-.94-4.89,1.09-7.79,12.26-14.24,19.75-12.98,9.81-26.05,48.25-30.35,68.64-14.64ZM158.45,71.28c-3.39-7.24-11.42-12.47-18.83-15-20.25-6.9-50.7.63-53.88,24.95-.21,1.62.47,4.61-.83,5.87-.33.32-1.07.38-1.53.82-1,.94-1.99,1.9-2.71,3.08,11.09.9,12.7,18.57,9.58,26.58-1.17,3-3.09,5.53-6.32,6.33,3.57,2.98,8.07.87,10.67-2.35,6.45-7.96,5.24-26.82-2.9-33.28-1.36-1.08-2.81-.5-2.72-3.06.25-7.33,5.92-15.31,11.84-19.31,16.17-10.92,40.63-9.01,53.67,5.91l3.96-.56ZM147.96,69.48c-16.45-12.07-45.76-10.02-54.51,10.31.93.73,4.52,3.98,5.42,3.75.53-.14,1.96-1.96,2.62-2.48,1.44-1.14,3.36-2.5,4.99-3.33,1.82-.93,5.5-1.72,6.75-2.65,1.02-.75,2.45-3.57,3.61-4.71,2.91-2.89,9.7-6.73,11.81-1.22,3.66-1.02,9.03-1.28,8.46,3.95l7.71.67,3.14-4.28ZM177.5,77.92c-.95-.95-3.41-1.21-3.08-3.12.16-.91,1.15-1.09.97-2.51-.53-4.17-8.76-7.53-12.42-7.51-1.29,0-2.79.82-4.16.72l3.71,6.78c10.35,5.79,13.33,20.38,10.4,31.21,4.34-1.9,7.43-7.59,7.91-12.16.39-3.71-.58-10.66-3.33-13.4ZM134.03,199.71c-3.51.33-7.48-.25-11.03,0,.1,1.09-.32,2.56.33,3.46,1.19,1.65,8.95,3.8,11.11,4.09,9.64,1.29,19.46-.74,29.53.86,11.86,1.88,21.7,8.07,32.76,11.38,15.24,4.55,24.43-3.53,26.44-18.57.88-6.58,1-16.94-6.11-20.03.18,1.18.02,7.17-1.95,6.85s-.29-6.53-.59-6.85c-6.5,1.39-10.84,9.06-12.19,15.12-.34,1.54-.75,7.15-1.22,7.82-.71,1.01-2.12.66-2.43-.4-.9-3.06,1.42-3.67-1.01-7.31-4.59-6.87-17.26-12.01-25.28-12.35-3.32-.14-6.59.71-9.91.33-.35-.66-.51-1.64.2-2.15.85-.61,5.12-1.01,6.43-1.07,6.3-.3,12.37,1.02,18.07,3.65.17,0,.58-.86.58-.92v-6.51c0-.72-1.21-3.34-1.66-4.13s-3.34-4.6-3.95-4.65c-7.5,5.53-18.73,6.12-26.05-.06-3.38,3.93-6.45,8.24-10.7,11.34-7.28,5.3-15.96,6.89-24.65,4.45-2.31-.65-11.02-4.47-12.19-6.29-.67-1.04.17-2.14,1.51-1.87,2.14.43,6.83,3.58,9.59,4.55,8.13,2.86,16.55,2.06,23.57-3.01,10.6-7.66,15.1-23.08,28.61-26.93-.08-.55-1.2-.9-1.65-1.06-14.91-5.17-27.21,8.85-38.62,15.23-3.87,2.16-12.76,5.62-14.8-.52-2.56-7.72,10-11.77,15.82-11.47,2.92.15,5.51,1.44,8.31,1.81,7.96-5.7,17.42-10.22,27.48-8.65,2.73.42,8.66,2.43,6.39,6.22-.47.78-6.46,3.02-8.15,4.24-3.52,2.54-6.15,6.25-8.86,9.58,10.63,8.49,30.96,2.1,25.39-13.82-1.51-4.33-7.22-9.97-10.84-12.76-1.16-.9-6.93-4.82-7.96-5.02-1.33-.26-2.68,2.42-3.52,3.19-6.25,5.73-15.86,9.67-24.37,8.27v-2.08c3.05-.66,6.16-.72,9.22-1.44,13.79-3.24,22.49-16.46,22.94-30.24.48-14.7-14.28-36.28-30.18-35.97-1.42.03-4.54,1.18-5.54.79-2.63-1.04-.11-3.32,1.16-4.44.54-1.26-3.02-.56-3.64-.38-2.36.68-3.01,2.91-5.33,2.86-2.56-1.54.54-3.32.46-5.37-2.38-.18-4.9,1.47-6.52,3.06-2.26,2.21-2.42,4.35-5.69,5.89-2.81,1.31-5.22,1.66-8.01,3.57-2.01,1.38-4.71,4.98-7.08,4.88-2.16-.09-3.79-3.33-5.98-3.64-.5,1.95,1.65,2.72,2.9,4.15,8.92,10.2,10.18,34.06-3.96,40.38,1.44,4.92,6.37,8.95,10.72,11.48,5.28,3.08,10.23,3.97,16.23,4.75l.11,1.79c-3.22.93-6.87.33-10.08-.5-1.33-.34-2.82-1.19-3.97-1.47-.45-.11-.57-.32-.91.21-.48.74-1.98,7.04-2.19,8.3-1.87,10.94.79,24.33,8.17,32.75,6.52.81,13.17.7,19.61,2.1,3.64.79,15,4.21,11.82,9.81-.86,1.52-4.98,2.59-6.65,2.75ZM147.96,75.26l2.36,1.01,1.97-2.27-1.98-1.98c-.51.39-2.7,2.77-2.35,3.24ZM170.39,100.95c1.14-4.65.77-9.16-.54-13.74-2.03-7.13-9.54-18.56-16.81-9.59,5.37,4.35,10.05,9.42,13.44,15.49l3.91,7.84ZM83.21,77.43c-5.68-.84-15.11,4.92-15.86,10.77-.23,1.81.86,1.39,1.54,2.28,1.31,1.71-1.15,3.84-1.87,5.32-3.2,6.64-2.44,17.14,6.41,18.16-2.21-10.43,0-22.82,9.33-29.01l.44-7.53ZM85.62,119.64c4.08-4.05,3.45-14.51,1.48-19.51-2.63-6.66-7.95-8.45-10.58-.62-1.77,5.28-1,12.42,1.46,17.33,1.44,2.87,4.65,5.76,7.63,2.8ZM62.58,105.29c-.83-.17-.58.08-.81.46-2.58,4.15-1.11,11.84.11,16.34,3.29,12.08,8.73,26.4,13,38.38,5.39,15.14,12.06,32.13,20.34,45.87,4,6.63,8.84,14.57,17.29,15.44-1.51-6.08-2.96-12.89-6.02-18.39-.97-1.75-3.55-5.51-4.95-6.8-2.38-2.2-4.7-2.27-5.94-6.18-1.07-3.38,1.19-4.6.95-5.62-.13-.54-2.75-4.28-3.33-5.39-7.01-13.42-13.05-29.51-17.49-44.01-1.81-5.91-3.73-12.18-4.51-18.29-.22-.72-2.63-1.28-3.54-1.89-2.91-1.97-5.38-6.36-5.09-9.92ZM74.52,116.87c-.95-.11-.73.05-.64.82.54,4.31,3.34,12.15,4.73,16.62,5.29,17.03,11.86,34.6,21.06,49.85l5.24.72c-8.05-12.77-9.83-28.6-4.14-42.69-5.46-3.39-10.5-7.54-12.93-13.67-6.41-.48-11.33-5.87-13.32-11.64ZM137.47,156.67c-3.91-.85-8.48-1.36-12.29.18-7.36,2.97-7.94,10.18,1.27,7.06,3.56-1.21,8.19-4.81,11.02-7.25ZM207.95,173.24c1.23-2.12-5.02-3.74-6.43-4.11-5.08-1.31-10.69-1.78-15.93-1.98l4.68,7.8c5.83-.19,12.43,1.41,17.68-1.71ZM232.25,174.39c-2.97-.26-8.67,6.34-8.26,8.77.12.72.95,1.64,1.2,2.45,1.65,5.27,1.61,11.26.81,16.72-.43,2.94-1.53,5.7-2.07,8.6,6.73,1.32,12.54-5.14,15.2-10.66,2.94-6.12,4.34-14.34,1.51-20.69-.95-2.13-3.31-5.28-5.85-5.18.1,1.36.11,5.6-1.43,6-2.86.74-1.17-4.41-1.11-6ZM198.45,192.27c.36.35.89,1.74,1.43.94,1-3.81,3.3-6.96,5.46-10.15-3.38-4.32-9.07-4.78-14.13-5.39-.77.15-.13,2.81-.21,3.77-.12,1.52-.61,3.06-.92,4.54,3.3,1.54,5.84,3.84,8.37,6.28ZM98.48,187.86c-1.25,1.26,1.48,4.07,2.47,4.78,5.79,4.15,23.38,4.63,30.56,4.2,1.09-.07,6.44-.56,6.68-1.65-1.25-2.55-4.67-3.57-7.24-4.33-6.24-1.84-11.92-1.84-18.26-2.36-2.2-.18-13.14-1.72-14.21-.64ZM120.1,199.72l-13.38-1.27c3.19,3.83,4.82,8.55,6.32,13.22,2.05,6.41,2.68,16.12,11.23,16.99.65.07,4.43.31,3.98-.72-8.58-6.78-8.95-18.11-8.15-28.21ZM185.22,218.17c-7.19-2.55-14.74-6.04-22.34-7.15-10.89-1.6-23.6,1.2-33.73-1.73-2.13-.62-4.13-1.85-6.16-2.7,0,1.02-.17,6.19.6,6.52,4.3.77,8.59,1.57,12.97,1.79,7.87.39,23.38-1.46,28.95,5.06,2.16,2.53,2.53,6.22,2.34,9.42,5.39-.18,9.34-2.95,13.24-6.31.58-.5,4.5-4.41,4.13-4.9ZM253.6,213.83l-15.69-6.08c-4.09,4.33-9.53,8.02-15.74,5.75-7.4,13.69-21.99,11.76-34.19,6.09-.83,1.04-1.69,2.31-2.58,3.29-.52.58-3.47,3.08-3.08,3.61,7.76,2.81,15.45,6.65,23.35,9.03,5.08,1.53,12.05,3.27,17.24,2.09,7.65-1.73,25.66-16.18,30.31-22.87.21-.31.5-.36.35-.91ZM179.44,228.3c1.1,5.17,4.99,8.74,9.77,10.66,7.78,3.14,26.17,8.39,34.15,7.39,7.56-.95,22.38-12.44,28.24-17.71,3.36-3.02,9.4-8.72,4.71-13.01-5.66,7.06-12.82,13.3-20.33,18.38-11.96,8.09-17.67,8.31-31.5,4.14-8.37-2.52-15.78-6.69-23.7-9.58-.45-.16-.82-.39-1.34-.28ZM164.97,229.74c.17-3.36-.16-6.92-3.08-9.04-5.32-3.87-19.66-2.54-26.4-2.9-3.83-.2-7.69-.85-11.4-1.8.72,3.34,3.01,7.53,5.78,9.59,3.91,2.92,12.96,2.26,17.91,2.71,5.72.52,11.41,1.8,17.19,1.45ZM141.57,244.81c1.43,1.42,4.41,1.06,5.85-.23,3.15-2.84,2.63-9.23,1.27-12.85l-10.86-.9c-.68.69,2.45,12.7,3.74,13.99ZM148.09,275.92c.72.7,1.71,1.19,2.62.51,3.6-2.68-.02-16.58-.2-20.83-.06-1.4-.51-4.17,1.48-3.98,9.5,2.37,18.99,6.3,28.54,8.33,2.36.5,12.78,2.77,10.58-2.27-1.37-3.14-9.98-6.61-13.19-7.79-5.69-2.08-12.76-4.17-18.65-5.59-1.48-.36-6.22-1.69-7.32-1.01-.45.28-1.68,3.07-2.99,3.9-5.06,3.21-9.32,1.65-11.64-3.64-8.75,2.28-17.87,4.41-26.13,8.18-2.77,1.26-6.88,3.33-8.74,5.73-3.36,4.36-.33,4.34,3.49,3.49,9.06-2.02,18.51-8.51,28.14-9.48,2.42-.24,4.39-.71,5.48,1.66,2.44,5.29,4.93,19.29,8.53,22.77Z"/><path class="cls-1" d="M134.03,199.71c1.67-.16,5.79-1.24,6.65-2.75,3.19-5.6-8.18-9.02-11.82-9.81-6.44-1.39-13.09-1.29-19.61-2.1-7.38-8.43-10.03-21.82-8.17-32.75.21-1.26,1.71-7.56,2.19-8.3.35-.53.46-.32.91-.21,1.15.28,2.65,1.12,3.97,1.47,3.2.83,6.85,1.43,10.08.5l-.11-1.79c-6-.78-10.95-1.67-16.23-4.75-4.35-2.53-9.28-6.56-10.72-11.48,14.14-6.32,12.89-30.17,3.96-40.38-1.25-1.43-3.4-2.2-2.9-4.15,2.18.31,3.82,3.55,5.98,3.64,2.37.1,5.06-3.5,7.08-4.88,2.79-1.91,5.2-2.25,8.01-3.57,3.27-1.53,3.43-3.67,5.69-5.89,1.62-1.59,4.14-3.24,6.52-3.06.08,2.05-3.02,3.83-.46,5.37,2.32.05,2.97-2.18,5.33-2.86.62-.18,4.18-.88,3.64.38-1.27,1.12-3.79,3.4-1.16,4.44.99.4,4.12-.76,5.54-.79,15.9-.3,30.66,21.27,30.18,35.97-.45,13.77-9.15,26.99-22.94,30.24-3.06.72-6.17.78-9.23,1.44v2.08c8.52,1.4,18.12-2.54,24.38-8.27.84-.77,2.19-3.45,3.52-3.19,1.03.2,6.79,4.12,7.96,5.02,3.62,2.79,9.33,8.43,10.84,12.76,5.57,15.92-14.75,22.31-25.39,13.82,2.71-3.33,5.34-7.04,8.86-9.58,1.69-1.22,7.68-3.46,8.15-4.24,2.28-3.79-3.65-5.8-6.39-6.22-10.06-1.56-19.52,2.95-27.48,8.65-2.8-.37-5.38-1.66-8.31-1.81-5.82-.29-18.38,3.75-15.82,11.47,2.03,6.14,10.92,2.69,14.8.52,11.42-6.38,23.72-20.41,38.62-15.23.45.16,1.57.51,1.65,1.06-13.51,3.84-18.01,19.27-28.61,26.93-7.03,5.08-15.44,5.87-23.57,3.01-2.75-.97-7.45-4.12-9.59-4.55-1.34-.27-2.18.83-1.51,1.87,1.17,1.81,9.88,5.64,12.19,6.29,8.69,2.44,17.37.85,24.65-4.45,4.25-3.1,7.32-7.42,10.7-11.34,7.33,6.18,18.55,5.59,26.05.06.61.04,3.51,3.87,3.95,4.65s1.66,3.41,1.66,4.13v6.51c0,.05-.4.92-.58.92-5.7-2.63-11.77-3.95-18.07-3.65-1.3.06-5.58.47-6.43,1.07-.71.51-.55,1.49-.2,2.15,3.32.38,6.6-.47,9.91-.33,8.02.34,20.69,5.48,25.28,12.35,2.43,3.64.11,4.25,1.01,7.31.31,1.06,1.72,1.42,2.43.4.47-.67.88-6.29,1.22-7.82,1.35-6.06,5.69-13.73,12.19-15.12.3.32-1.43,6.52.59,6.85s2.13-5.67,1.95-6.85c7.11,3.09,6.99,13.45,6.11,20.03-2.01,15.04-11.2,23.12-26.44,18.57-11.06-3.3-20.9-9.49-32.76-11.38-10.07-1.6-19.89.43-29.53-.86-2.16-.29-9.91-2.44-11.11-4.09-.66-.91-.23-2.37-.33-3.46,3.56-.25,7.53.33,11.03,0ZM126.4,138.42c11.25,8.54,34.98-.68,28.86-16.01-1.28-3.21-3.74-5.1-5.64-7.75-3.39-4.73-2.36-10.53-6.9-14.45-6.77-5.84-11.98,1.6-12.81,8.19-.19,1.5.15,3.09-.12,4.58-1.01,5.43-6.69,10.68-7.13,16.78-.19,2.66,1.62,7.05,3.74,8.66ZM158.71,99.55c-1.74.44-2,6.77-6.17,4.24-.97-.59-3.41-4.2-4.4-2.11-1.34,2.81,5.4,8,9.61,4.53,1.73-1.43,4.03-7.44.97-6.66ZM124.03,106.07c-3.6-1.61-2.66,5.9-6.82,4.86-3.03-.76-3.24-4.52-6.1-4.14-.93,1.61.04,2.84,1.04,4.1,4.85,6.07,12.43,2.56,11.88-4.82Z"/><path class="cls-6" d="M62.58,105.29c-.29,3.56,2.18,7.95,5.09,9.92.9.61,3.31,1.17,3.54,1.89.78,6.1,2.69,12.38,4.51,18.29,4.45,14.5,10.48,30.59,17.49,44.01.58,1.11,3.2,4.84,3.33,5.39.24,1.02-2.02,2.24-.95,5.62,1.24,3.9,3.56,3.98,5.94,6.18,1.4,1.29,3.98,5.05,4.95,6.8,3.06,5.5,4.51,12.31,6.02,18.39-8.45-.88-13.3-8.81-17.29-15.44-8.28-13.73-14.94-30.73-20.34-45.87-4.27-11.97-9.71-26.3-13-38.38-1.22-4.5-2.7-12.19-.11-16.34.23-.38-.01-.63.81-.46Z"/><path class="cls-3" d="M253.6,213.83c.15.54-.14.6-.35.91-4.66,6.68-22.67,21.14-30.31,22.87-5.2,1.17-12.16-.56-17.24-2.09-7.91-2.38-15.59-6.22-23.35-9.03-.39-.53,2.56-3.03,3.08-3.61.88-.98,1.75-2.25,2.58-3.29,12.2,5.67,26.79,7.6,34.19-6.09,6.21,2.28,11.64-1.42,15.74-5.75l15.69,6.08Z"/><path class="cls-3" d="M148.09,275.92c-3.6-3.47-6.09-17.47-8.53-22.77-1.09-2.37-3.06-1.91-5.48-1.66-9.64.97-19.08,7.46-28.14,9.48-3.82.85-6.86.87-3.49-3.49,1.86-2.41,5.96-4.47,8.74-5.73,8.26-3.77,17.37-5.9,26.13-8.18,2.32,5.29,6.58,6.85,11.64,3.64,1.31-.83,2.54-3.62,2.99-3.9,1.1-.68,5.84.65,7.32,1.01,5.89,1.42,12.96,3.5,18.65,5.59,3.21,1.18,11.82,4.65,13.19,7.79,2.19,5.03-8.22,2.77-10.58,2.27-9.55-2.03-19.04-5.96-28.54-8.33-1.99-.18-1.54,2.59-1.48,3.98.18,4.25,3.81,18.15.2,20.83-.91.67-1.89.19-2.62-.51Z"/><path class="cls-2" d="M158.45,71.28l-3.96.56c-13.04-14.93-37.5-16.84-53.67-5.91-5.92,4-11.58,11.98-11.84,19.31-.09,2.56,1.36,1.98,2.72,3.06,8.14,6.46,9.35,25.33,2.9,33.28-2.61,3.21-7.1,5.32-10.67,2.35,3.23-.8,5.16-3.34,6.32-6.33,3.12-8.01,1.51-25.68-9.58-26.58.71-1.19,1.71-2.15,2.71-3.08.47-.44,1.21-.5,1.53-.82,1.3-1.25.61-4.24.83-5.87,3.19-24.33,33.63-31.85,53.88-24.95,7.41,2.52,15.43,7.75,18.83,15Z"/><path class="cls-3" d="M74.52,116.87c2,5.77,6.91,11.17,13.32,11.64,2.43,6.13,7.48,10.28,12.93,13.67-5.69,14.1-3.91,29.93,4.14,42.69l-5.24-.72c-9.2-15.25-15.77-32.82-21.06-49.85-1.39-4.47-4.19-12.31-4.73-16.62-.1-.77-.32-.93.64-.82Z"/><path class="cls-6" d="M179.44,228.3c.53-.11.89.12,1.34.28,7.92,2.89,15.34,7.06,23.7,9.58,13.84,4.17,19.54,3.95,31.5-4.14,7.51-5.08,14.66-11.31,20.33-18.38,4.69,4.28-1.35,9.99-4.71,13.01-5.86,5.27-20.68,16.76-28.24,17.71-7.98,1-26.37-4.26-34.15-7.39-4.78-1.93-8.68-5.49-9.77-10.66Z"/><path class="cls-1" d="M232.25,174.39c-.06,1.59-1.75,6.74,1.11,6,1.54-.4,1.53-4.64,1.43-6,2.54-.1,4.9,3.05,5.85,5.18,2.83,6.35,1.44,14.57-1.51,20.69-2.66,5.52-8.47,11.98-15.2,10.66.54-2.9,1.64-5.66,2.07-8.6.8-5.46.84-11.44-.81-16.72-.25-.81-1.08-1.73-1.2-2.45-.41-2.43,5.29-9.02,8.26-8.77Z"/><path class="cls-3" d="M185.22,218.17c.37.5-3.55,4.4-4.13,4.9-3.9,3.36-7.84,6.13-13.24,6.31.19-3.2-.18-6.89-2.34-9.42-5.57-6.52-21.08-4.66-28.95-5.06-4.38-.22-8.67-1.02-12.97-1.79-.77-.34-.59-5.5-.6-6.52,2.03.85,4.03,2.09,6.16,2.7,10.12,2.93,22.84.13,33.73,1.73,7.6,1.11,15.15,4.6,22.34,7.15Z"/><path class="cls-6" d="M164.97,229.74c-5.78.35-11.47-.92-17.19-1.45-4.95-.45-14,.21-17.91-2.71-2.77-2.07-5.05-6.25-5.78-9.59,3.71.96,7.57,1.6,11.4,1.8,6.74.36,21.09-.97,26.4,2.9,2.92,2.12,3.24,5.68,3.08,9.04Z"/><path class="cls-1" d="M83.21,77.43l-.44,7.53c-9.32,6.19-11.54,18.58-9.33,29.01-8.85-1.02-9.61-11.53-6.41-18.16.71-1.48,3.18-3.61,1.87-5.32-.68-.89-1.77-.48-1.54-2.28.74-5.85,10.17-11.61,15.86-10.77Z"/><path class="cls-1" d="M177.5,77.92c2.76,2.74,3.73,9.69,3.33,13.4-.48,4.57-3.58,10.26-7.91,12.16,2.93-10.83-.05-25.42-10.4-31.21l-3.71-6.78c1.37.1,2.87-.71,4.16-.72,3.66-.02,11.9,3.34,12.42,7.51.18,1.42-.82,1.61-.97,2.51-.33,1.91,2.12,2.17,3.08,3.12Z"/><path class="cls-4" d="M85.62,119.64c-2.98,2.96-6.19.08-7.63-2.8-2.46-4.91-3.23-12.05-1.46-17.33,2.63-7.83,7.95-6.04,10.58.62,1.97,5,2.6,15.46-1.48,19.51Z"/><path class="cls-3" d="M98.48,187.86c1.07-1.08,12.01.46,14.21.64,6.34.51,12.02.51,18.26,2.36,2.56.76,5.99,1.78,7.24,4.33-.24,1.09-5.59,1.59-6.68,1.65-7.19.43-24.77-.05-30.56-4.2-.99-.71-3.72-3.52-2.47-4.78Z"/><path class="cls-6" d="M120.1,199.72c-.81,10.1-.43,21.43,8.15,28.21.45,1.03-3.33.78-3.98.72-8.55-.87-9.18-10.58-11.23-16.99-1.5-4.67-3.13-9.39-6.32-13.22l13.38,1.27Z"/><path class="cls-2" d="M170.39,100.95l-3.91-7.84c-3.39-6.07-8.07-11.15-13.44-15.49,7.27-8.97,14.78,2.46,16.81,9.59,1.31,4.59,1.68,9.09.54,13.74Z"/><path class="cls-1" d="M198.45,192.27c-2.54-2.45-5.07-4.75-8.37-6.28.31-1.48.8-3.02.92-4.54.08-.96-.57-3.63.21-3.77,5.06.61,10.75,1.07,14.13,5.39-2.16,3.19-4.47,6.34-5.46,10.15-.54.8-1.07-.6-1.43-.94Z"/><path class="cls-3" d="M141.57,244.81c-1.29-1.29-4.42-13.3-3.74-13.99l10.86.9c1.36,3.62,1.88,10.01-1.27,12.85-1.44,1.29-4.42,1.66-5.85.23Z"/><path class="cls-3" d="M207.95,173.24c-5.25,3.13-11.86,1.53-17.68,1.71l-4.68-7.8c5.24.2,10.85.66,15.93,1.98,1.42.37,7.67,1.99,6.43,4.11Z"/><path class="cls-1" d="M137.47,156.67c-2.83,2.44-7.46,6.04-11.02,7.25-9.22,3.12-8.64-4.09-1.27-7.06,3.82-1.54,8.38-1.03,12.29-.18Z"/><path class="cls-1" d="M147.96,75.26c-.35-.47,1.84-2.85,2.35-3.24l1.98,1.98-1.97,2.27-2.36-1.01Z"/><path d="M126.4,138.42c-2.12-1.61-3.93-5.99-3.74-8.66.44-6.1,6.12-11.35,7.13-16.78.28-1.49-.07-3.08.12-4.58.83-6.58,6.04-14.03,12.81-8.19,4.54,3.92,3.51,9.71,6.9,14.45,1.9,2.65,4.36,4.54,5.64,7.75,6.12,15.33-17.61,24.55-28.86,16.01ZM137.38,101.39c-3.98.66-4.83,8.04-4.57,11.27.23,2.76,2.19,9.53,5.03,10.52,6.34,2.19,7.11-9.01,6.46-12.97-.53-3.26-2.77-9.51-6.92-8.82ZM130.6,118.32c-1.81,4.89-5.59,8.12-4.62,13.84,1.92,11.29,30.27,7.29,26.87-7.7-.57-2.51-3.74-5.83-5.61-7.59-.17,2.63-1.49,6.16-3.44,7.96-1.44,1.33-3.65.96-2.3,3.39,2.39,4.32,6.11-.06,6.52-3.33l1.78.1c1.36,3.51-1.58,7.84-5.36,8.07-1.51.09-3.38-1.09-4.21-1.02-.1,0-.65,1.01-1.59,1.37-3.39,1.29-7.17-.34-8.3-3.8-.64-1.94-.91-4.46,1.92-3.37.95,1.83.83,3.77,3.22,4.41,1.85.5,2.76-.01,2.69-1.96-.01-.28-.34-2.24-.4-2.34-.11-.17-3.02-1.29-3.42-2.01l-3.74-6.02Z"/><path d="M124.03,106.07c.55,7.39-7.03,10.9-11.88,4.82-1-1.26-1.97-2.49-1.04-4.1,2.86-.38,3.07,3.39,6.1,4.14,4.16,1.04,3.23-6.47,6.82-4.86Z"/><path d="M158.71,99.55c3.06-.78.76,5.23-.97,6.66-4.21,3.47-10.95-1.71-9.61-4.53,1-2.09,3.43,1.52,4.4,2.11,4.17,2.53,4.44-3.8,6.17-4.24Z"/><path class="cls-6" d="M130.6,118.32l3.74,6.02c.4.72,3.31,1.84,3.42,2.01.06.1.39,2.06.4,2.34.07,1.95-.84,2.46-2.69,1.96-2.39-.64-2.26-2.58-3.22-4.41-2.83-1.09-2.56,1.43-1.92,3.37,1.13,3.45,4.91,5.09,8.3,3.8.94-.36,1.48-1.36,1.59-1.37.82-.07,2.69,1.11,4.21,1.02,3.78-.24,6.72-4.57,5.36-8.07l-1.78-.1c-.41,3.27-4.13,7.65-6.52,3.33-1.35-2.44.86-2.06,2.3-3.39,1.95-1.8,3.27-5.33,3.44-7.96,1.86,1.76,5.04,5.08,5.61,7.59,3.4,14.99-24.95,18.99-26.87,7.7-.97-5.72,2.81-8.95,4.62-13.84Z"/><path d="M137.38,101.39c4.16-.69,6.39,5.57,6.92,8.82.65,3.96-.11,15.16-6.46,12.97-2.85-.98-4.81-7.76-5.03-10.52-.27-3.23.59-10.61,4.57-11.27Z"/></svg>