<?xml version="1.0" encoding="UTF-8"?><svg id="Layer_1" xmlns="http://www.w3.org/2000/svg" viewBox="0 0 800 300"><defs><style>.cls-1{stroke-width:6.45px;}.cls-1,.cls-2,.cls-3,.cls-4,.cls-5{fill:#cc582b;stroke:#cc582b;stroke-linecap:round;stroke-linejoin:round;}.cls-2{stroke-width:6.1px;}.cls-3{stroke-width:6.32px;}.cls-4{stroke-width:2.78px;}.cls-5{stroke-width:3.03px;}</style></defs><path class="cls-5" d="M221.56,54.78l.07-.1h-24.14l-25.48,40.6h-.24v-40.6h-23.04v90.21h23.04v-39.01h.24l24.63,39.01h24.63c-2.41-1.81-4.67-3.86-6.75-6.12-6.39-6.95-10.82-15.62-12.98-25.2l-9.79-13.91,10.28-15.47c3.23-12.06,10.18-22.32,19.52-29.41Z"/><path class="cls-5" d="M221.56,54.78l.07-.1h-24.14l-25.48,40.6h-.24v-40.6h-23.04v90.21h23.04v-39.01h.24l24.63,39.01h24.63c-2.41-1.81-4.67-3.86-6.75-6.12-6.39-6.95-10.82-15.62-12.98-25.2l-9.79-13.91,10.28-15.47c3.23-12.06,10.18-22.32,19.52-29.41Z"/><path class="cls-5" d="M276.81,59.24v8.62h-.29c-4.67-7.45-13.87-11.39-23.8-11.39-23.22,0-40.59,19.28-40.59,43.22s16.65,43.37,40.59,43.37c10.66,0,20.3-4.38,23.8-11.53h.29v8.76h24.24V59.24h-24.24ZM256.51,120.42c-11.25,0-20.15-9.2-20.15-20.44s8.76-20.88,19.86-20.88,20.58,9.2,20.58,20.59-8.9,20.74-20.29,20.74Z"/><path class="cls-5" d="M367.17,144.89v-36.09h-29.5v36.09h-23.04V54.67h23.04v33.89h29.5v-33.89h23.04v90.21h-23.04Z"/><path class="cls-2" d="M400.92,100.87c0-26.38,19.01-46.2,44.93-46.2s45.05,19.24,45.05,43.67-19.59,44.82-44.01,44.82-45.97-17.05-45.97-42.28ZM469.13,99.03c0-13.36-9.56-25.23-23.27-25.23s-23.16,11.41-23.16,24.89,9.56,25.35,23.5,25.35,22.93-11.41,22.93-25Z"/><path class="cls-3" d="M514.26,143.05v-68.55h-17.44v-19.83h57.33v19.83h-17.32v68.55h-22.57Z"/><path class="cls-1" d="M569.89,144.89V54.67h23.04v90.21h-23.04Z"/><path class="cls-5" d="M680.49,54.78l.07-.1h-24.14l-25.48,40.6h-.24v-40.6h-23.04v90.21h23.04v-39.01h.24l24.63,39.01h24.63c-2.41-1.81-4.67-3.86-6.75-6.12-6.39-6.95-10.82-15.62-12.98-25.2l-9.79-13.91,10.28-15.47c3.23-12.06,10.18-22.32,19.52-29.41Z"/><path class="cls-4" d="M234.63,191.65c-.97-6.44-3.65-8.75-8.14-8.75-4.25,0-7.9,3.04-7.9,7.05,0,5.35,4.86,7.78,14.71,12.03,19.81,8.51,24.79,15.68,24.79,27.47,0,17.38-11.91,27.59-31.36,27.59s-32.45-10.21-32.45-29.53v-1.94h22.85c.12,7.41,3.77,12.28,9.48,12.28,4.74,0,8.63-3.77,8.63-8.63,0-7.17-9.97-10.33-18.11-13.61-14.71-5.96-21.39-13.73-21.39-25.4,0-15.31,14.83-26.5,31.36-26.5,5.96,0,11.18,1.34,15.92,3.77,9.6,4.98,14.22,12.15,14.34,24.19h-22.73Z"/><path class="cls-4" d="M279.85,255.34v-69.76h-17.74v-20.18h58.34v20.18h-17.62v69.76h-22.97Z"/><path class="cls-4" d="M375.5,165.4h22.97v55.06c0,9.36-1.46,16.41-4.5,21.27-5.96,9.6-16.04,15.31-29.66,15.31-7.54,0-13.98-1.46-19.2-4.5-10.57-6.2-15.68-14.58-15.68-31.97v-55.18h22.97v54.82c0,11.18,3.52,16.65,11.67,16.65s11.42-3.89,11.42-16.53v-54.94Z"/><path class="cls-4" d="M413.31,255.34v-89.94h30.63c11.18,0,20.05,1.94,26.38,5.47,12.76,7.29,20.78,21.15,20.78,39.5,0,29.66-17.5,44.97-45.58,44.97h-32.21ZM446.61,235.16c13.25,0,21.51-8.26,21.51-24.67s-8.14-24.92-21.39-24.92h-10.45v49.59h10.33Z"/><path class="cls-4" d="M504.71,255.34v-89.94h22.97v89.94h-22.97Z"/><path class="cls-4" d="M540.08,212.44c0-27.83,20.05-48.74,47.4-48.74s47.52,20.3,47.52,46.06-20.66,47.28-46.43,47.28-48.49-17.99-48.49-44.61ZM612.03,210.49c0-14.1-10.09-26.62-24.55-26.62s-24.43,12.03-24.43,26.25,10.09,26.74,24.79,26.74,24.19-12.03,24.19-26.37Z"/></svg>