<?xml version="1.0" encoding="UTF-8"?><svg id="Layer_1" xmlns="http://www.w3.org/2000/svg" viewBox="0 0 800 300"><defs><style>.cls-1{fill:#cc582b;stroke:#cc582b;stroke-linecap:round;stroke-linejoin:round;stroke-width:3.24px;}.cls-2{fill:#e5a44f;}.cls-3{fill:#57574f;}</style></defs><path class="cls-1" d="M478.04,101.83l.07-.11h-25.84l-27.27,43.46h-.26v-43.46h-24.67v96.57h24.67v-41.76h.26l26.36,41.76h26.37c-2.58-1.94-5-4.13-7.22-6.55-6.84-7.44-11.58-16.72-13.9-26.98l-10.48-14.89,11-16.56c3.46-12.91,10.9-23.89,20.9-31.48Z"/><path class="cls-1" d="M478.04,101.83l.07-.11h-25.84l-27.27,43.46h-.26v-43.46h-24.67v96.57h24.67v-41.76h.26l26.36,41.76h26.37c-2.58-1.94-5-4.13-7.22-6.55-6.84-7.44-11.58-16.72-13.9-26.98l-10.48-14.89,11-16.56c3.46-12.91,10.9-23.89,20.9-31.48Z"/><path class="cls-1" d="M537.18,106.6v9.22h-.31c-5-7.97-14.84-12.19-25.48-12.19-24.85,0-43.45,20.63-43.45,46.26s17.82,46.42,43.45,46.42c11.41,0,21.73-4.69,25.48-12.34h.31v9.37h25.95v-86.75h-25.95ZM515.46,172.09c-12.04,0-21.57-9.85-21.57-21.88s9.38-22.35,21.26-22.35,22.03,9.85,22.03,22.04-9.53,22.2-21.72,22.2Z"/><path class="cls-1" d="M633.91,198.28v-38.63h-31.58v38.63h-24.66v-96.57h24.66v36.28h31.58v-36.28h24.66v96.57h-24.66Z"/><path class="cls-1" d="M388.77,151.1c0-26.93-19.89-47.44-45.88-47.44s-45.56,21.61-45.56,46.66,20.98,46.03,46.03,46.03c18.32,0,34.14-11.12,42.43-30.07h-26.62c-4.23,5.48-8.77,8.14-15.82,8.14-10.64,0-18.94-6.57-20.35-16.44h65.13c.47-2.35.63-4.38.63-6.88ZM323.32,140.45c2.04-9.24,10.18-14.87,19.57-14.87,10.02,0,17.85,5.94,19.88,14.87h-39.45Z"/><path class="cls-2" d="M266.96,96.42c-.05.02-.13.05-.19.11-1.2,1.34,8.86,11.67,12.21,15.86,12.34,15.47-.48,30.43,6.49,58.2,5.99,23.85,20.17,31.64,15.28,40.13-4.16,7.23-18.94,9.39-29.46,4.54-21.68-10-22.1-48.33-27.3-47.64-2.61.35-4.4,10.29-3.56,19.41,1.48,16.2,10.64,20.77,8.02,30.02-1.97,6.97-9.36,12.88-17.04,13.21-8.94.39-14.91-6.88-15.88-8.06-3.47-4.22-4.22-8.71-5.73-17.69-.81-4.85-1.9-11.96-1.27-21.45.96-14.42,5.52-21.77,3.98-22.53-2.3-1.13-14.02,9.82-15.84,24.02-1.82,14.29,7.78,20.93,3.11,29.64-3.55,6.61-12.56,9.26-19.05,9.17-2.29-.03-9.94-.43-15.63-6.08-6.02-5.97-6.11-14.08-6.24-25.47-.09-8.03-.17-14.87,3.03-22.7,6.2-15.17,19.81-22.11,18.31-24.42-.82-1.26-4.63,1.19-11.1,1.74-9.69.82-22.95-2.84-26.61-11.65-1.92-4.61-1.16-10.53,1.52-15.08,7.22-12.25,24.75-8.36,47.7-16.69,8.41-3.05,20.23-8.72,33.04-20.19-2.46-3.46-4.74-7.68-3.24-10.29,5.89-10.21,66.42,9.51,65.28,18.13-.3,2.28-5,4.48-19.83,5.73Z"/><path class="cls-3" d="M267.5,99.23c1.43-.26,2.18-1.61,2.04-2.65-.05-.32-.05-.22,0-.17.09.16.29.48.5.78,3.72,5.05,8.86,9.13,12.88,14.07,10.63,12.75,3.43,30.29,4.1,44.73.1,10.43,2.6,20.92,7.19,30.36,1.53,3.2,3.3,6.3,5.12,9.49,3.08,5.1,6.69,11.87,1.98,17.19-4.04,4.7-10.3,5.95-16.11,6.68-7.79.98-16.51-.64-22.42-6.26-8.8-7.87-12.27-19.48-15.02-30.47-.91-3.5-1.51-7.14-2.35-10.62-.34-1.16-.67-2.56-1.42-3.37,0,0,.13.04.2.02.15-.06-.02,0-.18.24-.17.23-.34.55-.5.9-1.48,4.01-1.21,8.55-1.05,12.81.16,3.5.53,6.93,1.36,10.26,2.89,12.26,12.78,19.7,1.75,31.81-9.3,9.56-22.74,8.72-31.86-.67-5.79-5.67-6.06-14.5-7.26-21.94-.97-7.44-.96-15.05-.02-22.49.65-6.32,2.91-12.56,4.47-18.6.02-.09-.03-.19.06.12.04.15.22.47.52.68.32.2.41.19.54.22.19.01.16,0,.09.02-7.92,4.5-13.4,17.51-13.19,26.37.02,12.22,10.63,21.76-2.42,31.78-9.88,6.8-24.3,6.98-33.48-1.22-7.73-6.99-7.76-18.38-7.98-27.86-1.2-20.6,6.06-31.94,21.49-44.61.76-.68,1.46-1.3,1.96-1.96.04-.04,0-.02.01.29.02.34.25.68.55.85.3.15.36.08.29.09-1.54.08-3.38.72-4.97,1.01-3.71.78-7.57,1.09-11.35.85-7.8-.48-16.42-2.44-21.95-8.56-5.76-7.23-3.84-18.16,2.01-24.83,2.9-3.26,6.97-5.32,10.98-6.53,10.75-2.99,21.79-3.28,32.21-6.52,13.67-3.87,26.1-11.24,36.91-20.45,0,0-.35,3.12-.35,3.12-2.06-3.1-5-6.19-4.71-10.57,1.89-11.54,23.25-5.33,30.71-3.57,8.56,2.26,16.95,4.87,25.09,8.38,4.21,1.85,8.21,3.69,11.95,6.59.95.81,1.94,1.62,2.78,3.16,2.09,3.94-1.65,6.85-4.79,7.89-5.31,1.89-10.84,2.51-16.37,3.13h0ZM266.43,93.62c5.19-.42,10.75-.76,15.7-2.29.88-.29,1.72-.69,2.12-1,.2-.15.17-.21.13-.01-2.19-3.05-8.11-5.95-12.23-7.83-11.63-5.08-24.36-8.93-36.94-9.87-3.01-.18-6.02-.25-8.86.36-1.01.26-1.8.49-2.24,1.05-.46,1.34.38,3.37,1.03,4.83.6,1.38,1.8,3.04,2.76,4.26,0,0-1.57,1.48-1.57,1.48-10.79,10.19-23.84,18.34-38.21,22.96-7.15,2.35-14.55,3.75-21.66,5.11-9.52,1.84-19.65,3.64-21.11,14.77-1.61,14.13,16.95,20.08,28.31,16.72,2.54-.52,7.66-3.59,8.48.78.01,1.18-.34,1.71-.83,2.47-1.8,2.39-3.84,4.15-5.75,6.26-8.5,8.84-13.11,20.07-12.84,32.34-.03,5.22-.14,10.78.09,16.02.12,8.65,3.65,15.5,12.3,18.19,7.61,2.36,17.79.74,22.55-6.09,5.79-8.79-8.84-17.73-1.74-36.84,1.36-3.65,3.27-7.04,5.56-10.11,1.93-2.6,10.27-12.58,13.1-6.94.45,1.77-.18,2.94-.53,4.49-2.57,8.54-3.53,17.43-3.02,26.31.26,5.14,1.33,10.74,2.31,15.82,1.28,8.38,3.84,16.33,11.9,20.39,7.65,4.07,17.38-1.05,20.78-8.47,2.43-4.88.49-9.15-2.22-13.93-1.75-3.22-3.4-6.75-4.41-10.47-1.53-5.58-1.8-11.37-.84-17.03.64-3.37,1.22-6.92,3.22-9.85.39-.46.94-1.08,2.01-1.28.52-.08,1.11.04,1.52.27,1.78,1.09,2.35,3.15,3.13,4.85,1.44,3.5,2.56,6.96,3.66,10.4,3.33,9.99,7.3,19.84,14.94,26.91,8.15,7.24,23.25,11.06,31.51,2.15,3.41-4.21-.54-8.92-2.84-12.76-2-3.02-4.08-6.11-5.93-9.37-5.68-9.87-9.17-20.94-10.11-32.36-.28-3.81-.27-7.63-.09-11.37.28-6.94,1.5-14.16.41-20.75-.74-4.87-3.15-8.76-6.31-12.59-2.04-2.6-4.88-6.1-6.83-8.75-1.22-1.73-2.53-3.21-3-5.5-.04-.35-.12-.96.23-1.83.16-.41.51-.91.91-1.23.53-.36.54-.45,1.46-.69h0Z"/></svg>