<?xml version="1.0" encoding="UTF-8"?><svg id="Layer_1" xmlns="http://www.w3.org/2000/svg" viewBox="0 0 800 300"><defs><style>.cls-1{fill:#4c4c4e;font-family:CambayDevanagari-Bold, 'Cambay Devanagari';font-size:63.55px;font-weight:700;}.cls-2{stroke-width:5.34px;}.cls-2,.cls-3{fill:#cc582b;stroke:#cc582b;stroke-linecap:round;stroke-linejoin:round;}.cls-3{stroke-width:5.03px;}.cls-4{fill:#e1d8c7;}</style></defs><rect class="cls-4" x="-18" y="-18" width="836" height="336"/><path class="cls-3" d="M488.11,118.6l.11-.17h-40.07l-42.29,67.39h-.4v-67.39h-38.25v149.75h38.25v-64.76h.4l40.88,64.76h40.89c-4-3.01-7.75-6.4-11.2-10.15-10.61-11.53-17.96-25.93-21.55-41.84l-16.24-23.09,17.06-25.68c5.36-20.01,16.9-37.05,32.41-48.81Z"/><path class="cls-3" d="M488.11,118.6l.11-.17h-40.07l-42.29,67.39h-.4v-67.39h-38.25v149.75h38.25v-64.76h.4l40.88,64.76h40.89c-4-3.01-7.75-6.4-11.2-10.15-10.61-11.53-17.96-25.93-21.55-41.84l-16.24-23.09,17.06-25.68c5.36-20.01,16.9-37.05,32.41-48.81Z"/><path class="cls-3" d="M579.82,126.01v14.3h-.48c-7.75-12.36-23.02-18.91-39.51-18.91-38.54,0-67.38,32-67.38,71.74s27.63,71.99,67.38,71.99c17.69,0,33.7-7.27,39.51-19.14h.48v14.54h40.24V126.01h-40.24ZM546.13,227.57c-18.67,0-33.45-15.27-33.45-33.94s14.55-34.66,32.97-34.66,34.17,15.27,34.17,34.18-14.78,34.42-33.69,34.42Z"/><path class="cls-3" d="M729.81,268.18v-59.9h-48.97v59.9h-38.25V118.43h38.25v56.26h48.97v-56.26h38.25v149.75h-38.25Z"/><path class="cls-3" d="M349.67,195.01c0-41.77-30.84-73.57-71.14-73.57s-70.66,33.5-70.66,72.36,32.54,71.38,71.38,71.38c28.41,0,52.94-17.24,65.8-46.62h-41.28c-6.55,8.5-13.6,12.63-24.53,12.63-16.51,0-29.37-10.19-31.56-25.49h101.01c.73-3.64.98-6.8.98-10.68ZM248.18,178.49c3.16-14.32,15.78-23.06,30.35-23.06,15.54,0,27.67,9.22,30.83,23.06h-61.18Z"/><path class="cls-2" d="M155.04,268.18l1.22-112.36-.41-.41-32.04,112.76h-25.35l-32.45-113.77,1.22,113.77H31.94V118.1h49.28l29.81,98.77h.41l29.41-98.77h49.48v150.08h-35.29Z"/><text class="cls-1" transform="translate(132.29 81.07)"><tspan x="0" y="0">THE KAHOTIK STUDIO</tspan></text></svg>