<?xml version="1.0" encoding="UTF-8"?><svg id="Layer_1" xmlns="http://www.w3.org/2000/svg" viewBox="0 0 300 300"><defs><style>.cls-1{stroke:#57574f;stroke-linecap:round;stroke-linejoin:round;stroke-width:2.77px;}.cls-1,.cls-2{fill:#57574f;}.cls-3{fill:#e1d8c7;}.cls-4{fill:#4c4c4e;font-family:CambayDevanagari-Bold, 'Cambay Devanagari';font-size:26.72px;font-weight:700;}</style></defs><text class="cls-4" transform="translate(38.08 266.24)"><tspan x="0" y="0">THE KAHOTIK STUDIO</tspan></text><path class="cls-1" d="M106.26,153.23l.06-.09h-22.04l-23.27,37.08h-.22v-37.08h-21.04v82.39h21.04v-35.63h.22l22.49,35.63h22.5c-2.2-1.65-4.26-3.52-6.16-5.59-5.83-6.34-9.88-14.26-11.86-23.02l-8.94-12.7,9.39-14.13c2.95-11.01,9.3-20.39,17.83-26.86Z"/><path class="cls-1" d="M106.26,153.23l.06-.09h-22.04l-23.27,37.08h-.22v-37.08h-21.04v82.39h21.04v-35.63h.22l22.49,35.63h22.5c-2.2-1.65-4.26-3.52-6.16-5.59-5.83-6.34-9.88-14.26-11.86-23.02l-8.94-12.7,9.39-14.13c2.95-11.01,9.3-20.39,17.83-26.86Z"/><path class="cls-1" d="M156.72,157.31v7.87h-.27c-4.26-6.8-12.66-10.4-21.73-10.4-21.2,0-37.07,17.6-37.07,39.47s15.2,39.6,37.07,39.6c9.73,0,18.54-4,21.73-10.53h.27v8h22.14v-74.01h-22.14ZM138.19,213.18c-10.27,0-18.41-8.4-18.41-18.67s8-19.07,18.14-19.07,18.8,8.4,18.8,18.8-8.13,18.94-18.53,18.94Z"/><path class="cls-1" d="M239.24,235.53v-32.96h-26.94v32.96h-21.04v-82.39h21.04v30.95h26.94v-30.95h21.04v82.39h-21.04Z"/><path class="cls-1" d="M251.86,100.24c0-22.98-16.97-40.48-39.14-40.48s-38.87,18.43-38.87,39.81,17.9,39.27,39.27,39.27c15.63,0,29.12-9.48,36.2-25.65h-22.71c-3.61,4.68-7.48,6.95-13.49,6.95-9.08,0-16.16-5.61-17.37-14.03h55.57c.4-2,.54-3.74.54-5.87ZM196.03,91.16c1.74-7.88,8.68-12.69,16.7-12.69,8.55,0,15.23,5.07,16.96,12.69h-33.66Z"/><path class="cls-2" d="M147.94,53.6s-.11.04-.16.1c-1.03,1.14,7.56,9.96,10.41,13.53,10.53,13.19-.41,25.96,5.53,49.66,5.11,20.35,17.21,26.99,13.04,34.24-3.55,6.17-16.16,8.02-25.14,3.87-18.5-8.53-18.86-41.23-23.29-40.65-2.23.3-3.75,8.78-3.04,16.56,1.27,13.82,9.07,17.72,6.84,25.61-1.68,5.95-7.98,10.99-14.54,11.27-7.63.33-12.72-5.87-13.54-6.87-2.96-3.6-3.6-7.43-4.89-15.09-.69-4.13-1.62-10.2-1.08-18.3.82-12.3,4.71-18.58,3.4-19.22-1.97-.97-11.97,8.38-13.51,20.5-1.56,12.19,6.63,17.86,2.65,25.28-3.03,5.64-10.72,7.9-16.26,7.83-1.96-.03-8.48-.37-13.33-5.18-5.13-5.09-5.21-12.01-5.32-21.73-.08-6.85-.14-12.69,2.59-19.37,5.29-12.94,16.9-18.86,15.62-20.83-.7-1.08-3.95,1.02-9.47,1.48-8.27.7-19.58-2.43-22.7-9.94-1.64-3.93-.99-8.98,1.3-12.86,6.16-10.45,21.11-7.13,40.7-14.24,7.17-2.6,17.26-7.44,28.18-17.23-2.1-2.95-4.05-6.55-2.76-8.78,5.02-8.71,56.67,8.11,55.69,15.47-.26,1.94-4.27,3.82-16.92,4.89Z"/><path class="cls-3" d="M148.4,55.99c.69-.18.61-.21.99-.46.27-.21.5-.56.61-.82.22-.56.15-.88.15-.99-.05-.27-.04-.19,0-.14,3.12,4.67,7.86,8.23,11.41,12.67,9.05,10.83,2.94,25.9,3.5,38.16.08,8.9,2.22,17.85,6.14,25.91,1.31,2.73,2.81,5.38,4.37,8.1,2.59,4.28,5.72,10.15,1.69,14.67-3.43,4.01-8.85,5.08-13.74,5.7-6.65.84-14.08-.55-19.12-5.34-7.51-6.72-10.47-16.62-12.82-25.99-.78-2.99-1.29-6.09-2.01-9.06-.27-.96-.55-2.03-1.1-2.77-.19-.21-.1-.05.06-.09-.55.57-.97,2-1.16,3-.83,5.78-.4,11.98.86,17.67,2.47,10.4,10.89,16.9,1.5,27.14-4.67,4.91-12.02,7.21-18.58,4.94-4.87-1.77-9.4-5.16-11.71-9.92-1.97-4.63-2.36-9.5-3.09-14.31-.83-6.35-.83-12.84-.01-19.19.57-5.38,2.47-10.72,3.81-15.86.03-.1-.03-.15.05.12.09.32.62.76.91.74-6.66,4.18-11.25,14.33-11.18,22.52-.02,4.42,1.69,8.72,2.93,13.08,1.77,5.45-.48,10.91-4.99,14.03-8.42,5.8-20.73,5.95-28.56-1.04-6.63-6.03-6.6-15.65-6.81-23.77-.73-12.6,2.24-22.66,11.31-31.67,2.75-2.96,6.08-5.24,8.69-8.06.04-.04,0-.02,0,.25.02.29.21.58.47.73.26.13.31.07.24.07-.13-.02-.48.02-.82.09-9.07,2.41-19.07,2.29-27.5-2.32-9.37-4.62-8.99-17.56-2.62-24.67,4.75-5.31,12.4-6.53,18.9-7.56,19.43-2.43,34.51-8.18,49.43-21.02,0,0-.3,2.67-.3,2.67-1.09-1.63-2.38-3.14-3.3-5.21-1.26-2.46-.99-6.23,1.77-7.9,7.65-4.77,26.17,1.79,34.54,4.21,5.37,1.79,10.69,3.8,15.75,6.42,2.72,1.6,5.59,2.87,7.4,5.88,3.6,7.74-13.44,8.75-18.06,9.4h0ZM147.49,51.2c4.43-.36,9.17-.65,13.4-1.96.75-.24,1.47-.58,1.81-.85.17-.13.15-.18.11,0-.03.19.05.23-.03.05-2.24-3.15-6.91-4.99-10.4-6.73-9.92-4.34-20.78-7.62-31.52-8.42-2.57-.15-5.14-.22-7.56.31-.86.22-1.54.42-1.91.9-.21.43-.14,1.05.06,1.88.48,2.09,1.81,4.18,3.17,5.88,0,0-1.34,1.26-1.34,1.26-14.08,13.65-31.85,21-51.08,23.95-5.32,1.14-11.54,1.96-15.09,5.97-3.11,3.48-4.08,9.21-1.67,13.37,2.42,4.82,8.72,7.39,14.07,8.12,3.75.51,7.47.01,11.02-1.26.92-.29,1.57-.57,2.63-.66,1.04-.14,2.39.75,2.43,1.99,0,1.83-1.41,2.94-2.39,4.1-4.31,4.33-8.26,8.79-10.76,14.27-4.01,8.06-3.42,17.07-3.44,25.87.05,5.42-.02,11.53,3.78,15.72,3.67,4.09,9.81,5.76,15.27,4.97,5.18-.63,11.63-3.85,12-9.5.15-2.52-1.12-5.29-2.22-8.26-1.14-2.96-2.05-6.28-2.12-9.68-.34-9.5,5.67-20.5,13.76-25.42,1.95-1.05,4.19-.17,3.93,2.24-.41,2.61-1.25,4.58-1.73,7.05-2.02,8.85-1.95,18.05-.3,26.95.87,4.09,1.44,9.12,2.95,12.95,4.22,10.27,15.38,14.04,23.44,5.28,4.6-5.22,3.94-9.61.45-15.41-1.49-2.75-2.9-5.76-3.77-8.93-1.3-4.76-1.54-9.7-.72-14.53.55-2.87,1.04-5.9,2.74-8.4,2.8-3.09,4.77.81,5.68,3.27,3.33,8.51,5.47,17.81,10.45,25.3,4.47,7.35,12.07,12.41,20.78,12.76,6.26.37,16.14-3.97,11.43-11.42-3.94-6.71-8.85-13.09-11.59-20.54-3.61-8.97-5.09-18.95-4.5-28.62.24-5.92,1.28-12.08.35-17.7-.61-4.11-2.69-7.49-5.38-10.74-1.74-2.22-4.17-5.2-5.83-7.47-1.04-1.48-2.16-2.73-2.56-4.7-.03-.3-.1-.82.19-1.56.14-.35.44-.78.77-1.05.45-.31.46-.38,1.24-.59h0Z"/></svg>