<?xml version="1.0" encoding="UTF-8"?><svg id="Layer_1" xmlns="http://www.w3.org/2000/svg" viewBox="0 0 300 300"><defs><style>.cls-1{stroke:#57574f;stroke-linecap:round;stroke-linejoin:round;stroke-width:2.77px;}.cls-1,.cls-2{fill:#57574f;}.cls-3{fill:#e1d8c7;}</style></defs><path class="cls-1" d="M106.14,170.12l.06-.09h-22.1l-23.32,37.16h-.22v-37.16h-21.09v82.58h21.09v-35.71h.22l22.55,35.71h22.55c-2.21-1.66-4.27-3.53-6.18-5.6-5.85-6.36-9.91-14.3-11.89-23.07l-8.96-12.73,9.41-14.16c2.95-11.04,9.32-20.43,17.87-26.92Z"/><path class="cls-1" d="M106.14,170.12l.06-.09h-22.1l-23.32,37.16h-.22v-37.16h-21.09v82.58h21.09v-35.71h.22l22.55,35.71h22.55c-2.21-1.66-4.27-3.53-6.18-5.6-5.85-6.36-9.91-14.3-11.89-23.07l-8.96-12.73,9.41-14.16c2.95-11.04,9.32-20.43,17.87-26.92Z"/><path class="cls-1" d="M156.72,174.21v7.89h-.27c-4.27-6.82-12.69-10.43-21.79-10.43-21.25,0-37.16,17.65-37.16,39.56s15.24,39.7,37.16,39.7c9.76,0,18.58-4.01,21.79-10.56h.27v8.02h22.19v-74.18h-22.19ZM138.14,230.21c-10.29,0-18.45-8.42-18.45-18.72s8.02-19.11,18.18-19.11,18.84,8.42,18.84,18.85-8.15,18.98-18.58,18.98Z"/><path class="cls-1" d="M239.44,252.61v-33.03h-27.01v33.03h-21.09v-82.58h21.09v31.02h27.01v-31.02h21.09v82.58h-21.09Z"/><path class="cls-1" d="M255.76,117c0-23.03-17.01-40.57-39.23-40.57s-38.97,18.48-38.97,39.9,17.94,39.37,39.37,39.37c15.67,0,29.19-9.51,36.29-25.71h-22.76c-3.61,4.69-7.5,6.96-13.53,6.96-9.1,0-16.2-5.62-17.41-14.06h55.7c.4-2.01.54-3.75.54-5.89ZM199.79,107.89c1.74-7.9,8.7-12.72,16.74-12.72,8.57,0,15.26,5.08,17,12.72h-33.74Z"/><path class="cls-2" d="M151.59,70.25s-.11.04-.16.1c-1.03,1.15,7.58,9.98,10.44,13.57,10.56,13.23-.41,26.02,5.55,49.77,5.12,20.4,17.25,27.06,13.07,34.32-3.56,6.19-16.2,8.03-25.2,3.88-18.54-8.55-18.9-41.33-23.34-40.74-2.23.3-3.76,8.8-3.05,16.6,1.27,13.86,9.1,17.76,6.86,25.67-1.68,5.96-8,11.01-14.58,11.3-7.65.33-12.75-5.88-13.58-6.89-2.96-3.61-3.61-7.45-4.9-15.13-.7-4.14-1.63-10.23-1.09-18.34.82-12.33,4.72-18.62,3.41-19.27-1.97-.97-11.99,8.4-13.54,20.55-1.56,12.22,6.65,17.9,2.66,25.34-3.03,5.65-10.74,7.92-16.29,7.85-1.96-.03-8.5-.37-13.36-5.2-5.14-5.1-5.22-12.04-5.33-21.78-.08-6.87-.14-12.72,2.59-19.42,5.3-12.97,16.94-18.91,15.66-20.88-.7-1.08-3.96,1.02-9.49,1.49-8.29.7-19.63-2.43-22.76-9.96-1.64-3.94-.99-9.01,1.3-12.89,6.17-10.48,21.16-7.15,40.79-14.27,7.19-2.61,17.3-7.45,28.25-17.27-2.11-2.96-4.06-6.57-2.77-8.8,5.03-8.74,56.8,8.13,55.83,15.51-.26,1.95-4.28,3.83-16.96,4.9Z"/><path class="cls-3" d="M152.05,72.64c.69-.18.61-.21.99-.46.27-.21.51-.56.61-.82.22-.56.15-.88.15-.99-.05-.27-.04-.19,0-.14,3.13,4.68,7.88,8.25,11.44,12.7,9.07,10.86,2.95,25.96,3.51,38.25.08,8.92,2.23,17.89,6.15,25.97,1.31,2.73,2.82,5.39,4.38,8.12,2.6,4.29,5.73,10.17,1.69,14.7-3.44,4.02-8.87,5.1-13.78,5.72-6.67.84-14.12-.56-19.17-5.35-7.52-6.73-10.49-16.66-12.85-26.06-.78-3-1.29-6.11-2.01-9.08-.27-.97-.56-2.03-1.11-2.77-.19-.21-.1-.05.06-.09-.55.57-.97,2-1.17,3-.83,5.79-.4,12.01.86,17.71,2.48,10.42,10.91,16.94,1.5,27.21-4.69,4.92-12.05,7.23-18.62,4.95-4.88-1.78-9.42-5.17-11.73-9.94-1.98-4.64-2.37-9.52-3.1-14.34-.83-6.36-.83-12.87-.01-19.23.58-5.4,2.48-10.74,3.82-15.9.03-.1-.03-.15.05.12.09.33.62.76.91.74-6.68,4.19-11.27,14.36-11.21,22.57-.02,4.43,1.7,8.74,2.93,13.11,1.77,5.46-.48,10.93-5.01,14.06-8.44,5.81-20.78,5.97-28.63-1.04-6.65-6.04-6.62-15.69-6.82-23.83-.73-12.63,2.25-22.72,11.34-31.74,2.76-2.97,6.1-5.25,8.71-8.08.04-.04,0-.02,0,.25.02.29.21.58.47.73.26.13.31.07.24.07-.13-.02-.49.02-.82.09-9.09,2.42-19.12,2.29-27.56-2.33-9.39-4.63-9.01-17.6-2.63-24.73,4.76-5.32,12.43-6.54,18.95-7.57,19.47-2.44,34.59-8.2,49.55-21.07,0,0-.3,2.67-.3,2.67-1.09-1.63-2.39-3.14-3.31-5.22-1.26-2.47-.99-6.24,1.78-7.91,7.66-4.78,26.24,1.79,34.62,4.22,5.38,1.79,10.72,3.81,15.78,6.44,2.72,1.6,5.61,2.88,7.42,5.89,3.61,7.76-13.47,8.78-18.1,9.42h0ZM151.14,67.85c4.44-.36,9.2-.65,13.43-1.96.75-.25,1.47-.59,1.81-.86.17-.13.15-.18.11,0-1.87-2.61-6.94-5.09-10.46-6.69-9.94-4.35-20.83-7.63-31.59-8.44-3.04-.12-6.6-.42-9.24.96-.28.24-.24.18-.33.5-.07.29-.05.94.14,1.64.48,2.09,1.82,4.19,3.18,5.89-9.55,9.3-21.12,16.76-34.02,20.9-8.92,3.07-18.42,3.83-27.2,6.45-7.57,1.95-11.87,10.4-8.13,17.31,1.08,2.08,3.11,4.2,5.7,5.48,5.88,3.1,13.16,3.79,19.45,1.39,1.34-.36,2.5-1.08,4.01-.35,2.52,1.65-.01,4.45-1.34,5.79-9.05,8.66-14.46,18.28-14.21,31.03.05,5.87-.38,12.12.52,17.93,1.17,8.74,10.35,13.29,18.54,12.02,5.2-.63,11.66-3.86,12.03-9.52.15-2.53-1.13-5.31-2.23-8.28-2.52-6.01-2.9-13.43-.47-19.6,1.75-4.68,4.49-8.85,7.99-12.39,1.66-1.5,4.68-4.72,7.18-3.25,1.65,1.19.65,3.54.33,4.89-2.2,7.31-3.02,14.91-2.58,22.5.22,4.4,1.14,9.18,1.98,13.53,1.06,7.1,3.34,14.03,10.17,17.45,7.69,4.13,18.32-2.84,18.73-11.18.09-2.62-1.38-5.22-2.86-7.97-1.49-2.76-2.9-5.77-3.78-8.95-1.31-4.78-1.54-9.72-.72-14.57.55-2.88,1.04-5.92,2.75-8.42.48-.75,1.97-1.52,3.01-.87,1.53.93,2.01,2.69,2.68,4.15,3.34,8.54,5.48,17.86,10.48,25.36,4.48,7.37,12.1,12.44,20.83,12.79,6.28.37,16.18-3.98,11.45-11.45-3.95-6.73-8.87-13.12-11.61-20.59-3.62-8.99-5.11-19-4.51-28.68.24-5.93,1.28-12.11.35-17.74-.61-4.11-2.7-7.51-5.39-10.77-1.74-2.23-4.18-5.21-5.84-7.49-1.05-1.48-2.16-2.74-2.56-4.71-.03-.3-.1-.82.19-1.56.14-.35.44-.78.77-1.05.45-.31.46-.39,1.24-.59h0Z"/></svg>