<?xml version="1.0" encoding="UTF-8"?><svg id="Layer_1" xmlns="http://www.w3.org/2000/svg" viewBox="0 0 800 300"><defs><style>.cls-1{fill:#cc582b;stroke:#cc582b;stroke-linecap:round;stroke-linejoin:round;stroke-width:4.59px;}.cls-2{fill:#e5a44f;}.cls-3{fill:#57574f;}</style></defs><path class="cls-1" d="M510.53,81.77l.1-.16h-36.6l-38.62,61.55h-.37v-61.55h-34.93v136.77h34.93v-59.14h.37l37.34,59.14h37.35c-3.65-2.75-7.08-5.85-10.23-9.27-9.69-10.53-16.41-23.68-19.68-38.21l-14.84-21.09,15.58-23.46c4.89-18.28,15.43-33.84,29.6-44.58Z"/><path class="cls-1" d="M510.53,81.77l.1-.16h-36.6l-38.62,61.55h-.37v-61.55h-34.93v136.77h34.93v-59.14h.37l37.34,59.14h37.35c-3.65-2.75-7.08-5.85-10.23-9.27-9.69-10.53-16.41-23.68-19.68-38.21l-14.84-21.09,15.58-23.46c4.89-18.28,15.43-33.84,29.6-44.58Z"/><path class="cls-1" d="M594.29,88.54v13.06h-.44c-7.08-11.29-21.02-17.27-36.08-17.27-35.2,0-61.54,29.22-61.54,65.53s25.24,65.75,61.54,65.75c16.16,0,30.77-6.64,36.08-17.48h.44v13.28h36.75v-122.86h-36.75ZM563.53,181.29c-17.05,0-30.55-13.95-30.55-31s13.28-31.66,30.11-31.66,31.21,13.95,31.21,31.22-13.5,31.44-30.77,31.44Z"/><path class="cls-1" d="M731.29,218.38v-54.71h-44.73v54.71h-34.93V81.62h34.93v51.38h44.73v-51.38h34.93v136.77h-34.93Z"/><path class="cls-1" d="M384.09,151.56c0-38.15-28.17-67.2-64.97-67.2s-64.53,30.6-64.53,66.09,29.72,65.19,65.19,65.19c25.95,0,48.35-15.75,60.1-42.58h-37.7c-5.99,7.77-12.42,11.53-22.4,11.53-15.08,0-26.83-9.31-28.83-23.28h92.25c.67-3.32.89-6.21.89-9.75ZM291.4,136.47c2.88-13.08,14.41-21.06,27.72-21.06,14.19,0,25.28,8.42,28.16,21.06h-55.88Z"/><path class="cls-2" d="M211.58,74.12c-.07.02-.18.07-.26.16-1.7,1.9,12.55,16.54,17.29,22.47,17.48,21.9-.69,43.09,9.19,82.43,8.48,33.78,28.56,44.81,21.64,56.84-5.89,10.24-26.83,13.31-41.73,6.43-30.71-14.17-31.3-68.45-38.66-67.47-3.7.49-6.23,14.57-5.04,27.49,2.1,22.95,15.06,29.42,11.36,42.52-2.79,9.87-13.25,18.24-24.14,18.71-12.66.55-21.12-9.75-22.49-11.41-4.91-5.98-5.98-12.34-8.11-25.06-1.15-6.86-2.69-16.94-1.8-30.38,1.36-20.42,7.82-30.84,5.64-31.91-3.26-1.61-19.86,13.91-22.43,34.03-2.58,20.24,11.01,29.65,4.4,41.97-5.02,9.36-17.79,13.11-26.99,12.99-3.25-.04-14.07-.61-22.13-8.61-8.52-8.45-8.65-19.94-8.83-36.07-.13-11.37-.24-21.06,4.3-32.16,8.78-21.49,28.05-31.31,25.93-34.59-1.16-1.79-6.56,1.69-15.72,2.46-13.73,1.16-32.51-4.03-37.69-16.5-2.72-6.53-1.64-14.91,2.15-21.36,10.23-17.35,35.05-11.84,67.56-23.64,11.91-4.32,28.66-12.34,46.79-28.6-3.49-4.9-6.72-10.87-4.58-14.58,8.34-14.47,94.07,13.47,92.46,25.68-.43,3.23-7.08,6.34-28.09,8.11Z"/><path class="cls-3" d="M212.33,78.09c2.03-.38,3.08-2.27,2.89-3.75-.08-.45-.06-.31,0-.23.13.23.41.68.71,1.1,6.95,9.57,17.81,16.48,22.97,27.52,3.78,7.8,4.09,17.47,3.28,25.51-.9,10.34-2.42,20.07-2.2,30.25.21,20.67,6.72,38.89,17.43,56.45,2.68,4.9,5.86,9.53,6.06,15.6.16,6.29-4.89,11.55-10.16,14.06-9.67,4.44-22.05,5.68-32.53,3.36-25.62-6.75-33.13-36.15-38.14-58.8-.96-4.03-1.28-8.55-3.44-12.05-.3-.33-.18-.09.1-.15-2.28,3.02-2.45,8.28-2.61,12.32,0,7.37.34,14.81,2.1,21.98,1.17,4.83,3.02,9.35,5.15,13.9,2.23,4.91,4.93,10.2,4.54,15.96-1.07,11.76-10.58,20.48-21.27,23.76-8.1,2.4-17.42.69-24.42-4.14-4.83-3.21-9.31-7.26-11.79-12.69-3.29-7.72-3.91-15.64-5.14-23.75-2.02-15.78-1.19-32.13,3.23-47.44.93-3.61,2.4-7.18,3.09-10.75.03-.13-.04-.27.08.16.08.43.9,1.27,1.51,1.27.28.02.23-.01.13.03-2.08.84-4.04,2.8-5.67,4.5-4.89,5.35-8.58,12-10.78,18.85-8.6,25.23,10.87,36.78.38,52.82-11.22,15.86-39.47,17.62-53.46,4.47-8.86-7.73-10.71-20.8-11.07-31.64-.24-5.28-.35-10.32-.32-15.7-.14-17.49,6.57-32.47,18.85-44.68,4.57-4.92,10.1-8.7,14.44-13.39.06-.06,0-.03.01.4.03.48.35.97.78,1.21.43.22.52.12.41.12-.21-.03-.8.04-1.36.15-.58.11-1.19.25-1.82.39-3.87.93-7.85,1.76-11.86,2.03-13.23.76-29.77-1.68-39.16-12.06-4.25-4.91-5.41-12.07-4.65-18.29,1.01-9.31,6.58-18.27,14.87-22.75,7.41-4.12,16.11-5.39,23.99-6.68,10.27-1.55,20.17-3.13,29.79-5.94,19.34-5.47,37.02-15.94,52.28-28.97,0,0-.49,4.43-.49,4.43-1.8-2.7-3.94-5.2-5.48-8.64-2.09-4.16-1.68-10.24,2.94-13.11,9.77-6.16,28.84-.82,39.37,1.73,12.12,3.2,24,6.9,35.54,11.86,5.96,2.63,11.63,5.22,16.93,9.34,1.35,1.14,2.75,2.3,3.93,4.47,2.93,5.63-2.32,9.64-6.79,11.13-7.52,2.67-15.34,3.57-23.17,4.46h0ZM210.82,70.15c7.35-.59,15.24-1.04,22.25-3.22,1.24-.41,2.44-.98,3-1.43.28-.22.25-.3.19-.03-.05.27.08.4-.06.07-.24-.58-1.13-1.59-2.12-2.43-4.32-3.62-9.94-6.33-15.17-8.74-16.51-7.2-34.34-12.62-52.33-13.97-4.26-.26-8.53-.36-12.55.52-1.44.36-2.55.69-3.17,1.49-.35.72-.2,1.74.1,3.12.78,3.47,3,6.94,5.26,9.76-24.29,24.12-53.46,36.64-87.02,41.85-13.38,2.64-27.76,5.05-29.9,20.92-1.77,14.95,12.35,22.95,25.43,24.67,6.21.86,12.41.02,18.29-2.1,1.56-.47,2.53-.95,4.37-1.09,1.8-.2,3.93,1.22,4.02,3.32,0,1.67-.49,2.42-1.18,3.5-2.55,3.38-5.43,5.87-8.14,8.87-8.3,8.86-14.67,19.58-16.91,31.52-1.83,9.48-1.15,19.75-1.32,29.54.01,4.85.09,9.77.91,14.44,2.09,14.66,16.96,21.91,30.72,19.89,8.69-1.15,19.12-6.15,19.94-15.78.24-4.2-1.9-8.79-3.72-13.72-6.75-16.28-3.38-32.92,7.1-46.78,2.89-3.71,11.94-14.92,17.26-11.56,2.7,2.08,1.1,5.53.52,8.09-2.14,7.32-3.57,14.71-4.13,22.27-1.07,12.58.56,25.09,3.15,37.41.89,4.72,1.75,9.66,3.47,13.97,5.57,13.59,19.84,22.14,33.46,13.37,5.78-3.64,10.72-10.02,10.93-16.97.14-4.35-2.29-8.64-4.73-13.21-5.22-9.16-8.63-20.24-8.23-30.93.09-4.73,2.39-27.05,10.34-23.4,2.52,1.54,3.33,4.46,4.44,6.87,2.01,4.88,3.59,9.77,5.19,14.73,5.94,17.84,14.2,37.78,32.71,45.29,6.44,2.7,14.15,4.08,21.19,2.52,5.37-1.26,11.27-4.04,13.39-9.32,1.08-3.11-.09-5.92-1.66-9-3.69-6.71-8.45-12.84-12.24-19.69-10.86-18.52-15.87-40.46-14.47-61.92.43-12.04,3.08-24.33-1.08-35.59-2.31-6.37-7.96-12.25-12.09-17.73-2.5-3.17-5.02-6.3-7.28-9.78-.73-1.15-1.63-2.78-1.83-4.32-.05-.5-.17-1.36.32-2.59.23-.58.72-1.3,1.28-1.75.75-.52.76-.64,2.06-.98h0Z"/></svg>