<?xml version="1.0" encoding="UTF-8"?><svg id="Layer_1" xmlns="http://www.w3.org/2000/svg" viewBox="0 0 300 300"><defs><style>.cls-1{fill:#cc582b;stroke:#cc582b;stroke-linecap:round;stroke-linejoin:round;stroke-width:2.76px;}.cls-2{fill:#e5a44f;}.cls-3{fill:#57574f;}</style></defs><path class="cls-1" d="M106.29,170.05l.06-.09h-22.02l-23.24,37.04h-.22v-37.04h-21.02v82.31h21.02v-35.59h.22l22.47,35.59h22.48c-2.2-1.65-4.26-3.52-6.15-5.58-5.83-6.34-9.87-14.25-11.85-23l-8.93-12.69,9.38-14.12c2.94-11,9.29-20.37,17.81-26.83Z"/><path class="cls-1" d="M106.29,170.05l.06-.09h-22.02l-23.24,37.04h-.22v-37.04h-21.02v82.31h21.02v-35.59h.22l22.47,35.59h22.48c-2.2-1.65-4.26-3.52-6.15-5.58-5.83-6.34-9.87-14.25-11.85-23l-8.93-12.69,9.38-14.12c2.94-11,9.29-20.37,17.81-26.83Z"/><path class="cls-1" d="M156.7,174.12v7.86h-.27c-4.26-6.8-12.65-10.39-21.71-10.39-21.18,0-37.03,17.59-37.03,39.43s15.19,39.57,37.03,39.57c9.72,0,18.52-3.99,21.71-10.52h.27v7.99h22.12v-73.94h-22.12ZM138.18,229.95c-10.26,0-18.39-8.39-18.39-18.65s7.99-19.05,18.12-19.05,18.78,8.39,18.78,18.79-8.12,18.92-18.51,18.92Z"/><path class="cls-1" d="M239.14,252.27v-32.92h-26.92v32.92h-21.02v-82.31h21.02v30.92h26.92v-30.92h21.02v82.31h-21.02Z"/><path class="cls-1" d="M255.41,117.11c0-22.96-16.95-40.44-39.1-40.44s-38.84,18.42-38.84,39.77,17.88,39.23,39.23,39.23c15.61,0,29.1-9.48,36.17-25.63h-22.69c-3.6,4.67-7.48,6.94-13.48,6.94-9.07,0-16.14-5.6-17.35-14.01h55.52c.4-2,.54-3.73.54-5.87ZM199.63,108.04c1.73-7.87,8.67-12.67,16.68-12.67,8.54,0,15.21,5.07,16.95,12.67h-33.63Z"/><path class="cls-2" d="M151.59,70.51s-.11.04-.16.1c-1.02,1.14,7.55,9.95,10.4,13.52,10.52,13.18-.41,25.93,5.53,49.61,5.1,20.33,17.19,26.97,13.02,34.21-3.55,6.16-16.14,8.01-25.11,3.87-18.48-8.52-18.84-41.19-23.27-40.61-2.23.3-3.75,8.77-3.04,16.55,1.26,13.81,9.07,17.7,6.84,25.59-1.68,5.94-7.97,10.97-14.53,11.26-7.62.33-12.71-5.86-13.53-6.87-2.95-3.6-3.6-7.42-4.88-15.08-.69-4.13-1.62-10.19-1.08-18.28.82-12.29,4.71-18.56,3.39-19.2-1.96-.97-11.95,8.37-13.5,20.48-1.55,12.18,6.63,17.84,2.65,25.26-3.02,5.63-10.71,7.89-16.24,7.82-1.96-.03-8.47-.37-13.32-5.18-5.13-5.09-5.2-12-5.31-21.71-.08-6.84-.14-12.67,2.59-19.35,5.28-12.93,16.88-18.84,15.6-20.81-.7-1.08-3.95,1.01-9.46,1.48-8.26.7-19.56-2.42-22.68-9.93-1.63-3.93-.99-8.98,1.3-12.85,6.15-10.44,21.09-7.13,40.66-14.22,7.17-2.6,17.24-7.43,28.16-17.21-2.1-2.95-4.04-6.54-2.76-8.77,5.02-8.71,56.61,8.1,55.64,15.45-.26,1.94-4.26,3.81-16.9,4.88Z"/><path class="cls-3" d="M152.04,72.9c.69-.18.61-.21.98-.46.27-.21.5-.56.61-.82.22-.56.15-.87.15-.99-.05-.27-.04-.19,0-.14,3.11,4.66,7.85,8.23,11.4,12.66,9.04,10.82,2.94,25.88,3.5,38.13.08,8.89,2.22,17.83,6.13,25.88,1.31,2.73,2.81,5.37,4.36,8.09,2.59,4.28,5.71,10.14,1.69,14.66-3.43,4.01-8.84,5.08-13.73,5.7-6.64.84-14.07-.55-19.11-5.33-7.5-6.71-10.46-16.6-12.8-25.97-.78-2.99-1.29-6.09-2.01-9.05-.27-.96-.55-2.02-1.1-2.77-.19-.21-.1-.05.06-.09-.55.56-.97,2-1.16,2.99-.83,5.77-.4,11.97.86,17.65,2.47,10.39,10.88,16.88,1.49,27.12-4.67,4.91-12.01,7.2-18.56,4.93-4.87-1.77-9.39-5.16-11.7-9.91-1.95-4.63-2.36-9.49-3.09-14.29-.83-6.34-.83-12.83-.01-19.17.57-5.38,2.47-10.7,3.8-15.84.03-.1-.03-.15.05.12.09.32.62.76.91.74-6.66,4.17-11.24,14.31-11.17,22.49.03,2.84.64,5.63,1.54,8.52.93,3.12,2.27,6.28,1.92,9.77-.41,3.77-2.79,6.8-5.53,8.79-8.41,5.79-20.71,5.95-28.54-1.04-5.36-4.74-6.43-12.49-6.66-19.04-.17-4.82-.39-9.53.1-14.37.53-5.01,2.26-10.02,4.91-14.26,3.68-6.24,9.54-10.77,14.64-15.53.09-.1.15-.19.18-.24.04-.04,0-.02,0,.25.02.29.21.58.47.73.26.13.31.07.24.07-.13-.02-.48.02-.82.09-4.26,1.05-8.69,1.83-13.09,1.49-8.19-.47-19.22-3.33-21.26-12.61-1.13-5.65.46-11.46,4.26-15.85,4.74-5.31,12.39-6.52,18.89-7.55,19.41-2.43,34.47-8.17,49.38-21,0,0-.3,2.66-.3,2.66-1.09-1.62-2.38-3.13-3.3-5.2-1.26-2.46-.99-6.22,1.77-7.89,7.64-4.76,26.15,1.79,34.51,4.21,5.36,1.79,10.68,3.8,15.73,6.41,2.71,1.6,5.59,2.87,7.4,5.87,3.6,7.74-13.42,8.75-18.04,9.39h0ZM151.14,68.12c4.42-.36,9.16-.65,13.39-1.95.75-.24,1.47-.58,1.8-.85.17-.13.15-.18.11,0-.03.19.05.23-.03.05-.14-.35-.68-.96-1.27-1.46-2.6-2.18-5.98-3.81-9.13-5.26-9.91-4.33-20.76-7.61-31.49-8.41-2.56-.15-5.13-.22-7.55.31-.86.22-1.54.42-1.91.9-.21.43-.14,1.05.06,1.88.48,2.09,1.81,4.18,3.17,5.87,0,0-1.34,1.26-1.34,1.26-14.07,13.64-31.82,20.98-51.03,23.92-5.31,1.14-11.53,1.96-15.08,5.96-5.27,5.96-3.37,15.27,4.01,18.82,5.86,3.09,13.12,3.78,19.38,1.39.92-.29,1.57-.57,2.63-.66,2.43-.09,3.06,2.44,1.71,4.1-2.5,3.16-5.53,5.67-7.82,8.78-3.59,4.58-6.17,9.89-7.25,15.53-1.1,5.7-.72,11.89-.79,17.78-.16,8.91.94,16.91,10.59,19.98,7.13,2.39,19.39-.11,20.43-8.8.15-2.52-1.12-5.29-2.22-8.25-1.13-2.96-2.04-6.27-2.12-9.67-.25-8.41,3.84-16.34,9.61-22.21,1.74-1.55,3.55-3.64,6.15-3.61,2.78.42,1.84,3.6,1.34,5.25-.44,1.51-.82,2.97-1.16,4.46-2.44,10.35-1.69,21.14.56,31.45.77,4.2,1.47,8.34,3.93,11.86,2.35,3.4,5.98,6.26,10.19,6.71,6.89.6,14.35-5.41,14.69-12.33.09-2.62-1.38-5.2-2.85-7.95-4.01-6.93-5.96-15.46-4.48-23.44.54-2.87,1.04-5.9,2.74-8.39,2.79-3.08,4.76.81,5.68,3.27,4.28,11.12,6.87,23.61,15.86,31.8,6.22,5.41,16.06,8.41,23.73,4.35,2.23-1.17,4.41-3.27,4.28-5.82-.24-2.65-2.12-5.23-3.57-7.57-3.52-5.2-6.95-10.73-9.25-16.67-3.61-8.96-5.09-18.93-4.5-28.59.24-5.91,1.27-12.07.35-17.68-.61-4.1-2.69-7.48-5.38-10.73-1.74-2.22-4.16-5.19-5.82-7.46-1.04-1.48-2.16-2.73-2.55-4.69-.03-.3-.1-.82.19-1.56.14-.35.43-.78.77-1.05.45-.31.46-.38,1.24-.59h0Z"/></svg>