<?xml version="1.0" encoding="UTF-8"?><svg id="Layer_1" xmlns="http://www.w3.org/2000/svg" viewBox="0 0 300 300"><defs><style>.cls-1,.cls-2,.cls-3{fill:#e1d8c7;}.cls-2{font-family:CambayDevanagari-Bold, 'Cambay Devanagari';font-size:26.72px;font-weight:700;}.cls-3{stroke:#e1d8c7;stroke-linecap:round;stroke-linejoin:round;stroke-width:2.75px;}.cls-4{fill:#57574f;}</style></defs><path class="cls-3" d="M106.43,153.22l.06-.09h-21.96l-23.18,36.93h-.22v-36.93h-20.96v82.07h20.96v-35.49h.22l22.41,35.49h22.41c-2.19-1.65-4.25-3.51-6.14-5.56-5.81-6.32-9.84-14.21-11.81-22.93l-8.9-12.65,9.35-14.08c2.94-10.97,9.26-20.31,17.76-26.75Z"/><path class="cls-3" d="M106.43,153.22l.06-.09h-21.96l-23.18,36.93h-.22v-36.93h-20.96v82.07h20.96v-35.49h.22l22.41,35.49h22.41c-2.19-1.65-4.25-3.51-6.14-5.56-5.81-6.32-9.84-14.21-11.81-22.93l-8.9-12.65,9.35-14.08c2.94-10.97,9.26-20.31,17.76-26.75Z"/><path class="cls-3" d="M156.69,157.28v7.84h-.26c-4.25-6.78-12.62-10.36-21.65-10.36-21.12,0-36.93,17.54-36.93,39.32s15.14,39.45,36.93,39.45c9.7,0,18.47-3.98,21.65-10.49h.26v7.97h22.05v-73.72h-22.05ZM138.23,212.94c-10.23,0-18.33-8.37-18.33-18.6s7.97-19,18.07-19,18.73,8.37,18.73,18.73-8.1,18.86-18.46,18.86Z"/><path class="cls-3" d="M238.89,235.19v-32.83h-26.84v32.83h-20.96v-82.07h20.96v30.83h26.84v-30.83h20.96v82.07h-20.96Z"/><path class="cls-3" d="M251.47,100.44c0-22.89-16.9-40.32-38.99-40.32s-38.72,18.36-38.72,39.65,17.83,39.12,39.12,39.12c15.57,0,29.01-9.45,36.06-25.55h-22.62c-3.59,4.66-7.45,6.92-13.44,6.92-9.05,0-16.1-5.59-17.3-13.97h55.35c.4-1.99.53-3.72.53-5.85ZM195.85,91.38c1.73-7.85,8.65-12.64,16.63-12.64,8.52,0,15.17,5.05,16.9,12.64h-33.53Z"/><path class="cls-1" d="M147.95,53.97s-.11.04-.16.1c-1.02,1.14,7.53,9.92,10.37,13.48,10.49,13.14-.41,25.86,5.51,49.46,5.09,20.27,17.14,26.89,12.99,34.11-3.54,6.15-16.1,7.98-25.04,3.86-18.43-8.5-18.78-41.07-23.2-40.49-2.22.29-3.74,8.74-3.03,16.5,1.26,13.77,9.04,17.65,6.82,25.51-1.67,5.92-7.95,10.94-14.48,11.23-7.6.33-12.67-5.85-13.49-6.85-2.95-3.59-3.59-7.4-4.87-15.03-.69-4.12-1.62-10.16-1.08-18.23.82-12.25,4.69-18.5,3.38-19.15-1.96-.96-11.92,8.35-13.46,20.42-1.55,12.14,6.61,17.79,2.64,25.19-3.01,5.62-10.67,7.87-16.19,7.8-1.95-.03-8.45-.37-13.28-5.16-5.11-5.07-5.19-11.96-5.3-21.64-.08-6.82-.14-12.64,2.58-19.29,5.27-12.89,16.83-18.79,15.56-20.75-.7-1.07-3.94,1.01-9.43,1.48-8.24.7-19.51-2.42-22.62-9.9-1.63-3.92-.99-8.95,1.29-12.81,6.14-10.41,21.03-7.11,40.54-14.18,7.15-2.59,17.19-7.41,28.08-17.16-2.09-2.94-4.03-6.52-2.75-8.75,5-8.68,56.45,8.08,55.48,15.41-.26,1.94-4.25,3.8-16.85,4.87Z"/><path class="cls-4" d="M148.4,56.35c.69-.18.61-.21.98-.45.26-.21.5-.56.61-.81.22-.56.15-.87.15-.98-.05-.27-.04-.19,0-.14,3.11,4.65,7.83,8.2,11.37,12.62,9.01,10.79,2.93,25.8,3.49,38.01.08,8.87,2.21,17.78,6.11,25.8,1.3,2.72,2.8,5.36,4.35,8.07,1.61,2.94,3.51,5.72,3.64,9.36-.37,10.67-17.66,12.31-25.61,10.45-10.17-2.4-16.22-12.37-19.24-21.61-1.52-4.52-2.66-9.06-3.64-13.67-.61-2.43-.74-5.32-2.17-7.34,0,0,.11.04.17.01-.55.56-.96,1.99-1.16,2.98-.83,5.75-.4,11.94.85,17.6,2.46,10.36,10.84,16.83,1.49,27.04-4.66,4.89-11.97,7.18-18.5,4.92-6.58-2.3-12.11-7.74-13.2-14.78-1.97-9.4-2.83-18.94-1.55-28.46.57-5.36,2.46-10.67,3.79-15.8.03-.1-.03-.15.05.12.09.32.62.75.91.74.29,0-.01,0-.22.14-4.69,2.97-7.82,8.71-9.58,13.89-1.88,5.61-1.7,11.24.2,16.9.93,3.11,2.26,6.26,1.92,9.74-.97,7.4-8.19,11.32-14.72,12.56-6.68,1.25-14.04-.08-19.25-4.83-6.61-6-6.58-15.59-6.78-23.68-.73-12.55,2.23-22.57,11.27-31.54,2.74-2.95,6.06-5.22,8.66-8.03.04-.04,0-.02,0,.24.02.29.21.58.47.73.26.13.31.07.24.07-1.29.07-2.9.62-4.23.86-10.02,2.16-28.15.16-30.84-11.85-1.54-7.39,1.95-15.69,8.69-19.32,4.45-2.46,9.66-3.26,14.39-4.02,6.16-.93,12.1-1.88,17.87-3.56,11.62-3.29,22.18-9.55,31.37-17.38,0,0-.29,2.67-.3,2.65-1.08-1.62-2.37-3.12-3.29-5.18-2.11-4.46.44-8.44,5.24-9.23,6.83-1.07,13.63.82,20.15,2.4,9.08,2.42,18.07,5.25,26.47,9.55,3.53,1.81,11.11,6.28,6.38,10.83-3.47,2.61-7.6,2.96-11.63,3.71-1.72.25-3.62.51-5.36.67h0ZM147.5,51.59c4.41-.36,9.14-.64,13.35-1.95.74-.24,1.46-.58,1.8-.85.17-.13.15-.18.11,0-.03.19.05.23-.03.05-1.14-1.79-3.53-3.17-5.54-4.31-11.12-5.8-23.77-9.75-36.22-10.78-3.02-.12-6.55-.42-9.19.95-.28.24-.24.18-.33.49-.18,2.6,1.71,5.44,3.3,7.49,0,0-1.33,1.26-1.33,1.26-9.17,8.66-20.26,15.58-32.47,19.51-8.86,3.05-18.31,3.81-27.03,6.41-7.53,1.93-11.8,10.34-8.08,17.2,2.41,4.8,8.69,7.36,14.02,8.09,3.73.51,7.44.01,10.98-1.26.91-.29,1.57-.57,2.62-.66,2.43-.09,3.05,2.43,1.71,4.09-2.49,3.15-5.52,5.65-7.8,8.75-3.58,4.57-6.15,9.86-7.23,15.49-1.1,5.69-.72,11.85-.79,17.72,0,2.91.05,5.87.55,8.66,1.16,8.68,10.28,13.21,18.43,11.94,5.16-.63,11.59-3.83,11.95-9.46.15-2.51-1.12-5.27-2.22-8.23-4.06-9.51-1.97-20,4.26-28.07,1.79-2.26,7.07-8.91,10.35-6.94,1.64,1.19.65,3.51.33,4.86-2.19,7.26-3.01,14.81-2.57,22.36.22,4.37,1.13,9.13,1.96,13.44.51,2.84,1.05,5.8,2.08,8.38,4.2,10.23,15.32,13.99,23.35,5.26,4.58-5.2,3.92-9.57.45-15.35-1.48-2.74-2.89-5.73-3.75-8.89-1.75-6.33-1.51-12.97.37-19.23.68-1.82,1.07-4.08,3.35-4.71,2.39-.19,3.17,2.68,3.95,4.35,1.22,2.98,2.18,5.91,3.11,8.84,1.89,5.82,4.16,11.48,7.3,16.37,4.45,7.32,12.03,12.36,20.7,12.71,4.2.11,8.78-1.15,11.48-4.38,2.89-3.57-.46-7.58-2.42-10.84-1.7-2.56-3.47-5.19-5.04-7.96-4.83-8.38-7.79-17.79-8.59-27.5-.94-9.03,1.47-18.51.27-27.3-.6-4.09-2.68-7.46-5.36-10.7-1.73-2.21-4.15-5.18-5.81-7.44-1.04-1.47-2.15-2.72-2.55-4.68-.03-.3-.1-.81.19-1.55.14-.35.43-.78.77-1.05.45-.31.46-.38,1.24-.59h0Z"/><text class="cls-2" transform="translate(38.08 266.24)"><tspan x="0" y="0">THE KAHOTIK STUDIO</tspan></text></svg>