<?xml version="1.0" encoding="UTF-8"?><svg id="Layer_1" xmlns="http://www.w3.org/2000/svg" viewBox="0 0 800 300"><defs><style>.cls-1{font-family:CambayDevanagari-Bold, 'Cambay Devanagari';font-size:61.24px;font-weight:700;}.cls-1,.cls-2,.cls-3{fill:#e1d8c7;}.cls-3{stroke:#e1d8c7;stroke-linecap:round;stroke-linejoin:round;stroke-width:4.61px;}.cls-4{fill:#57574f;}</style></defs><text class="cls-1" transform="translate(256.34 74.68)"><tspan x="0" y="0">THE KAHOTIK STUDIO</tspan></text><path class="cls-3" d="M511.09,93.36l.1-.16h-36.78l-38.82,61.86h-.37v-61.86h-35.11v137.46h35.11v-59.44h.37l37.53,59.44h37.54c-3.67-2.76-7.11-5.88-10.28-9.32-9.73-10.58-16.49-23.8-19.78-38.4l-14.91-21.2,15.66-23.58c4.92-18.37,15.51-34.01,29.75-44.81Z"/><path class="cls-3" d="M511.09,93.36l.1-.16h-36.78l-38.82,61.86h-.37v-61.86h-35.11v137.46h35.11v-59.44h.37l37.53,59.44h37.54c-3.67-2.76-7.11-5.88-10.28-9.32-9.73-10.58-16.49-23.8-19.78-38.4l-14.91-21.2,15.66-23.58c4.92-18.37,15.51-34.01,29.75-44.81Z"/><path class="cls-3" d="M595.27,100.16v13.13h-.44c-7.11-11.35-21.13-17.36-36.26-17.36-35.38,0-61.85,29.37-61.85,65.85s25.37,66.08,61.85,66.08c16.24,0,30.93-6.67,36.26-17.57h.44v13.34h36.94v-123.48h-36.94ZM564.35,193.39c-17.13,0-30.71-14.02-30.71-31.15s13.35-31.82,30.27-31.82,31.36,14.02,31.36,31.37-13.56,31.59-30.92,31.59Z"/><path class="cls-3" d="M732.95,230.66v-54.98h-44.95v54.98h-35.11V93.21h35.11v51.64h44.95v-51.64h35.11v137.46h-35.11Z"/><path class="cls-3" d="M384.01,163.5c0-38.34-28.31-67.53-65.3-67.53s-64.86,30.75-64.86,66.42,29.87,65.52,65.52,65.52c26.08,0,48.59-15.82,60.4-42.8h-37.89c-6.02,7.81-12.48,11.59-22.51,11.59-15.15,0-26.96-9.36-28.97-23.4h92.72c.67-3.34.9-6.24.9-9.8ZM290.85,148.34c2.9-13.15,14.49-21.17,27.86-21.17,14.27,0,25.4,8.46,28.3,21.17h-56.16Z"/><path class="cls-2" d="M210.63,85.67c-.07.02-.18.07-.26.16-1.71,1.91,12.62,16.62,17.38,22.58,17.57,22.01-.69,43.31,9.23,82.85,8.52,33.95,28.71,45.04,21.75,57.13-5.92,10.3-26.96,13.37-41.94,6.46-30.87-14.24-31.46-68.79-38.86-67.81-3.72.49-6.26,14.64-5.07,27.63,2.11,23.06,15.14,29.57,11.42,42.74-2.8,9.92-13.32,18.33-24.26,18.81-12.73.56-21.22-9.79-22.6-11.47-4.93-6.01-6.01-12.4-8.15-25.18-1.16-6.9-2.71-17.02-1.81-30.53,1.37-20.52,7.86-30.99,5.67-32.07-3.28-1.62-19.96,13.98-22.54,34.2-2.6,20.34,11.07,29.8,4.42,42.19-5.05,9.41-17.88,13.18-27.12,13.06-3.27-.04-14.14-.62-22.24-8.65-8.56-8.5-8.69-20.04-8.88-36.25-.13-11.43-.24-21.17,4.32-32.32,8.83-21.6,28.2-31.47,26.06-34.76-1.17-1.8-6.6,1.69-15.8,2.47-13.79,1.17-32.67-4.05-37.88-16.58-2.73-6.56-1.65-14.99,2.17-21.46,10.28-17.44,35.23-11.9,67.9-23.76,11.97-4.34,28.8-12.41,47.02-28.74-3.51-4.93-6.75-10.93-4.61-14.65,8.38-14.54,94.54,13.53,92.92,25.81-.43,3.24-7.12,6.37-28.23,8.15Z"/><path class="cls-4" d="M211.39,89.67c1.15-.3,1.02-.35,1.64-.76.44-.35.84-.93,1.01-1.36.37-.94.25-1.46.25-1.65-.08-.45-.06-.31,0-.24,3.43,5.16,9.09,10.47,13.47,15,17.96,16.93,14.29,33.09,12.08,54.9-1.54,14.89-.5,29.89,4.02,44.19,2.97,9.74,7.67,18.6,12.84,27.45,3.37,6,8.04,13.15,5.22,20.47-5.36,13.38-29.72,15.62-42.03,12.72-17.05-4.01-27.16-20.73-32.23-36.2-2.55-7.57-4.46-15.17-6.1-22.9-.8-3.67-1.31-7.51-2.75-10.89-.26-.57-.58-1.15-.89-1.4,0,0,.18.06.28.03.22-.08-.03,0-.26.34-2.11,3.49-2.18,7.99-2.35,12.05,0,7.41.34,14.89,2.11,22.09,1.18,4.86,3.03,9.39,5.17,13.97,2.24,4.94,4.95,10.25,4.56,16.04-.74,8.99-6.54,15.97-13.73,20.5-13.13,8.16-28.33,4.55-38.86-6.18-8.26-8.13-8.6-20.51-10.34-31.22-2.03-15.85-1.19-32.29,3.24-47.68.94-3.63,2.42-7.21,3.1-10.8.03-.13-.04-.27.08.16.08.43.91,1.28,1.51,1.27.28.02.23-.01.13.03-.11.03-.29.11-.48.2-7.75,4.82-13.22,14.79-16.05,23.26-8.64,25.38,10.93,36.96.38,53.08-11.28,15.94-39.67,17.7-53.73,4.49-8.91-7.77-10.77-20.9-11.13-31.8-.78-16.99-1.16-32.86,8.38-47.81,2.94-4.75,6.46-9.02,10.25-12.88,4.51-4.78,9.81-8.63,14.2-13.06.15-.17.26-.33.31-.39.06-.06,0-.03.02.4.03.48.35.97.78,1.22.43.22.52.12.41.12-.22-.03-.81.04-1.37.15-12.44,3.3-25.59,3.71-37.99-.39-5.53-2-11.11-4.53-15.11-9.29-4.27-4.93-5.43-12.13-4.67-18.38,1.02-9.35,6.61-18.36,14.95-22.87,7.45-4.14,16.2-5.42,24.11-6.71,20.37-2.79,39.87-7.29,57.67-17.61,8.81-4.98,17.08-10.9,24.81-17.47,0,0-.49,4.45-.49,4.45-1.8-2.71-3.96-5.23-5.51-8.68-4.63-10.66,4.25-16.1,14.05-16,9.76-.11,19.21,2.2,28.47,4.56,6.08,1.61,12.1,3.34,18.07,5.29,5.96,1.95,11.84,4.16,17.65,6.64,5.99,2.64,11.69,5.25,17.01,9.39,4.12,3.12,7.13,8.56,2.28,12.81-3.25,2.6-6.38,3.35-9.99,4.36-3.19.81-6.33,1.37-9.47,1.86-2.92.43-6.04.86-8.98,1.14h0ZM209.87,81.68c7.39-.6,15.31-1.04,22.37-3.23,1.25-.41,2.46-.98,3.02-1.44.29-.22.25-.3.19-.03-.05.27.08.41-.06.07-.24-.58-1.14-1.59-2.13-2.44-4.34-3.63-9.99-6.36-15.25-8.78-16.59-7.23-34.51-12.68-52.59-14.04-4.28-.26-8.57-.36-12.61.52-1.44.37-2.57.7-3.18,1.5-.36.72-.2,1.75.1,3.14.79,3.49,3.02,6.98,5.29,9.8-24.41,24.24-53.73,36.82-87.45,42.06-13.45,2.66-27.9,5.08-30.05,21.03-1.78,15.03,12.41,23.07,25.56,24.79,6.96,1.04,13.77-.36,20.31-2.73,2.53-.92,6.08-.71,6.5,2.86-.01,3.05-2.35,4.9-4,6.82-3.61,3.74-7.13,7.29-10.25,11.35-9.27,11.58-13.57,25.51-13.39,40.3,0,7.43-.21,15.35.12,22.8.28,6.76,1.52,13.76,6.13,18.76,6.08,6.86,16.43,9.6,25.49,8.28,8.73-1.16,19.22-6.18,20.04-15.85.24-4.22-1.91-8.83-3.74-13.79-4.21-10.14-4.84-22.21-.78-32.62,3.66-9.64,11.1-20.77,20.21-25.94,2.13-1.16,5.45-1.09,6.35,1.66.49,1.54.07,3.1-.24,4.42-5.43,17.62-6.43,36.29-2.94,54.38,1.45,7.1,2.36,14.89,4.92,21.6,3.32,8.32,10.89,15.89,20.09,16.99,11.56.93,23.87-8.87,24.52-20.61.14-4.37-2.3-8.68-4.75-13.27-5.24-9.21-8.68-20.34-8.27-31.08.13-5.08,2.1-22.95,8.23-23.9,2.31-.39,4,1.78,4.88,3.46,5.16,10.59,7.48,22.26,12.28,32.92,5.66,13.09,13.91,25.83,27.56,31.23,8.59,3.67,19.51,4.74,28.02.06,3.74-2.02,7.31-5.3,7.15-9.72-.4-4.43-3.54-8.74-5.97-12.65-2.84-4.3-5.79-8.71-8.42-13.35-8.11-14.03-13.15-29.78-14.42-46.04-.85-10.53.23-21.42.92-31.71.36-7.34.31-13.72-2.13-20.25-2.32-6.41-8-12.31-12.16-17.82-2.52-3.19-5.05-6.33-7.31-9.83-.73-1.16-1.64-2.79-1.84-4.34-.05-.5-.17-1.36.32-2.6.23-.58.73-1.3,1.29-1.75.75-.52.76-.64,2.07-.98h0Z"/></svg>