<?xml version="1.0" encoding="UTF-8"?><svg id="Layer_1" xmlns="http://www.w3.org/2000/svg" viewBox="0 0 800 300"><defs><style>.cls-1{stroke:#57574f;stroke-linecap:round;stroke-linejoin:round;stroke-width:4.6px;}.cls-1,.cls-2{fill:#57574f;}.cls-3{fill:#e1d8c7;}</style></defs><path class="cls-1" d="M510.81,81.6l.1-.16h-36.69l-38.72,61.7h-.37v-61.7h-35.02v137.11h35.02v-59.29h.37l37.43,59.29h37.44c-3.66-2.75-7.1-5.86-10.25-9.3-9.71-10.56-16.45-23.74-19.73-38.31l-14.87-21.14,15.62-23.52c4.91-18.33,15.47-33.93,29.67-44.7Z"/><path class="cls-1" d="M510.81,81.6l.1-.16h-36.69l-38.72,61.7h-.37v-61.7h-35.02v137.11h35.02v-59.29h.37l37.43,59.29h37.44c-3.66-2.75-7.1-5.86-10.25-9.3-9.71-10.56-16.45-23.74-19.73-38.31l-14.87-21.14,15.62-23.52c4.91-18.33,15.47-33.93,29.67-44.7Z"/><path class="cls-1" d="M594.78,88.38v13.1h-.44c-7.1-11.32-21.08-17.31-36.17-17.31-35.29,0-61.7,29.3-61.7,65.69s25.3,65.91,61.7,65.91c16.2,0,30.85-6.65,36.17-17.52h.44v13.31h36.84v-123.17h-36.84ZM563.94,181.37c-17.09,0-30.63-13.98-30.63-31.07s13.32-31.74,30.19-31.74,31.28,13.98,31.28,31.29-13.53,31.52-30.84,31.52Z"/><path class="cls-1" d="M732.12,218.56v-54.85h-44.84v54.85h-35.02V81.44h35.02v51.51h44.84v-51.51h35.02v137.11h-35.02Z"/><path class="cls-1" d="M384.05,151.56c0-38.24-28.24-67.37-65.14-67.37s-64.7,30.68-64.7,66.25,29.79,65.36,65.36,65.36c26.01,0,48.47-15.79,60.25-42.69h-37.79c-6,7.79-12.45,11.56-22.46,11.56-15.11,0-26.89-9.33-28.9-23.34h92.48c.67-3.33.89-6.22.89-9.77ZM291.13,136.44c2.89-13.12,14.45-21.11,27.79-21.11,14.23,0,25.34,8.44,28.23,21.11h-56.02Z"/><path class="cls-2" d="M211.1,73.93c-.07.02-.18.07-.26.16-1.71,1.9,12.58,16.58,17.33,22.52,17.53,21.96-.69,43.2,9.21,82.64,8.5,33.87,28.64,44.93,21.7,56.98-5.91,10.27-26.89,13.34-41.83,6.45-30.79-14.2-31.38-68.62-38.76-67.64-3.71.49-6.24,14.61-5.06,27.56,2.11,23.01,15.1,29.49,11.39,42.63-2.8,9.9-13.28,18.28-24.2,18.76-12.69.56-21.17-9.77-22.54-11.44-4.92-5.99-5.99-12.37-8.13-25.12-1.16-6.88-2.7-16.98-1.8-30.45,1.36-20.47,7.84-30.91,5.65-31.99-3.27-1.61-19.91,13.95-22.49,34.11-2.59,20.29,11.04,29.72,4.41,42.08-5.04,9.38-17.83,13.15-27.05,13.03-3.26-.04-14.11-.61-22.19-8.63-8.54-8.47-8.67-19.99-8.85-36.16-.13-11.4-.24-21.11,4.31-32.24,8.8-21.54,28.13-31.39,25.99-34.67-1.16-1.79-6.58,1.69-15.76,2.47-13.76,1.16-32.59-4.04-37.79-16.54-2.72-6.55-1.65-14.95,2.16-21.41,10.25-17.39,35.14-11.87,67.73-23.7,11.94-4.33,28.73-12.37,46.91-28.67-3.5-4.91-6.73-10.9-4.59-14.61,8.36-14.5,94.31,13.5,92.69,25.74-.43,3.24-7.1,6.35-28.16,8.13Z"/><path class="cls-3" d="M211.86,77.91c2.03-.38,3.09-2.27,2.9-3.76-.08-.45-.06-.31,0-.23.13.23.41.68.71,1.1,6.97,9.59,17.85,16.52,23.03,27.59,3.79,7.82,4.1,17.51,3.29,25.58-.9,10.36-2.43,20.12-2.21,30.33.21,20.72,6.74,38.99,17.48,56.59,2.69,4.91,5.88,9.55,6.08,15.64.16,6.31-4.91,11.58-10.18,14.1-9.67,4.44-22.14,5.69-32.62,3.37-25.69-6.77-33.21-36.24-38.24-58.95-.96-4.04-1.28-8.58-3.45-12.08-.3-.33-.18-.09.1-.15-2.29,3.03-2.46,8.31-2.61,12.35-.04,4.95.21,9.94.77,14.84.88,7.42,3.26,14.38,6.49,21.14,2.23,4.93,4.94,10.22,4.55,16-1.07,11.79-10.6,20.54-21.32,23.82-11.3,3.38-23.07-1.32-31.14-9.54-4.19-3.93-6.67-10.05-7.76-15.52-3.24-15.62-4.72-31.68-2.58-47.56.67-5.3,1.82-10.53,3.26-15.63.94-3.62,2.41-7.2,3.1-10.78.03-.13-.04-.27.08.16.01.29.76,1.13,1.22,1.2.12.04.21.06.29.07.28.02.23-.01.13.03-4.27,2.07-7.47,6.4-10.17,10.28-8.24,12.39-11,27.2-5.99,41.36,2.03,6.45,4.9,13.85,2.12,20.74-5.06,12.28-19.52,17.24-31.84,17.27-11.52-.07-23.61-5.4-29.47-15.9-4.28-7.44-5.06-16.62-5.45-24.64-.36-10.71-1.04-21.68,1.69-32.23,4.06-16.34,16.15-28.66,28.58-38.94,1.08-.97,2.08-1.84,2.78-2.78.06-.06,0-.03.02.4.03.48.35.97.78,1.22.43.22.52.12.41.12-.21-.03-.8.04-1.36.15-.58.11-1.2.25-1.82.4-3.88.93-7.87,1.76-11.89,2.04-13.26.76-29.84-1.68-39.26-12.09-4.26-4.92-5.42-12.1-4.66-18.34,1.01-9.33,6.6-18.32,14.91-22.81,7.43-4.13,16.15-5.41,24.05-6.69,10.29-1.56,20.22-3.14,29.86-5.95,19.39-5.48,37.12-15.98,52.41-29.04,0,0-.49,4.44-.49,4.44-1.8-2.71-3.95-5.22-5.49-8.66-2.1-4.17-1.68-10.27,2.94-13.14,9.79-6.18,28.91-.82,39.46,1.73,12.15,3.2,24.06,6.92,35.63,11.89,5.98,2.63,11.66,5.23,16.97,9.37,1.35,1.15,2.75,2.31,3.94,4.48,2.94,5.65-2.32,9.66-6.8,11.16-7.54,2.68-15.38,3.58-23.23,4.47h0ZM210.35,69.95c7.37-.59,15.28-1.04,22.31-3.22,1.25-.41,2.45-.98,3.01-1.43.28-.22.25-.3.19-.03-.05.27.08.4-.06.07-.24-.58-1.13-1.59-2.12-2.43-4.33-3.62-9.97-6.34-15.21-8.76-16.55-7.21-34.42-12.65-52.46-14.01-4.27-.26-8.55-.36-12.58.52-1.44.37-2.56.7-3.18,1.5-.36.72-.2,1.74.1,3.13.79,3.48,3.01,6.96,5.28,9.78-24.35,24.18-53.59,36.73-87.24,41.95-13.41,2.65-27.83,5.07-29.97,20.98-1.78,14.99,12.38,23.01,25.5,24.73,6.23.86,12.44.02,18.34-2.1,1.56-.47,2.54-.95,4.38-1.09,1.81-.2,3.94,1.22,4.03,3.33,0,1.67-.49,2.43-1.19,3.5-2.55,3.39-5.45,5.89-8.16,8.89-8.32,8.88-14.71,19.63-16.95,31.6-1.84,9.5-1.16,19.8-1.32,29.62.01,4.86.09,9.8.91,14.48,2.09,14.7,17,21.97,30.8,19.94,8.71-1.15,19.17-6.17,19.99-15.81.24-4.21-1.91-8.81-3.73-13.75-6.77-16.33-3.39-33,7.12-46.9,2.89-3.72,11.97-14.96,17.3-11.59,2.7,2.08,1.1,5.54.52,8.11-2.15,7.34-3.58,14.74-4.14,22.32-1.08,12.61.56,25.15,3.15,37.5.89,4.73,1.76,9.69,3.48,14.01,5.59,13.63,19.89,22.2,33.54,13.4,5.79-3.65,10.74-10.04,10.96-17.01.14-4.36-2.29-8.66-4.74-13.24-5.23-9.18-8.66-20.29-8.25-31.01.09-4.74,2.4-27.11,10.36-23.46,2.53,1.55,3.34,4.47,4.45,6.89,2.01,4.89,3.6,9.79,5.2,14.77,5.96,17.89,14.24,37.87,32.8,45.41,6.46,2.71,14.19,4.1,21.24,2.52,5.38-1.26,11.3-4.05,13.43-9.34,1.09-3.12-.09-5.93-1.67-9.03-3.7-6.73-8.47-12.87-12.27-19.74-10.89-18.57-15.91-40.56-14.51-62.07.43-12.07,3.09-24.4-1.08-35.68-2.32-6.39-7.98-12.28-12.12-17.77-2.51-3.18-5.03-6.31-7.3-9.81-.73-1.15-1.63-2.79-1.83-4.33-.05-.5-.17-1.36.32-2.6.23-.58.72-1.3,1.29-1.75.75-.52.76-.64,2.07-.98h0Z"/></svg>