<?xml version="1.0" encoding="UTF-8"?><svg id="Layer_1" xmlns="http://www.w3.org/2000/svg" viewBox="0 0 300 300"><defs><style>.cls-1{fill:#cc582b;stroke:#cc582b;stroke-linecap:round;stroke-linejoin:round;stroke-width:2.76px;}.cls-2{fill:#e5a44f;}.cls-3{fill:#4c4c4e;font-family:CambayDevanagari-Bold, 'Cambay Devanagari';font-size:26.72px;font-weight:700;}.cls-4{fill:#57574f;}</style></defs><text class="cls-3" transform="translate(38.08 266.24)"><tspan x="0" y="0">THE KAHOTIK STUDIO</tspan></text><path class="cls-1" d="M106.27,153.23l.06-.09h-22.04l-23.26,37.07h-.22v-37.07h-21.04v82.38h21.04v-35.62h.22l22.49,35.62h22.49c-2.2-1.65-4.26-3.52-6.16-5.59-5.83-6.34-9.88-14.26-11.86-23.01l-8.94-12.7,9.38-14.13c2.95-11.01,9.3-20.38,17.83-26.85Z"/><path class="cls-1" d="M106.27,153.23l.06-.09h-22.04l-23.26,37.07h-.22v-37.07h-21.04v82.38h21.04v-35.62h.22l22.49,35.62h22.49c-2.2-1.65-4.26-3.52-6.16-5.59-5.83-6.34-9.88-14.26-11.86-23.01l-8.94-12.7,9.38-14.13c2.95-11.01,9.3-20.38,17.83-26.85Z"/><path class="cls-1" d="M156.72,157.31v7.87h-.27c-4.26-6.8-12.66-10.4-21.73-10.4-21.2,0-37.07,17.6-37.07,39.47s15.2,39.6,37.07,39.6c9.73,0,18.54-4,21.73-10.53h.27v8h22.14v-74h-22.14ZM138.19,213.18c-10.27,0-18.4-8.4-18.4-18.67s8-19.07,18.14-19.07,18.8,8.4,18.8,18.8-8.13,18.93-18.53,18.93Z"/><path class="cls-1" d="M239.23,235.52v-32.95h-26.94v32.95h-21.04v-82.38h21.04v30.95h26.94v-30.95h21.04v82.38h-21.04Z"/><path class="cls-1" d="M251.85,100.25c0-22.98-16.97-40.47-39.13-40.47s-38.87,18.43-38.87,39.8,17.9,39.27,39.27,39.27c15.63,0,29.12-9.48,36.2-25.65h-22.7c-3.61,4.68-7.48,6.95-13.49,6.95-9.08,0-16.16-5.61-17.36-14.02h55.56c.4-2,.54-3.74.54-5.87ZM196.02,91.16c1.74-7.88,8.68-12.69,16.69-12.69,8.55,0,15.22,5.07,16.96,12.69h-33.65Z"/><path class="cls-2" d="M147.94,53.61s-.11.04-.16.1c-1.02,1.14,7.56,9.96,10.41,13.53,10.53,13.19-.41,25.95,5.53,49.65,5.11,20.35,17.2,26.99,13.03,34.24-3.55,6.17-16.16,8.01-25.13,3.87-18.5-8.53-18.85-41.23-23.29-40.64-2.23.3-3.75,8.77-3.04,16.56,1.27,13.82,9.07,17.72,6.84,25.61-1.68,5.95-7.98,10.98-14.54,11.27-7.63.33-12.72-5.87-13.54-6.87-2.96-3.6-3.6-7.43-4.89-15.09-.69-4.13-1.62-10.2-1.08-18.3.82-12.3,4.71-18.57,3.4-19.22-1.96-.97-11.96,8.38-13.51,20.49-1.56,12.19,6.63,17.86,2.65,25.28-3.03,5.64-10.71,7.9-16.25,7.83-1.96-.03-8.48-.37-13.33-5.18-5.13-5.09-5.21-12.01-5.32-21.73-.08-6.85-.14-12.68,2.59-19.37,5.29-12.94,16.9-18.86,15.62-20.83-.7-1.08-3.95,1.01-9.47,1.48-8.27.7-19.58-2.43-22.7-9.94-1.64-3.93-.99-8.98,1.3-12.86,6.16-10.45,21.11-7.13,40.69-14.24,7.17-2.6,17.26-7.43,28.18-17.23-2.1-2.95-4.05-6.55-2.76-8.78,5.02-8.71,56.66,8.11,55.69,15.47-.26,1.94-4.27,3.82-16.92,4.89Z"/><path class="cls-4" d="M148.4,56c.69-.18.61-.21.99-.46.27-.21.5-.56.61-.82.22-.56.15-.88.15-.99-.05-.27-.04-.19,0-.14,3.12,4.67,7.86,8.23,11.41,12.67,9.05,10.83,2.94,25.9,3.5,38.16.08,8.9,2.22,17.85,6.13,25.9,1.31,2.73,2.81,5.38,4.37,8.1,2.59,4.28,5.72,10.14,1.69,14.67-3.43,4.01-8.85,5.08-13.74,5.7-6.65.84-14.08-.55-19.12-5.34-7.51-6.72-10.46-16.62-12.81-25.99-.78-2.99-1.29-6.09-2.01-9.06-.27-.96-.55-2.03-1.1-2.77-.19-.21-.1-.05.06-.09-.55.57-.97,2-1.16,3-.83,5.78-.4,11.98.86,17.66,2.47,10.4,10.88,16.89,1.49,27.14-4.67,4.91-12.01,7.21-18.57,4.94-4.87-1.77-9.39-5.16-11.71-9.92-1.97-4.63-2.36-9.5-3.09-14.3-.83-6.35-.83-12.84-.01-19.18.57-5.38,2.47-10.71,3.81-15.86.03-.1-.03-.15.05.12.09.32.62.76.91.74-6.66,4.18-11.25,14.32-11.18,22.51-.02,4.42,1.69,8.72,2.93,13.08,1.77,5.45-.48,10.91-4.99,14.03-8.42,5.8-20.72,5.95-28.56-1.04-6.63-6.02-6.6-15.65-6.81-23.77-.73-12.6,2.24-22.66,11.31-31.66,2.75-2.96,6.08-5.24,8.69-8.06.04-.04,0-.02,0,.25.02.29.21.58.47.73.26.13.31.07.24.07-.13-.02-.48.02-.82.09-9.06,2.41-19.07,2.29-27.49-2.32-9.37-4.62-8.98-17.56-2.62-24.67,4.75-5.31,12.4-6.53,18.9-7.55,19.42-2.43,34.5-8.18,49.43-21.02,0,0-.3,2.67-.3,2.67-1.09-1.62-2.38-3.14-3.3-5.21-1.26-2.46-.99-6.23,1.77-7.89,7.65-4.77,26.17,1.79,34.53,4.21,5.37,1.79,10.69,3.8,15.74,6.42,2.72,1.6,5.59,2.87,7.4,5.88,3.6,7.74-13.43,8.75-18.05,9.4h0ZM147.49,51.22c4.43-.36,9.17-.65,13.4-1.96.75-.24,1.47-.58,1.81-.85.17-.13.15-.18.11,0-.03.19.05.23-.03.05-1.14-1.79-3.55-3.18-5.56-4.32-11.69-6.14-30.82-12.44-43.92-10.51-.86.22-1.54.42-1.91.9-.03.04-.06.09-.08.24-.18,2.61,1.71,5.46,3.31,7.51,0,0-1.34,1.26-1.34,1.26-14.08,13.65-31.85,21-51.07,23.94-5.32,1.14-11.54,1.96-15.09,5.97-3.11,3.48-4.08,9.21-1.67,13.37,3.97,7.26,15.22,9.69,22.91,7.52,1.02-.29,2.29-.69,3.34-1.04,1.49-.56,3.66-.41,3.9,1.7,0,1.83-1.41,2.94-2.39,4.09-13.45,13.19-14.64,22.05-14.2,40.14.05,5.42-.02,11.53,3.78,15.72,3.67,4.09,9.81,5.76,15.27,4.96,5.18-.63,11.63-3.85,12-9.5.15-2.52-1.12-5.29-2.22-8.26-1.14-2.96-2.05-6.28-2.12-9.67-.34-9.5,5.67-20.5,13.76-25.42,1.2-.67,3.25-.69,3.8.97.41,1.51-.18,2.68-.44,3.86-3.09,10.18-3.42,20.98-1.46,31.41.87,4.09,1.44,9.12,2.95,12.95,2.42,6.24,9.24,11.89,16.23,9.77,5.27-1.38,10.31-6.43,10.51-11.94.09-2.62-1.38-5.2-2.85-7.95-1.49-2.75-2.9-5.75-3.77-8.93-1.3-4.76-1.54-9.7-.72-14.53.52-2.54,1.7-10.95,5.75-9.27,1.52.93,2.01,2.68,2.68,4.14,1.23,2.99,2.18,5.94,3.12,8.87,1.89,5.84,4.18,11.52,7.33,16.43,4.47,7.35,12.07,12.41,20.77,12.76,4.21.12,8.81-1.15,11.52-4.39,2.9-3.59-.46-7.61-2.43-10.88-1.7-2.57-3.48-5.21-5.06-7.99-4.85-8.42-7.82-17.86-8.62-27.6-.94-9.06,1.48-18.58.27-27.4-.61-4.1-2.69-7.49-5.38-10.74-1.74-2.22-4.17-5.2-5.83-7.47-1.04-1.48-2.16-2.73-2.56-4.7-.03-.3-.1-.82.19-1.56.14-.35.44-.78.77-1.05.45-.31.46-.38,1.24-.59h0Z"/></svg>