<?xml version="1.0" encoding="UTF-8"?><svg id="Layer_1" xmlns="http://www.w3.org/2000/svg" viewBox="0 0 300 300"><defs><style>.cls-1{fill:#e1d8c7;}.cls-2{fill:#57574f;}</style></defs><path class="cls-1" d="M213.65,74.92c-.07.02-.18.07-.26.16-1.68,1.88,12.39,16.33,17.07,22.19,17.26,21.63-.73,42.6,8.99,81.48,8.34,33.39,28.19,44.27,21.33,56.17-5.84,10.13-26.54,13.19-41.27,6.41-30.35-13.97-30.87-67.63-38.15-66.66-3.66.49-6.17,14.41-5.02,27.19,2.05,22.69,14.86,29.07,11.18,42.02-2.77,9.76-13.12,18.04-23.89,18.53-12.52.56-20.87-9.61-22.22-11.25-4.85-5.91-5.9-12.19-7.99-24.76-1.13-6.78-2.64-16.74-1.74-30.03,1.37-20.19,7.77-30.49,5.61-31.55-3.22-1.59-19.66,13.78-22.22,33.66-2.58,20.01,10.86,29.3,4.3,41.49-4.98,9.26-17.6,12.99-26.7,12.88-3.21-.04-13.92-.59-21.87-8.48-8.41-8.35-8.53-19.7-8.69-35.65-.11-11.24-.21-20.82,4.29-31.79,8.71-21.25,27.78-30.99,25.68-34.22-1.15-1.77-6.49,1.67-15.55,2.45-13.57,1.16-32.14-3.94-37.25-16.27-2.68-6.45-1.61-14.74,2.16-21.11,10.13-17.16,34.67-11.75,66.82-23.45,11.78-4.29,28.35-12.24,46.3-28.33-3.44-4.84-6.63-10.74-4.51-14.4,8.26-14.31,93,13.2,91.39,25.28-.43,3.19-7.01,6.27-27.78,8.05Z"/><path class="cls-2" d="M214.4,78.85c1.13-.29,1-.34,1.61-.75.43-.34.82-.91,1-1.33.37-.92.25-1.44.25-1.62-.07-.45-.06-.31,0-.23,3.37,5.08,8.94,10.3,13.24,14.75,17.64,16.61,14,32.63,11.8,54.02-1.53,14.64-.51,29.41,3.92,43.47,2.91,9.58,7.54,18.29,12.63,27.01,3.32,5.9,7.89,12.99,5.02,20.17-5.39,13.08-29.28,15.28-41.39,12.41-16.77-3.96-26.68-20.44-31.64-35.67-2.49-7.45-4.36-14.93-5.97-22.53-.94-3.95-1.24-8.43-3.4-11.82-.1-.1-.17-.15-.11-.12.05.03.24.04.3.01.15-.08-.13.06-.36.42-.24.34-.48.81-.69,1.31-2.07,5.64-1.64,11.99-1.43,17.97.31,7.28,1.46,14.46,4.1,21.27,2.62,7.41,7.84,14.32,7.33,22.67-1.19,11.61-10.6,20.15-21.19,23.35-8.03,2.34-17.22.59-24.12-4.21-4.76-3.18-9.2-7.24-11.59-12.62-2.27-5.18-3.03-10.46-3.93-15.81-2.15-12.89-2.8-26.16-1.02-39.16,1-8.4,3.58-16.55,6.02-24.55.15-.53.27-1.28.28-1.4,0,.18.29.86.63,1.07.31.3.79.45,1.06.45-3.93,1.87-7.54,6.43-10.13,10.29-8.09,12.24-10.81,26.77-5.83,40.81,1.55,5.13,3.68,10.36,3.06,16.09-.69,5.98-4.51,11-9.19,14.36-18.88,13.2-49.92,7.51-55.63-17.04-1.45-5.55-1.79-10.93-2.05-16.13-.27-7.85-.64-15.69.22-23.61,1.38-13.76,8.61-26.49,18.27-36.04,4.5-4.82,10-8.6,14.22-13.18.06-.05-.06.07.02.56.07.47.46.96.88,1.13.39.14.38.05.26.06-.78,0-2.28.35-3.21.57-11.67,3.03-24,2.97-35.58-.8-8.43-2.8-17.33-8.39-18.98-17.96-2.53-12.21,3.38-25.79,14.47-31.77,7.33-4.04,15.92-5.31,23.71-6.59,20.04-2.77,39.21-7.23,56.71-17.4,8.66-4.9,16.8-10.74,24.4-17.19,0,0-.49,4.37-.49,4.37-1.77-2.67-3.9-5.15-5.41-8.55-4.54-10.48,4.2-15.82,13.83-15.74,9.6-.12,18.9,2.14,28,4.45,5.98,1.58,11.91,3.27,17.77,5.18,5.87,1.91,11.65,4.08,17.36,6.51,5.9,2.59,11.5,5.15,16.74,9.23,4.05,3.04,6.98,8.48,2.19,12.61-3.19,2.55-6.27,3.29-9.81,4.28-3.13.8-6.22,1.35-9.31,1.83-2.87.42-5.94.85-8.83,1.13h0ZM212.9,71c5.86-.42,12.29-.96,17.99-2.14,2.31-.54,5.31-1.22,6.99-2.48.29-.22.26-.31.2-.05-.02.12,0,.26,0,.28-.16-.73-1.11-1.63-2.13-2.57-4.27-3.57-9.82-6.25-14.99-8.63-10.93-4.8-22.44-8.65-34.12-11.21-9.86-1.89-20.16-3.79-30.02-2.02-1.42.36-2.53.69-3.14,1.49-.05.07-.09.15-.14.4-.29,1.83.68,4.42,1.56,6.36.81,2,2.56,4.2,3.87,5.96-15.63,15.23-34.56,27.45-55.67,34.26-10,3.3-20.37,5.29-30.32,7.2-13.22,2.63-27.48,4.99-29.66,20.65-1.86,14.81,12.06,22.73,25.01,24.43,4.87.63,9.78.37,14.51-.96,2.73-.66,4.91-1.84,7.82-2.21,1.67-.25,3.86.95,4.11,2.95.28,3.13-2.19,5.03-3.82,6.97-1.81,1.91-3.59,3.69-5.29,5.52-12.08,12.72-18.31,27.63-18.11,45.25-.08,4.88-.03,10.1-.08,15.08.08,8.89-.12,18.96,6.09,25.86,5.94,6.78,16.13,9.49,25.03,8.21,6.82-.99,13.91-3.76,17.77-9.6,8.36-12.4-12.23-24.32-2.35-51.55,2.86-7.67,7.33-14.5,13.03-20.3,2.65-2.45,7.13-7.2,11.23-5.81,1.12.32,2.12,1.92,2.13,2.93.15,1.91-.49,3.56-.9,5.26-2.12,7.24-3.56,14.53-4.14,22.01-1.09,12.43.48,24.8,3.02,36.98.88,4.67,1.72,9.58,3.39,13.85,3.19,8.23,10.63,15.66,19.67,16.8,9.37.81,18.67-5.38,22.65-13.71,3.56-7,.63-13.15-2.95-19.49-2.44-4.51-4.76-9.43-6.2-14.64-1.44-5.21-2.09-10.62-1.98-15.92.1-4.7,2.31-26.3,9.95-23.43,2.7,1.36,3.5,4.38,4.63,6.78,1.99,4.83,3.55,9.66,5.12,14.57,4.51,13.66,10.19,27.88,20.85,37.72,10.24,8.93,26.27,13.83,38.97,7.2,11.24-6.27,7.01-13.25,1.3-21.97-12.2-17.36-20.97-36.94-22.44-58.43-.82-10.36.24-21.08.94-31.19.55-9.36.11-17.88-4.98-25.66-3.93-5.83-9.61-12.21-13.82-18.02-1.61-2.31-3.67-4.71-4.2-7.71-.05-.5-.16-1.34.32-2.56.22-.57.71-1.28,1.27-1.72.74-.51.75-.63,2.03-.97h0Z"/></svg>