<?xml version="1.0" encoding="UTF-8"?><svg id="Layer_1" xmlns="http://www.w3.org/2000/svg" viewBox="0 0 300 300"><defs><style>.cls-1{fill:#e1d8c7;}.cls-2{fill:#e5a44f;}.cls-3{fill:#57574f;}</style></defs><rect class="cls-1" x="-18" y="-18" width="336" height="336"/><path class="cls-2" d="M213.16,75.51c-.07.02-.18.06-.26.16-1.67,1.87,12.3,16.2,16.93,22.02,17.13,21.47-.72,42.27,8.92,80.85,8.28,33.13,27.97,43.92,21.17,55.73-5.8,10.05-26.33,13.08-40.95,6.36-30.11-13.86-30.63-67.11-37.85-66.14-3.63.49-6.13,14.3-4.98,26.97,2.03,22.51,14.75,28.84,11.1,41.7-2.75,9.69-13.02,17.9-23.7,18.38-12.42.56-20.71-9.54-22.05-11.17-4.81-5.86-5.85-12.1-7.93-24.57-1.12-6.73-2.62-16.61-1.73-29.79,1.36-20.03,7.71-30.26,5.57-31.31-3.2-1.57-19.5,13.67-22.04,33.4-2.56,19.85,10.77,29.07,4.27,41.17-4.94,9.19-17.47,12.88-26.49,12.78-3.19-.04-13.81-.58-21.7-8.42-8.35-8.28-8.46-19.55-8.62-35.37-.11-11.15-.21-20.66,4.25-31.55,8.64-21.09,27.56-30.74,25.48-33.96-1.14-1.75-6.44,1.66-15.43,2.43-13.47,1.15-31.89-3.91-36.96-16.14-2.66-6.4-1.59-14.63,2.14-20.95,10.05-17.03,34.4-11.66,66.3-23.26,11.69-4.25,28.13-12.14,45.94-28.11-3.42-4.8-6.58-10.66-4.48-14.29,8.2-14.2,92.27,13.1,90.67,25.08-.42,3.17-6.95,6.23-27.57,7.99Z"/><path class="cls-3" d="M213.9,79.41c1.12-.29.99-.34,1.6-.74.43-.34.82-.9.99-1.32.36-.91.24-1.43.25-1.61-.07-.44-.06-.31,0-.23,3.34,5.04,8.87,10.22,13.14,14.64,17.5,16.48,13.89,32.38,11.71,53.6-1.52,14.53-.51,29.18,3.89,43.13,2.89,9.5,7.49,18.15,12.53,26.8,3.29,5.85,7.83,12.89,4.98,20.01-5.34,12.97-29.06,15.16-41.07,12.31-16.64-3.93-26.47-20.29-31.39-35.39-3.34-9.72-5.31-19.72-7.49-29.66-.44-1.56-.96-3.49-1.91-4.54.05.03.24.04.3.01-1.07,1.01-1.62,3.35-1.98,5.03-.88,4.7-.7,9.69-.48,14.52.3,7.23,1.44,14.35,4.06,21.11,1.78,4.76,4.23,9.08,5.98,14.04,5.4,13.97-6.71,28.06-19.74,31.63-7.97,2.32-17.09.59-23.93-4.18-4.72-3.16-9.12-7.18-11.5-12.52-3.17-7.59-3.77-15.34-4.97-23.29-2.4-18.06-.44-36.69,5.53-53.88.26-.89.74-2.47.77-3.12,0,.18.29.85.62,1.07.31.29.79.45,1.05.44-3.9,1.86-7.48,6.38-10.05,10.21-8.02,12.11-10.72,26.6-5.78,40.49,1.54,5.09,3.65,10.28,3.04,15.96-.68,5.93-4.47,10.91-9.11,14.25-18.73,13.1-49.54,7.45-55.19-16.91-1.44-5.5-1.78-10.85-2.03-16.01-.28-7.79-.61-15.56.22-23.43,1.36-13.65,8.55-26.28,18.12-35.76,4.47-4.79,9.89-8.5,14.11-13.08.05-.05-.06.07.02.55.07.47.46.95.87,1.12.39.14.37.05.26.06-.78,0-2.27.35-3.19.56-11.58,3.01-23.81,2.95-35.3-.79-8.36-2.77-17.19-8.32-18.84-17.82-2.51-12.11,3.35-25.59,14.36-31.52,7.27-4.01,15.8-5.27,23.52-6.53,19.88-2.74,38.91-7.18,56.27-17.26,8.6-4.86,16.67-10.65,24.21-17.06,0,0-.48,4.34-.48,4.34-1.76-2.65-3.87-5.11-5.37-8.48-4.5-10.4,4.17-15.7,13.72-15.62,9.53-.12,18.75,2.12,27.79,4.42,11.89,3.12,23.55,6.74,34.86,11.6,5.85,2.57,11.41,5.11,16.61,9.16,1.32,1.12,2.7,2.26,3.86,4.41,2.83,5.52-2.33,9.43-6.7,10.89-7.37,2.62-15.04,3.52-22.72,4.4h0ZM212.41,71.61c7.21-.59,14.94-1.04,21.83-3.18,1.22-.4,2.4-.96,2.96-1.41.29-.22.26-.31.2-.05-.05.24.07.42-.05.09-.23-.56-1.1-1.55-2.06-2.37-4.24-3.54-9.75-6.2-14.88-8.56-16.2-7.04-33.69-12.34-51.33-13.65-4.18-.25-8.36-.34-12.31.52-1.41.36-2.51.69-3.12,1.47-.35.7-.2,1.7.09,3.06.76,3.41,2.94,6.81,5.15,9.57-23.82,23.64-52.42,35.98-85.32,41.13-13.11,2.61-27.27,4.95-29.43,20.49-1.84,14.69,11.97,22.55,24.82,24.24,6.78,1.02,13.44-.33,19.81-2.65,2.37-.86,5.75-.87,6.41,2.43.28,3.11-2.17,5-3.79,6.92-3.53,3.66-6.96,7.12-10.02,11.08-14.12,18.19-13.32,32.6-13.27,54.26.08,8.82-.12,18.81,6.04,25.65,5.89,6.73,16,9.41,24.83,8.14,8.53-1.12,18.76-5.98,19.69-15.4.28-4.11-1.79-8.6-3.58-13.43-4.11-9.86-4.76-21.7-.82-31.84,2.84-7.61,7.27-14.39,12.93-20.15,2.64-2.43,7.08-7.14,11.14-5.76,1.52.51,2.32,2.45,2.14,3.84-.55,4.04-2.04,7.68-2.81,11.56-3.3,14.42-3.27,29.37-.61,43.89,1.96,9.05,2.43,18.93,7.71,26.76,3.79,5.57,9.72,10.22,16.56,11.03,9.3.8,18.53-5.33,22.47-13.6,3.53-6.94.62-13.05-2.93-19.34-2.42-4.47-4.72-9.36-6.15-14.53-2.9-10.37-2.47-21.15.57-31.43.99-2.84,1.88-6.68,5.18-7.78,3.99-.78,5.51,4.17,6.75,6.89,1,2.44,1.88,4.85,2.73,7.26,2.38,7.1,4.55,14.37,7.53,21.16,3.8,8.67,8.58,17.19,15.52,23.47,11.3,10.07,32.26,15.4,43.79,3.05,9.93-11.51-22.34-27.47-26.1-75.69-.82-10.28.24-20.91.93-30.95.36-7.17.33-13.39-2.04-19.77-2.25-6.26-7.79-12.01-11.84-17.39-2.46-3.11-4.93-6.18-7.14-9.6-.83-1.27-1.43-2.37-1.79-4.24-.05-.49-.16-1.33.32-2.54.22-.57.71-1.27,1.26-1.71.73-.5.74-.62,2.02-.96h0Z"/></svg>