<?xml version="1.0" encoding="UTF-8"?><svg id="Layer_1" xmlns="http://www.w3.org/2000/svg" viewBox="0 0 300 300"><defs><style>.cls-1{fill:#e1d8c7;}.cls-2{fill:#57574f;}</style></defs><path class="cls-2" d="M214.48,73.95c-.07.02-.18.07-.26.16-1.71,1.9,12.55,16.54,17.29,22.48,17.48,21.91-.74,43.16,9.1,82.54,8.45,33.82,28.56,44.84,21.61,56.9-5.92,10.27-26.88,13.36-41.8,6.49-30.74-14.15-31.27-68.51-38.64-67.52-3.71.5-6.25,14.6-5.08,27.54,2.08,22.98,15.05,29.44,11.33,42.57-2.81,9.89-13.29,18.28-24.2,18.77-12.68.57-21.14-9.73-22.51-11.4-4.91-5.98-5.97-12.35-8.1-25.08-1.15-6.87-2.68-16.96-1.76-30.42,1.39-20.45,7.87-30.89,5.69-31.96-3.27-1.61-19.91,13.96-22.51,34.1-2.61,20.27,11,29.68,4.36,42.03-5.04,9.38-17.83,13.15-27.04,13.04-3.25-.04-14.1-.6-22.16-8.59-8.52-8.46-8.64-19.96-8.8-36.11-.12-11.39-.21-21.09,4.34-32.21,8.82-21.53,28.14-31.39,26.01-34.67-1.16-1.79-6.58,1.7-15.75,2.48-13.75,1.18-32.55-4-37.73-16.48-2.71-6.54-1.63-14.93,2.18-21.39,10.26-17.39,35.12-11.9,67.69-23.75,11.93-4.34,28.71-12.39,46.9-28.7-3.49-4.9-6.71-10.88-4.57-14.59,8.37-14.5,94.2,13.37,92.57,25.61-.43,3.23-7.1,6.36-28.14,8.16Z"/><path class="cls-1" d="M215.24,77.93c1.15-.3,1.01-.35,1.64-.76.44-.34.84-.92,1.01-1.35.37-.93.25-1.46.25-1.64-.08-.45-.06-.31,0-.24,3.41,5.14,9.06,10.43,13.42,14.94,17.87,16.82,14.19,33.06,11.96,54.73-1.55,14.83-.52,29.79,3.97,44.03,2.95,9.7,7.64,18.53,12.79,27.36,3.36,5.97,7.99,13.16,5.08,20.43-5.45,13.25-29.67,15.48-41.93,12.57-16.99-4.01-27.03-20.71-32.05-36.14-2.52-7.55-4.41-15.12-6.04-22.82-.96-4-1.26-8.54-3.44-11.97-.1-.11-.17-.15-.11-.12.05.03.24.05.31.01.15-.08-.13.06-.37.42-.25.34-.49.82-.7,1.33-2.08,5.72-1.66,12.14-1.45,18.2.31,7.38,1.47,14.65,4.15,21.55,2.65,7.5,7.94,14.51,7.43,22.97-1.21,11.76-10.74,20.41-21.47,23.66-8.13,2.37-17.45.6-24.44-4.26-4.82-3.23-9.32-7.33-11.74-12.78-2.3-5.24-3.07-10.6-3.98-16.02-2.18-13.06-2.84-26.5-1.03-39.67,1.02-8.51,3.63-16.76,6.1-24.87.15-.54.27-1.29.28-1.42,0,.19.3.87.63,1.09.32.3.81.46,1.07.45-3.98,1.89-7.64,6.52-10.26,10.42-8.19,12.4-10.94,27.12-5.9,41.33,1.57,5.19,3.73,10.5,3.1,16.3-.7,6.06-4.57,11.14-9.31,14.55-19.12,13.38-50.58,7.61-56.35-17.26-1.47-5.62-1.81-11.07-2.08-16.34-.27-7.95-.65-15.89.22-23.92,1.4-13.94,8.73-26.83,18.51-36.51,4.56-4.88,10.16-8.74,14.41-13.35.06-.05-.06.07.02.57.07.48.47.97.89,1.14.4.14.38.05.27.06-.79,0-2.31.35-3.25.58-11.82,3.07-24.31,3.01-36.04-.81-8.54-2.83-17.56-8.5-19.24-18.2-2.56-12.37,3.42-26.13,14.66-32.18,7.43-4.09,16.13-5.38,24.02-6.67,20.3-2.8,39.72-7.33,57.44-17.62,8.78-4.97,17.01-10.88,24.71-17.41,0,0-.49,4.44-.49,4.44-1.8-2.71-3.95-5.21-5.48-8.66-4.6-10.62,4.26-16.04,14.01-15.95,9.73-.12,19.14,2.17,28.37,4.51,6.06,1.6,12.06,3.31,18,5.25,5.94,1.93,11.8,4.14,17.59,6.6,5.97,2.63,11.65,5.22,16.96,9.35,4.1,3.08,7.07,8.6,2.22,12.78-3.23,2.58-6.35,3.33-9.94,4.34-3.17.81-6.31,1.37-9.43,1.86-2.9.43-6.02.86-8.94,1.14h0ZM213.72,69.97c7.36-.6,15.26-1.06,22.28-3.24,1.24-.41,2.45-.98,3.02-1.44.29-.22.26-.32.2-.05-.05.25.07.43-.05.09-.23-.57-1.12-1.58-2.1-2.42-4.32-3.62-9.95-6.33-15.19-8.74-16.53-7.19-34.39-12.6-52.4-13.93-4.26-.25-8.54-.35-12.56.53-1.44.37-2.56.7-3.18,1.5-.36.72-.21,1.73.09,3.12.78,3.48,3,6.95,5.26,9.77-24.32,24.14-53.52,36.74-87.11,41.99-13.38,2.67-27.83,5.05-30.04,20.91-1.88,15,12.21,23.02,25.33,24.74,6.22.86,12.43.04,18.31-2.09,1.51-.46,2.53-.94,4.3-1.12,1.69-.26,3.91.96,4.17,2.99.28,3.17-2.22,5.1-3.87,7.06-1.84,1.94-3.63,3.74-5.36,5.59-12.23,12.88-18.54,27.99-18.34,45.83.09,9.74-.66,20.1.79,29.76,2.02,14.72,16.85,22.01,30.65,20.02,8.71-1.15,19.15-6.1,20.1-15.72.28-4.19-1.83-8.78-3.65-13.71-6.78-16.31-3.45-32.95,7.03-46.86,2.87-3.72,12.42-15.58,17.67-11.51,2.28,2.13.84,5.32.29,7.72-2.15,7.34-3.61,14.72-4.19,22.3-1.11,12.59.49,25.12,3.06,37.46.89,4.73,1.74,9.7,3.44,14.02,3.23,8.33,10.77,15.87,19.92,17.02,4.69.44,9.51-.97,13.5-3.47,7.7-4.73,13.86-14.49,9.76-23.46-3.16-7.05-7.6-13.71-9.6-21.52-1.46-5.27-2.12-10.75-2-16.13-.02-4.75,2.9-29.96,11.53-22.73,1.64,1.77,2.36,3.83,3.24,5.86,2.02,4.89,3.6,9.79,5.19,14.76,5.93,17.87,14.14,37.87,32.67,45.42,8.56,3.67,19.43,4.73,27.92.08,3.71-1.92,7.38-5.42,7.21-9.65-.36-4.41-3.48-8.7-5.89-12.59-2.83-4.28-5.77-8.68-8.38-13.31-10.88-18.55-15.88-40.53-14.46-62.02.43-12.06,3.12-24.37-1.02-35.65-2.3-6.39-7.96-12.27-12.09-17.75-2.51-3.18-5.03-6.31-7.29-9.8-.73-1.15-1.63-2.79-1.83-4.33-.05-.5-.16-1.36.33-2.6.23-.58.72-1.29,1.29-1.74.75-.51.76-.64,2.06-.98h0Z"/></svg>