<?xml version="1.0" encoding="UTF-8"?>
<svg id="Layer_2" data-name="Layer 2" xmlns="http://www.w3.org/2000/svg" viewBox="0 0 300 300">
  <defs>
    <style>
      .cls-1, .cls-2 {
        fill: none;
      }

      .cls-1, .cls-3, .cls-4 {
        stroke-width: 0px;
      }

      .cls-5 {
        fill: #cea154;
      }

      .cls-5, .cls-2 {
        stroke: #cc9648;
        stroke-miterlimit: 10;
        stroke-width: 4px;
      }

      .cls-3 {
        fill: #cc9648;
      }

      .cls-4 {
        fill: #d8be9a;
      }
    </style>
  </defs>
  <line class="cls-1" x1="20.42" y1="282.5" x2="19.8" y2="282.45"/>
  <line class="cls-1" x1="299.8" y1="282.45" x2="299.58" y2="282.47"/>
  <line class="cls-1" x1="20.42" y1="282.5" x2="19.8" y2="282.45"/>
  <line class="cls-1" x1="299.8" y1="282.45" x2="299.58" y2="282.47"/>
  <g>
    <polygon class="cls-5" points="291.55 147.43 233.23 221.31 70.37 221.31 12.05 147.43 151.56 81.55 151.8 81.44 152.03 81.55 291.55 147.43"/>
    <path class="cls-3" d="m202.8,151.43c-.08.04-.17.08-.25.12"/>
    <line class="cls-2" x1="151.55" y1="159.31" x2="70.55" y2="221.31"/>
    <line class="cls-2" x1="151.55" y1="159.31" x2="233.55" y2="221.31"/>
    <line class="cls-2" x1="11.55" y1="147.31" x2="151.55" y2="159.31"/>
    <line class="cls-2" x1="151.55" y1="159.31" x2="291.55" y2="147.31"/>
    <path class="cls-3" d="m202.8,151.43c-.08.04-.17.08-.25.12"/>
    <line class="cls-2" x1="151.55" y1="159.31" x2="70.55" y2="221.31"/>
    <line class="cls-2" x1="151.55" y1="159.31" x2="233.55" y2="221.31"/>
    <line class="cls-2" x1="11.55" y1="147.31" x2="151.55" y2="159.31"/>
    <line class="cls-2" x1="151.55" y1="159.31" x2="291.55" y2="147.31"/>
    <line class="cls-2" x1="151.55" y1="81.31" x2="151.55" y2="159.31"/>
    <path class="cls-1" d="m211.05,286.57c-.08.04-.17.08-.25.12"/>
    <polygon class="cls-3" points="233.6 222.16 233.48 222.31 70.8 222.31 151.8 160.31 233.6 222.16"/>
    <polygon class="cls-4" points="293.33 147.47 153.55 159.45 153.55 81.7 153.57 81.69 153.8 81.58 154.03 81.69 293.33 147.47"/>
    <polygon class="cls-4" points="151.55 81.7 151.55 159.45 12.19 147.5 151.55 81.7"/>
    <path class="cls-1" d="m211.05,286.57c-.08.04-.17.08-.25.12"/>
    <polygon class="cls-2" points="291.36 147.43 233.04 221.31 70.18 221.31 11.86 147.43 151.38 81.55 151.61 81.44 151.85 81.55 291.36 147.43"/>
  </g>
</svg>