<?xml version="1.0" encoding="UTF-8"?>
<svg id="Layer_2" data-name="Layer 2" xmlns="http://www.w3.org/2000/svg" viewBox="0 0 300 300">
  <defs>
    <style>
      .cls-1 {
        stroke-width: 3px;
      }

      .cls-1, .cls-2, .cls-3 {
        stroke: #cc9648;
        stroke-miterlimit: 10;
      }

      .cls-1, .cls-3 {
        fill: none;
      }

      .cls-2 {
        fill: #cea154;
        stroke-width: 4px;
      }

      .cls-3 {
        stroke-width: 2px;
      }

      .cls-4 {
        fill: #d8be9a;
        stroke-width: 0px;
      }
    </style>
  </defs>
  <polygon class="cls-2" points="289.58 151.07 273.72 192.31 150 230.38 26.28 192.31 10.42 151.07 26.28 109.83 150 71.77 273.72 109.83 289.58 151.07"/>
  <polygon class="cls-1" points="289.58 151.07 273.72 192.31 150 230.38 26.28 192.31 10.42 151.07 26.28 109.83 150 71.77 273.72 109.83 289.58 151.07"/>
  <line class="cls-3" x1="149.55" y1="230.31" x2="150.55" y2="71.31"/>
  <path class="cls-4" d="m26.44,192.31l123.11-42c-41.37-13.33-82.74-26.67-124.11-40-4.96,13.67-9.93,27.33-14.89,41l15.89,41Z"/>
  <path class="cls-4" d="m274.55,192.31l-124-42c41.67-13.33,83.33-26.67,125-40,5,13.67,10,27.33,15,41l-16,41Z"/>
  <polygon class="cls-1" points="289.58 151.07 273.72 192.31 150 230.38 26.28 192.31 10.42 151.07 26.28 109.83 150 71.77 273.72 109.83 289.58 151.07"/>
</svg>