<?xml version="1.0" encoding="UTF-8"?>
<svg id="Layer_1" data-name="Layer 1" xmlns="http://www.w3.org/2000/svg" xmlns:xlink="http://www.w3.org/1999/xlink" viewBox="0 0 300 300">
  <defs>
    <style>
      .cls-1 {
        fill: none;
      }

      .cls-2 {
        fill: url(#linear-gradient);
      }

      .cls-3 {
        clip-path: url(#clippath);
      }

      .cls-4 {
        fill: #fff;
      }

      .cls-5 {
        fill: #c65b38;
      }

      .cls-6 {
        fill: #23423d;
      }

      .cls-7 {
        fill: #42393d;
      }

      .cls-8 {
        clip-path: url(#clippath-1);
      }

      .cls-9 {
        clip-path: url(#clippath-2);
      }
    </style>
    <clipPath id="clippath">
      <rect class="cls-1" x="-179.48" y="19" width="772.95" height="390"/>
    </clipPath>
    <clipPath id="clippath-1">
      <path class="cls-1" d="m150.04,19c-3.23,0-4.95,1.8-6.03,3.95l-6.1,13.37,16.79,37.88,3.59,8.05,6.17,14.02,7.53,17.04,19.87,44.85c2.01,4.6,4.02,9.13,6.1,13.66,2.22,5.18,4.52,10.28,6.82,15.31h-52.44v.07s-17.29,0-17.29,0c-.93,3.59-4.23,6.33-8.11,6.33-4.66,0-8.47-3.81-8.47-8.48,0-4.75,3.8-8.48,8.47-8.48,3.87,0,7.17,2.66,8.11,6.33h5.67c3.16-7.12,6.31-14.16,9.47-21.28l-13.06-33.35-60.55,134.42c-2.15,4.6.65,9.27,6.03,9.27h14.2c3.23,0,5.31-2.16,6.03-3.95,8.75-19.55,17.43-39.18,26.18-58.73h85.37s8.46,18.83,8.46,18.83l.72,1.58c.5,1.15,1.15,2.44,1.79,3.95.07.22.14.43.22.65.22.57.5,1.22.72,1.87,3.44,8.98,5.24,13.51,3.66,17.83-1.43,4.03-4.88,6.4-5.09,6.54-1.44,1.01-2.73,1.44-4.16,1.87-2.87.93-6.96,2.08-12.2,3.09l-.07,6.33c11.19.07,22.38.07,33.5.14h19.01c.22,0,.5,0,.72-.07,7.17,0,14.35,0,21.52-.07v-6.33c-5.31-1.01-9.4-2.16-12.2-3.09-1.29-.36-2.94-.5-4.16-1.87-.57-.58-1.15-1.65-2.37-3.81-.22-.36-.36-.72-.57-1.08-.14-.29-.29-.57-.36-.72-.07-.14-.14-.29-.22-.5-.21-.43-.5-1.08-.86-1.8l-.57-1.15c-.36-.79-.79-1.72-1.29-2.8l-.72-1.65-1.08-2.44-.93-2.16-2.87-6.47-1.79-4.1c-.14-.43-.36-.86-.57-1.29v-.07s-30.56-68.07-30.56-68.07l-43.62-97.47-18.79-41.98c-1.08-2.16-2.87-3.95-6.1-3.95h-3.51Z"/>
    </clipPath>
    <linearGradient id="linear-gradient" x1="-2604.34" y1="2943.06" x2="-2603.37" y2="2943.06" gradientTransform="translate(-1008177.91 892302.54) rotate(90) scale(342.62 -342.62)" gradientUnits="userSpaceOnUse">
      <stop offset="0" stop-color="#b18e7f"/>
      <stop offset=".07" stop-color="#b18e7f"/>
      <stop offset=".32" stop-color="#9b552f"/>
      <stop offset=".49" stop-color="#bb7c3a"/>
      <stop offset=".63" stop-color="#daa144"/>
      <stop offset=".76" stop-color="#d39d45"/>
      <stop offset=".79" stop-color="#d19c46"/>
      <stop offset=".9" stop-color="#fce6ab"/>
      <stop offset="1" stop-color="#fce6ab"/>
    </linearGradient>
    <clipPath id="clippath-2">
      <rect class="cls-1" x="-179.48" y="19" width="772.95" height="390"/>
    </clipPath>
  </defs>
  <g class="cls-3">
    <path class="cls-7" d="m144.95,81.9c-4.66,10.42-9.33,20.92-13.99,31.41-14.2,31.99-28.41,63.98-42.61,95.96-8.68,19.55-17.43,39.18-26.11,58.73-.72,1.8-2.87,3.95-6.03,3.95H18.19s0-6.4,0-6.4l8.54-3.31c8.39-3.31,12.27-6.76,18.87-21.06l1.72-3.81,1.65-3.67L131.32,51.06c4.02,9.2,8.11,18.4,12.2,27.6l1.29,3.02.14.22Z"/>
  </g>
  <g class="cls-8">
    <rect class="cls-2" x="36.04" y="-10.01" width="285.54" height="310.96" transform="translate(-40.26 73.74) rotate(-21)"/>
  </g>
  <g class="cls-9">
    <path class="cls-6" d="m131.61,185.05c0,2.52-2.08,4.6-4.66,4.6-2.58,0-4.66-2.08-4.66-4.6,0-2.59,2.08-4.67,4.66-4.67,2.58,0,4.66,2.08,4.66,4.67"/>
    <path class="cls-4" d="m131.61,185.05c0,2.52-2.08,4.6-4.66,4.6-2.58,0-4.66-2.08-4.66-4.6,0-2.59,2.08-4.67,4.66-4.67,2.58,0,4.66,2.08,4.66,4.67"/>
    <path class="cls-5" d="m131.61,185.05c0,2.52-2.08,4.6-4.66,4.6-2.58,0-4.66-2.08-4.66-4.6,0-2.59,2.08-4.67,4.66-4.67,2.58,0,4.66,2.08,4.66,4.67"/>
  </g>
</svg>