<?xml version="1.0" encoding="utf-8"?>
<!-- Generator: Adobe Illustrator 28.1.0, SVG Export Plug-In . SVG Version: 6.00 Build 0)  -->
<svg version="1.1" id="Layer_2_00000078023510459002680400000013682210249295601323_"
	 xmlns="http://www.w3.org/2000/svg" xmlns:xlink="http://www.w3.org/1999/xlink" x="0px" y="0px" viewBox="0 0 585 340.9"
	 style="enable-background:new 0 0 585 340.9;" xml:space="preserve">
<style type="text/css">
	.st0{fill:#42393D;}
	.st1{font-family:'LeMondeLivreStd-Demi';}
	.st2{font-size:71.8px;}
	.st3{letter-spacing:3;}
	
		.st4{clip-path:url(#SVGID_00000078732895215257683790000000466811715867446961_);fill:url(#SVGID_00000046339506914298114160000004216254665094192519_);}
	.st5{fill:#C65B38;}
</style>
<g>
	<text transform="matrix(1 0 0 1 84.2334 320.0008)" class="st0 st1 st2 st3">AMBER AYRE</text>
	<g>
		<g>
			<g>
				<defs>
					<path id="SVGID_1_" d="M335.2,21.1c-2.6,0-4,1.5-4.9,3.2l-5,10.9L339,66.1l2.9,6.6l5,11.4L353,98l16.2,36.6
						c1.6,3.8,3.3,7.4,5,11.1c1.8,4.2,3.7,8.4,5.6,12.5H337v0.1h-14.1c-0.8,2.9-3.5,5.2-6.6,5.2c-3.8,0-6.9-3.1-6.9-6.9
						c0-3.9,3.1-6.9,6.9-6.9c3.2,0,5.9,2.2,6.6,5.2h4.6c2.6-5.8,5.1-11.5,7.7-17.3l-10.6-27.4l-49.4,109.6c-1.8,3.8,0.5,7.6,4.9,7.6
						h11.6c2.6,0,4.3-1.8,4.9-3.2c7.1-15.9,14.2-31.9,21.3-47.9h69.7l6.9,15.4l0.6,1.3c0.4,0.9,0.9,2,1.5,3.2
						c0.1,0.2,0.1,0.4,0.2,0.5c0.2,0.5,0.4,1,0.6,1.5c2.8,7.3,4.3,11,3,14.5c-1.2,3.3-4,5.2-4.1,5.3c-1.2,0.8-2.2,1.2-3.4,1.5
						c-2.3,0.8-5.7,1.7-9.9,2.5l-0.1,5.2c9.1,0.1,18.2,0.1,27.3,0.1h15.4c0.2,0,0.4,0,0.6-0.1c5.9,0,11.7,0,17.5-0.1v-5.2
						c-4.3-0.8-7.7-1.8-9.9-2.5c-1-0.3-2.4-0.4-3.4-1.5c-0.5-0.5-0.9-1.4-1.9-3.1c-0.2-0.3-0.3-0.6-0.5-0.9
						c-0.1-0.2-0.2-0.5-0.3-0.6s-0.1-0.2-0.2-0.4c-0.2-0.4-0.4-0.9-0.7-1.5l-0.5-0.9c-0.3-0.6-0.6-1.4-1-2.3l-0.6-1.4l-0.9-2
						L423,203l-2.3-5.3l-1.5-3.3c-0.1-0.4-0.3-0.7-0.5-1v-0.1l-24.9-55.5l-35.6-79.5l-15.3-34.2c-0.9-1.8-2.3-3.2-5-3.2L335.2,21.1
						L335.2,21.1z"/>
				</defs>
				<clipPath id="SVGID_00000075164801433326182860000017169685075868609702_">
					<use xlink:href="#SVGID_1_"  style="overflow:visible;"/>
				</clipPath>
				
					<linearGradient id="SVGID_00000040552222872508644450000013184107431902312883_" gradientUnits="userSpaceOnUse" x1="-2411.9172" y1="-1632.1671" x2="-2411.1172" y2="-1632.1671" gradientTransform="matrix(122.784 319.8633 -319.8633 122.784 -225608.3594 971904.1875)">
					<stop  offset="0" style="stop-color:#B18E7F"/>
					<stop  offset="7.000000e-02" style="stop-color:#B18E7F"/>
					<stop  offset="0.32" style="stop-color:#9B552F"/>
					<stop  offset="0.49" style="stop-color:#BB7C3A"/>
					<stop  offset="0.63" style="stop-color:#DAA144"/>
					<stop  offset="0.76" style="stop-color:#D39D45"/>
					<stop  offset="0.79" style="stop-color:#D19C46"/>
					<stop  offset="0.9" style="stop-color:#FCE6AB"/>
					<stop  offset="1" style="stop-color:#FCE6AB"/>
				</linearGradient>
				
					<polygon style="clip-path:url(#SVGID_00000075164801433326182860000017169685075868609702_);fill:url(#SVGID_00000040552222872508644450000013184107431902312883_);" points="
					204.5,47.6 421.9,-35.8 512.7,200.9 295.4,284.3 				"/>
			</g>
		</g>
		<path class="st0" d="M331,72.4c-3.8,8.5-7.6,17.1-11.4,25.6c-11.6,26.1-23.2,52.2-34.7,78.2c-7.1,16-14.3,32-21.3,47.9
			c-0.6,1.5-2.3,3.2-4.9,3.2h-31v-5.2l7-2.7c6.8-2.7,10-5.5,15.4-17.2l1.4-3.1l1.4-3L320,47.2c3.3,7.5,6.6,15,9.9,22.5l1,2.5
			L331,72.4L331,72.4z"/>
		<path class="st5" d="M320.1,156.5c0,2.1-1.7,3.8-3.8,3.8c-2.1,0-3.8-1.7-3.8-3.8s1.7-3.8,3.8-3.8S320.1,154.4,320.1,156.5"/>
	</g>
</g>
</svg>
