<?xml version="1.0" encoding="utf-8"?>
<!-- Generator: Adobe Illustrator 28.1.0, SVG Export Plug-In . SVG Version: 6.00 Build 0)  -->
<svg version="1.1" id="Layer_1" xmlns="http://www.w3.org/2000/svg" xmlns:xlink="http://www.w3.org/1999/xlink" x="0px" y="0px"
	 viewBox="0 0 800 300" style="enable-background:new 0 0 800 300;" xml:space="preserve">
<style type="text/css">
	.st0{fill:#F1F0F3;}
	.st1{opacity:0.12;}
	.st2{clip-path:url(#SVGID_00000099621510992830303100000001878224652628682630_);}
	.st3{fill:none;stroke:#453E42;stroke-width:0.408;}
	.st4{clip-path:url(#SVGID_00000152240850561627504270000002482954766463220145_);}
</style>
<rect x="-18" y="-18" class="st0" width="836" height="336"/>
<g id="Group_426" class="st1">
	<g>
		<defs>
			<rect id="SVGID_1_" x="-378.4" y="-18" width="1735.1" height="336"/>
		</defs>
		<clipPath id="SVGID_00000170964278355177305920000008515303838307877532_">
			<use xlink:href="#SVGID_1_"  style="overflow:visible;"/>
		</clipPath>
		<g style="clip-path:url(#SVGID_00000170964278355177305920000008515303838307877532_);">
			<g id="Group_17">
				<g id="Group_16">
					<path id="Path_13" class="st3" d="M-357.2-9.6c-6.8,8.9-13.6,17.9-20.3,26.9 M-324.7-9.3c-17.1,23.7-34.8,47.2-52.5,70.5
						 M-293.4-9.5C-320,27.4-350,62.1-377.2,98.6 M-260.9-9.4c-39,51.1-75.1,104-116.7,153.5 M-230.8-5.6
						c-50.8,62.2-95,130.1-146.6,194.4 M-223.7,28.3c-21.5,33.1-44.9,63.5-70.9,96.3c-31.2,37.5-52,72.6-83.1,108.2 M-216.7,60.5
						c-13.3,17.6-26.6,35.2-39.9,52.9c-26.7,35.5-53.5,70.9-80.2,106.4c-13.5,18-27,35.9-40.6,53.8 M-46.3-9.7
						C-37.7-4.5-29.2,0.7-20.6,6 M-94.8-9.8c21,12.6,41.8,24.3,58.9,36 M-140.6-9.8c28.1,17.2,56.2,34.3,84.3,51.4
						c2,1.2,4,2.5,6,3.7 M-188.2-9.5c41.7,24,83.3,49.7,122.7,75 M-230.7-5.7L-81,85.6 M-223.4,28L-95.9,106 M-216.7,60.3
						l105.8,64.6 M-125.5,145.3L-209.4,94c-56,74.4-112.1,148.8-168.2,223.2 M-110.5,148.5c0.8,3.8-2,7.5-6.2,8.2
						c-4.2,0.7-8.3-1.8-9.1-5.6c-0.8-3.8,2-7.5,6.2-8.2S-111.3,144.7-110.5,148.5L-110.5,148.5L-110.5,148.5z M-96,128
						c0.8,3.8-2,7.5-6.2,8.2c-4.2,0.7-8.3-1.8-9.1-5.6c-0.8-3.8,2-7.5,6.2-8.2C-100.9,121.6-96.8,124.1-96,128L-96,128z
						 M-80.8,109.7c0.8,3.8-2,7.5-6.2,8.2s-8.3-1.8-9.1-5.6c-0.8-3.8,2-7.5,6.2-8.2C-85.7,103.4-81.6,105.9-80.8,109.7z M-66.3,89.2
						c0.8,3.8-2,7.5-6.2,8.2c-4.2,0.7-8.3-1.8-9.1-5.6c-0.8-3.8,2-7.5,6.2-8.2C-71.2,82.8-67.1,85.3-66.3,89.2L-66.3,89.2z
						 M-50.5,68.9c0.8,3.8-2,7.5-6.2,8.2s-8.3-1.8-9.1-5.6c-0.8-3.8,2-7.5,6.2-8.2C-55.4,62.7-51.3,65.1-50.5,68.9L-50.5,68.9
						L-50.5,68.9z M-35.7,47.9c0.8,3.8-1.9,7.4-6.1,8.1s-8.2-1.7-9-5.5c-0.8-3.8,1.9-7.4,6.1-8.1S-36.5,44.2-35.7,47.9L-35.7,47.9z
						 M-20.7,29.9c0.8,3.8-1.9,7.4-6.1,8.1s-8.2-1.7-9-5.5s1.9-7.4,6.1-8.1C-25.5,23.6-21.5,26.1-20.7,29.9L-20.7,29.9z M-6.3,9.5
						c0.8,3.8-1.9,7.4-6.1,8.1s-8.2-1.7-9-5.5c-0.8-3.8,1.9-7.4,6.1-8.1S-7.1,5.8-6.3,9.5C-6.3,9.5-6.3,9.5-6.3,9.5z M129.6,178.4
						c48.7-60.9,92.8-126.4,141.8-188 M129.5,178.6L-20.1,87.2 M-5.2,66.9l127.5,77.9l0.3-0.2c37.6-52.8,76.5-102,116-154.1
						 M9.7,47.9l105.8,64.6l0.1-0.2c23.8-30,47.1-58.1,67.9-90.8c7.8-11.7,15.6-21.1,23.9-31 M24.4,27.5l83.8,51.2l0.3-0.2
						c23-28.9,43.8-59.3,66.1-87.8 M9.3,24.3c-0.8-3.8,2-7.5,6.2-8.2s8.3,1.8,9.1,5.6c0.8,3.8-2,7.5-6.2,8.2
						C14.2,30.6,10.1,28.1,9.3,24.3C9.3,24.3,9.3,24.3,9.3,24.3z M-5.2,44.8C-6,41-3.2,37.4,1,36.6s8.3,1.8,9.1,5.6
						c0.8,3.8-2,7.5-6.2,8.2S-4.4,48.6-5.2,44.8L-5.2,44.8z M-20.4,63.1c-0.8-3.8,2-7.5,6.2-8.2c4.2-0.7,8.3,1.8,9.1,5.6
						c0.8,3.8-2,7.5-6.2,8.2S-19.6,66.9-20.4,63.1L-20.4,63.1L-20.4,63.1z M-34.9,83.7c-0.8-3.8,2-7.5,6.2-8.2
						c4.2-0.7,8.3,1.8,9.1,5.6c0.8,3.8-2,7.5-6.2,8.2C-30,90-34.1,87.5-34.9,83.7z M-50.7,103.9c-0.8-3.8,2-7.5,6.2-8.2
						c4.2-0.7,8.3,1.8,9.1,5.6c0.8,3.8-2,7.5-6.2,8.2C-45.8,110.2-49.9,107.7-50.7,103.9L-50.7,103.9z M-65.5,124.9
						c-0.8-3.8,1.9-7.4,6.1-8.1s8.2,1.7,9,5.5c0.8,3.8-1.9,7.4-6.1,8.1S-64.7,128.6-65.5,124.9L-65.5,124.9z M-80.5,142.9
						c-0.8-3.8,1.9-7.4,6.1-8.1c4.2-0.7,8.2,1.7,9,5.5c0.8,3.8-1.9,7.4-6.1,8.1C-75.7,149.2-79.7,146.7-80.5,142.9L-80.5,142.9z
						 M-94.9,163.3c-0.8-3.8,1.9-7.4,6.1-8.1c4.2-0.7,8.2,1.7,9,5.5c0.8,3.8-1.9,7.4-6.1,8.1C-90.1,169.5-94.1,167.1-94.9,163.3
						L-94.9,163.3z M303.6-9.8C275.6,27.1,247.8,64,220,101c-27.9,37.1-55.7,74.3-83.3,111.6L-35.7,107.3 M467.9-9.6
						c12.4,7.6,24.9,15.2,37.3,22.8 M419.5-9.6c23.8,14.8,47.1,28.8,70.5,43.1 M370.7-9.8c31.9,19.5,63.9,39,95.8,58.5
						c2.7,1.6,5.4,3.3,8,4.9 M459.6,73.9L332.1-4c-62.7,83.5-125.4,167-188.1,250.5l-194.9-119 M444.6,92.8L338.8,28.2
						c-62.7,83.5-125.4,167-188.1,250.5l-216-132.1 M430,113.2L346.1,62C283.4,145.5,220.7,229,158,312.4L-80.5,166.8 M445,116.4
						c0.8,3.8-2,7.5-6.2,8.2c-4.2,0.7-8.3-1.8-9.1-5.6c-0.8-3.8,2-7.5,6.2-8.2S444.2,112.6,445,116.4L445,116.4z M459.5,95.9
						c0.8,3.8-2,7.5-6.2,8.2c-4.2,0.7-8.3-1.8-9.1-5.6c-0.8-3.8,2-7.5,6.2-8.2C454.6,89.5,458.7,92,459.5,95.9L459.5,95.9z
						 M475,77.4c0.8,3.8-2,7.5-6.2,8.2c-4.2,0.7-8.3-1.8-9.1-5.6c-0.8-3.8,2-7.5,6.2-8.2C470.1,71.1,474.2,73.6,475,77.4L475,77.4z
						 M489.2,57c0.8,3.8-2,7.5-6.2,8.2c-4.2,0.7-8.3-1.8-9.1-5.6c-0.8-3.8,2-7.5,6.2-8.2C484.3,50.7,488.4,53.2,489.2,57
						C489.2,57,489.2,57,489.2,57z M504.9,36.8c0.8,3.8-2,7.5-6.2,8.2s-8.3-1.8-9.1-5.6c-0.8-3.8,2-7.5,6.2-8.2
						C500.1,30.5,504.1,33,504.9,36.8C504.9,36.8,504.9,36.8,504.9,36.8z M519.7,15.8c0.8,3.8-1.9,7.4-6.1,8.1
						c-4.2,0.7-8.2-1.7-9-5.5s1.9-7.4,6.1-8.1C514.9,9.6,518.9,12.1,519.7,15.8L519.7,15.8z M534.8-2.2c0.8,3.8-1.9,7.4-6.1,8.1
						c-4.2,0.7-8.2-1.7-9-5.5c-0.8-3.8,1.9-7.4,6.1-8.1C530-8.5,534-6,534.8-2.2L534.8-2.2z M537.5-15.4c1.7,1,3.7,1.3,5.6,1
						c0.9-0.2,1.8-0.5,2.7-1H537.5z M713.6,280.2l187.7-249 M706.5,246.4L894-2.8 M699.5,214.2C755,138.6,814.8,63.6,869.4-11.2
						 M692.4,180.3c41.8-53.5,80.8-107.3,125-163.5c5.2-9.4,15.6-16.4,18.9-27.5 M685.1,146.3c38.8-52.2,77.8-103.7,117.6-156
						 M678,112.4C708.3,73,739.5,30.9,769.7-9.4 M671,80.2c4.6-6.5,49.8-67.2,67.7-89.7 M713.4,280.4L474.9,134.7 M706.1,246.6
						l-216-132.1 M699.4,214.3l-194.9-119 M692.1,180.5L519.7,75.2 M685,146.4L535.3,55.1 M677.7,112.7L550.2,34.7 M670.9,80.4
						L565.1,15.8 M663.6,46.6L579.8-4.6 M575.8-15.5h-6.6c-3.2,1.3-5,4.4-4.3,7.6c0.8,3.8,4.9,6.3,9.1,5.6c4.2-0.7,7-4.4,6.2-8.2
						C579.6-12.7,577.9-14.6,575.8-15.5L575.8-15.5z M550.3,12.7c-0.8-3.8,2-7.5,6.2-8.2c4.2-0.7,8.3,1.8,9.1,5.6
						c0.8,3.8-2,7.5-6.2,8.2C555.2,19,551.1,16.5,550.3,12.7z M535.1,31c-0.8-3.8,2-7.5,6.2-8.2c4.2-0.7,8.3,1.8,9.1,5.6
						c0.8,3.8-2,7.5-6.2,8.2C540,37.3,535.9,34.8,535.1,31L535.1,31z M520.6,51.5c-0.8-3.8,2-7.5,6.2-8.2s8.3,1.8,9.1,5.6
						s-2,7.5-6.2,8.2S521.4,55.3,520.6,51.5L520.6,51.5L520.6,51.5z M504.8,71.8c-0.8-3.8,2-7.5,6.2-8.2c4.2-0.7,8.3,1.8,9.1,5.6
						c0.8,3.8-2,7.5-6.2,8.2C509.7,78.1,505.6,75.5,504.8,71.8z M490,92.7c-0.8-3.8,1.9-7.4,6.1-8.1s8.2,1.7,9,5.5
						c0.8,3.8-1.9,7.4-6.1,8.1C494.9,99,490.8,96.5,490,92.7z M475,110.8c-0.8-3.8,1.9-7.4,6.1-8.1s8.2,1.7,9,5.5
						c0.8,3.8-1.9,7.4-6.1,8.1S475.8,114.6,475,110.8C475,110.8,475,110.8,475,110.8z M460.6,131.2c-0.8-3.8,1.9-7.4,6.1-8.1
						c4.2-0.7,8.2,1.7,9,5.5c0.8,3.8-1.9,7.4-6.1,8.1C465.4,137.4,461.4,134.9,460.6,131.2L460.6,131.2z M706.5-9.4
						C692.7,9.8,677.1,28.5,664,47 M739.4-9.5l31,0l32.9-0.3l33.6-0.9l32.9-0.4l24.4,9l7.1,33.8 M1022.4-11.2L1045.5,3 M974.1-11
						l55.9,34.1 M926.1-11c31.6,16.1,57.6,37.2,89,54.4 M894.4-2.3l105.8,64.6 M901.7,31.5l83.8,51.2 M1000.5,86
						c0.8,3.8-2,7.5-6.2,8.2c-4.2,0.7-8.3-1.8-9.1-5.6s2-7.5,6.2-8.2S999.7,82.2,1000.5,86L1000.5,86L1000.5,86z M1015,65.4
						c0.8,3.8-2,7.5-6.2,8.2c-4.2,0.7-8.3-1.8-9.1-5.6s2-7.5,6.2-8.2C1010.1,59.1,1014.2,61.6,1015,65.4
						C1015,65.4,1015,65.4,1015,65.4z M1030.2,47.1c0.8,3.8-2,7.5-6.2,8.2c-4.2,0.7-8.3-1.8-9.1-5.6s2-7.5,6.2-8.2
						C1025.3,40.8,1029.4,43.3,1030.2,47.1C1030.2,47.1,1030.2,47.1,1030.2,47.1z M1044.7,26.6c0.8,3.8-2,7.5-6.2,8.2
						c-4.2,0.7-8.3-1.8-9.1-5.6s2-7.5,6.2-8.2S1043.9,22.8,1044.7,26.6L1044.7,26.6z M1060.5,6.4c0.8,3.8-2,7.5-6.2,8.2
						c-4.2,0.7-8.3-1.8-9.1-5.6s2-7.5,6.2-8.2S1059.7,2.6,1060.5,6.4L1060.5,6.4L1060.5,6.4z M1074.3-16.8h-13.2
						c-1,1.4-1.3,3.2-1,4.8c0.8,3.8,4.8,6.2,9,5.5s6.9-4.4,6.1-8.1C1075.1-15.4,1074.8-16.1,1074.3-16.8L1074.3-16.8z M1269.1,249.8
						c29-38.6,57.6-78.4,86.7-115 M1262,216c33-40.3,63.2-82.3,93.8-124.1 M1255.1,183.7c33.5-44.4,67-88.9,100.5-133.3 M1248,149.9
						c36-47.7,71.9-95.5,107.8-143.2 M1240.6,115.9c15.9-21.7,31.5-42.8,49.6-63.9c15.6-21.1,28.6-42.1,44.7-61.3 M1233.5,82
						c23-30,43.7-62.8,69.1-91.7 M1226.6,49.8c14.3-18.9,29.9-40,46-61 M1219.5,16c6.8-9,13.6-18,20.4-27 M1269,249.9l-238.5-145.6
						 M1261.7,216.2l-216-132.1 M1255,183.9L1060.1,65 M1247.6,150.1L1075.3,44.8 M1240.5,116l-149.7-91.4 M1233.2,82.3L1105.7,4.3
						 M1226.5,50l-105.8-64.6 M1219.2,16.2l-44.1-27 M1106.1-16.8c1.2,3.3,4.9,5.3,8.8,4.7c2.7-0.4,4.9-2.2,5.9-4.7H1106.1
						L1106.1-16.8z M1090.7,0.6c-0.8-3.8,2-7.5,6.2-8.2c4.2-0.7,8.3,1.8,9.1,5.6s-2,7.5-6.2,8.2S1091.5,4.4,1090.7,0.6z
						 M1076.1,21.1c-0.8-3.8,2-7.5,6.2-8.2c4.2-0.7,8.3,1.8,9.1,5.6s-2,7.5-6.2,8.2C1081,27.5,1076.9,25,1076.1,21.1z M1060.4,41.4
						c-0.8-3.8,2-7.5,6.2-8.2c4.2-0.7,8.3,1.8,9.1,5.6c0.8,3.8-2,7.5-6.2,8.2C1065.3,47.7,1061.2,45.2,1060.4,41.4L1060.4,41.4z
						 M1045.6,62.4c-0.8-3.8,1.9-7.4,6.1-8.1c4.2-0.7,8.2,1.7,9,5.5c0.8,3.8-1.9,7.4-6.1,8.1S1046.4,66.1,1045.6,62.4L1045.6,62.4z
						 M1030.5,80.4c-0.8-3.8,1.9-7.4,6.1-8.1c4.2-0.7,8.2,1.7,9,5.5c0.8,3.8-1.9,7.4-6.1,8.1C1035.3,86.7,1031.3,84.2,1030.5,80.4z
						 M1016.1,100.8c-0.8-3.8,1.9-7.4,6.1-8.1s8.2,1.7,9,5.5c0.8,3.8-1.9,7.4-6.1,8.1C1021,107,1016.9,104.6,1016.1,100.8
						C1016.1,100.8,1016.1,100.8,1016.1,100.8z"/>
				</g>
			</g>
		</g>
	</g>
</g>
<g id="Group_426_00000180361665196816105560000010323381243455293067_" class="st1">
	<g>
		<defs>
			<rect id="SVGID_00000140013905493821594340000000270966798069096841_" x="-845.6" y="88.5" width="1735.1" height="336"/>
		</defs>
		<clipPath id="SVGID_00000063631729689841014850000001307568763655884968_">
			<use xlink:href="#SVGID_00000140013905493821594340000000270966798069096841_"  style="overflow:visible;"/>
		</clipPath>
		<g style="clip-path:url(#SVGID_00000063631729689841014850000001307568763655884968_);">
			<g id="Group_17_00000040562316215226999800000002812360786983645886_">
				<g id="Group_16_00000075147959228861322290000007866313521398308280_">
					<path id="Path_13_00000178163490032150885080000011225611240903735994_" class="st3" d="M868.3,416.1
						c6.8-8.9,13.6-17.9,20.3-26.9 M835.8,415.8c17.1-23.7,34.8-47.2,52.5-70.5 M804.5,416c26.6-36.9,56.6-71.6,83.7-108.1 M772,416
						c39-51.1,75.1-104,116.7-153.5 M741.9,412.1c50.8-62.2,95-130.1,146.6-194.4 M734.8,378.3c21.5-33.1,44.9-63.5,70.9-96.3
						c31.2-37.5,52-72.6,83.1-108.2 M727.8,346.1c13.3-17.6,26.6-35.2,39.9-52.9c26.7-35.5,53.5-70.9,80.2-106.4
						c13.5-18,27-35.9,40.6-53.8 M557.4,416.2c-8.6-5.2-17.1-10.4-25.7-15.7 M605.9,416.3c-21-12.6-41.8-24.3-58.9-36 M651.6,416.3
						c-28.1-17.2-56.2-34.3-84.3-51.4c-2-1.2-4-2.5-6-3.7 M699.2,416c-41.7-24-83.3-49.7-122.7-75 M741.8,412.3l-149.7-91.4
						 M734.5,378.5L607,300.6 M727.7,346.2l-105.8-64.6 M636.6,261.2l83.8,51.2c56-74.4,112.1-148.8,168.2-223.2 M621.6,258
						c-0.8-3.8,2-7.5,6.2-8.2c4.2-0.7,8.3,1.8,9.1,5.6s-2,7.5-6.2,8.2S622.4,261.9,621.6,258L621.6,258L621.6,258z M607.1,278.6
						c-0.8-3.8,2-7.5,6.2-8.2s8.3,1.8,9.1,5.6c0.8,3.8-2,7.5-6.2,8.2C612,284.9,607.9,282.4,607.1,278.6L607.1,278.6z M591.9,296.8
						c-0.8-3.8,2-7.5,6.2-8.2c4.2-0.7,8.3,1.8,9.1,5.6c0.8,3.8-2,7.5-6.2,8.2C596.8,303.1,592.7,300.6,591.9,296.8z M577.4,317.4
						c-0.8-3.8,2-7.5,6.2-8.2s8.3,1.8,9.1,5.6s-2,7.5-6.2,8.2S578.2,321.2,577.4,317.4L577.4,317.4z M561.6,337.6
						c-0.8-3.8,2-7.5,6.2-8.2s8.3,1.8,9.1,5.6c0.8,3.8-2,7.5-6.2,8.2S562.4,341.4,561.6,337.6L561.6,337.6L561.6,337.6z
						 M546.8,358.6c-0.8-3.8,1.9-7.4,6.1-8.1s8.2,1.7,9,5.5c0.8,3.8-1.9,7.4-6.1,8.1C551.6,364.8,547.6,362.4,546.8,358.6
						L546.8,358.6z M531.8,376.7c-0.8-3.8,1.9-7.4,6.1-8.1s8.2,1.7,9,5.5c0.8,3.8-1.9,7.4-6.1,8.1
						C536.6,382.9,532.6,380.4,531.8,376.7L531.8,376.7z M517.4,397c-0.8-3.8,1.9-7.4,6.1-8.1s8.2,1.7,9,5.5s-1.9,7.4-6.1,8.1
						S518.2,400.8,517.4,397C517.4,397,517.4,397,517.4,397z M381.5,228.1c-48.7,60.9-92.8,126.4-141.8,188 M381.5,228l149.7,91.4
						 M516.3,339.7l-127.5-77.9l-0.3,0.2c-37.6,52.8-76.5,102-116,154.1 M501.4,358.6L395.6,294l-0.1,0.2
						c-23.8,30-47.1,58.1-67.9,90.8c-7.8,11.7-15.6,21.1-23.9,31 M486.7,379l-83.8-51.2l-0.3,0.2c-23,28.9-43.8,59.3-66.1,87.8
						 M501.7,382.2c0.8,3.8-2,7.5-6.2,8.2s-8.3-1.8-9.1-5.6s2-7.5,6.2-8.2C496.9,375.9,500.9,378.4,501.7,382.2
						C501.7,382.2,501.7,382.2,501.7,382.2z M516.3,361.7c0.8,3.8-2,7.5-6.2,8.2c-4.2,0.7-8.3-1.8-9.1-5.6c-0.8-3.8,2-7.5,6.2-8.2
						C511.4,355.4,515.5,357.9,516.3,361.7L516.3,361.7z M531.5,343.4c0.8,3.8-2,7.5-6.2,8.2c-4.2,0.7-8.3-1.8-9.1-5.6
						s2-7.5,6.2-8.2S530.7,339.6,531.5,343.4L531.5,343.4L531.5,343.4z M546,322.9c0.8,3.8-2,7.5-6.2,8.2c-4.2,0.7-8.3-1.8-9.1-5.6
						c-0.8-3.8,2-7.5,6.2-8.2C541.1,316.6,545.2,319.1,546,322.9z M561.7,302.6c0.8,3.8-2,7.5-6.2,8.2c-4.2,0.7-8.3-1.8-9.1-5.6
						c-0.8-3.8,2-7.5,6.2-8.2C556.9,296.3,560.9,298.8,561.7,302.6L561.7,302.6z M576.5,281.7c0.8,3.8-1.9,7.4-6.1,8.1
						s-8.2-1.7-9-5.5s1.9-7.4,6.1-8.1S575.7,277.9,576.5,281.7L576.5,281.7z M591.6,263.6c0.8,3.8-1.9,7.4-6.1,8.1s-8.2-1.7-9-5.5
						c-0.8-3.8,1.9-7.4,6.1-8.1S590.8,259.8,591.6,263.6L591.6,263.6z M606,243.2c0.8,3.8-1.9,7.4-6.1,8.1c-4.2,0.7-8.2-1.7-9-5.5
						c-0.8-3.8,1.9-7.4,6.1-8.1C601.2,237,605.2,239.5,606,243.2L606,243.2z M207.4,416.3c28-36.9,55.9-73.8,83.7-110.8
						c27.9-37.1,55.7-74.3,83.3-111.6l172.4,105.4 M43.2,416.1c-12.4-7.6-24.9-15.2-37.3-22.8 M91.5,416.2
						c-23.8-14.8-47.1-28.8-70.5-43.1 M140.4,416.3c-31.9-19.5-63.9-39-95.8-58.5c-2.7-1.6-5.4-3.3-8-4.9 M51.5,332.6L179,410.6
						c62.7-83.5,125.4-167,188.1-250.5l194.9,119 M66.4,313.7l105.8,64.6l0.1-0.2c62.7-83.4,125.4-166.9,188.1-250.3l216,132.1
						 M81.1,293.3l83.8,51.2c62.7-83.5,125.4-167,188.1-250.5l238.5,145.6 M66.1,290.1c-0.8-3.8,2-7.5,6.2-8.2
						c4.2-0.7,8.3,1.8,9.1,5.6c0.8,3.8-2,7.5-6.2,8.2C71,296.4,66.9,293.9,66.1,290.1L66.1,290.1z M51.6,310.7
						c-0.8-3.8,2-7.5,6.2-8.2s8.3,1.8,9.1,5.6c0.8,3.8-2,7.5-6.2,8.2S52.4,314.5,51.6,310.7L51.6,310.7z M36.1,329.1
						c-0.8-3.8,2-7.5,6.2-8.2c4.2-0.7,8.3,1.8,9.1,5.6c0.8,3.8-2,7.5-6.2,8.2C41,335.4,36.9,332.9,36.1,329.1L36.1,329.1z
						 M21.9,349.5c-0.8-3.8,2-7.5,6.2-8.2s8.3,1.8,9.1,5.6c0.8,3.8-2,7.5-6.2,8.2C26.8,355.8,22.7,353.3,21.9,349.5
						C21.9,349.5,21.9,349.5,21.9,349.5z M6.1,369.7c-0.8-3.8,2-7.5,6.2-8.2c4.2-0.7,8.3,1.8,9.1,5.6c0.8,3.8-2,7.5-6.2,8.2
						C11,376,6.9,373.5,6.1,369.7C6.1,369.7,6.1,369.7,6.1,369.7z M-8.7,390.7c-0.8-3.8,1.9-7.4,6.1-8.1s8.2,1.7,9,5.5
						c0.8,3.8-1.9,7.4-6.1,8.1S-7.9,394.5-8.7,390.7L-8.7,390.7z M-23.7,408.8c-0.8-3.8,1.9-7.4,6.1-8.1s8.2,1.7,9,5.5
						c0.8,3.8-1.9,7.4-6.1,8.1S-22.9,412.6-23.7,408.8L-23.7,408.8z M-26.4,422c-1.7-1-3.7-1.3-5.6-1c-0.9,0.2-1.8,0.5-2.7,1H-26.4z
						 M-188.4,192.4C-244,268-303.7,342.9-358.4,417.8 M-181.4,226.2c-41.8,53.5-80.8,107.3-125,163.5c-5.2,9.4-15.6,16.4-18.9,27.5
						 M-174,260.3c-38.8,52.2-77.8,103.7-117.6,156 M-166.9,294.1c-30.3,39.4-61.5,81.6-91.7,121.9 M-159.9,326.3
						c-4.6,6.5-49.8,67.2-67.7,89.7 M36.2,271.8l-238.5-145.6c-62.6,83.1-125.2,166.1-187.8,249.2 M20.9,292l-216-132.1
						c-62.6,83.1-125.2,166.2-187.9,249.3 M-188.3,192.2l194.9,119 M-181,226L-8.7,331.3 M-173.9,260.1l149.7,91.4 M-166.6,293.9
						l127.5,77.9 M-159.9,326.1l105.8,64.6 M-152.6,359.9l83.8,51.2 M-64.7,422h6.6c3.2-1.3,5-4.4,4.3-7.6c-0.8-3.8-4.9-6.3-9.1-5.6
						s-7,4.4-6.2,8.2C-68.5,419.3-66.9,421.1-64.7,422L-64.7,422z M-39.2,393.8c0.8,3.8-2,7.5-6.2,8.2c-4.2,0.7-8.3-1.8-9.1-5.6
						c-0.8-3.8,2-7.5,6.2-8.2C-44.1,387.5-40,390-39.2,393.8z M-24,375.5c0.8,3.8-2,7.5-6.2,8.2s-8.3-1.8-9.1-5.6s2-7.5,6.2-8.2
						S-24.8,371.7-24,375.5L-24,375.5z M-9.5,355c0.8,3.8-2,7.5-6.2,8.2c-4.2,0.7-8.3-1.8-9.1-5.6c-0.8-3.8,2-7.5,6.2-8.2
						C-14.4,348.7-10.3,351.2-9.5,355L-9.5,355L-9.5,355z M6.3,334.8c0.8,3.8-2,7.5-6.2,8.2c-4.2,0.7-8.3-1.8-9.1-5.6s2-7.5,6.2-8.2
						S5.5,331,6.3,334.8z M21,313.8c0.8,3.8-1.9,7.4-6.1,8.1c-4.2,0.7-8.2-1.7-9-5.5c-0.8-3.8,1.9-7.4,6.1-8.1S20.3,310,21,313.8z
						 M36.1,295.7c0.8,3.8-1.9,7.4-6.1,8.1s-8.2-1.7-9-5.5c-0.8-3.8,1.9-7.4,6.1-8.1C31.3,289.5,35.3,291.9,36.1,295.7
						C36.1,295.7,36.1,295.7,36.1,295.7z M50.5,275.4c0.8,3.8-1.9,7.4-6.1,8.1s-8.2-1.7-9-5.5s1.9-7.4,6.1-8.1
						S49.7,271.6,50.5,275.4L50.5,275.4z M-195.4,415.9c13.8-19.2,29.4-37.9,42.4-56.3 M-228.3,416.1l-31,0l-32.9,0.3l-33.6,0.9
						l-32.9,0.4l-24.4-9l-7.1-33.8 M-511.4,417.7l-23.1-14.1 M-463,417.6l-55.9-34.1 M-415,417.5c-31.6-16.1-57.6-37.2-89-54.4
						 M-383.3,408.8l-105.8-64.6 M-390.6,375l-83.8-51.2 M-489.4,320.6c-0.8-3.8,2-7.5,6.2-8.2c4.2-0.7,8.3,1.8,9.1,5.6
						c0.8,3.8-2,7.5-6.2,8.2C-484.5,326.8-488.6,324.4-489.4,320.6L-489.4,320.6L-489.4,320.6z M-503.9,341.1
						c-0.8-3.8,2-7.5,6.2-8.2c4.2-0.7,8.3,1.8,9.1,5.6c0.8,3.8-2,7.5-6.2,8.2C-499,347.4-503.1,344.9-503.9,341.1
						C-503.9,341.1-503.9,341.1-503.9,341.1z M-519.1,359.4c-0.8-3.8,2-7.5,6.2-8.2c4.2-0.7,8.3,1.8,9.1,5.6c0.8,3.8-2,7.5-6.2,8.2
						C-514.2,365.7-518.3,363.2-519.1,359.4C-519.1,359.4-519.1,359.4-519.1,359.4z M-533.7,379.9c-0.8-3.8,2-7.5,6.2-8.2
						c4.2-0.7,8.3,1.8,9.1,5.6c0.8,3.8-2,7.5-6.2,8.2S-532.9,383.7-533.7,379.9L-533.7,379.9z M-549.4,400.1c-0.8-3.8,2-7.5,6.2-8.2
						c4.2-0.7,8.3,1.8,9.1,5.6s-2,7.5-6.2,8.2S-548.6,403.9-549.4,400.1L-549.4,400.1L-549.4,400.1z M-563.2,423.3h13.2
						c1-1.4,1.3-3.2,1-4.8c-0.8-3.8-4.8-6.2-9-5.5c-4.2,0.7-6.9,4.4-6.1,8.1C-564,421.9-563.7,422.6-563.2,423.3L-563.2,423.3z
						 M-758,156.7c-29,38.6-57.6,78.4-86.7,115 M-751,190.6c-33,40.3-63.2,82.3-93.8,124.1 M-744,222.8
						c-33.5,44.4-67,88.9-100.5,133.3 M-736.9,256.6c-36,47.7-71.9,95.5-107.8,143.2 M-729.5,290.7c-15.9,21.7-31.5,42.8-49.6,63.9
						c-15.6,21.1-28.6,42.1-44.7,61.3 M-722.5,324.5c-23,30-43.7,62.8-69.1,91.7 M-715.5,356.7c-14.3,18.9-29.9,40-46,61
						 M-708.4,390.5c-6.8,9-13.6,18-20.4,27 M-757.9,156.6l238.5,145.6 M-750.6,190.4l216,132.1 M-743.9,222.6l194.9,119
						 M-736.6,256.4l172.4,105.4 M-729.4,290.5l149.7,91.4 M-722.1,324.3l127.5,77.9 M-715.4,356.5l105.8,64.6 M-708.1,390.3
						l44.1,27 M-595.1,423.3c-1.2-3.3-4.9-5.3-8.8-4.7c-2.7,0.4-4.9,2.2-5.9,4.7H-595.1L-595.1,423.3z M-579.6,405.9
						c0.8,3.8-2,7.5-6.2,8.2c-4.2,0.7-8.3-1.8-9.1-5.6c-0.8-3.8,2-7.5,6.2-8.2S-580.4,402.1-579.6,405.9z M-565,385.4
						c0.8,3.8-2,7.5-6.2,8.2s-8.3-1.8-9.1-5.6s2-7.5,6.2-8.2C-569.9,379.1-565.8,381.6-565,385.4z M-549.3,365.2
						c0.8,3.8-2,7.5-6.2,8.2c-4.2,0.7-8.3-1.8-9.1-5.6c-0.8-3.8,2-7.5,6.2-8.2C-554.2,358.8-550.1,361.3-549.3,365.2L-549.3,365.2z
						 M-534.5,344.2c0.8,3.8-1.9,7.4-6.1,8.1c-4.2,0.7-8.2-1.7-9-5.5s1.9-7.4,6.1-8.1C-539.3,337.9-535.3,340.4-534.5,344.2
						L-534.5,344.2z M-519.4,326.1c0.8,3.8-1.9,7.4-6.1,8.1c-4.2,0.7-8.2-1.7-9-5.5c-0.8-3.8,1.9-7.4,6.1-8.1
						C-524.3,319.8-520.2,322.3-519.4,326.1z M-505.1,305.7c0.8,3.8-1.9,7.4-6.1,8.1c-4.2,0.7-8.2-1.7-9-5.5
						c-0.8-3.8,1.9-7.4,6.1-8.1C-509.9,299.5-505.9,302-505.1,305.7C-505.1,305.7-505.1,305.7-505.1,305.7z"/>
				</g>
			</g>
		</g>
	</g>
</g>
</svg>
