<?xml version="1.0" encoding="utf-8"?>
<!-- Generator: Adobe Illustrator 28.1.0, SVG Export Plug-In . SVG Version: 6.00 Build 0)  -->
<svg version="1.1" id="Layer_1" xmlns="http://www.w3.org/2000/svg" xmlns:xlink="http://www.w3.org/1999/xlink" x="0px" y="0px"
	 viewBox="0 0 800 300" style="enable-background:new 0 0 800 300;" xml:space="preserve">
<style type="text/css">
	.st0{fill:#F1F0F3;}
	.st1{opacity:0.12;}
	.st2{clip-path:url(#SVGID_00000150075252710722315110000012586324681296515510_);}
	.st3{fill:none;stroke:#453E42;stroke-width:0.408;}
</style>
<rect x="-18" y="-18" class="st0" width="836" height="336"/>
<g id="Group_426" class="st1">
	<g>
		<defs>
			<rect id="SVGID_1_" x="-378.4" y="-18" width="1735.1" height="336"/>
		</defs>
		<clipPath id="SVGID_00000044139528602671992670000009377834472326608788_">
			<use xlink:href="#SVGID_1_"  style="overflow:visible;"/>
		</clipPath>
		<g style="clip-path:url(#SVGID_00000044139528602671992670000009377834472326608788_);">
			<g id="Group_17">
				<g id="Group_16">
					<path id="Path_13" class="st3" d="M-357.2-9.6c-6.8,8.9-13.6,17.9-20.3,26.9 M-324.7-9.3c-17.1,23.7-34.8,47.2-52.5,70.5
						 M-293.4-9.5C-320,27.4-350,62.1-377.2,98.6 M-260.9-9.4c-39,51.1-75.1,104-116.7,153.5 M-230.8-5.6
						c-50.8,62.2-95,130.1-146.6,194.4 M-223.7,28.3c-21.5,33.1-44.9,63.5-70.9,96.3c-31.2,37.5-52,72.6-83.1,108.2 M-216.7,60.5
						c-13.3,17.6-26.6,35.2-39.9,52.9c-26.7,35.5-53.5,70.9-80.2,106.4c-13.5,18-27,35.9-40.6,53.8 M-46.3-9.7
						C-37.7-4.5-29.2,0.7-20.6,6 M-94.8-9.8c21,12.6,41.8,24.3,58.9,36 M-140.6-9.8c28.1,17.2,56.2,34.3,84.3,51.4
						c2,1.2,4,2.5,6,3.7 M-188.2-9.5c41.7,24,83.3,49.7,122.7,75 M-230.7-5.7L-81,85.6 M-223.4,28L-95.9,106 M-216.7,60.3
						l105.8,64.6 M-125.5,145.3L-209.4,94c-56,74.4-112.1,148.8-168.2,223.2 M-110.5,148.5c0.8,3.8-2,7.5-6.2,8.2
						c-4.2,0.7-8.3-1.8-9.1-5.6c-0.8-3.8,2-7.5,6.2-8.2S-111.3,144.7-110.5,148.5L-110.5,148.5L-110.5,148.5z M-96,128
						c0.8,3.8-2,7.5-6.2,8.2c-4.2,0.7-8.3-1.8-9.1-5.6c-0.8-3.8,2-7.5,6.2-8.2C-100.9,121.6-96.8,124.1-96,128L-96,128z
						 M-80.8,109.7c0.8,3.8-2,7.5-6.2,8.2s-8.3-1.8-9.1-5.6c-0.8-3.8,2-7.5,6.2-8.2C-85.7,103.4-81.6,105.9-80.8,109.7z M-66.3,89.2
						c0.8,3.8-2,7.5-6.2,8.2c-4.2,0.7-8.3-1.8-9.1-5.6c-0.8-3.8,2-7.5,6.2-8.2C-71.2,82.8-67.1,85.3-66.3,89.2L-66.3,89.2z
						 M-50.5,68.9c0.8,3.8-2,7.5-6.2,8.2s-8.3-1.8-9.1-5.6c-0.8-3.8,2-7.5,6.2-8.2C-55.4,62.7-51.3,65.1-50.5,68.9L-50.5,68.9
						L-50.5,68.9z M-35.7,47.9c0.8,3.8-1.9,7.4-6.1,8.1s-8.2-1.7-9-5.5c-0.8-3.8,1.9-7.4,6.1-8.1S-36.5,44.2-35.7,47.9L-35.7,47.9z
						 M-20.7,29.9c0.8,3.8-1.9,7.4-6.1,8.1s-8.2-1.7-9-5.5s1.9-7.4,6.1-8.1C-25.5,23.6-21.5,26.1-20.7,29.9L-20.7,29.9z M-6.3,9.5
						c0.8,3.8-1.9,7.4-6.1,8.1s-8.2-1.7-9-5.5c-0.8-3.8,1.9-7.4,6.1-8.1S-7.1,5.8-6.3,9.5C-6.3,9.5-6.3,9.5-6.3,9.5z M129.6,178.4
						c48.7-60.9,92.8-126.4,141.8-188 M129.5,178.6L-20.1,87.2 M-5.2,66.9l127.5,77.9l0.3-0.2c37.6-52.8,76.5-102,116-154.1
						 M9.7,47.9l105.8,64.6l0.1-0.2c23.8-30,47.1-58.1,67.9-90.8c7.8-11.7,15.6-21.1,23.9-31 M24.4,27.5l83.8,51.2l0.3-0.2
						c23-28.9,43.8-59.3,66.1-87.8 M9.3,24.3c-0.8-3.8,2-7.5,6.2-8.2s8.3,1.8,9.1,5.6c0.8,3.8-2,7.5-6.2,8.2
						C14.2,30.6,10.1,28.1,9.3,24.3C9.3,24.3,9.3,24.3,9.3,24.3z M-5.2,44.8C-6,41-3.2,37.4,1,36.6s8.3,1.8,9.1,5.6
						c0.8,3.8-2,7.5-6.2,8.2S-4.4,48.6-5.2,44.8L-5.2,44.8z M-20.4,63.1c-0.8-3.8,2-7.5,6.2-8.2c4.2-0.7,8.3,1.8,9.1,5.6
						c0.8,3.8-2,7.5-6.2,8.2S-19.6,66.9-20.4,63.1L-20.4,63.1L-20.4,63.1z M-34.9,83.7c-0.8-3.8,2-7.5,6.2-8.2
						c4.2-0.7,8.3,1.8,9.1,5.6c0.8,3.8-2,7.5-6.2,8.2C-30,90-34.1,87.5-34.9,83.7z M-50.7,103.9c-0.8-3.8,2-7.5,6.2-8.2
						c4.2-0.7,8.3,1.8,9.1,5.6c0.8,3.8-2,7.5-6.2,8.2C-45.8,110.2-49.9,107.7-50.7,103.9L-50.7,103.9z M-65.5,124.9
						c-0.8-3.8,1.9-7.4,6.1-8.1s8.2,1.7,9,5.5c0.8,3.8-1.9,7.4-6.1,8.1S-64.7,128.6-65.5,124.9L-65.5,124.9z M-80.5,142.9
						c-0.8-3.8,1.9-7.4,6.1-8.1c4.2-0.7,8.2,1.7,9,5.5c0.8,3.8-1.9,7.4-6.1,8.1C-75.7,149.2-79.7,146.7-80.5,142.9L-80.5,142.9z
						 M-94.9,163.3c-0.8-3.8,1.9-7.4,6.1-8.1c4.2-0.7,8.2,1.7,9,5.5c0.8,3.8-1.9,7.4-6.1,8.1C-90.1,169.5-94.1,167.1-94.9,163.3
						L-94.9,163.3z M303.6-9.8C275.6,27.1,247.8,64,220,101c-27.9,37.1-55.7,74.3-83.3,111.6L-35.7,107.3 M467.9-9.6
						c12.4,7.6,24.9,15.2,37.3,22.8 M419.5-9.6c23.8,14.8,47.1,28.8,70.5,43.1 M370.7-9.8c31.9,19.5,63.9,39,95.8,58.5
						c2.7,1.6,5.4,3.3,8,4.9 M459.6,73.9L332.1-4c-62.7,83.5-125.4,167-188.1,250.5l-194.9-119 M444.6,92.8L338.8,28.2l-0.1,0.2
						c-62.7,83.4-125.4,166.9-188.1,250.3l-216-132.1 M430,113.2L346.1,62C283.4,145.5,220.7,229,158,312.4L-80.5,166.8 M445,116.4
						c0.8,3.8-2,7.5-6.2,8.2c-4.2,0.7-8.3-1.8-9.1-5.6c-0.8-3.8,2-7.5,6.2-8.2S444.2,112.6,445,116.4L445,116.4z M459.5,95.9
						c0.8,3.8-2,7.5-6.2,8.2c-4.2,0.7-8.3-1.8-9.1-5.6c-0.8-3.8,2-7.5,6.2-8.2C454.6,89.5,458.7,92,459.5,95.9L459.5,95.9z
						 M475,77.4c0.8,3.8-2,7.5-6.2,8.2c-4.2,0.7-8.3-1.8-9.1-5.6c-0.8-3.8,2-7.5,6.2-8.2C470.1,71.1,474.2,73.6,475,77.4L475,77.4z
						 M489.2,57c0.8,3.8-2,7.5-6.2,8.2c-4.2,0.7-8.3-1.8-9.1-5.6c-0.8-3.8,2-7.5,6.2-8.2C484.3,50.7,488.4,53.2,489.2,57
						C489.2,57,489.2,57,489.2,57z M504.9,36.8c0.8,3.8-2,7.5-6.2,8.2s-8.3-1.8-9.1-5.6c-0.8-3.8,2-7.5,6.2-8.2
						C500.1,30.5,504.1,33,504.9,36.8C504.9,36.8,504.9,36.8,504.9,36.8z M519.7,15.8c0.8,3.8-1.9,7.4-6.1,8.1
						c-4.2,0.7-8.2-1.7-9-5.5s1.9-7.4,6.1-8.1C514.9,9.6,518.9,12.1,519.7,15.8L519.7,15.8z M534.8-2.2c0.8,3.8-1.9,7.4-6.1,8.1
						c-4.2,0.7-8.2-1.7-9-5.5c-0.8-3.8,1.9-7.4,6.1-8.1C530-8.5,534-6,534.8-2.2L534.8-2.2z M537.5-15.4c1.7,1,3.7,1.3,5.6,1
						c0.9-0.2,1.8-0.5,2.7-1H537.5z M713.6,280.2l187.7-249 M706.5,246.4L894-2.8 M699.5,214.2C755,138.6,814.8,63.6,869.4-11.2
						 M692.4,180.3c41.8-53.5,80.8-107.3,125-163.5c5.2-9.4,15.6-16.4,18.9-27.5 M685.1,146.3c38.8-52.2,77.8-103.7,117.6-156
						 M678,112.4C708.3,73,739.5,30.9,769.7-9.4 M671,80.2c4.6-6.5,49.8-67.2,67.7-89.7 M713.4,280.4L474.9,134.7 M706.1,246.6
						l-216-132.1 M699.4,214.3l-194.9-119 M692.1,180.5L519.7,75.2 M685,146.4L535.3,55.1 M677.7,112.7L550.2,34.7 M670.9,80.4
						L565.1,15.8 M663.6,46.6L579.8-4.6 M575.8-15.5h-6.6c-3.2,1.3-5,4.4-4.3,7.6c0.8,3.8,4.9,6.3,9.1,5.6c4.2-0.7,7-4.4,6.2-8.2
						C579.6-12.7,577.9-14.6,575.8-15.5L575.8-15.5z M550.3,12.7c-0.8-3.8,2-7.5,6.2-8.2c4.2-0.7,8.3,1.8,9.1,5.6
						c0.8,3.8-2,7.5-6.2,8.2C555.2,19,551.1,16.5,550.3,12.7z M535.1,31c-0.8-3.8,2-7.5,6.2-8.2c4.2-0.7,8.3,1.8,9.1,5.6
						c0.8,3.8-2,7.5-6.2,8.2C540,37.3,535.9,34.8,535.1,31L535.1,31z M520.6,51.5c-0.8-3.8,2-7.5,6.2-8.2s8.3,1.8,9.1,5.6
						s-2,7.5-6.2,8.2S521.4,55.3,520.6,51.5L520.6,51.5L520.6,51.5z M504.8,71.8c-0.8-3.8,2-7.5,6.2-8.2c4.2-0.7,8.3,1.8,9.1,5.6
						c0.8,3.8-2,7.5-6.2,8.2C509.7,78.1,505.6,75.5,504.8,71.8z M490,92.7c-0.8-3.8,1.9-7.4,6.1-8.1s8.2,1.7,9,5.5
						c0.8,3.8-1.9,7.4-6.1,8.1C494.9,99,490.8,96.5,490,92.7z M475,110.8c-0.8-3.8,1.9-7.4,6.1-8.1s8.2,1.7,9,5.5
						c0.8,3.8-1.9,7.4-6.1,8.1S475.8,114.6,475,110.8C475,110.8,475,110.8,475,110.8z M460.6,131.2c-0.8-3.8,1.9-7.4,6.1-8.1
						c4.2-0.7,8.2,1.7,9,5.5c0.8,3.8-1.9,7.4-6.1,8.1C465.4,137.4,461.4,134.9,460.6,131.2L460.6,131.2z M706.5-9.4
						C692.7,9.8,677.1,28.5,664,47 M739.4-9.5l31,0l32.9-0.3l33.6-0.9l32.9-0.4l24.4,9l7.1,33.8 M1022.4-11.2L1045.5,3 M974.1-11
						l55.9,34.1 M926.1-11c31.6,16.1,57.6,37.2,89,54.4 M894.4-2.3l105.8,64.6 M901.7,31.5l83.8,51.2 M1000.5,86
						c0.8,3.8-2,7.5-6.2,8.2c-4.2,0.7-8.3-1.8-9.1-5.6s2-7.5,6.2-8.2S999.7,82.2,1000.5,86L1000.5,86L1000.5,86z M1015,65.4
						c0.8,3.8-2,7.5-6.2,8.2c-4.2,0.7-8.3-1.8-9.1-5.6s2-7.5,6.2-8.2C1010.1,59.1,1014.2,61.6,1015,65.4
						C1015,65.4,1015,65.4,1015,65.4z M1030.2,47.1c0.8,3.8-2,7.5-6.2,8.2c-4.2,0.7-8.3-1.8-9.1-5.6s2-7.5,6.2-8.2
						C1025.3,40.8,1029.4,43.3,1030.2,47.1C1030.2,47.1,1030.2,47.1,1030.2,47.1z M1044.7,26.6c0.8,3.8-2,7.5-6.2,8.2
						c-4.2,0.7-8.3-1.8-9.1-5.6s2-7.5,6.2-8.2S1043.9,22.8,1044.7,26.6L1044.7,26.6z M1060.5,6.4c0.8,3.8-2,7.5-6.2,8.2
						c-4.2,0.7-8.3-1.8-9.1-5.6s2-7.5,6.2-8.2S1059.7,2.6,1060.5,6.4L1060.5,6.4L1060.5,6.4z M1074.3-16.8h-13.2
						c-1,1.4-1.3,3.2-1,4.8c0.8,3.8,4.8,6.2,9,5.5s6.9-4.4,6.1-8.1C1075.1-15.4,1074.8-16.1,1074.3-16.8L1074.3-16.8z M1269.1,249.8
						c29-38.6,57.6-78.4,86.7-115 M1262,216c33-40.3,63.2-82.3,93.8-124.1 M1255.1,183.7c33.5-44.4,67-88.9,100.5-133.3 M1248,149.9
						c36-47.7,71.9-95.5,107.8-143.2 M1240.6,115.9c15.9-21.7,31.5-42.8,49.6-63.9c15.6-21.1,28.6-42.1,44.7-61.3 M1233.5,82
						c23-30,43.7-62.8,69.1-91.7 M1226.6,49.8c14.3-18.9,29.9-40,46-61 M1219.5,16c6.8-9,13.6-18,20.4-27 M1269,249.9l-238.5-145.6
						 M1261.7,216.2l-216-132.1 M1255,183.9L1060.1,65 M1247.6,150.1L1075.3,44.8 M1240.5,116l-149.7-91.4 M1233.2,82.3L1105.7,4.3
						 M1226.5,50l-105.8-64.6 M1219.2,16.2l-44.1-27 M1106.1-16.8c1.2,3.3,4.9,5.3,8.8,4.7c2.7-0.4,4.9-2.2,5.9-4.7H1106.1
						L1106.1-16.8z M1090.7,0.6c-0.8-3.8,2-7.5,6.2-8.2c4.2-0.7,8.3,1.8,9.1,5.6s-2,7.5-6.2,8.2S1091.5,4.4,1090.7,0.6z
						 M1076.1,21.1c-0.8-3.8,2-7.5,6.2-8.2c4.2-0.7,8.3,1.8,9.1,5.6s-2,7.5-6.2,8.2C1081,27.5,1076.9,25,1076.1,21.1z M1060.4,41.4
						c-0.8-3.8,2-7.5,6.2-8.2c4.2-0.7,8.3,1.8,9.1,5.6c0.8,3.8-2,7.5-6.2,8.2C1065.3,47.7,1061.2,45.2,1060.4,41.4L1060.4,41.4z
						 M1045.6,62.4c-0.8-3.8,1.9-7.4,6.1-8.1c4.2-0.7,8.2,1.7,9,5.5c0.8,3.8-1.9,7.4-6.1,8.1S1046.4,66.1,1045.6,62.4L1045.6,62.4z
						 M1030.5,80.4c-0.8-3.8,1.9-7.4,6.1-8.1c4.2-0.7,8.2,1.7,9,5.5c0.8,3.8-1.9,7.4-6.1,8.1C1035.3,86.7,1031.3,84.2,1030.5,80.4z
						 M1016.1,100.8c-0.8-3.8,1.9-7.4,6.1-8.1s8.2,1.7,9,5.5c0.8,3.8-1.9,7.4-6.1,8.1C1021,107,1016.9,104.6,1016.1,100.8
						C1016.1,100.8,1016.1,100.8,1016.1,100.8z"/>
				</g>
			</g>
		</g>
	</g>
</g>
</svg>
