<?xml version="1.0" encoding="UTF-8"?>
<svg id="Layer_1" data-name="Layer 1" xmlns="http://www.w3.org/2000/svg" viewBox="0 0 601.32 200">
  <defs>
    <style>
      .cls-1, .cls-2, .cls-3 {
        stroke-miterlimit: 10;
      }

      .cls-1, .cls-2, .cls-4 {
        fill: #eeedf0;
      }

      .cls-1, .cls-3 {
        stroke: #231f20;
      }

      .cls-2 {
        stroke: #eeedf0;
      }

      .cls-3 {
        fill: none;
      }

      .cls-5, .cls-6, .cls-7, .cls-4 {
        stroke-width: 0px;
      }

      .cls-6 {
        fill: #231f20;
      }

      .cls-7 {
        fill: #fff;
      }
    </style>
  </defs>
  <rect class="cls-1" y="-.27" width="601.32" height="200.55"/>
  <g>
    <path class="cls-6" d="m335.32,136.14v-42.3c1.25-.18,2.44-.24,3.69-.24,12.51,0,23.95,8.64,23.95,21.75,0,11.98-9.65,21.63-21.63,21.63-2.08,0-4.11-.3-6.02-.83Z"/>
    <path class="cls-6" d="m299.66,120.33c-.08-.88-.13-1.79-.13-2.72v-54.21c-4.46.35-7.44,1.68-9.23,2.7-5.41,3.1-6.56,7.76-14.21,17.4-2.46,3.1-4.47,5.74-5.9,7.67,2.56.65,7.35,2.24,11.6,6.41,1.22,1.2,6.56,6.69,7.41,14.75.26,2.47,0,4.23.3,15.76.03,1.15.08,2.44.8,3.85,2.11,4.11,7.86,5.17,9.7,5.29-.15-1.06-.34-2.11-.34-3.21v-13.7Z"/>
    <path class="cls-6" d="m332.06,124c-.06,1.27-.4,5.16-3.42,8.45-3.62,3.93-8.48,4.15-9.88,4.21-2.95.13-5.29-.61-6.61-1.15.72-.81,1.76-2.2,2.39-4.17.34-1.07.48-2.04.52-2.82.01-4.19.02-8.38.04-12.57,0-10.61,7.21-19.54,17.04-22.05-.03,10.03-.05,20.06-.08,30.09Z"/>
    <path class="cls-6" d="m259.98,136.97c-11.98,0-21.63-9.65-21.63-21.63,0-13.11,11.44-21.75,23.95-21.75,1.25,0,2.44.06,3.69.24v42.3c-1.91.54-3.93.83-6.02.83Z"/>
    <path class="cls-6" d="m269.18,93.9c9.83,2.5,17.04,11.44,17.04,22.05.01,4.19.02,8.38.04,12.57.05.78.18,1.75.52,2.82.63,1.97,1.67,3.36,2.39,4.17-1.32.53-3.66,1.28-6.61,1.15-1.4-.06-6.26-.29-9.88-4.21-3.02-3.28-3.36-7.18-3.42-8.45-.03-10.03-.05-20.06-.08-30.09Z"/>
    <path class="cls-6" d="m301.44,120.33c.08-.88.13-1.79.13-2.72v-54.41c4.45.46,7.43,1.84,9.23,2.9,5.39,3.18,6.57,7.76,14.21,17.4,2.46,3.1,4.47,5.74,5.9,7.67-2.56.65-7.35,2.24-11.6,6.41-1.22,1.2-6.56,6.69-7.41,14.75-.26,2.47,0,4.23-.3,15.76-.03,1.15-.08,2.44-.8,3.85-2.11,4.11-7.86,5.17-9.7,5.29.15-1.06.34-2.11.34-3.21v-13.7Z"/>
  </g>
  <g>
    <path class="cls-6" d="m96.13,43.67c-3.82.15-9.16.95-14.27,4.18-2.04,1.29-1.81,1.55-5.24,4.34-8.97,7.26-12.62,7.14-15.91,12.26-1.39,2.16-.35,1.57-2.87,7.57-3.97,9.43-5.91,9.4-7.09,14.61-1.4,6.21.08,11.94.56,13.82,1.27,4.93,2.62,5.22,3.13,9.39.62,5.05-1.14,6.41-1.04,11.74.1,5.3,1.93,9.29,2.85,11.24,1.24,2.63,4.8,10.15,12.28,13.29,5.41,2.27,7.98.19,13.32,3.58,2.43,1.55,3.03,2.93,5.99,4.5,3.22,1.71,6.33,2.22,8.51,2.37,0-1.21,0-2.43,0-3.64-.07-36.42-.14-72.83-.21-109.25Z"/>
    <path class="cls-6" d="m104.17,43.67c3.82.15,9.16.95,14.27,4.18,2.04,1.29,1.81,1.55,5.24,4.34,8.97,7.26,12.62,7.14,15.91,12.26,1.39,2.16.35,1.57,2.87,7.57,3.97,9.43,5.91,9.4,7.09,14.61,1.4,6.21-.08,11.94-.56,13.82-1.27,4.93-2.62,5.22-3.13,9.39-.62,5.05,1.14,6.41,1.04,11.74-.1,5.3-1.93,9.29-2.85,11.24-1.24,2.63-4.8,10.15-12.28,13.29-5.41,2.27-7.98.19-13.32,3.58-2.43,1.55-3.03,2.93-5.99,4.5-3.22,1.71-6.33,2.22-8.51,2.37,0-1.21,0-2.43,0-3.64.07-36.42.14-72.83.21-109.25Z"/>
    <path class="cls-4" d="m72.75,131.71c-4.17.1-8.64-.38-12.25-2.65-4.12-2.58-5.49-7.25-4.79-11.89s2.67-9.33,6.08-12.38c1.86-1.67,4.12-2.49,6.56-2.9,2.63-.45,5.43-.51,7.93.56,2.21.95,4.21,2.83,4.67,5.27.38,2.03-.65,4.78-2.82,5.33-.41.1-1.42.5-1.26,1.09s1.26.41,1.64.31c5.08-1.28,7.13-7.05,3.5-11-4.07-4.42-11.28-3.97-16.54-2.37-5.64,1.72-9.23,6.09-11.29,11.46s-2.62,11.44,1.37,15.77,10.56,5.13,16.06,5c.58-.01,1.62-.19,1.91-.78s-.24-.83-.78-.82h0Z"/>
    <path class="cls-4" d="m81.08,119.48c10.63-.01,16.58-17.25,6.53-22.49-2.65-1.38-5.57-2.18-8.25-3.52s-5.18-2.91-7.11-5.14c-3.97-4.58-4.22-11.63,0-16.18,1.95-2.1,4.7-3.44,7.53-3.79,3.19-.4,6.2.54,9.01,1.99,5.5,2.83,10.96,6.92,17.52,5.63s9.44-7.97,10.8-13.71.27-12.4-4.42-16.53c-4.21-3.7-11.79-4.56-15.8-.01-3.59,4.07-.24,10.55,5.06,10.25,1.6-.09,2.27-2.13.28-2.02s-3.35-1.8-3.77-3.51c-.51-2.03.3-3.96,2.14-4.99,4.54-2.54,9.88.95,12.2,4.86,3.14,5.28,2.07,11.76-.32,17.11-1.09,2.44-2.55,5.17-5.15,6.24s-5.56.36-8.05-.6c-5.34-2.06-9.73-6.18-15.63-6.77-5.11-.51-10.64,1.44-14.05,5.35s-4.4,9.58-2.32,14.28,6.61,7.7,11.17,9.8c2.69,1.24,5.78,1.95,8.22,3.66s3.23,4.96,3.05,7.88c-.29,4.62-3.12,10.18-8.35,10.19-1.62,0-2.26,2.02-.28,2.02h0Z"/>
    <path class="cls-4" d="m96.16,82.6c6.25,3.51,14.28,3.21,20.41-.43,1.6-.95,2.97-2.14,4.24-3.49s2.58-2.87,4.43-3.49c3.29-1.09,7.16.27,9.7,2.44,3.07,2.61,4.55,6.63,5.22,10.48s1.07,8.78-.92,12.5c-1.67,3.11-4.88,5.5-8.46,5.7s-7.06-1.71-8.82-4.69-1.1-7.73,2.17-9.59c3.08-1.75,7.7,1.02,7.54,4.58-.07,1.44,2.87.97,2.93-.25.17-3.79-3.32-6.44-6.83-6.84-3.93-.45-7.75,2.04-9.14,5.7s-.15,7.59,2.82,10.14c3.15,2.7,7.6,3.59,11.58,2.54,4.02-1.06,7.65-3.98,9.34-7.81,1.91-4.32,1.41-9.82.36-14.32-.99-4.25-3.17-8.41-6.97-10.78-3.45-2.15-7.89-2.88-11.74-1.43-2.54.96-4.23,2.9-6.07,4.79-1.61,1.65-3.54,2.91-5.7,3.69-4.5,1.63-9.68,1.28-13.86-1.07-.63-.35-1.5-.22-2.07.2-.43.32-.82,1.05-.18,1.41h0Z"/>
    <path class="cls-4" d="m107.8,98.05c-1.09,5.07,2.66,9.38,6.71,11.88,4.65,2.87,10.2,3.72,15.13,5.99,4.5,2.07,7.97,5.55,9.58,10.28,1.47,4.34,1.25,9.22-.96,13.27-4.84,8.87-16.65,11.31-25.91,11.45-5,.08-10.49-.83-14.14-4.54s-4.3-9.4-3.87-14.4c.13-1.54.27-3.23.99-4.62.78-1.51,2.32-2.35,3.75-3.14,2.79-1.56,6.2-3.32,9.26-1.4,2.52,1.58,4,5,4.64,7.8.35,1.52.42,3.21-.33,4.62-.69,1.29-1.72,2.12-3.14,1.51-.68-.29-3.32.78-2.36,1.2,2.37,1.02,5.48,0,7.27-1.72,2.23-2.14,1.93-5.37.96-8.05s-2.45-5.6-5.16-6.84-6.2-.59-8.98.51c-1.46.58-2.86,1.3-4.23,2.08s-2.65,1.5-3.66,2.62c-1.95,2.17-1.99,5.75-2.03,8.52-.08,5.87,1.89,11.75,7.31,14.69,4.95,2.68,10.99,2.75,16.46,2.23,5.78-.55,11.64-1.81,16.82-4.5,4.71-2.45,8.94-6.3,10.47-11.53,1.44-4.92.53-10.44-2.32-14.69-3.88-5.78-10.49-7.51-16.72-9.66-5.77-1.99-14.29-6.54-12.67-14.02.17-.76-2.7-.31-2.87.47h0Z"/>
    <ellipse class="cls-2" cx="108.52" cy="98.49" rx="4.13" ry="3.91"/>
    <ellipse class="cls-2" cx="102.09" cy="54.97" rx="4.13" ry="3.91"/>
    <ellipse class="cls-2" cx="72.18" cy="132.51" rx="4.13" ry="3.91"/>
    <ellipse class="cls-2" cx="97.28" cy="81.8" rx="4.13" ry="3.91"/>
  </g>
  <g>
    <path class="cls-6" d="m555.51,89.28c0-30.06-24.37-54.42-54.43-54.42s-54.41,24.36-54.41,54.42,24.37,54.42,54.41,54.42c2.74,0,5.42-.2,8.03-.6,1.81,1.25,4.01,1.97,6.4,1.97,4.88,0,9.03-3.09,10.61-7.4h-.1s.09-.05.12-.07c.45-1.21.69-2.51.69-3.86,0-4.25-2.34-7.96-5.82-9.88-.08-.07-.14-.1-.22-.12-1.57-.87-3.36-1.33-5.29-1.33-5,0-9.26,3.24-10.74,7.75-2.22.4-4.5.59-6.82.59-22.46,0-40.65-18.22-40.65-40.65s18.19-40.64,40.65-40.64c11.35,0,21.59,4.65,28.96,12.13h14.88v63.82c8.53-9.6,13.72-22.26,13.72-36.11Zm-44.83,39.42s.01-.01.02-.01h.01c1.24-1.21,2.92-1.95,4.79-1.95h.03c2.23.01,4.22,1.08,5.47,2.73.9,1.17,1.44,2.64,1.44,4.22,0,1.47-.46,2.85-1.25,3.97-1.25,1.8-3.33,2.98-5.69,2.98-3.84,0-6.95-3.11-6.95-6.95,0-1.96.81-3.74,2.12-4.99Z"/>
    <path class="cls-5" d="m521.02,123.56v.29c-.08-.07-.14-.1-.22-.12.08-.07.14-.11.22-.16Z"/>
    <path class="cls-7" d="m526.14,137.59s0,.04-.02.07h-.1s.09-.05.12-.07Z"/>
    <path class="cls-5" d="m526.14,137.59s0,.04-.02.07h-.1s.09-.05.12-.07Z"/>
    <path class="cls-6" d="m536.76,151.96v-61.14h-10.33c.01-.51.02-1.02.02-1.54,0-6.26-2-12.04-5.43-16.73-1.06-1.46-2.24-2.83-3.56-4.05-5.09-4.79-11.96-7.74-19.5-7.74-15.75,0-28.52,12.76-28.52,28.52s12.76,28.51,28.52,28.51c9.49,0,17.9-4.65,23.06-11.77,2.46-3.36,4.19-7.27,4.96-11.52h7.11v57.47c-2.96.79-5.11,3.48-5.11,6.68,0,3.83,3.11,6.94,6.96,6.94s6.94-3.11,6.94-6.94c0-3.2-2.17-5.9-5.11-6.68Zm-1.82,9.85c-1.75,0-3.17-1.42-3.17-3.17,0-1.08.53-2.01,1.32-2.59.52-.36,1.17-.57,1.85-.57s1.31.21,1.82.57c.8.58,1.33,1.52,1.33,2.59,0,1.75-1.42,3.17-3.16,3.17Z"/>
  </g>
  <line class="cls-3" x1="200.37" y1="-.16" x2="200.37" y2="200.27"/>
  <line class="cls-3" x1="400.88" y1="-.05" x2="400.88" y2="200.38"/>
</svg>