<?xml version="1.0" encoding="UTF-8"?>
<svg id="Layer_1" data-name="Layer 1" xmlns="http://www.w3.org/2000/svg" viewBox="0 0 601.32 200">
  <defs>
    <style>
      .cls-1 {
        fill: #eeedf0;
      }

      .cls-1, .cls-2 {
        stroke: #231f20;
        stroke-miterlimit: 10;
      }

      .cls-2 {
        fill: none;
      }

      .cls-3 {
        fill: #231f20;
        stroke-width: 0px;
      }
    </style>
  </defs>
  <rect class="cls-1" x="0" y="-.27" width="601.32" height="200.55"/>
  <g>
    <path class="cls-3" d="m347.85,94.12c-2.1-7.73-5.58-15.98-11.15-24.41-.38-.58-.78-1.18-1.2-1.77-.18-.28-.38-.57-.6-.83-8.25-11.11-21.46-18.31-36.36-18.31-25.03,0-45.32,20.29-45.32,45.32,0,14.7,7,27.74,17.84,36.01,3.58,12.2,14.85,21.08,28.17,21.08,10.58,0,19.86-5.6,25.03-14v14h6.93c.05-8.61.08-17.23.13-25.84,2.2-2.28,4.15-4.82,5.81-7.53v21.59h10.7c.08-14.81.17-29.61.23-44.42-.07-.3-.15-.6-.23-.88Zm-23.58,28.79s-.02.02-.03.02c-.15,3.67-1.1,7.11-2.67,10.2-4.13,8.15-12.58,13.73-22.33,13.73s-17.43-5.07-21.73-12.61c-1.73-3.02-2.85-6.41-3.18-10.05-.08-.78-.12-1.57-.12-2.37,0-13.81,11.2-25.03,25.03-25.03s25.03,11.21,25.03,25.03v1.08Zm5.37-5.9c-1.28-3.37-3-6.86-5.28-10.41-.48-.75-1-1.52-1.55-2.28v-.02c-5.36-7.18-13.91-11.83-23.56-11.83-15.61,0-28.39,12.2-29.32,27.57-6.2-6.85-10-15.95-10-25.93,0-21.33,17.29-38.62,38.62-38.62s38.6,17.29,38.6,38.62c0,8.56-2.78,16.48-7.51,22.89Z"/>
    <path class="cls-3" d="m324.28,121.83v1.08s-.02.02-.03.02c.03-.37.03-.73.03-1.1Z"/>
    <path class="cls-3" d="m324.28,121.83v1.08s-.02.02-.03.02c.03-.37.03-.73.03-1.1Z"/>
    <path class="cls-3" d="m335.51,67.94c-.18-.28-.38-.57-.6-.83v-.03c.2.28.4.58.6.87Z"/>
    <path class="cls-3" d="m324.28,121.83v1.08s-.02.02-.03.02c.03-.37.03-.73.03-1.1Z"/>
  </g>
  <g>
    <path class="cls-3" d="m85,53.58c-2.9,9.4-5.81,18.8-8.71,28.21,13,0,25.99,0,38.99.01l17.5,66.9h9.42c-6.65-24.76-13.3-49.51-19.96-74.27h-32.94c-1.43-6.95-2.86-13.9-4.29-20.85Z"/>
    <path class="cls-3" d="m116.3,99.28h-34.52l-17.5,66.9h-9.42c6.65-24.76,13.3-49.51,19.96-74.27,13.18.07,26.36.15,39.54.22.65,2.38,1.3,4.77,1.94,7.15Z"/>
    <path class="cls-3" d="m123.96,166.08h9.25l-13.78-51.27c-13.16.02-26.33.04-39.49.06l-1.99,7.31h34.52l11.48,43.9Z"/>
    <path class="cls-3" d="m111.55,68.13h9.32c-3-11.36-6-22.73-9-34.09-7.84,0-15.68,0-23.51.01-.74,2.45-1.49,4.91-2.23,7.36h18.34c2.36,8.91,4.72,17.81,7.09,26.72Z"/>
  </g>
  <g>
    <path class="cls-3" d="m511.35,107.19l-1.36,5.72c-8.75-.09-17.49-.18-26.24-.26-4.8,18.87-9.59,37.74-14.39,56.61,2.26.12,4.52.24,6.78.36l11.68-48.31,26.67.85.73-3.06c-.67-3.95-1.35-7.9-2.02-11.84-.62-.02-1.24-.04-1.86-.06Z"/>
    <path class="cls-3" d="m524.55,80.94l4.56-19.13-6.7-.21c-2.03,8.55-4.07,17.1-6.1,25.65,2.3.14,4.61.28,6.91.42.44-2.24.88-4.49,1.32-6.73Z"/>
    <path class="cls-3" d="m482.35,30.63l8.91,58.58c9.87.55,19.75,1.11,29.62,1.66,3.98,23.9,7.97,47.81,11.95,71.71-2.56-.02-5.12-.04-7.68-.07l-9.52-61.15-30.16-.96-10.69-70.01,7.58.24Z"/>
  </g>
  <line class="cls-2" x1="200.37" y1="-.11" x2="200.37" y2="200.33"/>
  <line class="cls-2" x1="400.88" x2="400.88" y2="200.44"/>
</svg>