<?xml version="1.0" encoding="UTF-8"?>
<svg id="Layer_1" data-name="Layer 1" xmlns="http://www.w3.org/2000/svg" viewBox="0 0 601.32 200">
  <defs>
    <style>
      .cls-1 {
        fill: #eeedf0;
      }

      .cls-1, .cls-2 {
        stroke: #231f20;
        stroke-miterlimit: 10;
      }

      .cls-2 {
        fill: none;
      }

      .cls-3 {
        fill: #231f20;
        stroke-width: 0px;
      }
    </style>
  </defs>
  <rect class="cls-1" y="-.27" width="601.32" height="200.55"/>
  <g id="GgzCKm">
    <path class="cls-3" d="m266.69,150.25c31.58,6.42,55.98,1.9,61.07-4.9,3.18-4.25,5.21-9.7,5.21-9.71,1.51-4.04,2.64-7.07,2.03-10.14-.75-3.76-4.61-6.23-12.31-11.01-17.78-11.03-19.38-13.24-24.88-13.4-2.36-.07-6.88.16-11.85,1.93-4.91,1.75-5.13,3.18-8.64,4.08-5.19,1.33-12.73.27-17.05-4.8-3.74-4.39-3.4-9.86-3.11-14.59.13-2.17.61-10,6.42-16.85,3.14-3.7,6.37-5.61,10.43-8.02,5.99-3.55,11.22-5.2,13.64-5.88,6.59-1.86,12.4-2.19,16.65-2.09,3.35-.22,7.88,0,12.77,1.82,4.88,1.81,7.98,4.42,10.99,6.95,4.04,3.4,6.21,5.23,7.73,8.56,1.46,3.19,1.12,5.13,2.99,8.97.21.42.67,1.34.72,2.61.04.87-.09,2.26-1.3,4.2-4.69,7.55-11.18,10-11.18,10-8.11,3.06-14.7-.57-15.37.96-1.36,3.11,27.65,13.63,27.34,27.16-.07,2.88-1.52,7.1-4.51,15.51-1.09,3.07-2.08,5.58-2.79,7.32,7.13-.05,14.26-.1,21.4-.16-.37-.53-.89-1.38-1.3-2.5-.39-1.07-1.2-3.27-.35-5.21.47-1.08,1.36-2.04,2.75-2.77,5.38-2.81,5.8-3.96,2.38-9-6.32-9.31-10.1-19.3-8.79-31.01.31-2.8.05-5.69-.11-8.52-.48-8.43-2.81-16.23-8.07-22.7-25.85-31.79-75.89-24.24-91.49,12.85-4.7,11.17-6.43,22.24-5.02,33.02.82,6.22,2.3,17.33,10.92,27.28,4.5,5.19,9.39,8.29,12.71,10.04Z"/>
  </g>
  <g>
    <path class="cls-3" d="m537.26,112.58h-23.9l-12.25-26.92-37.13,81.55h-23.51c-.15,0-.27.04-.42.04l61.06-134.07,36.15,79.39Z"/>
    <polygon class="cls-3" points="520 126.79 519.92 126.97 519.8 126.7 520 126.79"/>
    <polygon class="cls-3" points="562.14 167.21 538.24 167.21 519.92 126.97 520 126.79 519.8 126.7 519.76 126.6 543.65 126.6 562.14 167.21"/>
    <polygon class="cls-3" points="519.8 126.7 519.92 126.97 503.02 167.15 487.8 167.15 504.85 126.64 519.65 126.64 519.8 126.7"/>
    <polygon class="cls-3" points="520 126.79 519.92 126.97 519.8 126.7 520 126.79"/>
    <rect class="cls-3" x="494.97" y="112.58" width="42.29" height="2.54"/>
    <rect class="cls-3" x="500.21" y="144.37" width="21.15" height="2.54"/>
    <circle class="cls-3" cx="496.68" cy="113.84" r="3.52"/>
    <circle class="cls-3" cx="520.94" cy="145.47" r="3.52"/>
  </g>
  <g>
    <path class="cls-3" d="m118.9,109.35c-1.7,3.82-3.4,7.6-5.1,11.43l-.5,1.12h-15.13l13.74-30.42,6.99,17.87Z"/>
    <path class="cls-3" d="m96.63,65.35c-2.51,5.64-5.02,11.27-7.53,16.91-7.64,17.18-15.25,34.31-22.89,51.49-4.71,10.54-9.38,21.08-14.09,31.57-.39.96-1.54,2.12-3.24,2.12h-7.68c-2.86,0-4.36-2.51-3.2-4.98l51.3-113.64c2.2,4.94,4.36,9.88,6.56,14.78.23.54.46,1.08.69,1.62l.08.12Z"/>
    <path class="cls-3" d="m162.33,162.47l-24.16-53.88-23.51-52.3-10.11-22.58c-.58-1.12-1.54-2.08-3.24-2.08h-1.93c-1.74,0-2.66.96-3.24,2.08l-3.24,7.22,8.99,20.34,1.93,4.32,3.32,7.53,4.05,9.15,10.69,24.09c1.12,2.43,2.16,4.9,3.28,7.33,1.2,2.74,2.43,5.48,3.67,8.22h-37.36c-1.7-2.97-4.94-4.98-8.65-4.98-5.56,0-10.07,4.52-10.07,10.07s4.52,10.07,10.07,10.07c2.97,0,5.64-1.27,7.45-3.32h43.73l14.17,31.57c.39.96,1.54,2.12,3.24,2.12h7.68c2.86,0,4.36-2.51,3.24-4.98Zm-74.69-30.96c-.81.93-1.85,1.62-3.13,1.97-3.55,1.04-7.33-1-8.38-4.59-1.04-3.59,1-7.33,4.59-8.38,2.59-.73,5.25.12,6.91,1.97.66.73,1.2,1.62,1.47,2.62.69,2.32.08,4.71-1.47,6.41Z"/>
    <path class="cls-3" d="m126.04,140.7c-2.66,0-4.94,1.62-5.87,3.94h-17.02l4.86-10.89h-15.21l-13.51,29.88c-1.16,2.51.35,4.98,3.24,4.98h7.64c1.74,0,2.89-1.16,3.28-2.08,1.35-3.09,2.7-6.1,4.05-9.19h-.04l3.63-8.14h18.99c.89,2.43,3.2,4.17,5.94,4.17,3.47,0,6.33-2.86,6.33-6.33s-2.86-6.33-6.33-6.33Zm0,10.34c-2.12,0-3.9-1.62-4.09-3.71-.04-.15-.04-.27-.04-.42s0-.27.04-.42c.19-2.08,1.97-3.71,4.09-3.71,2.28,0,4.13,1.85,4.13,4.13s-1.85,4.13-4.13,4.13Z"/>
    <path class="cls-3" d="m121.95,146.49v.85c-.04-.15-.04-.27-.04-.42s0-.27.04-.42Z"/>
    <path class="cls-3" d="m121.95,146.49v.85c-.04-.15-.04-.27-.04-.42s0-.27.04-.42Z"/>
    <path class="cls-3" d="m121.95,146.49v.85c-.04-.15-.04-.27-.04-.42s0-.27.04-.42Z"/>
  </g>
  <line class="cls-2" x1="200.37" y1="-.74" x2="200.37" y2="199.7"/>
  <line class="cls-2" x1="400.88" y1="-.63" x2="400.88" y2="199.81"/>
</svg>