<?xml version="1.0" encoding="UTF-8"?>
<svg id="Layer_1" data-name="Layer 1" xmlns="http://www.w3.org/2000/svg" xmlns:xlink="http://www.w3.org/1999/xlink" viewBox="0 0 1080 800">
  <defs>
    <style>
      .cls-1, .cls-2, .cls-3, .cls-4 {
        fill: none;
      }

      .cls-2 {
        opacity: .12;
      }

      .cls-3 {
        clip-path: url(#clippath);
      }

      .cls-4 {
        stroke: #453e42;
        stroke-width: .71px;
      }
    </style>
    <clipPath id="clippath">
      <rect class="cls-1" x="-873.54" y="-29.4" width="2959.87" height="573.17"/>
    </clipPath>
  </defs>
  <g id="Group_426" data-name="Group 426" class="cls-2">
    <g class="cls-3">
      <g id="Group_17" data-name="Group 17">
        <g id="Group_16" data-name="Group 16">
          <path id="Path_13" data-name="Path 13" class="cls-4" d="m-837.28-15.04c-11.63,15.23-23.17,30.51-34.63,45.84m90.04-45.39c-29.2,40.51-59.29,80.49-89.61,120.33M-728.51-14.92c-45.31,62.92-96.53,122.13-142.82,184.44M-672.98-14.79c-66.52,87.17-128.06,177.49-199.11,261.82M-621.64-8.21c-86.66,106.12-162,221.95-250.02,331.67M-609.57,49.5c-36.67,56.4-76.56,108.33-120.88,164.24-53.18,63.91-88.64,123.82-141.68,184.56M-597.69,104.43c-22.67,30.07-45.33,60.13-68,90.2-45.61,60.5-91.22,121-136.83,181.5-23.07,30.61-46.14,61.22-69.22,91.83m286.1-305.82c-96.08,123.49-184.72,255.3-286.29,380.34M-306.95-15.27c14.6,8.92,29.2,17.83,43.8,26.75m-126.48-26.94c35.89,21.52,71.34,41.49,100.5,61.44M-467.73-15.41c47.91,29.25,95.82,58.5,143.74,87.75,3.43,2.1,6.86,4.19,10.3,6.29M-548.93-14.87c71.1,40.89,142.01,84.82,209.3,127.96M-621.48-8.49l255.31,155.86m-242.84-98.22l217.43,132.93m-205.95-77.93l180.49,110.18m-168.02-52.54l142.97,87.4m25.59,5.43c1.38,6.49-3.34,12.75-10.53,13.99s-14.15-3-15.53-9.49,3.34-12.75,10.54-13.99,14.15,3.01,15.53,9.5h0Zm24.77-35.05c1.38,6.49-3.34,12.75-10.54,13.99s-14.15-3.01-15.52-9.49,3.33-12.75,10.53-13.99,14.15,3.01,15.53,9.49h0Zm25.92-31.18c1.38,6.49-3.33,12.75-10.53,13.99s-14.15-3.01-15.53-9.49,3.33-12.75,10.53-13.99,14.15,3.01,15.53,9.49Zm24.77-35.05c1.38,6.49-3.34,12.75-10.54,13.99s-14.15-3.01-15.53-9.49,3.34-12.75,10.53-13.99,14.15,3.01,15.53,9.5h0Zm26.86-34.49c1.38,6.49-3.34,12.76-10.54,14s-14.15-3.01-15.53-9.5,3.34-12.75,10.53-13.99,14.15,3.01,15.53,9.49h0Zm25.23-35.79c1.37,6.42-3.3,12.63-10.43,13.86s-14.02-2.98-15.38-9.4,3.31-12.63,10.43-13.86,14.01,2.98,15.38,9.4h0Zm25.67-30.87c1.37,6.42-3.3,12.63-10.43,13.86-7.13,1.23-14.01-2.98-15.38-9.4s3.3-12.63,10.43-13.86,14.01,2.98,15.38,9.41h0Zm24.54-34.71c1.37,6.42-3.3,12.63-10.43,13.86s-14.01-2.98-15.38-9.4,3.3-12.63,10.43-13.86,14.01,2.98,15.37,9.41h0Zm-50.13,166.81L5.13,364.04c66.61-92.43,134.61-183.8,203.99-274.11,27.04-35.18,54.28-70.21,81.74-105.07M-262.34,150.01L-7.03,305.87C73.62,198.86,154.28,91.85,234.93-15.16M-236.93,115.3L-19.5,248.23C46.65,160.49,112.8,72.75,178.94-14.99M-211.47,83.05L-30.98,193.23C6.54,141.79,45.2,90.02,85.03,38c13.59-17.75,27.18-35.36,40.77-52.82M-186.41,48.18L-43.45,135.59C-5.67,85.53,32.11,35.48,69.88-14.57M-212.01,42.75c-1.38-6.49,3.34-12.75,10.53-13.99s14.15,3.01,15.53,9.49-3.34,12.75-10.54,13.99-14.15-3.01-15.53-9.49h0Zm-24.77,35.05c-1.38-6.49,3.34-12.75,10.54-13.99s14.15,3.01,15.53,9.5-3.33,12.75-10.53,13.99-14.15-3-15.53-9.49Zm-25.92,31.17c-1.38-6.49,3.33-12.75,10.53-13.99s14.15,3.01,15.53,9.5-3.33,12.75-10.53,13.99-14.15-3-15.53-9.49h0Zm-24.77,35.05c-1.38-6.49,3.34-12.75,10.54-14s14.15,3.01,15.53,9.5-3.34,12.75-10.53,13.99-14.15-3.01-15.53-9.49Zm-26.86,34.48c-1.38-6.49,3.34-12.75,10.54-13.99s14.15,3.01,15.53,9.49-3.34,12.75-10.53,13.99-14.15-3.01-15.53-9.49h0Zm-25.23,35.79c-1.37-6.42,3.3-12.63,10.43-13.86s14.02,2.98,15.38,9.4-3.3,12.63-10.43,13.86-14.01-2.98-15.38-9.4h0Zm-25.67,30.87c-1.37-6.42,3.3-12.63,10.43-13.86s14.01,2.98,15.38,9.4-3.3,12.63-10.43,13.86-14.01-2.98-15.38-9.4h0Zm-24.54,34.72c-1.37-6.42,3.3-12.63,10.43-13.86s14.01,2.98,15.38,9.4-3.3,12.63-10.43,13.86-14.01-2.98-15.37-9.4h0ZM570.19-14.98c21.22,12.96,42.44,25.91,63.67,38.87M487.7-15.15c40.52,25.2,80.4,49.16,120.21,73.49M404.32-15.46c54.46,33.24,108.92,66.49,163.37,99.73,4.57,2.79,9.13,5.58,13.7,8.36m-25.41,34.72L338.54-5.58C231.56,136.84,124.58,279.26,17.59,421.68l-332.41-202.93m845.32-59.16l-180.48-110.18C243.05,191.83,136.06,334.25,29.08,476.68l-368.47-225.27m844.85-56.96l-142.97-87.4C255.56,249.38,148.63,391.71,41.7,534.04l-.16.28-406.91-248.41m896.42-86.02c1.38,6.49-3.33,12.75-10.53,13.99s-14.15-3.01-15.53-9.5,3.33-12.75,10.53-13.99,14.15,3.01,15.53,9.5h0Zm24.77-35.05c1.38,6.49-3.34,12.75-10.53,13.99s-14.15-3.01-15.53-9.49c-1.38-6.48,3.34-12.75,10.53-13.99s14.15,3.01,15.53,9.49h0Zm50.69-66.22c1.38,6.49-3.34,12.75-10.53,13.99s-14.15-3.01-15.53-9.49,3.34-12.75,10.54-13.99,14.15,3.01,15.53,9.49h0Zm26.86-34.48c1.38,6.49-3.34,12.75-10.53,13.99s-14.15-3.01-15.53-9.5,3.34-12.75,10.54-13.99,14.15,3.01,15.53,9.5h0Zm26.54-34.55c1.37,6.42-3.31,12.63-10.43,13.86s-14.01-2.98-15.38-9.4,3.31-12.63,10.43-13.86,14.02,2.98,15.38,9.4h0Zm24.36-32.12c1.37,6.42-3.3,12.63-10.43,13.86s-14.01-2.98-15.38-9.4,3.3-12.63,10.43-13.86,14.02,2.98,15.38,9.4h0Zm4.62-22.5c2.87,1.63,6.23,2.22,9.49,1.65,1.6-.28,3.15-.84,4.56-1.65h-14.04Zm300.36,504.34L1309.47,54.52m-320.37,425.06l-406.91-248.41m25.97-34.5l368.47,225.27c106.82-141.77,213.64-283.55,320.46-425.32m-664.36,167.4l332.41,202.92c96.67-128.27,193.35-256.53,290.02-384.8m-596.49,147.41l294,179.74c35.21-46.03,70.43-92.05,105.65-138.07,36.02-47.07,72.05-94.14,108.08-141.21,8.87-15.98,26.59-27.96,32.15-46.98m-513.36,112.23l255.31,155.86c66.92-88.8,133.84-177.6,200.76-266.39m-430.67,75.82l217.43,132.93c52.34-69.4,104.69-138.81,157.03-208.21m-349,43.04l180.49,110.18c38.52-51.12,77.04-102.24,115.55-153.36m-277.93-10.17h-11.22c-5.37,2.27-8.6,7.56-7.43,13.05,1.38,6.49,8.33,10.73,15.53,9.49s11.91-7.51,10.53-13.99c-.92-3.89-3.69-7.08-7.41-8.55Zm-43.42,48.09c-1.38-6.49,3.33-12.75,10.53-13.99s14.15,3.01,15.53,9.5c1.38,6.49-3.34,12.75-10.54,13.99s-14.15-3.01-15.52-9.5Zm-25.92,31.17c-1.38-6.49,3.34-12.75,10.53-13.99,7.19-1.24,14.15,3.01,15.53,9.49,1.38,6.49-3.34,12.75-10.54,13.99s-14.15-3.01-15.53-9.49h0Zm-24.77,35.05c-1.38-6.49,3.33-12.75,10.53-13.99s14.15,3,15.53,9.49-3.33,12.75-10.53,13.99-14.15-3.01-15.53-9.49h0Zm-26.86,34.48c-1.38-6.49,3.33-12.75,10.53-13.99,7.2-1.24,14.15,3.01,15.53,9.49s-3.33,12.75-10.53,13.99-14.15-3.01-15.53-9.49Zm-26.23,33.6c-1.37-6.42,3.3-12.63,10.43-13.86s14.01,2.98,15.38,9.4c1.37,6.42-3.3,12.63-10.43,13.86s-14.01-2.98-15.38-9.4Zm-24.67,33.07c-1.37-6.42,3.31-12.63,10.43-13.86s14.02,2.98,15.38,9.4c1.36,6.42-3.3,12.63-10.43,13.86s-14.02-2.98-15.38-9.4h0Zm-24.54,34.72c-1.37-6.42,3.3-12.63,10.43-13.86s14.02,2.98,15.38,9.4-3.3,12.63-10.43,13.86-14.01-2.98-15.37-9.4h0ZM977.18-14.65c-24.14,32.02-48.27,64.04-72.41,96.05-47.88-29.32-95.76-58.64-143.64-87.96m755.04-11.16l39.39,24.09m-121.84-23.89l95.31,58.19m-177.18-58.07c53.88,27.46,98.2,63.41,151.77,92.78M1297.68-2.57l180.49,110.18m-168.02-52.54l142.97,87.4m25.59,5.43c1.38,6.49-3.33,12.75-10.53,13.99s-14.15-3.01-15.53-9.5,3.34-12.75,10.54-13.99,14.15,3,15.53,9.49h0Zm24.77-35.05c1.38,6.49-3.34,12.75-10.54,13.99-7.2,1.24-14.15-3-15.53-9.49s3.33-12.75,10.53-13.99,14.15,3.01,15.53,9.49h0Zm25.92-31.17c1.38,6.49-3.33,12.75-10.53,13.99s-14.15-3.01-15.53-9.5,3.33-12.75,10.53-13.99,14.15,3.01,15.53,9.5h0Zm24.77-35.05c1.38,6.49-3.34,12.75-10.54,13.99s-14.15-3.01-15.53-9.49,3.34-12.75,10.53-13.99,14.16,3.01,15.53,9.49h0Zm26.86-34.48c1.38,6.49-3.34,12.75-10.53,13.99s-14.15-3.01-15.53-9.5,3.34-12.75,10.54-13.99,14.15,3,15.53,9.49h0Zm23.61-39.56h-22.55c-1.63,2.41-2.22,5.37-1.63,8.22,1.37,6.42,8.25,10.63,15.38,9.4s11.8-7.43,10.43-13.86c-.31-1.34-.86-2.62-1.63-3.76Zm332.28,454.73c49.42-65.8,98.17-133.7,147.94-196.25m-160,138.53c56.3-68.77,107.82-140.32,159.94-211.64m-171.83,156.72c57.16-75.82,114.31-151.63,171.47-227.45m-183.53,169.74c61.32-81.46,122.63-162.91,183.95-244.37m-196.51,186.26c27.09-37.05,53.68-73,84.7-108.95,26.59-35.95,48.75-71.89,76.28-104.6m-173.04,155.84c39.15-51.23,74.61-107.15,117.8-156.5m-129.69,101.57c24.45-32.25,51.04-68.2,78.42-104.02m-90.48,46.31c11.58-15.38,23.15-30.76,34.73-46.14m49.71,445.21l-406.91-248.41m394.45,190.76l-368.47-225.27m356.99,170.28l-332.4-202.93m319.94,145.29l-294-179.74m281.84,121.57l-255.31-155.86m242.84,98.22L1658.28,8.57m205.95,77.94l-180.49-110.18m168.02,52.54l-75.31-46.05m-117.52-10.22c2.07,5.6,8.42,9.11,15.02,7.97,4.53-.68,8.35-3.72,10.03-7.97h-25.05Zm-26.43,29.65c-1.38-6.49,3.33-12.75,10.53-13.99s14.15,3.01,15.53,9.5-3.33,12.75-10.53,13.99-14.15-3.01-15.53-9.5Zm-24.77,35.05c-1.38-6.49,3.34-12.75,10.54-13.99s14.15,3.01,15.53,9.49-3.34,12.75-10.53,13.99-14.15-3.01-15.53-9.49Zm-26.86,34.48c-1.38-6.49,3.34-12.75,10.54-13.99s14.15,3.01,15.53,9.49c1.38,6.48-3.34,12.75-10.53,13.99s-14.15-3-15.53-9.49h0Zm-25.23,35.79c-1.37-6.42,3.3-12.63,10.43-13.86s14.01,2.98,15.38,9.4-3.31,12.63-10.43,13.86-14.01-2.98-15.38-9.4h0Zm-25.67,30.87c-1.37-6.42,3.3-12.63,10.43-13.86,7.13-1.23,14.01,2.98,15.38,9.4s-3.3,12.63-10.43,13.86-14.01-2.98-15.38-9.4Zm-24.54,34.72c-1.37-6.42,3.3-12.63,10.43-13.86s14.01,2.98,15.38,9.4-3.3,12.63-10.43,13.86-14.01-2.98-15.37-9.4h0Zm-923.78-39.5c1.38,6.49-3.34,12.75-10.53,13.99s-14.15-3.01-15.53-9.49c-1.38-6.48,3.34-12.75,10.53-13.99,7.19-1.24,14.15,3.01,15.53,9.49h0Z"/>
        </g>
      </g>
    </g>
  </g>
</svg>