<?xml version="1.0" encoding="UTF-8"?>
<svg id="Layer_1" data-name="Layer 1" xmlns="http://www.w3.org/2000/svg" viewBox="0 0 2154.1 149.98">
  <defs>
    <style>
      .cls-1 {
        fill: #4b4b4d;
        stroke: #4b4b4d;
        stroke-linecap: round;
        stroke-linejoin: round;
        stroke-width: 1.22px;
      }

      .cls-2 {
        fill: #eeedf0;
        stroke-width: 0px;
      }
    </style>
  </defs>
  <g>
    <g>
      <g>
        <path class="cls-2" d="M5.88-.16v30.49c3.87,2.39,7.74,4.72,11.61,7.11-3.87,2.33-7.74,4.72-11.61,7.11v30.44c-3.13,0-6.26-.05-9.39-.05-.05-10.18-.11-20.42-.16-30.65,3.82-2.28,7.64-4.56,11.45-6.84-3.82-2.28-7.64-4.61-11.45-6.89.05-10.18.11-20.42.16-30.65C-.38-.11,2.75-.11,5.88-.16Z"/>
        <path class="cls-2" d="M85.42,9.39h-30.49c-2.39,3.87-4.72,7.74-7.11,11.61-2.33-3.87-4.72-7.74-7.11-11.61H10.27c0-3.13.05-6.26.05-9.39,10.18-.05,20.42-.11,30.65-.16,2.28,3.82,4.56,7.64,6.84,11.45,2.28-3.82,4.61-7.64,6.89-11.45,10.18.05,20.42.11,30.65.16,0,3.13,0,6.26.05,9.39Z"/>
        <path class="cls-2" d="M90.59,74.99v-30.49c-3.87-2.39-7.74-4.72-11.61-7.11,3.87-2.33,7.74-4.72,11.61-7.11V-.16c3.13,0,6.26.05,9.39.05.05,10.18.11,20.42.16,30.65-3.82,2.28-7.64,4.56-11.45,6.84,3.82,2.28,7.64,4.61,11.45,6.89-.05,10.18-.11,20.42-.16,30.65-3.13,0-6.26,0-9.39.05Z"/>
        <path class="cls-2" d="M90.59,74.99v-30.49c-3.87-2.39-7.74-4.72-11.61-7.11,3.87-2.33,7.74-4.72,11.61-7.11V-.16c3.13,0,6.26.05,9.39.05.05,10.18.11,20.42.16,30.65-3.82,2.28-7.64,4.56-11.45,6.84,3.82,2.28,7.64,4.61,11.45,6.89-.05,10.18-.11,20.42-.16,30.65-3.13,0-6.26,0-9.39.05Z"/>
        <path class="cls-2" d="M10.27,65.44h30.49c2.39-3.87,4.72-7.74,7.11-11.61,2.33,3.87,4.72,7.74,7.11,11.61h30.44c0,3.13-.05,6.26-.05,9.39-10.18.05-20.42.11-30.65.16-2.28-3.82-4.56-7.64-6.84-11.45-2.28,3.82-4.61,7.64-6.89,11.45-10.18-.05-20.42-.11-30.65-.16,0-3.13,0-6.26-.05-9.39Z"/>
        <path class="cls-2" d="M141.73-.16v30.49c3.87,2.39,7.74,4.72,11.61,7.11-3.87,2.33-7.74,4.72-11.61,7.11v30.44c-3.13,0-6.26-.05-9.39-.05-.05-10.18-.11-20.42-.16-30.65,3.82-2.28,7.64-4.56,11.45-6.84-3.82-2.28-7.64-4.61-11.45-6.89.05-10.18.11-20.42.16-30.65,3.13,0,6.26,0,9.39-.05Z"/>
        <path class="cls-2" d="M120.57-.16v30.49c3.87,2.39,7.74,4.72,11.61,7.11-3.87,2.33-7.74,4.72-11.61,7.11v30.44c-3.13,0-6.26-.05-9.39-.05-.05-10.18-.11-20.42-.16-30.65,3.82-2.28,7.64-4.56,11.45-6.84-3.82-2.28-7.64-4.61-11.45-6.89.05-10.18.11-20.42.16-30.65,3.13,0,6.26,0,9.39-.05Z"/>
        <path class="cls-2" d="M221.26,25.8h-30.49c-2.39,3.87-4.72,7.74-7.11,11.61-2.33-3.87-4.72-7.74-7.11-11.61h-30.44c0-3.13.05-6.26.05-9.39,10.18-.05,20.42-.11,30.65-.16,2.28,3.82,4.56,7.64,6.84,11.45,2.28-3.82,4.61-7.64,6.89-11.45,10.18.05,20.42.11,30.65.16,0,3.13,0,6.26.05,9.39Z"/>
        <path class="cls-2" d="M226.43,74.99v-30.49c-3.87-2.39-7.74-4.72-11.61-7.11,3.87-2.33,7.74-4.72,11.61-7.11V-.16c3.13,0,6.26.05,9.39.05.05,10.18.11,20.42.16,30.65-3.82,2.28-7.64,4.56-11.45,6.84,3.82,2.28,7.64,4.61,11.45,6.89-.05,10.18-.11,20.42-.16,30.65-3.13,0-6.26,0-9.39.05Z"/>
        <path class="cls-2" d="M247.59,74.99v-30.49c-3.87-2.39-7.74-4.72-11.61-7.11,3.87-2.33,7.74-4.72,11.61-7.11V-.16c3.13,0,6.26.05,9.39.05.05,10.18.11,20.42.16,30.65-3.82,2.28-7.64,4.56-11.45,6.84,3.82,2.28,7.64,4.61,11.45,6.89-.05,10.18-.11,20.42-.16,30.65-3.13,0-6.26,0-9.39.05Z"/>
        <path class="cls-2" d="M146.12,49.03h30.49c2.39-3.87,4.72-7.74,7.11-11.61,2.33,3.87,4.72,7.74,7.11,11.61h30.44c0,3.13-.05,6.26-.05,9.39-10.18.05-20.42.11-30.65.16-2.28-3.82-4.56-7.64-6.84-11.45-2.28,3.82-4.61,7.64-6.89,11.45-10.18-.05-20.42-.11-30.65-.16,0-3.13,0-6.26-.05-9.39Z"/>
      </g>
      <g>
        <path class="cls-2" d="M277.22-.16v30.49c3.87,2.39,7.74,4.72,11.61,7.11-3.87,2.33-7.74,4.72-11.61,7.11v30.44c-3.13,0-6.26-.05-9.39-.05-.05-10.18-.11-20.42-.16-30.65,3.82-2.28,7.64-4.56,11.45-6.84-3.82-2.28-7.64-4.61-11.45-6.89.05-10.18.11-20.42.16-30.65,3.13,0,6.26,0,9.39-.05Z"/>
        <path class="cls-2" d="M356.76,9.39h-30.49c-2.39,3.87-4.72,7.74-7.11,11.61-2.33-3.87-4.72-7.74-7.11-11.61h-30.44c0-3.13.05-6.26.05-9.39,10.18-.05,20.42-.11,30.65-.16,2.28,3.82,4.56,7.64,6.84,11.45,2.28-3.82,4.61-7.64,6.89-11.45,10.18.05,20.42.11,30.65.16,0,3.13,0,6.26.05,9.39Z"/>
        <path class="cls-2" d="M361.93,74.99v-30.49c-3.87-2.39-7.74-4.72-11.61-7.11,3.87-2.33,7.74-4.72,11.61-7.11V-.16c3.13,0,6.26.05,9.39.05.05,10.18.11,20.42.16,30.65-3.82,2.28-7.64,4.56-11.45,6.84,3.82,2.28,7.64,4.61,11.45,6.89-.05,10.18-.11,20.42-.16,30.65-3.13,0-6.26,0-9.39.05Z"/>
        <path class="cls-2" d="M361.93,74.99v-30.49c-3.87-2.39-7.74-4.72-11.61-7.11,3.87-2.33,7.74-4.72,11.61-7.11V-.16c3.13,0,6.26.05,9.39.05.05,10.18.11,20.42.16,30.65-3.82,2.28-7.64,4.56-11.45,6.84,3.82,2.28,7.64,4.61,11.45,6.89-.05,10.18-.11,20.42-.16,30.65-3.13,0-6.26,0-9.39.05Z"/>
        <path class="cls-2" d="M281.61,65.44h30.49c2.39-3.87,4.72-7.74,7.11-11.61,2.33,3.87,4.72,7.74,7.11,11.61h30.44c0,3.13-.05,6.26-.05,9.39-10.18.05-20.42.11-30.65.16-2.28-3.82-4.56-7.64-6.84-11.45-2.28,3.82-4.61,7.64-6.89,11.45-10.18-.05-20.42-.11-30.65-.16,0-3.13,0-6.26-.05-9.39Z"/>
        <path class="cls-2" d="M413.07-.16v30.49c3.87,2.39,7.74,4.72,11.61,7.11-3.87,2.33-7.74,4.72-11.61,7.11v30.44c-3.13,0-6.26-.05-9.39-.05-.05-10.18-.11-20.42-.16-30.65,3.82-2.28,7.64-4.56,11.45-6.84-3.82-2.28-7.64-4.61-11.45-6.89.05-10.18.11-20.42.16-30.65,3.13,0,6.26,0,9.39-.05Z"/>
        <path class="cls-2" d="M391.91-.16v30.49c3.87,2.39,7.74,4.72,11.61,7.11-3.87,2.33-7.74,4.72-11.61,7.11v30.44c-3.13,0-6.26-.05-9.39-.05-.05-10.18-.11-20.42-.16-30.65,3.82-2.28,7.64-4.56,11.45-6.84-3.82-2.28-7.64-4.61-11.45-6.89.05-10.18.11-20.42.16-30.65,3.13,0,6.26,0,9.39-.05Z"/>
        <path class="cls-2" d="M492.6,25.8h-30.49c-2.39,3.87-4.72,7.74-7.11,11.61-2.33-3.87-4.72-7.74-7.11-11.61h-30.44c0-3.13.05-6.26.05-9.39,10.18-.05,20.42-.11,30.65-.16,2.28,3.82,4.56,7.64,6.84,11.45,2.28-3.82,4.61-7.64,6.89-11.45,10.18.05,20.42.11,30.65.16,0,3.13,0,6.26.05,9.39Z"/>
        <path class="cls-2" d="M497.77,74.99v-30.49c-3.87-2.39-7.74-4.72-11.61-7.11,3.87-2.33,7.74-4.72,11.61-7.11V-.16c3.13,0,6.26.05,9.39.05.05,10.18.11,20.42.16,30.65-3.82,2.28-7.64,4.56-11.45,6.84,3.82,2.28,7.64,4.61,11.45,6.89-.05,10.18-.11,20.42-.16,30.65-3.13,0-6.26,0-9.39.05Z"/>
        <path class="cls-2" d="M518.93,74.99v-30.49c-3.87-2.39-7.74-4.72-11.61-7.11,3.87-2.33,7.74-4.72,11.61-7.11V-.16c3.13,0,6.26.05,9.39.05.05,10.18.11,20.42.16,30.65-3.82,2.28-7.64,4.56-11.45,6.84,3.82,2.28,7.64,4.61,11.45,6.89-.05,10.18-.11,20.42-.16,30.65-3.13,0-6.26,0-9.39.05Z"/>
        <path class="cls-2" d="M417.45,49.03h30.49c2.39-3.87,4.72-7.74,7.11-11.61,2.33,3.87,4.72,7.74,7.11,11.61h30.44c0,3.13-.05,6.26-.05,9.39-10.18.05-20.42.11-30.65.16-2.28-3.82-4.56-7.64-6.84-11.45-2.28,3.82-4.61,7.64-6.89,11.45-10.18-.05-20.42-.11-30.65-.16,0-3.13,0-6.26-.05-9.39Z"/>
      </g>
      <g>
        <path class="cls-2" d="M548.97-.16v30.49c3.87,2.39,7.74,4.72,11.61,7.11-3.87,2.33-7.74,4.72-11.61,7.11v30.44c-3.13,0-6.26-.05-9.39-.05-.05-10.18-.11-20.42-.16-30.65,3.82-2.28,7.64-4.56,11.45-6.84-3.82-2.28-7.64-4.61-11.45-6.89.05-10.18.11-20.42.16-30.65,3.13,0,6.26,0,9.39-.05Z"/>
        <path class="cls-2" d="M628.51,9.39h-30.49c-2.39,3.87-4.72,7.74-7.11,11.61-2.33-3.87-4.72-7.74-7.11-11.61h-30.44c0-3.13.05-6.26.05-9.39,10.18-.05,20.42-.11,30.65-.16,2.28,3.82,4.56,7.64,6.84,11.45,2.28-3.82,4.61-7.64,6.89-11.45,10.18.05,20.42.11,30.65.16,0,3.13,0,6.26.05,9.39Z"/>
        <path class="cls-2" d="M633.67,74.99v-30.49c-3.87-2.39-7.74-4.72-11.61-7.11,3.87-2.33,7.74-4.72,11.61-7.11V-.16c3.13,0,6.26.05,9.39.05.05,10.18.11,20.42.16,30.65-3.82,2.28-7.64,4.56-11.45,6.84,3.82,2.28,7.64,4.61,11.45,6.89-.05,10.18-.11,20.42-.16,30.65-3.13,0-6.26,0-9.39.05Z"/>
        <path class="cls-2" d="M633.67,74.99v-30.49c-3.87-2.39-7.74-4.72-11.61-7.11,3.87-2.33,7.74-4.72,11.61-7.11V-.16c3.13,0,6.26.05,9.39.05.05,10.18.11,20.42.16,30.65-3.82,2.28-7.64,4.56-11.45,6.84,3.82,2.28,7.64,4.61,11.45,6.89-.05,10.18-.11,20.42-.16,30.65-3.13,0-6.26,0-9.39.05Z"/>
        <path class="cls-2" d="M553.36,65.44h30.49c2.39-3.87,4.72-7.74,7.11-11.61,2.33,3.87,4.72,7.74,7.11,11.61h30.44c0,3.13-.05,6.26-.05,9.39-10.18.05-20.42.11-30.65.16-2.28-3.82-4.56-7.64-6.84-11.45-2.28,3.82-4.61,7.64-6.89,11.45-10.18-.05-20.42-.11-30.65-.16,0-3.13,0-6.26-.05-9.39Z"/>
        <path class="cls-2" d="M684.81-.16v30.49c3.87,2.39,7.74,4.72,11.61,7.11-3.87,2.33-7.74,4.72-11.61,7.11v30.44c-3.13,0-6.26-.05-9.39-.05-.05-10.18-.11-20.42-.16-30.65,3.82-2.28,7.64-4.56,11.45-6.84-3.82-2.28-7.64-4.61-11.45-6.89.05-10.18.11-20.42.16-30.65,3.13,0,6.26,0,9.39-.05Z"/>
        <path class="cls-2" d="M663.65-.16v30.49c3.87,2.39,7.74,4.72,11.61,7.11-3.87,2.33-7.74,4.72-11.61,7.11v30.44c-3.13,0-6.26-.05-9.39-.05-.05-10.18-.11-20.42-.16-30.65,3.82-2.28,7.64-4.56,11.45-6.84-3.82-2.28-7.64-4.61-11.45-6.89.05-10.18.11-20.42.16-30.65,3.13,0,6.26,0,9.39-.05Z"/>
        <path class="cls-2" d="M764.35,25.8h-30.49c-2.39,3.87-4.72,7.74-7.11,11.61-2.33-3.87-4.72-7.74-7.11-11.61h-30.44c0-3.13.05-6.26.05-9.39,10.18-.05,20.42-.11,30.65-.16,2.28,3.82,4.56,7.64,6.84,11.45,2.28-3.82,4.61-7.64,6.89-11.45,10.18.05,20.42.11,30.65.16,0,3.13,0,6.26.05,9.39Z"/>
        <path class="cls-2" d="M769.52,74.99v-30.49c-3.87-2.39-7.74-4.72-11.61-7.11,3.87-2.33,7.74-4.72,11.61-7.11V-.16c3.13,0,6.26.05,9.39.05.05,10.18.11,20.42.16,30.65-3.82,2.28-7.64,4.56-11.45,6.84,3.82,2.28,7.64,4.61,11.45,6.89-.05,10.18-.11,20.42-.16,30.65-3.13,0-6.26,0-9.39.05Z"/>
        <path class="cls-2" d="M790.68,74.99v-30.49c-3.87-2.39-7.74-4.72-11.61-7.11,3.87-2.33,7.74-4.72,11.61-7.11V-.16c3.13,0,6.26.05,9.39.05.05,10.18.11,20.42.16,30.65-3.82,2.28-7.64,4.56-11.45,6.84,3.82,2.28,7.64,4.61,11.45,6.89-.05,10.18-.11,20.42-.16,30.65-3.13,0-6.26,0-9.39.05Z"/>
        <path class="cls-2" d="M689.2,49.03h30.49c2.39-3.87,4.72-7.74,7.11-11.61,2.33,3.87,4.72,7.74,7.11,11.61h30.44c0,3.13-.05,6.26-.05,9.39-10.18.05-20.42.11-30.65.16-2.28-3.82-4.56-7.64-6.84-11.45-2.28,3.82-4.61,7.64-6.89,11.45-10.18-.05-20.42-.11-30.65-.16,0-3.13,0-6.26-.05-9.39Z"/>
      </g>
      <g>
        <path class="cls-2" d="M820.31-.16v30.49c3.87,2.39,7.74,4.72,11.61,7.11-3.87,2.33-7.74,4.72-11.61,7.11v30.44c-3.13,0-6.26-.05-9.39-.05-.05-10.18-.11-20.42-.16-30.65,3.82-2.28,7.64-4.56,11.45-6.84-3.82-2.28-7.64-4.61-11.45-6.89.05-10.18.11-20.42.16-30.65,3.13,0,6.26,0,9.39-.05Z"/>
        <path class="cls-2" d="M899.85,9.39h-30.49c-2.39,3.87-4.72,7.74-7.11,11.61-2.33-3.87-4.72-7.74-7.11-11.61h-30.44c0-3.13.05-6.26.05-9.39,10.18-.05,20.42-.11,30.65-.16,2.28,3.82,4.56,7.64,6.84,11.45,2.28-3.82,4.61-7.64,6.89-11.45,10.18.05,20.42.11,30.65.16,0,3.13,0,6.26.05,9.39Z"/>
        <path class="cls-2" d="M905.01,74.99v-30.49c-3.87-2.39-7.74-4.72-11.61-7.11,3.87-2.33,7.74-4.72,11.61-7.11V-.16c3.13,0,6.26.05,9.39.05.05,10.18.11,20.42.16,30.65-3.82,2.28-7.64,4.56-11.45,6.84,3.82,2.28,7.64,4.61,11.45,6.89-.05,10.18-.11,20.42-.16,30.65-3.13,0-6.26,0-9.39.05Z"/>
        <path class="cls-2" d="M905.01,74.99v-30.49c-3.87-2.39-7.74-4.72-11.61-7.11,3.87-2.33,7.74-4.72,11.61-7.11V-.16c3.13,0,6.26.05,9.39.05.05,10.18.11,20.42.16,30.65-3.82,2.28-7.64,4.56-11.45,6.84,3.82,2.28,7.64,4.61,11.45,6.89-.05,10.18-.11,20.42-.16,30.65-3.13,0-6.26,0-9.39.05Z"/>
        <path class="cls-2" d="M824.7,65.44h30.49c2.39-3.87,4.72-7.74,7.11-11.61,2.33,3.87,4.72,7.74,7.11,11.61h30.44c0,3.13-.05,6.26-.05,9.39-10.18.05-20.42.11-30.65.16-2.28-3.82-4.56-7.64-6.84-11.45-2.28,3.82-4.61,7.64-6.89,11.45-10.18-.05-20.42-.11-30.65-.16,0-3.13,0-6.26-.05-9.39Z"/>
        <path class="cls-2" d="M956.15-.16v30.49c3.87,2.39,7.74,4.72,11.61,7.11-3.87,2.33-7.74,4.72-11.61,7.11v30.44c-3.13,0-6.26-.05-9.39-.05-.05-10.18-.11-20.42-.16-30.65,3.82-2.28,7.64-4.56,11.45-6.84-3.82-2.28-7.64-4.61-11.45-6.89.05-10.18.11-20.42.16-30.65,3.13,0,6.26,0,9.39-.05Z"/>
        <path class="cls-2" d="M934.99-.16v30.49c3.87,2.39,7.74,4.72,11.61,7.11-3.87,2.33-7.74,4.72-11.61,7.11v30.44c-3.13,0-6.26-.05-9.39-.05-.05-10.18-.11-20.42-.16-30.65,3.82-2.28,7.64-4.56,11.45-6.84-3.82-2.28-7.64-4.61-11.45-6.89.05-10.18.11-20.42.16-30.65,3.13,0,6.26,0,9.39-.05Z"/>
        <path class="cls-2" d="M1035.69,25.8h-30.49c-2.39,3.87-4.72,7.74-7.11,11.61-2.33-3.87-4.72-7.74-7.11-11.61h-30.44c0-3.13.05-6.26.05-9.39,10.18-.05,20.42-.11,30.65-.16,2.28,3.82,4.56,7.64,6.84,11.45,2.28-3.82,4.61-7.64,6.89-11.45,10.18.05,20.42.11,30.65.16,0,3.13,0,6.26.05,9.39Z"/>
        <path class="cls-2" d="M1040.86,74.99v-30.49c-3.87-2.39-7.74-4.72-11.61-7.11,3.87-2.33,7.74-4.72,11.61-7.11V-.16c3.13,0,6.26.05,9.39.05.05,10.18.11,20.42.16,30.65-3.82,2.28-7.64,4.56-11.45,6.84,3.82,2.28,7.64,4.61,11.45,6.89-.05,10.18-.11,20.42-.16,30.65-3.13,0-6.26,0-9.39.05Z"/>
        <path class="cls-2" d="M1062.02,74.99v-30.49c-3.87-2.39-7.74-4.72-11.61-7.11,3.87-2.33,7.74-4.72,11.61-7.11V-.16c3.13,0,6.26.05,9.39.05.05,10.18.11,20.42.16,30.65-3.82,2.28-7.64,4.56-11.45,6.84,3.82,2.28,7.64,4.61,11.45,6.89-.05,10.18-.11,20.42-.16,30.65-3.13,0-6.26,0-9.39.05Z"/>
        <path class="cls-2" d="M960.54,49.03h30.49c2.39-3.87,4.72-7.74,7.11-11.61,2.33,3.87,4.72,7.74,7.11,11.61h30.44c0,3.13-.05,6.26-.05,9.39-10.18.05-20.42.11-30.65.16-2.28-3.82-4.56-7.64-6.84-11.45-2.28,3.82-4.61,7.64-6.89,11.45-10.18-.05-20.42-.11-30.65-.16,0-3.13,0-6.26-.05-9.39Z"/>
      </g>
    </g>
    <g>
      <g>
        <path class="cls-2" d="M1092.09-.16v30.49c3.87,2.39,7.74,4.72,11.61,7.11-3.87,2.33-7.74,4.72-11.61,7.11v30.44c-3.13,0-6.26-.05-9.39-.05-.05-10.18-.11-20.42-.16-30.65,3.82-2.28,7.64-4.56,11.45-6.84-3.82-2.28-7.64-4.61-11.45-6.89.05-10.18.11-20.42.16-30.65,3.13,0,6.26,0,9.39-.05Z"/>
        <path class="cls-2" d="M1171.62,9.39h-30.49c-2.39,3.87-4.72,7.74-7.11,11.61-2.33-3.87-4.72-7.74-7.11-11.61h-30.44c0-3.13.05-6.26.05-9.39,10.18-.05,20.42-.11,30.65-.16,2.28,3.82,4.56,7.64,6.84,11.45,2.28-3.82,4.61-7.64,6.89-11.45,10.18.05,20.42.11,30.65.16,0,3.13,0,6.26.05,9.39Z"/>
        <path class="cls-2" d="M1176.79,74.99v-30.49c-3.87-2.39-7.74-4.72-11.61-7.11,3.87-2.33,7.74-4.72,11.61-7.11V-.16c3.13,0,6.26.05,9.39.05.05,10.18.11,20.42.16,30.65-3.82,2.28-7.64,4.56-11.45,6.84,3.82,2.28,7.64,4.61,11.45,6.89-.05,10.18-.11,20.42-.16,30.65-3.13,0-6.26,0-9.39.05Z"/>
        <path class="cls-2" d="M1176.79,74.99v-30.49c-3.87-2.39-7.74-4.72-11.61-7.11,3.87-2.33,7.74-4.72,11.61-7.11V-.16c3.13,0,6.26.05,9.39.05.05,10.18.11,20.42.16,30.65-3.82,2.28-7.64,4.56-11.45,6.84,3.82,2.28,7.64,4.61,11.45,6.89-.05,10.18-.11,20.42-.16,30.65-3.13,0-6.26,0-9.39.05Z"/>
        <path class="cls-2" d="M1096.47,65.44h30.49c2.39-3.87,4.72-7.74,7.11-11.61,2.33,3.87,4.72,7.74,7.11,11.61h30.44c0,3.13-.05,6.26-.05,9.39-10.18.05-20.42.11-30.65.16-2.28-3.82-4.56-7.64-6.84-11.45-2.28,3.82-4.61,7.64-6.89,11.45-10.18-.05-20.42-.11-30.65-.16,0-3.13,0-6.26-.05-9.39Z"/>
        <path class="cls-2" d="M1227.93-.16v30.49c3.87,2.39,7.74,4.72,11.61,7.11-3.87,2.33-7.74,4.72-11.61,7.11v30.44c-3.13,0-6.26-.05-9.39-.05-.05-10.18-.11-20.42-.16-30.65,3.82-2.28,7.64-4.56,11.45-6.84-3.82-2.28-7.64-4.61-11.45-6.89.05-10.18.11-20.42.16-30.65,3.13,0,6.26,0,9.39-.05Z"/>
        <path class="cls-2" d="M1206.77-.16v30.49c3.87,2.39,7.74,4.72,11.61,7.11-3.87,2.33-7.74,4.72-11.61,7.11v30.44c-3.13,0-6.26-.05-9.39-.05-.05-10.18-.11-20.42-.16-30.65,3.82-2.28,7.64-4.56,11.45-6.84-3.82-2.28-7.64-4.61-11.45-6.89.05-10.18.11-20.42.16-30.65,3.13,0,6.26,0,9.39-.05Z"/>
        <path class="cls-2" d="M1307.47,25.8h-30.49c-2.39,3.87-4.72,7.74-7.11,11.61-2.33-3.87-4.72-7.74-7.11-11.61h-30.44c0-3.13.05-6.26.05-9.39,10.18-.05,20.42-.11,30.65-.16,2.28,3.82,4.56,7.64,6.84,11.45,2.28-3.82,4.61-7.64,6.89-11.45,10.18.05,20.42.11,30.65.16,0,3.13,0,6.26.05,9.39Z"/>
        <path class="cls-2" d="M1312.63,74.99v-30.49c-3.87-2.39-7.74-4.72-11.61-7.11,3.87-2.33,7.74-4.72,11.61-7.11V-.16c3.13,0,6.26.05,9.39.05.05,10.18.11,20.42.16,30.65-3.82,2.28-7.64,4.56-11.45,6.84,3.82,2.28,7.64,4.61,11.45,6.89-.05,10.18-.11,20.42-.16,30.65-3.13,0-6.26,0-9.39.05Z"/>
        <path class="cls-2" d="M1333.8,74.99v-30.49c-3.87-2.39-7.74-4.72-11.61-7.11,3.87-2.33,7.74-4.72,11.61-7.11V-.16c3.13,0,6.26.05,9.39.05.05,10.18.11,20.42.16,30.65-3.82,2.28-7.64,4.56-11.45,6.84,3.82,2.28,7.64,4.61,11.45,6.89-.05,10.18-.11,20.42-.16,30.65-3.13,0-6.26,0-9.39.05Z"/>
        <path class="cls-2" d="M1232.32,49.03h30.49c2.39-3.87,4.72-7.74,7.11-11.61,2.33,3.87,4.72,7.74,7.11,11.61h30.44c0,3.13-.05,6.26-.05,9.39-10.18.05-20.42.11-30.65.16-2.28-3.82-4.56-7.64-6.84-11.45-2.28,3.82-4.61,7.64-6.89,11.45-10.18-.05-20.42-.11-30.65-.16,0-3.13,0-6.26-.05-9.39Z"/>
      </g>
      <g>
        <path class="cls-2" d="M1363.43-.16v30.49c3.87,2.39,7.74,4.72,11.61,7.11-3.87,2.33-7.74,4.72-11.61,7.11v30.44c-3.13,0-6.26-.05-9.39-.05-.05-10.18-.11-20.42-.16-30.65,3.82-2.28,7.64-4.56,11.45-6.84-3.82-2.28-7.64-4.61-11.45-6.89.05-10.18.11-20.42.16-30.65,3.13,0,6.26,0,9.39-.05Z"/>
        <path class="cls-2" d="M1442.96,9.39h-30.49c-2.39,3.87-4.72,7.74-7.11,11.61-2.33-3.87-4.72-7.74-7.11-11.61h-30.44c0-3.13.05-6.26.05-9.39,10.18-.05,20.42-.11,30.65-.16,2.28,3.82,4.56,7.64,6.84,11.45,2.28-3.82,4.61-7.64,6.89-11.45,10.18.05,20.42.11,30.65.16,0,3.13,0,6.26.05,9.39Z"/>
        <path class="cls-2" d="M1448.13,74.99v-30.49c-3.87-2.39-7.74-4.72-11.61-7.11,3.87-2.33,7.74-4.72,11.61-7.11V-.16c3.13,0,6.26.05,9.39.05.05,10.18.11,20.42.16,30.65-3.82,2.28-7.64,4.56-11.45,6.84,3.82,2.28,7.64,4.61,11.45,6.89-.05,10.18-.11,20.42-.16,30.65-3.13,0-6.26,0-9.39.05Z"/>
        <path class="cls-2" d="M1448.13,74.99v-30.49c-3.87-2.39-7.74-4.72-11.61-7.11,3.87-2.33,7.74-4.72,11.61-7.11V-.16c3.13,0,6.26.05,9.39.05.05,10.18.11,20.42.16,30.65-3.82,2.28-7.64,4.56-11.45,6.84,3.82,2.28,7.64,4.61,11.45,6.89-.05,10.18-.11,20.42-.16,30.65-3.13,0-6.26,0-9.39.05Z"/>
        <path class="cls-2" d="M1367.81,65.44h30.49c2.39-3.87,4.72-7.74,7.11-11.61,2.33,3.87,4.72,7.74,7.11,11.61h30.44c0,3.13-.05,6.26-.05,9.39-10.18.05-20.42.11-30.65.16-2.28-3.82-4.56-7.64-6.84-11.45-2.28,3.82-4.61,7.64-6.89,11.45-10.18-.05-20.42-.11-30.65-.16,0-3.13,0-6.26-.05-9.39Z"/>
        <path class="cls-2" d="M1499.27-.16v30.49c3.87,2.39,7.74,4.72,11.61,7.11-3.87,2.33-7.74,4.72-11.61,7.11v30.44c-3.13,0-6.26-.05-9.39-.05-.05-10.18-.11-20.42-.16-30.65,3.82-2.28,7.64-4.56,11.45-6.84-3.82-2.28-7.64-4.61-11.45-6.89.05-10.18.11-20.42.16-30.65,3.13,0,6.26,0,9.39-.05Z"/>
        <path class="cls-2" d="M1478.11-.16v30.49c3.87,2.39,7.74,4.72,11.61,7.11-3.87,2.33-7.74,4.72-11.61,7.11v30.44c-3.13,0-6.26-.05-9.39-.05-.05-10.18-.11-20.42-.16-30.65,3.82-2.28,7.64-4.56,11.45-6.84-3.82-2.28-7.64-4.61-11.45-6.89.05-10.18.11-20.42.16-30.65,3.13,0,6.26,0,9.39-.05Z"/>
        <path class="cls-2" d="M1578.81,25.8h-30.49c-2.39,3.87-4.72,7.74-7.11,11.61-2.33-3.87-4.72-7.74-7.11-11.61h-30.44c0-3.13.05-6.26.05-9.39,10.18-.05,20.42-.11,30.65-.16,2.28,3.82,4.56,7.64,6.84,11.45,2.28-3.82,4.61-7.64,6.89-11.45,10.18.05,20.42.11,30.65.16,0,3.13,0,6.26.05,9.39Z"/>
        <path class="cls-2" d="M1583.97,74.99v-30.49c-3.87-2.39-7.74-4.72-11.61-7.11,3.87-2.33,7.74-4.72,11.61-7.11V-.16c3.13,0,6.26.05,9.39.05.05,10.18.11,20.42.16,30.65-3.82,2.28-7.64,4.56-11.45,6.84,3.82,2.28,7.64,4.61,11.45,6.89-.05,10.18-.11,20.42-.16,30.65-3.13,0-6.26,0-9.39.05Z"/>
        <path class="cls-2" d="M1605.13,74.99v-30.49c-3.87-2.39-7.74-4.72-11.61-7.11,3.87-2.33,7.74-4.72,11.61-7.11V-.16c3.13,0,6.26.05,9.39.05.05,10.18.11,20.42.16,30.65-3.82,2.28-7.64,4.56-11.45,6.84,3.82,2.28,7.64,4.61,11.45,6.89-.05,10.18-.11,20.42-.16,30.65-3.13,0-6.26,0-9.39.05Z"/>
        <path class="cls-2" d="M1503.66,49.03h30.49c2.39-3.87,4.72-7.74,7.11-11.61,2.33,3.87,4.72,7.74,7.11,11.61h30.44c0,3.13-.05,6.26-.05,9.39-10.18.05-20.42.11-30.65.16-2.28-3.82-4.56-7.64-6.84-11.45-2.28,3.82-4.61,7.64-6.89,11.45-10.18-.05-20.42-.11-30.65-.16,0-3.13,0-6.26-.05-9.39Z"/>
      </g>
      <g>
        <path class="cls-2" d="M1635.17-.16v30.49c3.87,2.39,7.74,4.72,11.61,7.11-3.87,2.33-7.74,4.72-11.61,7.11v30.44c-3.13,0-6.26-.05-9.39-.05-.05-10.18-.11-20.42-.16-30.65,3.82-2.28,7.64-4.56,11.45-6.84-3.82-2.28-7.64-4.61-11.45-6.89.05-10.18.11-20.42.16-30.65,3.13,0,6.26,0,9.39-.05Z"/>
        <path class="cls-2" d="M1714.71,9.39h-30.49c-2.39,3.87-4.72,7.74-7.11,11.61-2.33-3.87-4.72-7.74-7.11-11.61h-30.44c0-3.13.05-6.26.05-9.39,10.18-.05,20.42-.11,30.65-.16,2.28,3.82,4.56,7.64,6.84,11.45,2.28-3.82,4.61-7.64,6.89-11.45,10.18.05,20.42.11,30.65.16,0,3.13,0,6.26.05,9.39Z"/>
        <path class="cls-2" d="M1719.88,74.99v-30.49c-3.87-2.39-7.74-4.72-11.61-7.11,3.87-2.33,7.74-4.72,11.61-7.11V-.16c3.13,0,6.26.05,9.39.05.05,10.18.11,20.42.16,30.65-3.82,2.28-7.64,4.56-11.45,6.84,3.82,2.28,7.64,4.61,11.45,6.89-.05,10.18-.11,20.42-.16,30.65-3.13,0-6.26,0-9.39.05Z"/>
        <path class="cls-2" d="M1719.88,74.99v-30.49c-3.87-2.39-7.74-4.72-11.61-7.11,3.87-2.33,7.74-4.72,11.61-7.11V-.16c3.13,0,6.26.05,9.39.05.05,10.18.11,20.42.16,30.65-3.82,2.28-7.64,4.56-11.45,6.84,3.82,2.28,7.64,4.61,11.45,6.89-.05,10.18-.11,20.42-.16,30.65-3.13,0-6.26,0-9.39.05Z"/>
        <path class="cls-2" d="M1639.56,65.44h30.49c2.39-3.87,4.72-7.74,7.11-11.61,2.33,3.87,4.72,7.74,7.11,11.61h30.44c0,3.13-.05,6.26-.05,9.39-10.18.05-20.42.11-30.65.16-2.28-3.82-4.56-7.64-6.84-11.45-2.28,3.82-4.61,7.64-6.89,11.45-10.18-.05-20.42-.11-30.65-.16,0-3.13,0-6.26-.05-9.39Z"/>
        <path class="cls-2" d="M1771.02-.16v30.49c3.87,2.39,7.74,4.72,11.61,7.11-3.87,2.33-7.74,4.72-11.61,7.11v30.44c-3.13,0-6.26-.05-9.39-.05-.05-10.18-.11-20.42-.16-30.65,3.82-2.28,7.64-4.56,11.45-6.84-3.82-2.28-7.64-4.61-11.45-6.89.05-10.18.11-20.42.16-30.65,3.13,0,6.26,0,9.39-.05Z"/>
        <path class="cls-2" d="M1749.86-.16v30.49c3.87,2.39,7.74,4.72,11.61,7.11-3.87,2.33-7.74,4.72-11.61,7.11v30.44c-3.13,0-6.26-.05-9.39-.05-.05-10.18-.11-20.42-.16-30.65,3.82-2.28,7.64-4.56,11.45-6.84-3.82-2.28-7.64-4.61-11.45-6.89.05-10.18.11-20.42.16-30.65,3.13,0,6.26,0,9.39-.05Z"/>
        <path class="cls-2" d="M1850.55,25.8h-30.49c-2.39,3.87-4.72,7.74-7.11,11.61-2.33-3.87-4.72-7.74-7.11-11.61h-30.44c0-3.13.05-6.26.05-9.39,10.18-.05,20.42-.11,30.65-.16,2.28,3.82,4.56,7.64,6.84,11.45,2.28-3.82,4.61-7.64,6.89-11.45,10.18.05,20.42.11,30.65.16,0,3.13,0,6.26.05,9.39Z"/>
        <path class="cls-2" d="M1855.72,74.99v-30.49c-3.87-2.39-7.74-4.72-11.61-7.11,3.87-2.33,7.74-4.72,11.61-7.11V-.16c3.13,0,6.26.05,9.39.05.05,10.18.11,20.42.16,30.65-3.82,2.28-7.64,4.56-11.45,6.84,3.82,2.28,7.64,4.61,11.45,6.89-.05,10.18-.11,20.42-.16,30.65-3.13,0-6.26,0-9.39.05Z"/>
        <path class="cls-2" d="M1876.88,74.99v-30.49c-3.87-2.39-7.74-4.72-11.61-7.11,3.87-2.33,7.74-4.72,11.61-7.11V-.16c3.13,0,6.26.05,9.39.05.05,10.18.11,20.42.16,30.65-3.82,2.28-7.64,4.56-11.45,6.84,3.82,2.28,7.64,4.61,11.45,6.89-.05,10.18-.11,20.42-.16,30.65-3.13,0-6.26,0-9.39.05Z"/>
        <path class="cls-2" d="M1775.41,49.03h30.49c2.39-3.87,4.72-7.74,7.11-11.61,2.33,3.87,4.72,7.74,7.11,11.61h30.44c0,3.13-.05,6.26-.05,9.39-10.18.05-20.42.11-30.65.16-2.28-3.82-4.56-7.64-6.84-11.45-2.28,3.82-4.61,7.64-6.89,11.45-10.18-.05-20.42-.11-30.65-.16,0-3.13,0-6.26-.05-9.39Z"/>
      </g>
      <g>
        <path class="cls-2" d="M1906.51-.16v30.49c3.87,2.39,7.74,4.72,11.61,7.11-3.87,2.33-7.74,4.72-11.61,7.11v30.44c-3.13,0-6.26-.05-9.39-.05-.05-10.18-.11-20.42-.16-30.65,3.82-2.28,7.64-4.56,11.45-6.84-3.82-2.28-7.64-4.61-11.45-6.89.05-10.18.11-20.42.16-30.65,3.13,0,6.26,0,9.39-.05Z"/>
        <path class="cls-2" d="M1986.05,9.39h-30.49c-2.39,3.87-4.72,7.74-7.11,11.61-2.33-3.87-4.72-7.74-7.11-11.61h-30.44c0-3.13.05-6.26.05-9.39,10.18-.05,20.42-.11,30.65-.16,2.28,3.82,4.56,7.64,6.84,11.45,2.28-3.82,4.61-7.64,6.89-11.45,10.18.05,20.42.11,30.65.16,0,3.13,0,6.26.05,9.39Z"/>
        <path class="cls-2" d="M1991.22,74.99v-30.49c-3.87-2.39-7.74-4.72-11.61-7.11,3.87-2.33,7.74-4.72,11.61-7.11V-.16c3.13,0,6.26.05,9.39.05.05,10.18.11,20.42.16,30.65-3.82,2.28-7.64,4.56-11.45,6.84,3.82,2.28,7.64,4.61,11.45,6.89-.05,10.18-.11,20.42-.16,30.65-3.13,0-6.26,0-9.39.05Z"/>
        <path class="cls-2" d="M1991.22,74.99v-30.49c-3.87-2.39-7.74-4.72-11.61-7.11,3.87-2.33,7.74-4.72,11.61-7.11V-.16c3.13,0,6.26.05,9.39.05.05,10.18.11,20.42.16,30.65-3.82,2.28-7.64,4.56-11.45,6.84,3.82,2.28,7.64,4.61,11.45,6.89-.05,10.18-.11,20.42-.16,30.65-3.13,0-6.26,0-9.39.05Z"/>
        <path class="cls-2" d="M1910.9,65.44h30.49c2.39-3.87,4.72-7.74,7.11-11.61,2.33,3.87,4.72,7.74,7.11,11.61h30.44c0,3.13-.05,6.26-.05,9.39-10.18.05-20.42.11-30.65.16-2.28-3.82-4.56-7.64-6.84-11.45-2.28,3.82-4.61,7.64-6.89,11.45-10.18-.05-20.42-.11-30.65-.16,0-3.13,0-6.26-.05-9.39Z"/>
        <path class="cls-2" d="M2042.36-.16v30.49c3.87,2.39,7.74,4.72,11.61,7.11-3.87,2.33-7.74,4.72-11.61,7.11v30.44c-3.13,0-6.26-.05-9.39-.05-.05-10.18-.11-20.42-.16-30.65,3.82-2.28,7.64-4.56,11.45-6.84-3.82-2.28-7.64-4.61-11.45-6.89.05-10.18.11-20.42.16-30.65,3.13,0,6.26,0,9.39-.05Z"/>
        <path class="cls-2" d="M2021.2-.16v30.49c3.87,2.39,7.74,4.72,11.61,7.11-3.87,2.33-7.74,4.72-11.61,7.11v30.44c-3.13,0-6.26-.05-9.39-.05-.05-10.18-.11-20.42-.16-30.65,3.82-2.28,7.64-4.56,11.45-6.84-3.82-2.28-7.64-4.61-11.45-6.89.05-10.18.11-20.42.16-30.65,3.13,0,6.26,0,9.39-.05Z"/>
        <path class="cls-2" d="M2121.89,25.8h-30.49c-2.39,3.87-4.72,7.74-7.11,11.61-2.33-3.87-4.72-7.74-7.11-11.61h-30.44c0-3.13.05-6.26.05-9.39,10.18-.05,20.42-.11,30.65-.16,2.28,3.82,4.56,7.64,6.84,11.45,2.28-3.82,4.61-7.64,6.89-11.45,10.18.05,20.42.11,30.65.16,0,3.13,0,6.26.05,9.39Z"/>
        <path class="cls-2" d="M2127.06,74.99v-30.49c-3.87-2.39-7.74-4.72-11.61-7.11,3.87-2.33,7.74-4.72,11.61-7.11V-.16c3.13,0,6.26.05,9.39.05.05,10.18.11,20.42.16,30.65-3.82,2.28-7.64,4.56-11.45,6.84,3.82,2.28,7.64,4.61,11.45,6.89-.05,10.18-.11,20.42-.16,30.65-3.13,0-6.26,0-9.39.05Z"/>
        <path class="cls-2" d="M2148.22,74.99v-30.49c-3.87-2.39-7.74-4.72-11.61-7.11,3.87-2.33,7.74-4.72,11.61-7.11V-.16c3.13,0,6.26.05,9.39.05.05,10.18.11,20.42.16,30.65-3.82,2.28-7.64,4.56-11.45,6.84,3.82,2.28,7.64,4.61,11.45,6.89-.05,10.18-.11,20.42-.16,30.65-3.13,0-6.26,0-9.39.05Z"/>
        <path class="cls-2" d="M2046.75,49.03h30.49c2.39-3.87,4.72-7.74,7.11-11.61,2.33,3.87,4.72,7.74,7.11,11.61h30.44c0,3.13-.05,6.26-.05,9.39-10.18.05-20.42.11-30.65.16-2.28-3.82-4.56-7.64-6.84-11.45-2.28,3.82-4.61,7.64-6.89,11.45-10.18-.05-20.42-.11-30.65-.16,0-3.13,0-6.26-.05-9.39Z"/>
      </g>
    </g>
  </g>
  <g>
    <g>
      <g>
        <path class="cls-1" d="M2148.22,150.14v-30.49c-3.87-2.39-7.74-4.72-11.61-7.11,3.87-2.33,7.74-4.72,11.61-7.11v-30.44c3.13,0,6.26.05,9.39.05.05,10.18.11,20.42.16,30.65-3.82,2.28-7.64,4.56-11.45,6.84,3.82,2.28,7.64,4.61,11.45,6.89-.05,10.18-.11,20.42-.16,30.65-3.13,0-6.26,0-9.39.05Z"/>
        <path class="cls-1" d="M2068.68,140.59h30.49c2.39-3.87,4.72-7.74,7.11-11.61,2.33,3.87,4.72,7.74,7.11,11.61h30.44c0,3.13-.05,6.26-.05,9.39-10.18.05-20.42.11-30.65.16-2.28-3.82-4.56-7.64-6.84-11.45-2.28,3.82-4.61,7.64-6.89,11.45-10.18-.05-20.42-.11-30.65-.16,0-3.13,0-6.26-.05-9.39Z"/>
        <path class="cls-1" d="M2063.52,74.99v30.49c3.87,2.39,7.74,4.72,11.61,7.11-3.87,2.33-7.74,4.72-11.61,7.11v30.44c-3.13,0-6.26-.05-9.39-.05-.05-10.18-.11-20.42-.16-30.65,3.82-2.28,7.64-4.56,11.45-6.84-3.82-2.28-7.64-4.61-11.45-6.89.05-10.18.11-20.42.16-30.65,3.13,0,6.26,0,9.39-.05Z"/>
        <path class="cls-1" d="M2063.52,74.99v30.49c3.87,2.39,7.74,4.72,11.61,7.11-3.87,2.33-7.74,4.72-11.61,7.11v30.44c-3.13,0-6.26-.05-9.39-.05-.05-10.18-.11-20.42-.16-30.65,3.82-2.28,7.64-4.56,11.45-6.84-3.82-2.28-7.64-4.61-11.45-6.89.05-10.18.11-20.42.16-30.65,3.13,0,6.26,0,9.39-.05Z"/>
        <path class="cls-1" d="M2143.83,84.53h-30.49c-2.39,3.87-4.72,7.74-7.11,11.61-2.33-3.87-4.72-7.74-7.11-11.61h-30.44c0-3.13.05-6.26.05-9.39,10.18-.05,20.42-.11,30.65-.16,2.28,3.82,4.56,7.64,6.84,11.45,2.28-3.82,4.61-7.64,6.89-11.45,10.18.05,20.42.11,30.65.16,0,3.13,0,6.26.05,9.39Z"/>
        <path class="cls-1" d="M2012.38,150.14v-30.49c-3.87-2.39-7.74-4.72-11.61-7.11,3.87-2.33,7.74-4.72,11.61-7.11v-30.44c3.13,0,6.26.05,9.39.05.05,10.18.11,20.42.16,30.65-3.82,2.28-7.64,4.56-11.45,6.84,3.82,2.28,7.64,4.61,11.45,6.89-.05,10.18-.11,20.42-.16,30.65-3.13,0-6.26,0-9.39.05Z"/>
        <path class="cls-1" d="M2033.54,150.14v-30.49c-3.87-2.39-7.74-4.72-11.61-7.11,3.87-2.33,7.74-4.72,11.61-7.11v-30.44c3.13,0,6.26.05,9.39.05.05,10.18.11,20.42.16,30.65-3.82,2.28-7.64,4.56-11.45,6.84,3.82,2.28,7.64,4.61,11.45,6.89-.05,10.18-.11,20.42-.16,30.65-3.13,0-6.26,0-9.39.05Z"/>
        <path class="cls-1" d="M1932.84,124.18h30.49c2.39-3.87,4.72-7.74,7.11-11.61,2.33,3.87,4.72,7.74,7.11,11.61h30.44c0,3.13-.05,6.26-.05,9.39-10.18.05-20.42.11-30.65.16-2.28-3.82-4.56-7.64-6.84-11.45-2.28,3.82-4.61,7.64-6.89,11.45-10.18-.05-20.42-.11-30.65-.16,0-3.13,0-6.26-.05-9.39Z"/>
        <path class="cls-1" d="M1927.67,74.99v30.49c3.87,2.39,7.74,4.72,11.61,7.11-3.87,2.33-7.74,4.72-11.61,7.11v30.44c-3.13,0-6.26-.05-9.39-.05-.05-10.18-.11-20.42-.16-30.65,3.82-2.28,7.64-4.56,11.45-6.84-3.82-2.28-7.64-4.61-11.45-6.89.05-10.18.11-20.42.16-30.65,3.13,0,6.26,0,9.39-.05Z"/>
        <path class="cls-1" d="M1906.51,74.99v30.49c3.87,2.39,7.74,4.72,11.61,7.11-3.87,2.33-7.74,4.72-11.61,7.11v30.44c-3.13,0-6.26-.05-9.39-.05-.05-10.18-.11-20.42-.16-30.65,3.82-2.28,7.64-4.56,11.45-6.84-3.82-2.28-7.64-4.61-11.45-6.89.05-10.18.11-20.42.16-30.65,3.13,0,6.26,0,9.39-.05Z"/>
        <path class="cls-1" d="M2007.99,100.95h-30.49c-2.39,3.87-4.72,7.74-7.11,11.61-2.33-3.87-4.72-7.74-7.11-11.61h-30.44c0-3.13.05-6.26.05-9.39,10.18-.05,20.42-.11,30.65-.16,2.28,3.82,4.56,7.64,6.84,11.45,2.28-3.82,4.61-7.64,6.89-11.45,10.18.05,20.42.11,30.65.16,0,3.13,0,6.26.05,9.39Z"/>
      </g>
      <g>
        <path class="cls-1" d="M1876.88,150.14v-30.49c-3.87-2.39-7.74-4.72-11.61-7.11,3.87-2.33,7.74-4.72,11.61-7.11v-30.44c3.13,0,6.26.05,9.39.05.05,10.18.11,20.42.16,30.65-3.82,2.28-7.64,4.56-11.45,6.84,3.82,2.28,7.64,4.61,11.45,6.89-.05,10.18-.11,20.42-.16,30.65-3.13,0-6.26,0-9.39.05Z"/>
        <path class="cls-1" d="M1797.35,140.59h30.49c2.39-3.87,4.72-7.74,7.11-11.61,2.33,3.87,4.72,7.74,7.11,11.61h30.44c0,3.13-.05,6.26-.05,9.39-10.18.05-20.42.11-30.65.16-2.28-3.82-4.56-7.64-6.84-11.45-2.28,3.82-4.61,7.64-6.89,11.45-10.18-.05-20.42-.11-30.65-.16,0-3.13,0-6.26-.05-9.39Z"/>
        <path class="cls-1" d="M1792.18,74.99v30.49c3.87,2.39,7.74,4.72,11.61,7.11-3.87,2.33-7.74,4.72-11.61,7.11v30.44c-3.13,0-6.26-.05-9.39-.05-.05-10.18-.11-20.42-.16-30.65,3.82-2.28,7.64-4.56,11.45-6.84-3.82-2.28-7.64-4.61-11.45-6.89.05-10.18.11-20.42.16-30.65,3.13,0,6.26,0,9.39-.05Z"/>
        <path class="cls-1" d="M1792.18,74.99v30.49c3.87,2.39,7.74,4.72,11.61,7.11-3.87,2.33-7.74,4.72-11.61,7.11v30.44c-3.13,0-6.26-.05-9.39-.05-.05-10.18-.11-20.42-.16-30.65,3.82-2.28,7.64-4.56,11.45-6.84-3.82-2.28-7.64-4.61-11.45-6.89.05-10.18.11-20.42.16-30.65,3.13,0,6.26,0,9.39-.05Z"/>
        <path class="cls-1" d="M1872.49,84.53h-30.49c-2.39,3.87-4.72,7.74-7.11,11.61-2.33-3.87-4.72-7.74-7.11-11.61h-30.44c0-3.13.05-6.26.05-9.39,10.18-.05,20.42-.11,30.65-.16,2.28,3.82,4.56,7.64,6.84,11.45,2.28-3.82,4.61-7.64,6.89-11.45,10.18.05,20.42.11,30.65.16,0,3.13,0,6.26.05,9.39Z"/>
        <path class="cls-1" d="M1741.04,150.14v-30.49c-3.87-2.39-7.74-4.72-11.61-7.11,3.87-2.33,7.74-4.72,11.61-7.11v-30.44c3.13,0,6.26.05,9.39.05.05,10.18.11,20.42.16,30.65-3.82,2.28-7.64,4.56-11.45,6.84,3.82,2.28,7.64,4.61,11.45,6.89-.05,10.18-.11,20.42-.16,30.65-3.13,0-6.26,0-9.39.05Z"/>
        <path class="cls-1" d="M1762.2,150.14v-30.49c-3.87-2.39-7.74-4.72-11.61-7.11,3.87-2.33,7.74-4.72,11.61-7.11v-30.44c3.13,0,6.26.05,9.39.05.05,10.18.11,20.42.16,30.65-3.82,2.28-7.64,4.56-11.45,6.84,3.82,2.28,7.64,4.61,11.45,6.89-.05,10.18-.11,20.42-.16,30.65-3.13,0-6.26,0-9.39.05Z"/>
        <path class="cls-1" d="M1661.5,124.18h30.49c2.39-3.87,4.72-7.74,7.11-11.61,2.33,3.87,4.72,7.74,7.11,11.61h30.44c0,3.13-.05,6.26-.05,9.39-10.18.05-20.42.11-30.65.16-2.28-3.82-4.56-7.64-6.84-11.45-2.28,3.82-4.61,7.64-6.89,11.45-10.18-.05-20.42-.11-30.65-.16,0-3.13,0-6.26-.05-9.39Z"/>
        <path class="cls-1" d="M1656.33,74.99v30.49c3.87,2.39,7.74,4.72,11.61,7.11-3.87,2.33-7.74,4.72-11.61,7.11v30.44c-3.13,0-6.26-.05-9.39-.05-.05-10.18-.11-20.42-.16-30.65,3.82-2.28,7.64-4.56,11.45-6.84-3.82-2.28-7.64-4.61-11.45-6.89.05-10.18.11-20.42.16-30.65,3.13,0,6.26,0,9.39-.05Z"/>
        <path class="cls-1" d="M1635.17,74.99v30.49c3.87,2.39,7.74,4.72,11.61,7.11-3.87,2.33-7.74,4.72-11.61,7.11v30.44c-3.13,0-6.26-.05-9.39-.05-.05-10.18-.11-20.42-.16-30.65,3.82-2.28,7.64-4.56,11.45-6.84-3.82-2.28-7.64-4.61-11.45-6.89.05-10.18.11-20.42.16-30.65,3.13,0,6.26,0,9.39-.05Z"/>
        <path class="cls-1" d="M1736.65,100.95h-30.49c-2.39,3.87-4.72,7.74-7.11,11.61-2.33-3.87-4.72-7.74-7.11-11.61h-30.44c0-3.13.05-6.26.05-9.39,10.18-.05,20.42-.11,30.65-.16,2.28,3.82,4.56,7.64,6.84,11.45,2.28-3.82,4.61-7.64,6.89-11.45,10.18.05,20.42.11,30.65.16,0,3.13,0,6.26.05,9.39Z"/>
      </g>
      <g>
        <path class="cls-1" d="M1605.13,150.14v-30.49c-3.87-2.39-7.74-4.72-11.61-7.11,3.87-2.33,7.74-4.72,11.61-7.11v-30.44c3.13,0,6.26.05,9.39.05.05,10.18.11,20.42.16,30.65-3.82,2.28-7.64,4.56-11.45,6.84,3.82,2.28,7.64,4.61,11.45,6.89-.05,10.18-.11,20.42-.16,30.65-3.13,0-6.26,0-9.39.05Z"/>
        <path class="cls-1" d="M1525.6,140.59h30.49c2.39-3.87,4.72-7.74,7.11-11.61,2.33,3.87,4.72,7.74,7.11,11.61h30.44c0,3.13-.05,6.26-.05,9.39-10.18.05-20.42.11-30.65.16-2.28-3.82-4.56-7.64-6.84-11.45-2.28,3.82-4.61,7.64-6.89,11.45-10.18-.05-20.42-.11-30.65-.16,0-3.13,0-6.26-.05-9.39Z"/>
        <path class="cls-1" d="M1520.43,74.99v30.49c3.87,2.39,7.74,4.72,11.61,7.11-3.87,2.33-7.74,4.72-11.61,7.11v30.44c-3.13,0-6.26-.05-9.39-.05-.05-10.18-.11-20.42-.16-30.65,3.82-2.28,7.64-4.56,11.45-6.84-3.82-2.28-7.64-4.61-11.45-6.89.05-10.18.11-20.42.16-30.65,3.13,0,6.26,0,9.39-.05Z"/>
        <path class="cls-1" d="M1520.43,74.99v30.49c3.87,2.39,7.74,4.72,11.61,7.11-3.87,2.33-7.74,4.72-11.61,7.11v30.44c-3.13,0-6.26-.05-9.39-.05-.05-10.18-.11-20.42-.16-30.65,3.82-2.28,7.64-4.56,11.45-6.84-3.82-2.28-7.64-4.61-11.45-6.89.05-10.18.11-20.42.16-30.65,3.13,0,6.26,0,9.39-.05Z"/>
        <path class="cls-1" d="M1600.75,84.53h-30.49c-2.39,3.87-4.72,7.74-7.11,11.61-2.33-3.87-4.72-7.74-7.11-11.61h-30.44c0-3.13.05-6.26.05-9.39,10.18-.05,20.42-.11,30.65-.16,2.28,3.82,4.56,7.64,6.84,11.45,2.28-3.82,4.61-7.64,6.89-11.45,10.18.05,20.42.11,30.65.16,0,3.13,0,6.26.05,9.39Z"/>
        <path class="cls-1" d="M1469.29,150.14v-30.49c-3.87-2.39-7.74-4.72-11.61-7.11,3.87-2.33,7.74-4.72,11.61-7.11v-30.44c3.13,0,6.26.05,9.39.05.05,10.18.11,20.42.16,30.65-3.82,2.28-7.64,4.56-11.45,6.84,3.82,2.28,7.64,4.61,11.45,6.89-.05,10.18-.11,20.42-.16,30.65-3.13,0-6.26,0-9.39.05Z"/>
        <path class="cls-1" d="M1490.45,150.14v-30.49c-3.87-2.39-7.74-4.72-11.61-7.11,3.87-2.33,7.74-4.72,11.61-7.11v-30.44c3.13,0,6.26.05,9.39.05.05,10.18.11,20.42.16,30.65-3.82,2.28-7.64,4.56-11.45,6.84,3.82,2.28,7.64,4.61,11.45,6.89-.05,10.18-.11,20.42-.16,30.65-3.13,0-6.26,0-9.39.05Z"/>
        <path class="cls-1" d="M1389.75,124.18h30.49c2.39-3.87,4.72-7.74,7.11-11.61,2.33,3.87,4.72,7.74,7.11,11.61h30.44c0,3.13-.05,6.26-.05,9.39-10.18.05-20.42.11-30.65.16-2.28-3.82-4.56-7.64-6.84-11.45-2.28,3.82-4.61,7.64-6.89,11.45-10.18-.05-20.42-.11-30.65-.16,0-3.13,0-6.26-.05-9.39Z"/>
        <path class="cls-1" d="M1384.59,74.99v30.49c3.87,2.39,7.74,4.72,11.61,7.11-3.87,2.33-7.74,4.72-11.61,7.11v30.44c-3.13,0-6.26-.05-9.39-.05-.05-10.18-.11-20.42-.16-30.65,3.82-2.28,7.64-4.56,11.45-6.84-3.82-2.28-7.64-4.61-11.45-6.89.05-10.18.11-20.42.16-30.65,3.13,0,6.26,0,9.39-.05Z"/>
        <path class="cls-1" d="M1363.43,74.99v30.49c3.87,2.39,7.74,4.72,11.61,7.11-3.87,2.33-7.74,4.72-11.61,7.11v30.44c-3.13,0-6.26-.05-9.39-.05-.05-10.18-.11-20.42-.16-30.65,3.82-2.28,7.64-4.56,11.45-6.84-3.82-2.28-7.64-4.61-11.45-6.89.05-10.18.11-20.42.16-30.65,3.13,0,6.26,0,9.39-.05Z"/>
        <path class="cls-1" d="M1464.9,100.95h-30.49c-2.39,3.87-4.72,7.74-7.11,11.61-2.33-3.87-4.72-7.74-7.11-11.61h-30.44c0-3.13.05-6.26.05-9.39,10.18-.05,20.42-.11,30.65-.16,2.28,3.82,4.56,7.64,6.84,11.45,2.28-3.82,4.61-7.64,6.89-11.45,10.18.05,20.42.11,30.65.16,0,3.13,0,6.26.05,9.39Z"/>
      </g>
      <g>
        <path class="cls-1" d="M1333.8,150.14v-30.49c-3.87-2.39-7.74-4.72-11.61-7.11,3.87-2.33,7.74-4.72,11.61-7.11v-30.44c3.13,0,6.26.05,9.39.05.05,10.18.11,20.42.16,30.65-3.82,2.28-7.64,4.56-11.45,6.84,3.82,2.28,7.64,4.61,11.45,6.89-.05,10.18-.11,20.42-.16,30.65-3.13,0-6.26,0-9.39.05Z"/>
        <path class="cls-1" d="M1254.26,140.59h30.49c2.39-3.87,4.72-7.74,7.11-11.61,2.33,3.87,4.72,7.74,7.11,11.61h30.44c0,3.13-.05,6.26-.05,9.39-10.18.05-20.42.11-30.65.16-2.28-3.82-4.56-7.64-6.84-11.45-2.28,3.82-4.61,7.64-6.89,11.45-10.18-.05-20.42-.11-30.65-.16,0-3.13,0-6.26-.05-9.39Z"/>
        <path class="cls-1" d="M1249.09,74.99v30.49c3.87,2.39,7.74,4.72,11.61,7.11-3.87,2.33-7.74,4.72-11.61,7.11v30.44c-3.13,0-6.26-.05-9.39-.05-.05-10.18-.11-20.42-.16-30.65,3.82-2.28,7.64-4.56,11.45-6.84-3.82-2.28-7.64-4.61-11.45-6.89.05-10.18.11-20.42.16-30.65,3.13,0,6.26,0,9.39-.05Z"/>
        <path class="cls-1" d="M1249.09,74.99v30.49c3.87,2.39,7.74,4.72,11.61,7.11-3.87,2.33-7.74,4.72-11.61,7.11v30.44c-3.13,0-6.26-.05-9.39-.05-.05-10.18-.11-20.42-.16-30.65,3.82-2.28,7.64-4.56,11.45-6.84-3.82-2.28-7.64-4.61-11.45-6.89.05-10.18.11-20.42.16-30.65,3.13,0,6.26,0,9.39-.05Z"/>
        <path class="cls-1" d="M1329.41,84.53h-30.49c-2.39,3.87-4.72,7.74-7.11,11.61-2.33-3.87-4.72-7.74-7.11-11.61h-30.44c0-3.13.05-6.26.05-9.39,10.18-.05,20.42-.11,30.65-.16,2.28,3.82,4.56,7.64,6.84,11.45,2.28-3.82,4.61-7.64,6.89-11.45,10.18.05,20.42.11,30.65.16,0,3.13,0,6.26.05,9.39Z"/>
        <path class="cls-1" d="M1197.95,150.14v-30.49c-3.87-2.39-7.74-4.72-11.61-7.11,3.87-2.33,7.74-4.72,11.61-7.11v-30.44c3.13,0,6.26.05,9.39.05.05,10.18.11,20.42.16,30.65-3.82,2.28-7.64,4.56-11.45,6.84,3.82,2.28,7.64,4.61,11.45,6.89-.05,10.18-.11,20.42-.16,30.65-3.13,0-6.26,0-9.39.05Z"/>
        <path class="cls-1" d="M1219.11,150.14v-30.49c-3.87-2.39-7.74-4.72-11.61-7.11,3.87-2.33,7.74-4.72,11.61-7.11v-30.44c3.13,0,6.26.05,9.39.05.05,10.18.11,20.42.16,30.65-3.82,2.28-7.64,4.56-11.45,6.84,3.82,2.28,7.64,4.61,11.45,6.89-.05,10.18-.11,20.42-.16,30.65-3.13,0-6.26,0-9.39.05Z"/>
        <path class="cls-1" d="M1118.41,124.18h30.49c2.39-3.87,4.72-7.74,7.11-11.61,2.33,3.87,4.72,7.74,7.11,11.61h30.44c0,3.13-.05,6.26-.05,9.39-10.18.05-20.42.11-30.65.16-2.28-3.82-4.56-7.64-6.84-11.45-2.28,3.82-4.61,7.64-6.89,11.45-10.18-.05-20.42-.11-30.65-.16,0-3.13,0-6.26-.05-9.39Z"/>
        <path class="cls-1" d="M1113.25,74.99v30.49c3.87,2.39,7.74,4.72,11.61,7.11-3.87,2.33-7.74,4.72-11.61,7.11v30.44c-3.13,0-6.26-.05-9.39-.05-.05-10.18-.11-20.42-.16-30.65,3.82-2.28,7.64-4.56,11.45-6.84-3.82-2.28-7.64-4.61-11.45-6.89.05-10.18.11-20.42.16-30.65,3.13,0,6.26,0,9.39-.05Z"/>
        <path class="cls-1" d="M1092.09,74.99v30.49c3.87,2.39,7.74,4.72,11.61,7.11-3.87,2.33-7.74,4.72-11.61,7.11v30.44c-3.13,0-6.26-.05-9.39-.05-.05-10.18-.11-20.42-.16-30.65,3.82-2.28,7.64-4.56,11.45-6.84-3.82-2.28-7.64-4.61-11.45-6.89.05-10.18.11-20.42.16-30.65,3.13,0,6.26,0,9.39-.05Z"/>
        <path class="cls-1" d="M1193.56,100.95h-30.49c-2.39,3.87-4.72,7.74-7.11,11.61-2.33-3.87-4.72-7.74-7.11-11.61h-30.44c0-3.13.05-6.26.05-9.39,10.18-.05,20.42-.11,30.65-.16,2.28,3.82,4.56,7.64,6.84,11.45,2.28-3.82,4.61-7.64,6.89-11.45,10.18.05,20.42.11,30.65.16,0,3.13,0,6.26.05,9.39Z"/>
      </g>
    </g>
    <g>
      <g>
        <path class="cls-1" d="M1062.02,150.14v-30.49c-3.87-2.39-7.74-4.72-11.61-7.11,3.87-2.33,7.74-4.72,11.61-7.11v-30.44c3.13,0,6.26.05,9.39.05.05,10.18.11,20.42.16,30.65-3.82,2.28-7.64,4.56-11.45,6.84,3.82,2.28,7.64,4.61,11.45,6.89-.05,10.18-.11,20.42-.16,30.65-3.13,0-6.26,0-9.39.05Z"/>
        <path class="cls-1" d="M982.48,140.59h30.49c2.39-3.87,4.72-7.74,7.11-11.61,2.33,3.87,4.72,7.74,7.11,11.61h30.44c0,3.13-.05,6.26-.05,9.39-10.18.05-20.42.11-30.65.16-2.28-3.82-4.56-7.64-6.84-11.45-2.28,3.82-4.61,7.64-6.89,11.45-10.18-.05-20.42-.11-30.65-.16,0-3.13,0-6.26-.05-9.39Z"/>
        <path class="cls-1" d="M977.31,74.99v30.49c3.87,2.39,7.74,4.72,11.61,7.11-3.87,2.33-7.74,4.72-11.61,7.11v30.44c-3.13,0-6.26-.05-9.39-.05-.05-10.18-.11-20.42-.16-30.65,3.82-2.28,7.64-4.56,11.45-6.84-3.82-2.28-7.64-4.61-11.45-6.89.05-10.18.11-20.42.16-30.65,3.13,0,6.26,0,9.39-.05Z"/>
        <path class="cls-1" d="M977.31,74.99v30.49c3.87,2.39,7.74,4.72,11.61,7.11-3.87,2.33-7.74,4.72-11.61,7.11v30.44c-3.13,0-6.26-.05-9.39-.05-.05-10.18-.11-20.42-.16-30.65,3.82-2.28,7.64-4.56,11.45-6.84-3.82-2.28-7.64-4.61-11.45-6.89.05-10.18.11-20.42.16-30.65,3.13,0,6.26,0,9.39-.05Z"/>
        <path class="cls-1" d="M1057.63,84.53h-30.49c-2.39,3.87-4.72,7.74-7.11,11.61-2.33-3.87-4.72-7.74-7.11-11.61h-30.44c0-3.13.05-6.26.05-9.39,10.18-.05,20.42-.11,30.65-.16,2.28,3.82,4.56,7.64,6.84,11.45,2.28-3.82,4.61-7.64,6.89-11.45,10.18.05,20.42.11,30.65.16,0,3.13,0,6.26.05,9.39Z"/>
        <path class="cls-1" d="M926.17,150.14v-30.49c-3.87-2.39-7.74-4.72-11.61-7.11,3.87-2.33,7.74-4.72,11.61-7.11v-30.44c3.13,0,6.26.05,9.39.05.05,10.18.11,20.42.16,30.65-3.82,2.28-7.64,4.56-11.45,6.84,3.82,2.28,7.64,4.61,11.45,6.89-.05,10.18-.11,20.42-.16,30.65-3.13,0-6.26,0-9.39.05Z"/>
        <path class="cls-1" d="M947.33,150.14v-30.49c-3.87-2.39-7.74-4.72-11.61-7.11,3.87-2.33,7.74-4.72,11.61-7.11v-30.44c3.13,0,6.26.05,9.39.05.05,10.18.11,20.42.16,30.65-3.82,2.28-7.64,4.56-11.45,6.84,3.82,2.28,7.64,4.61,11.45,6.89-.05,10.18-.11,20.42-.16,30.65-3.13,0-6.26,0-9.39.05Z"/>
        <path class="cls-1" d="M846.64,124.18h30.49c2.39-3.87,4.72-7.74,7.11-11.61,2.33,3.87,4.72,7.74,7.11,11.61h30.44c0,3.13-.05,6.26-.05,9.39-10.18.05-20.42.11-30.65.16-2.28-3.82-4.56-7.64-6.84-11.45-2.28,3.82-4.61,7.64-6.89,11.45-10.18-.05-20.42-.11-30.65-.16,0-3.13,0-6.26-.05-9.39Z"/>
        <path class="cls-1" d="M841.47,74.99v30.49c3.87,2.39,7.74,4.72,11.61,7.11-3.87,2.33-7.74,4.72-11.61,7.11v30.44c-3.13,0-6.26-.05-9.39-.05-.05-10.18-.11-20.42-.16-30.65,3.82-2.28,7.64-4.56,11.45-6.84-3.82-2.28-7.64-4.61-11.45-6.89.05-10.18.11-20.42.16-30.65,3.13,0,6.26,0,9.39-.05Z"/>
        <path class="cls-1" d="M820.31,74.99v30.49c3.87,2.39,7.74,4.72,11.61,7.11-3.87,2.33-7.74,4.72-11.61,7.11v30.44c-3.13,0-6.26-.05-9.39-.05-.05-10.18-.11-20.42-.16-30.65,3.82-2.28,7.64-4.56,11.45-6.84-3.82-2.28-7.64-4.61-11.45-6.89.05-10.18.11-20.42.16-30.65,3.13,0,6.26,0,9.39-.05Z"/>
        <path class="cls-1" d="M921.79,100.95h-30.49c-2.39,3.87-4.72,7.74-7.11,11.61-2.33-3.87-4.72-7.74-7.11-11.61h-30.44c0-3.13.05-6.26.05-9.39,10.18-.05,20.42-.11,30.65-.16,2.28,3.82,4.56,7.64,6.84,11.45,2.28-3.82,4.61-7.64,6.89-11.45,10.18.05,20.42.11,30.65.16,0,3.13,0,6.26.05,9.39Z"/>
      </g>
      <g>
        <path class="cls-1" d="M790.68,150.14v-30.49c-3.87-2.39-7.74-4.72-11.61-7.11,3.87-2.33,7.74-4.72,11.61-7.11v-30.44c3.13,0,6.26.05,9.39.05.05,10.18.11,20.42.16,30.65-3.82,2.28-7.64,4.56-11.45,6.84,3.82,2.28,7.64,4.61,11.45,6.89-.05,10.18-.11,20.42-.16,30.65-3.13,0-6.26,0-9.39.05Z"/>
        <path class="cls-1" d="M711.14,140.59h30.49c2.39-3.87,4.72-7.74,7.11-11.61,2.33,3.87,4.72,7.74,7.11,11.61h30.44c0,3.13-.05,6.26-.05,9.39-10.18.05-20.42.11-30.65.16-2.28-3.82-4.56-7.64-6.84-11.45-2.28,3.82-4.61,7.64-6.89,11.45-10.18-.05-20.42-.11-30.65-.16,0-3.13,0-6.26-.05-9.39Z"/>
        <path class="cls-1" d="M705.97,74.99v30.49c3.87,2.39,7.74,4.72,11.61,7.11-3.87,2.33-7.74,4.72-11.61,7.11v30.44c-3.13,0-6.26-.05-9.39-.05-.05-10.18-.11-20.42-.16-30.65,3.82-2.28,7.64-4.56,11.45-6.84-3.82-2.28-7.64-4.61-11.45-6.89.05-10.18.11-20.42.16-30.65,3.13,0,6.26,0,9.39-.05Z"/>
        <path class="cls-1" d="M705.97,74.99v30.49c3.87,2.39,7.74,4.72,11.61,7.11-3.87,2.33-7.74,4.72-11.61,7.11v30.44c-3.13,0-6.26-.05-9.39-.05-.05-10.18-.11-20.42-.16-30.65,3.82-2.28,7.64-4.56,11.45-6.84-3.82-2.28-7.64-4.61-11.45-6.89.05-10.18.11-20.42.16-30.65,3.13,0,6.26,0,9.39-.05Z"/>
        <path class="cls-1" d="M786.29,84.53h-30.49c-2.39,3.87-4.72,7.74-7.11,11.61-2.33-3.87-4.72-7.74-7.11-11.61h-30.44c0-3.13.05-6.26.05-9.39,10.18-.05,20.42-.11,30.65-.16,2.28,3.82,4.56,7.64,6.84,11.45,2.28-3.82,4.61-7.64,6.89-11.45,10.18.05,20.42.11,30.65.16,0,3.13,0,6.26.05,9.39Z"/>
        <path class="cls-1" d="M654.84,150.14v-30.49c-3.87-2.39-7.74-4.72-11.61-7.11,3.87-2.33,7.74-4.72,11.61-7.11v-30.44c3.13,0,6.26.05,9.39.05.05,10.18.11,20.42.16,30.65-3.82,2.28-7.64,4.56-11.45,6.84,3.82,2.28,7.64,4.61,11.45,6.89-.05,10.18-.11,20.42-.16,30.65-3.13,0-6.26,0-9.39.05Z"/>
        <path class="cls-1" d="M676,150.14v-30.49c-3.87-2.39-7.74-4.72-11.61-7.11,3.87-2.33,7.74-4.72,11.61-7.11v-30.44c3.13,0,6.26.05,9.39.05.05,10.18.11,20.42.16,30.65-3.82,2.28-7.64,4.56-11.45,6.84,3.82,2.28,7.64,4.61,11.45,6.89-.05,10.18-.11,20.42-.16,30.65-3.13,0-6.26,0-9.39.05Z"/>
        <path class="cls-1" d="M575.3,124.18h30.49c2.39-3.87,4.72-7.74,7.11-11.61,2.33,3.87,4.72,7.74,7.11,11.61h30.44c0,3.13-.05,6.26-.05,9.39-10.18.05-20.42.11-30.65.16-2.28-3.82-4.56-7.64-6.84-11.45-2.28,3.82-4.61,7.64-6.89,11.45-10.18-.05-20.42-.11-30.65-.16,0-3.13,0-6.26-.05-9.39Z"/>
        <path class="cls-1" d="M570.13,74.99v30.49c3.87,2.39,7.74,4.72,11.61,7.11-3.87,2.33-7.74,4.72-11.61,7.11v30.44c-3.13,0-6.26-.05-9.39-.05-.05-10.18-.11-20.42-.16-30.65,3.82-2.28,7.64-4.56,11.45-6.84-3.82-2.28-7.64-4.61-11.45-6.89.05-10.18.11-20.42.16-30.65,3.13,0,6.26,0,9.39-.05Z"/>
        <path class="cls-1" d="M548.97,74.99v30.49c3.87,2.39,7.74,4.72,11.61,7.11-3.87,2.33-7.74,4.72-11.61,7.11v30.44c-3.13,0-6.26-.05-9.39-.05-.05-10.18-.11-20.42-.16-30.65,3.82-2.28,7.64-4.56,11.45-6.84-3.82-2.28-7.64-4.61-11.45-6.89.05-10.18.11-20.42.16-30.65,3.13,0,6.26,0,9.39-.05Z"/>
        <path class="cls-1" d="M650.45,100.95h-30.49c-2.39,3.87-4.72,7.74-7.11,11.61-2.33-3.87-4.72-7.74-7.11-11.61h-30.44c0-3.13.05-6.26.05-9.39,10.18-.05,20.42-.11,30.65-.16,2.28,3.82,4.56,7.64,6.84,11.45,2.28-3.82,4.61-7.64,6.89-11.45,10.18.05,20.42.11,30.65.16,0,3.13,0,6.26.05,9.39Z"/>
      </g>
      <g>
        <path class="cls-1" d="M518.93,150.14v-30.49c-3.87-2.39-7.74-4.72-11.61-7.11,3.87-2.33,7.74-4.72,11.61-7.11v-30.44c3.13,0,6.26.05,9.39.05.05,10.18.11,20.42.16,30.65-3.82,2.28-7.64,4.56-11.45,6.84,3.82,2.28,7.64,4.61,11.45,6.89-.05,10.18-.11,20.42-.16,30.65-3.13,0-6.26,0-9.39.05Z"/>
        <path class="cls-1" d="M439.39,140.59h30.49c2.39-3.87,4.72-7.74,7.11-11.61,2.33,3.87,4.72,7.74,7.11,11.61h30.44c0,3.13-.05,6.26-.05,9.39-10.18.05-20.42.11-30.65.16-2.28-3.82-4.56-7.64-6.84-11.45-2.28,3.82-4.61,7.64-6.89,11.45-10.18-.05-20.42-.11-30.65-.16,0-3.13,0-6.26-.05-9.39Z"/>
        <path class="cls-1" d="M434.23,74.99v30.49c3.87,2.39,7.74,4.72,11.61,7.11-3.87,2.33-7.74,4.72-11.61,7.11v30.44c-3.13,0-6.26-.05-9.39-.05-.05-10.18-.11-20.42-.16-30.65,3.82-2.28,7.64-4.56,11.45-6.84-3.82-2.28-7.64-4.61-11.45-6.89.05-10.18.11-20.42.16-30.65,3.13,0,6.26,0,9.39-.05Z"/>
        <path class="cls-1" d="M434.23,74.99v30.49c3.87,2.39,7.74,4.72,11.61,7.11-3.87,2.33-7.74,4.72-11.61,7.11v30.44c-3.13,0-6.26-.05-9.39-.05-.05-10.18-.11-20.42-.16-30.65,3.82-2.28,7.64-4.56,11.45-6.84-3.82-2.28-7.64-4.61-11.45-6.89.05-10.18.11-20.42.16-30.65,3.13,0,6.26,0,9.39-.05Z"/>
        <path class="cls-1" d="M514.54,84.53h-30.49c-2.39,3.87-4.72,7.74-7.11,11.61-2.33-3.87-4.72-7.74-7.11-11.61h-30.44c0-3.13.05-6.26.05-9.39,10.18-.05,20.42-.11,30.65-.16,2.28,3.82,4.56,7.64,6.84,11.45,2.28-3.82,4.61-7.64,6.89-11.45,10.18.05,20.42.11,30.65.16,0,3.13,0,6.26.05,9.39Z"/>
        <path class="cls-1" d="M383.09,150.14v-30.49c-3.87-2.39-7.74-4.72-11.61-7.11,3.87-2.33,7.74-4.72,11.61-7.11v-30.44c3.13,0,6.26.05,9.39.05.05,10.18.11,20.42.16,30.65-3.82,2.28-7.64,4.56-11.45,6.84,3.82,2.28,7.64,4.61,11.45,6.89-.05,10.18-.11,20.42-.16,30.65-3.13,0-6.26,0-9.39.05Z"/>
        <path class="cls-1" d="M404.25,150.14v-30.49c-3.87-2.39-7.74-4.72-11.61-7.11,3.87-2.33,7.74-4.72,11.61-7.11v-30.44c3.13,0,6.26.05,9.39.05.05,10.18.11,20.42.16,30.65-3.82,2.28-7.64,4.56-11.45,6.84,3.82,2.28,7.64,4.61,11.45,6.89-.05,10.18-.11,20.42-.16,30.65-3.13,0-6.26,0-9.39.05Z"/>
        <path class="cls-1" d="M303.55,124.18h30.49c2.39-3.87,4.72-7.74,7.11-11.61,2.33,3.87,4.72,7.74,7.11,11.61h30.44c0,3.13-.05,6.26-.05,9.39-10.18.05-20.42.11-30.65.16-2.28-3.82-4.56-7.64-6.84-11.45-2.28,3.82-4.61,7.64-6.89,11.45-10.18-.05-20.42-.11-30.65-.16,0-3.13,0-6.26-.05-9.39Z"/>
        <path class="cls-1" d="M298.38,74.99v30.49c3.87,2.39,7.74,4.72,11.61,7.11-3.87,2.33-7.74,4.72-11.61,7.11v30.44c-3.13,0-6.26-.05-9.39-.05-.05-10.18-.11-20.42-.16-30.65,3.82-2.28,7.64-4.56,11.45-6.84-3.82-2.28-7.64-4.61-11.45-6.89.05-10.18.11-20.42.16-30.65,3.13,0,6.26,0,9.39-.05Z"/>
        <path class="cls-1" d="M277.22,74.99v30.49c3.87,2.39,7.74,4.72,11.61,7.11-3.87,2.33-7.74,4.72-11.61,7.11v30.44c-3.13,0-6.26-.05-9.39-.05-.05-10.18-.11-20.42-.16-30.65,3.82-2.28,7.64-4.56,11.45-6.84-3.82-2.28-7.64-4.61-11.45-6.89.05-10.18.11-20.42.16-30.65,3.13,0,6.26,0,9.39-.05Z"/>
        <path class="cls-1" d="M378.7,100.95h-30.49c-2.39,3.87-4.72,7.74-7.11,11.61-2.33-3.87-4.72-7.74-7.11-11.61h-30.44c0-3.13.05-6.26.05-9.39,10.18-.05,20.42-.11,30.65-.16,2.28,3.82,4.56,7.64,6.84,11.45,2.28-3.82,4.61-7.64,6.89-11.45,10.18.05,20.42.11,30.65.16,0,3.13,0,6.26.05,9.39Z"/>
      </g>
      <g>
        <path class="cls-1" d="M247.59,150.14v-30.49c-3.87-2.39-7.74-4.72-11.61-7.11,3.87-2.33,7.74-4.72,11.61-7.11v-30.44c3.13,0,6.26.05,9.39.05.05,10.18.11,20.42.16,30.65-3.82,2.28-7.64,4.56-11.45,6.84,3.82,2.28,7.64,4.61,11.45,6.89-.05,10.18-.11,20.42-.16,30.65-3.13,0-6.26,0-9.39.05Z"/>
        <path class="cls-1" d="M168.05,140.59h30.49c2.39-3.87,4.72-7.74,7.11-11.61,2.33,3.87,4.72,7.74,7.11,11.61h30.44c0,3.13-.05,6.26-.05,9.39-10.18.05-20.42.11-30.65.16-2.28-3.82-4.56-7.64-6.84-11.45-2.28,3.82-4.61,7.64-6.89,11.45-10.18-.05-20.42-.11-30.65-.16,0-3.13,0-6.26-.05-9.39Z"/>
        <path class="cls-1" d="M162.89,74.99v30.49c3.87,2.39,7.74,4.72,11.61,7.11-3.87,2.33-7.74,4.72-11.61,7.11v30.44c-3.13,0-6.26-.05-9.39-.05-.05-10.18-.11-20.42-.16-30.65,3.82-2.28,7.64-4.56,11.45-6.84-3.82-2.28-7.64-4.61-11.45-6.89.05-10.18.11-20.42.16-30.65,3.13,0,6.26,0,9.39-.05Z"/>
        <path class="cls-1" d="M162.89,74.99v30.49c3.87,2.39,7.74,4.72,11.61,7.11-3.87,2.33-7.74,4.72-11.61,7.11v30.44c-3.13,0-6.26-.05-9.39-.05-.05-10.18-.11-20.42-.16-30.65,3.82-2.28,7.64-4.56,11.45-6.84-3.82-2.28-7.64-4.61-11.45-6.89.05-10.18.11-20.42.16-30.65,3.13,0,6.26,0,9.39-.05Z"/>
        <path class="cls-1" d="M243.2,84.53h-30.49c-2.39,3.87-4.72,7.74-7.11,11.61-2.33-3.87-4.72-7.74-7.11-11.61h-30.44c0-3.13.05-6.26.05-9.39,10.18-.05,20.42-.11,30.65-.16,2.28,3.82,4.56,7.64,6.84,11.45,2.28-3.82,4.61-7.64,6.89-11.45,10.18.05,20.42.11,30.65.16,0,3.13,0,6.26.05,9.39Z"/>
        <path class="cls-1" d="M111.75,150.14v-30.49c-3.87-2.39-7.74-4.72-11.61-7.11,3.87-2.33,7.74-4.72,11.61-7.11v-30.44c3.13,0,6.26.05,9.39.05.05,10.18.11,20.42.16,30.65-3.82,2.28-7.64,4.56-11.45,6.84,3.82,2.28,7.64,4.61,11.45,6.89-.05,10.18-.11,20.42-.16,30.65-3.13,0-6.26,0-9.39.05Z"/>
        <path class="cls-1" d="M132.91,150.14v-30.49c-3.87-2.39-7.74-4.72-11.61-7.11,3.87-2.33,7.74-4.72,11.61-7.11v-30.44c3.13,0,6.26.05,9.39.05.05,10.18.11,20.42.16,30.65-3.82,2.28-7.64,4.56-11.45,6.84,3.82,2.28,7.64,4.61,11.45,6.89-.05,10.18-.11,20.42-.16,30.65-3.13,0-6.26,0-9.39.05Z"/>
        <path class="cls-1" d="M32.21,124.18h30.49c2.39-3.87,4.72-7.74,7.11-11.61,2.33,3.87,4.72,7.74,7.11,11.61h30.44c0,3.13-.05,6.26-.05,9.39-10.18.05-20.42.11-30.65.16-2.28-3.82-4.56-7.64-6.84-11.45-2.28,3.82-4.61,7.64-6.89,11.45-10.18-.05-20.42-.11-30.65-.16,0-3.13,0-6.26-.05-9.39Z"/>
        <path class="cls-1" d="M27.04,74.99v30.49c3.87,2.39,7.74,4.72,11.61,7.11-3.87,2.33-7.74,4.72-11.61,7.11v30.44c-3.13,0-6.26-.05-9.39-.05-.05-10.18-.11-20.42-.16-30.65,3.82-2.28,7.64-4.56,11.45-6.84-3.82-2.28-7.64-4.61-11.45-6.89.05-10.18.11-20.42.16-30.65,3.13,0,6.26,0,9.39-.05Z"/>
        <path class="cls-1" d="M5.88,74.99v30.49c3.87,2.39,7.74,4.72,11.61,7.11-3.87,2.33-7.74,4.72-11.61,7.11v30.44c-3.13,0-6.26-.05-9.39-.05-.05-10.18-.11-20.42-.16-30.65,3.82-2.28,7.64-4.56,11.45-6.84-3.82-2.28-7.64-4.61-11.45-6.89.05-10.18.11-20.42.16-30.65,3.13,0,6.26,0,9.39-.05Z"/>
        <path class="cls-1" d="M107.36,100.95h-30.49c-2.39,3.87-4.72,7.74-7.11,11.61-2.33-3.87-4.72-7.74-7.11-11.61h-30.44c0-3.13.05-6.26.05-9.39,10.18-.05,20.42-.11,30.65-.16,2.28,3.82,4.56,7.64,6.84,11.45,2.28-3.82,4.61-7.64,6.89-11.45,10.18.05,20.42.11,30.65.16,0,3.13,0,6.26.05,9.39Z"/>
      </g>
    </g>
  </g>
</svg>