<?xml version="1.0" encoding="UTF-8"?>
<svg id="Layer_1" data-name="Layer 1" xmlns="http://www.w3.org/2000/svg" viewBox="0 0 2154.1 74.83">
  <defs>
    <style>
      .cls-1 {
        fill: #eeedf0;
        stroke-width: 0px;
      }
    </style>
  </defs>
  <g>
    <g>
      <path class="cls-1" d="M5.88-.16v30.49c3.87,2.39,7.74,4.72,11.61,7.11-3.87,2.33-7.74,4.72-11.61,7.11v30.44c-3.13,0-6.26-.05-9.39-.05-.05-10.18-.11-20.42-.16-30.65,3.82-2.28,7.64-4.56,11.45-6.84-3.82-2.28-7.64-4.61-11.45-6.89.05-10.18.11-20.42.16-30.65C-.38-.11,2.75-.11,5.88-.16Z"/>
      <path class="cls-1" d="M85.42,9.39h-30.49c-2.39,3.87-4.72,7.74-7.11,11.61-2.33-3.87-4.72-7.74-7.11-11.61H10.27C10.27,6.26,10.32,3.13,10.32,0c10.18-.05,20.42-.11,30.65-.16,2.28,3.82,4.56,7.64,6.84,11.45,2.28-3.82,4.61-7.64,6.89-11.45C64.9-.11,75.13-.05,85.37,0c0,3.13,0,6.26.05,9.39Z"/>
      <path class="cls-1" d="M90.59,74.99v-30.49c-3.87-2.39-7.74-4.72-11.61-7.11,3.87-2.33,7.74-4.72,11.61-7.11V-.16c3.13,0,6.26.05,9.39.05.05,10.18.11,20.42.16,30.65-3.82,2.28-7.64,4.56-11.45,6.84,3.82,2.28,7.64,4.61,11.45,6.89-.05,10.18-.11,20.42-.16,30.65-3.13,0-6.26,0-9.39.05Z"/>
      <path class="cls-1" d="M90.59,74.99v-30.49c-3.87-2.39-7.74-4.72-11.61-7.11,3.87-2.33,7.74-4.72,11.61-7.11V-.16c3.13,0,6.26.05,9.39.05.05,10.18.11,20.42.16,30.65-3.82,2.28-7.64,4.56-11.45,6.84,3.82,2.28,7.64,4.61,11.45,6.89-.05,10.18-.11,20.42-.16,30.65-3.13,0-6.26,0-9.39.05Z"/>
      <path class="cls-1" d="M10.27,65.44h30.49c2.39-3.87,4.72-7.74,7.11-11.61,2.33,3.87,4.72,7.74,7.11,11.61h30.44c0,3.13-.05,6.26-.05,9.39-10.18.05-20.42.11-30.65.16-2.28-3.82-4.56-7.64-6.84-11.45-2.28,3.82-4.61,7.64-6.89,11.45-10.18-.05-20.42-.11-30.65-.16,0-3.13,0-6.26-.05-9.39Z"/>
      <path class="cls-1" d="M141.73-.16v30.49c3.87,2.39,7.74,4.72,11.61,7.11-3.87,2.33-7.74,4.72-11.61,7.11v30.44c-3.13,0-6.26-.05-9.39-.05-.05-10.18-.11-20.42-.16-30.65,3.82-2.28,7.64-4.56,11.45-6.84-3.82-2.28-7.64-4.61-11.45-6.89.05-10.18.11-20.42.16-30.65,3.13,0,6.26,0,9.39-.05Z"/>
      <path class="cls-1" d="M120.57-.16v30.49c3.87,2.39,7.74,4.72,11.61,7.11-3.87,2.33-7.74,4.72-11.61,7.11v30.44c-3.13,0-6.26-.05-9.39-.05-.05-10.18-.11-20.42-.16-30.65,3.82-2.28,7.64-4.56,11.45-6.84-3.82-2.28-7.64-4.61-11.45-6.89.05-10.18.11-20.42.16-30.65,3.13,0,6.26,0,9.39-.05Z"/>
      <path class="cls-1" d="M221.26,25.8h-30.49c-2.39,3.87-4.72,7.74-7.11,11.61-2.33-3.87-4.72-7.74-7.11-11.61h-30.44c0-3.13.05-6.26.05-9.39,10.18-.05,20.42-.11,30.65-.16,2.28,3.82,4.56,7.64,6.84,11.45,2.28-3.82,4.61-7.64,6.89-11.45,10.18.05,20.42.11,30.65.16,0,3.13,0,6.26.05,9.39Z"/>
      <path class="cls-1" d="M226.43,74.99v-30.49c-3.87-2.39-7.74-4.72-11.61-7.11,3.87-2.33,7.74-4.72,11.61-7.11V-.16c3.13,0,6.26.05,9.39.05.05,10.18.11,20.42.16,30.65-3.82,2.28-7.64,4.56-11.45,6.84,3.82,2.28,7.64,4.61,11.45,6.89-.05,10.18-.11,20.42-.16,30.65-3.13,0-6.26,0-9.39.05Z"/>
      <path class="cls-1" d="M247.59,74.99v-30.49c-3.87-2.39-7.74-4.72-11.61-7.11,3.87-2.33,7.74-4.72,11.61-7.11V-.16c3.13,0,6.26.05,9.39.05.05,10.18.11,20.42.16,30.65-3.82,2.28-7.64,4.56-11.45,6.84,3.82,2.28,7.64,4.61,11.45,6.89-.05,10.18-.11,20.42-.16,30.65-3.13,0-6.26,0-9.39.05Z"/>
      <path class="cls-1" d="M146.12,49.03h30.49c2.39-3.87,4.72-7.74,7.11-11.61,2.33,3.87,4.72,7.74,7.11,11.61h30.44c0,3.13-.05,6.26-.05,9.39-10.18.05-20.42.11-30.65.16-2.28-3.82-4.56-7.64-6.84-11.45-2.28,3.82-4.61,7.64-6.89,11.45-10.18-.05-20.42-.11-30.65-.16,0-3.13,0-6.26-.05-9.39Z"/>
    </g>
    <g>
      <path class="cls-1" d="M277.22-.16v30.49c3.87,2.39,7.74,4.72,11.61,7.11-3.87,2.33-7.74,4.72-11.61,7.11v30.44c-3.13,0-6.26-.05-9.39-.05-.05-10.18-.11-20.42-.16-30.65,3.82-2.28,7.64-4.56,11.45-6.84-3.82-2.28-7.64-4.61-11.45-6.89.05-10.18.11-20.42.16-30.65,3.13,0,6.26,0,9.39-.05Z"/>
      <path class="cls-1" d="M356.76,9.39h-30.49c-2.39,3.87-4.72,7.74-7.11,11.61-2.33-3.87-4.72-7.74-7.11-11.61h-30.44C281.61,6.26,281.66,3.13,281.66,0c10.18-.05,20.42-.11,30.65-.16,2.28,3.82,4.56,7.64,6.84,11.45,2.28-3.82,4.61-7.64,6.89-11.45C336.23-.11,346.47-.05,356.71,0c0,3.13,0,6.26.05,9.39Z"/>
      <path class="cls-1" d="M361.93,74.99v-30.49c-3.87-2.39-7.74-4.72-11.61-7.11,3.87-2.33,7.74-4.72,11.61-7.11V-.16c3.13,0,6.26.05,9.39.05.05,10.18.11,20.42.16,30.65-3.82,2.28-7.64,4.56-11.45,6.84,3.82,2.28,7.64,4.61,11.45,6.89-.05,10.18-.11,20.42-.16,30.65-3.13,0-6.26,0-9.39.05Z"/>
      <path class="cls-1" d="M361.93,74.99v-30.49c-3.87-2.39-7.74-4.72-11.61-7.11,3.87-2.33,7.74-4.72,11.61-7.11V-.16c3.13,0,6.26.05,9.39.05.05,10.18.11,20.42.16,30.65-3.82,2.28-7.64,4.56-11.45,6.84,3.82,2.28,7.64,4.61,11.45,6.89-.05,10.18-.11,20.42-.16,30.65-3.13,0-6.26,0-9.39.05Z"/>
      <path class="cls-1" d="M281.61,65.44h30.49c2.39-3.87,4.72-7.74,7.11-11.61,2.33,3.87,4.72,7.74,7.11,11.61h30.44c0,3.13-.05,6.26-.05,9.39-10.18.05-20.42.11-30.65.16-2.28-3.82-4.56-7.64-6.84-11.45-2.28,3.82-4.61,7.64-6.89,11.45-10.18-.05-20.42-.11-30.65-.16,0-3.13,0-6.26-.05-9.39Z"/>
      <path class="cls-1" d="M413.07-.16v30.49c3.87,2.39,7.74,4.72,11.61,7.11-3.87,2.33-7.74,4.72-11.61,7.11v30.44c-3.13,0-6.26-.05-9.39-.05-.05-10.18-.11-20.42-.16-30.65,3.82-2.28,7.64-4.56,11.45-6.84-3.82-2.28-7.64-4.61-11.45-6.89.05-10.18.11-20.42.16-30.65,3.13,0,6.26,0,9.39-.05Z"/>
      <path class="cls-1" d="M391.91-.16v30.49c3.87,2.39,7.74,4.72,11.61,7.11-3.87,2.33-7.74,4.72-11.61,7.11v30.44c-3.13,0-6.26-.05-9.39-.05-.05-10.18-.11-20.42-.16-30.65,3.82-2.28,7.64-4.56,11.45-6.84-3.82-2.28-7.64-4.61-11.45-6.89.05-10.18.11-20.42.16-30.65,3.13,0,6.26,0,9.39-.05Z"/>
      <path class="cls-1" d="M492.6,25.8h-30.49c-2.39,3.87-4.72,7.74-7.11,11.61-2.33-3.87-4.72-7.74-7.11-11.61h-30.44c0-3.13.05-6.26.05-9.39,10.18-.05,20.42-.11,30.65-.16,2.28,3.82,4.56,7.64,6.84,11.45,2.28-3.82,4.61-7.64,6.89-11.45,10.18.05,20.42.11,30.65.16,0,3.13,0,6.26.05,9.39Z"/>
      <path class="cls-1" d="M497.77,74.99v-30.49c-3.87-2.39-7.74-4.72-11.61-7.11,3.87-2.33,7.74-4.72,11.61-7.11V-.16c3.13,0,6.26.05,9.39.05.05,10.18.11,20.42.16,30.65-3.82,2.28-7.64,4.56-11.45,6.84,3.82,2.28,7.64,4.61,11.45,6.89-.05,10.18-.11,20.42-.16,30.65-3.13,0-6.26,0-9.39.05Z"/>
      <path class="cls-1" d="M518.93,74.99v-30.49c-3.87-2.39-7.74-4.72-11.61-7.11,3.87-2.33,7.74-4.72,11.61-7.11V-.16c3.13,0,6.26.05,9.39.05.05,10.18.11,20.42.16,30.65-3.82,2.28-7.64,4.56-11.45,6.84,3.82,2.28,7.64,4.61,11.45,6.89-.05,10.18-.11,20.42-.16,30.65-3.13,0-6.26,0-9.39.05Z"/>
      <path class="cls-1" d="M417.45,49.03h30.49c2.39-3.87,4.72-7.74,7.11-11.61,2.33,3.87,4.72,7.74,7.11,11.61h30.44c0,3.13-.05,6.26-.05,9.39-10.18.05-20.42.11-30.65.16-2.28-3.82-4.56-7.64-6.84-11.45-2.28,3.82-4.61,7.64-6.89,11.45-10.18-.05-20.42-.11-30.65-.16,0-3.13,0-6.26-.05-9.39Z"/>
    </g>
    <g>
      <path class="cls-1" d="M548.97-.16v30.49c3.87,2.39,7.74,4.72,11.61,7.11-3.87,2.33-7.74,4.72-11.61,7.11v30.44c-3.13,0-6.26-.05-9.39-.05-.05-10.18-.11-20.42-.16-30.65,3.82-2.28,7.64-4.56,11.45-6.84-3.82-2.28-7.64-4.61-11.45-6.89.05-10.18.11-20.42.16-30.65,3.13,0,6.26,0,9.39-.05Z"/>
      <path class="cls-1" d="M628.51,9.39h-30.49c-2.39,3.87-4.72,7.74-7.11,11.61-2.33-3.87-4.72-7.74-7.11-11.61h-30.44C553.36,6.26,553.41,3.13,553.41,0c10.18-.05,20.42-.11,30.65-.16,2.28,3.82,4.56,7.64,6.84,11.45,2.28-3.82,4.61-7.64,6.89-11.45C607.98-.11,618.22-.05,628.45,0c0,3.13,0,6.26.05,9.39Z"/>
      <path class="cls-1" d="M633.67,74.99v-30.49c-3.87-2.39-7.74-4.72-11.61-7.11,3.87-2.33,7.74-4.72,11.61-7.11V-.16c3.13,0,6.26.05,9.39.05.05,10.18.11,20.42.16,30.65-3.82,2.28-7.64,4.56-11.45,6.84,3.82,2.28,7.64,4.61,11.45,6.89-.05,10.18-.11,20.42-.16,30.65-3.13,0-6.26,0-9.39.05Z"/>
      <path class="cls-1" d="M633.67,74.99v-30.49c-3.87-2.39-7.74-4.72-11.61-7.11,3.87-2.33,7.74-4.72,11.61-7.11V-.16c3.13,0,6.26.05,9.39.05.05,10.18.11,20.42.16,30.65-3.82,2.28-7.64,4.56-11.45,6.84,3.82,2.28,7.64,4.61,11.45,6.89-.05,10.18-.11,20.42-.16,30.65-3.13,0-6.26,0-9.39.05Z"/>
      <path class="cls-1" d="M553.36,65.44h30.49c2.39-3.87,4.72-7.74,7.11-11.61,2.33,3.87,4.72,7.74,7.11,11.61h30.44c0,3.13-.05,6.26-.05,9.39-10.18.05-20.42.11-30.65.16-2.28-3.82-4.56-7.64-6.84-11.45-2.28,3.82-4.61,7.64-6.89,11.45-10.18-.05-20.42-.11-30.65-.16,0-3.13,0-6.26-.05-9.39Z"/>
      <path class="cls-1" d="M684.81-.16v30.49c3.87,2.39,7.74,4.72,11.61,7.11-3.87,2.33-7.74,4.72-11.61,7.11v30.44c-3.13,0-6.26-.05-9.39-.05-.05-10.18-.11-20.42-.16-30.65,3.82-2.28,7.64-4.56,11.45-6.84-3.82-2.28-7.64-4.61-11.45-6.89.05-10.18.11-20.42.16-30.65,3.13,0,6.26,0,9.39-.05Z"/>
      <path class="cls-1" d="M663.65-.16v30.49c3.87,2.39,7.74,4.72,11.61,7.11-3.87,2.33-7.74,4.72-11.61,7.11v30.44c-3.13,0-6.26-.05-9.39-.05-.05-10.18-.11-20.42-.16-30.65,3.82-2.28,7.64-4.56,11.45-6.84-3.82-2.28-7.64-4.61-11.45-6.89.05-10.18.11-20.42.16-30.65,3.13,0,6.26,0,9.39-.05Z"/>
      <path class="cls-1" d="M764.35,25.8h-30.49c-2.39,3.87-4.72,7.74-7.11,11.61-2.33-3.87-4.72-7.74-7.11-11.61h-30.44c0-3.13.05-6.26.05-9.39,10.18-.05,20.42-.11,30.65-.16,2.28,3.82,4.56,7.64,6.84,11.45,2.28-3.82,4.61-7.64,6.89-11.45,10.18.05,20.42.11,30.65.16,0,3.13,0,6.26.05,9.39Z"/>
      <path class="cls-1" d="M769.52,74.99v-30.49c-3.87-2.39-7.74-4.72-11.61-7.11,3.87-2.33,7.74-4.72,11.61-7.11V-.16c3.13,0,6.26.05,9.39.05.05,10.18.11,20.42.16,30.65-3.82,2.28-7.64,4.56-11.45,6.84,3.82,2.28,7.64,4.61,11.45,6.89-.05,10.18-.11,20.42-.16,30.65-3.13,0-6.26,0-9.39.05Z"/>
      <path class="cls-1" d="M790.68,74.99v-30.49c-3.87-2.39-7.74-4.72-11.61-7.11,3.87-2.33,7.74-4.72,11.61-7.11V-.16c3.13,0,6.26.05,9.39.05.05,10.18.11,20.42.16,30.65-3.82,2.28-7.64,4.56-11.45,6.84,3.82,2.28,7.64,4.61,11.45,6.89-.05,10.18-.11,20.42-.16,30.65-3.13,0-6.26,0-9.39.05Z"/>
      <path class="cls-1" d="M689.2,49.03h30.49c2.39-3.87,4.72-7.74,7.11-11.61,2.33,3.87,4.72,7.74,7.11,11.61h30.44c0,3.13-.05,6.26-.05,9.39-10.18.05-20.42.11-30.65.16-2.28-3.82-4.56-7.64-6.84-11.45-2.28,3.82-4.61,7.64-6.89,11.45-10.18-.05-20.42-.11-30.65-.16,0-3.13,0-6.26-.05-9.39Z"/>
    </g>
    <g>
      <path class="cls-1" d="M820.31-.16v30.49c3.87,2.39,7.74,4.72,11.61,7.11-3.87,2.33-7.74,4.72-11.61,7.11v30.44c-3.13,0-6.26-.05-9.39-.05-.05-10.18-.11-20.42-.16-30.65,3.82-2.28,7.64-4.56,11.45-6.84-3.82-2.28-7.64-4.61-11.45-6.89.05-10.18.11-20.42.16-30.65,3.13,0,6.26,0,9.39-.05Z"/>
      <path class="cls-1" d="M899.85,9.39h-30.49c-2.39,3.87-4.72,7.74-7.11,11.61-2.33-3.87-4.72-7.74-7.11-11.61h-30.44C824.7,6.26,824.75,3.13,824.75,0c10.18-.05,20.42-.11,30.65-.16,2.28,3.82,4.56,7.64,6.84,11.45,2.28-3.82,4.61-7.64,6.89-11.45C879.32-.11,889.56-.05,899.79,0c0,3.13,0,6.26.05,9.39Z"/>
      <path class="cls-1" d="M905.01,74.99v-30.49c-3.87-2.39-7.74-4.72-11.61-7.11,3.87-2.33,7.74-4.72,11.61-7.11V-.16c3.13,0,6.26.05,9.39.05.05,10.18.11,20.42.16,30.65-3.82,2.28-7.64,4.56-11.45,6.84,3.82,2.28,7.64,4.61,11.45,6.89-.05,10.18-.11,20.42-.16,30.65-3.13,0-6.26,0-9.39.05Z"/>
      <path class="cls-1" d="M905.01,74.99v-30.49c-3.87-2.39-7.74-4.72-11.61-7.11,3.87-2.33,7.74-4.72,11.61-7.11V-.16c3.13,0,6.26.05,9.39.05.05,10.18.11,20.42.16,30.65-3.82,2.28-7.64,4.56-11.45,6.84,3.82,2.28,7.64,4.61,11.45,6.89-.05,10.18-.11,20.42-.16,30.65-3.13,0-6.26,0-9.39.05Z"/>
      <path class="cls-1" d="M824.7,65.44h30.49c2.39-3.87,4.72-7.74,7.11-11.61,2.33,3.87,4.72,7.74,7.11,11.61h30.44c0,3.13-.05,6.26-.05,9.39-10.18.05-20.42.11-30.65.16-2.28-3.82-4.56-7.64-6.84-11.45-2.28,3.82-4.61,7.64-6.89,11.45-10.18-.05-20.42-.11-30.65-.16,0-3.13,0-6.26-.05-9.39Z"/>
      <path class="cls-1" d="M956.15-.16v30.49c3.87,2.39,7.74,4.72,11.61,7.11-3.87,2.33-7.74,4.72-11.61,7.11v30.44c-3.13,0-6.26-.05-9.39-.05-.05-10.18-.11-20.42-.16-30.65,3.82-2.28,7.64-4.56,11.45-6.84-3.82-2.28-7.64-4.61-11.45-6.89.05-10.18.11-20.42.16-30.65,3.13,0,6.26,0,9.39-.05Z"/>
      <path class="cls-1" d="M934.99-.16v30.49c3.87,2.39,7.74,4.72,11.61,7.11-3.87,2.33-7.74,4.72-11.61,7.11v30.44c-3.13,0-6.26-.05-9.39-.05-.05-10.18-.11-20.42-.16-30.65,3.82-2.28,7.64-4.56,11.45-6.84-3.82-2.28-7.64-4.61-11.45-6.89.05-10.18.11-20.42.16-30.65,3.13,0,6.26,0,9.39-.05Z"/>
      <path class="cls-1" d="M1035.69,25.8h-30.49c-2.39,3.87-4.72,7.74-7.11,11.61-2.33-3.87-4.72-7.74-7.11-11.61h-30.44c0-3.13.05-6.26.05-9.39,10.18-.05,20.42-.11,30.65-.16,2.28,3.82,4.56,7.64,6.84,11.45,2.28-3.82,4.61-7.64,6.89-11.45,10.18.05,20.42.11,30.65.16,0,3.13,0,6.26.05,9.39Z"/>
      <path class="cls-1" d="M1040.86,74.99v-30.49c-3.87-2.39-7.74-4.72-11.61-7.11,3.87-2.33,7.74-4.72,11.61-7.11V-.16c3.13,0,6.26.05,9.39.05.05,10.18.11,20.42.16,30.65-3.82,2.28-7.64,4.56-11.45,6.84,3.82,2.28,7.64,4.61,11.45,6.89-.05,10.18-.11,20.42-.16,30.65-3.13,0-6.26,0-9.39.05Z"/>
      <path class="cls-1" d="M1062.02,74.99v-30.49c-3.87-2.39-7.74-4.72-11.61-7.11,3.87-2.33,7.74-4.72,11.61-7.11V-.16c3.13,0,6.26.05,9.39.05.05,10.18.11,20.42.16,30.65-3.82,2.28-7.64,4.56-11.45,6.84,3.82,2.28,7.64,4.61,11.45,6.89-.05,10.18-.11,20.42-.16,30.65-3.13,0-6.26,0-9.39.05Z"/>
      <path class="cls-1" d="M960.54,49.03h30.49c2.39-3.87,4.72-7.74,7.11-11.61,2.33,3.87,4.72,7.74,7.11,11.61h30.44c0,3.13-.05,6.26-.05,9.39-10.18.05-20.42.11-30.65.16-2.28-3.82-4.56-7.64-6.84-11.45-2.28,3.82-4.61,7.64-6.89,11.45-10.18-.05-20.42-.11-30.65-.16,0-3.13,0-6.26-.05-9.39Z"/>
    </g>
  </g>
  <g>
    <g>
      <path class="cls-1" d="M1092.09-.16v30.49c3.87,2.39,7.74,4.72,11.61,7.11-3.87,2.33-7.74,4.72-11.61,7.11v30.44c-3.13,0-6.26-.05-9.39-.05-.05-10.18-.11-20.42-.16-30.65,3.82-2.28,7.64-4.56,11.45-6.84-3.82-2.28-7.64-4.61-11.45-6.89.05-10.18.11-20.42.16-30.65,3.13,0,6.26,0,9.39-.05Z"/>
      <path class="cls-1" d="M1171.62,9.39h-30.49c-2.39,3.87-4.72,7.74-7.11,11.61-2.33-3.87-4.72-7.74-7.11-11.61h-30.44C1096.47,6.26,1096.53,3.13,1096.53,0c10.18-.05,20.42-.11,30.65-.16,2.28,3.82,4.56,7.64,6.84,11.45,2.28-3.82,4.61-7.64,6.89-11.45C1151.1-.11,1161.33-.05,1171.57,0c0,3.13,0,6.26.05,9.39Z"/>
      <path class="cls-1" d="M1176.79,74.99v-30.49c-3.87-2.39-7.74-4.72-11.61-7.11,3.87-2.33,7.74-4.72,11.61-7.11V-.16c3.13,0,6.26.05,9.39.05.05,10.18.11,20.42.16,30.65-3.82,2.28-7.64,4.56-11.45,6.84,3.82,2.28,7.64,4.61,11.45,6.89-.05,10.18-.11,20.42-.16,30.65-3.13,0-6.26,0-9.39.05Z"/>
      <path class="cls-1" d="M1176.79,74.99v-30.49c-3.87-2.39-7.74-4.72-11.61-7.11,3.87-2.33,7.74-4.72,11.61-7.11V-.16c3.13,0,6.26.05,9.39.05.05,10.18.11,20.42.16,30.65-3.82,2.28-7.64,4.56-11.45,6.84,3.82,2.28,7.64,4.61,11.45,6.89-.05,10.18-.11,20.42-.16,30.65-3.13,0-6.26,0-9.39.05Z"/>
      <path class="cls-1" d="M1096.47,65.44h30.49c2.39-3.87,4.72-7.74,7.11-11.61,2.33,3.87,4.72,7.74,7.11,11.61h30.44c0,3.13-.05,6.26-.05,9.39-10.18.05-20.42.11-30.65.16-2.28-3.82-4.56-7.64-6.84-11.45-2.28,3.82-4.61,7.64-6.89,11.45-10.18-.05-20.42-.11-30.65-.16,0-3.13,0-6.26-.05-9.39Z"/>
      <path class="cls-1" d="M1227.93-.16v30.49c3.87,2.39,7.74,4.72,11.61,7.11-3.87,2.33-7.74,4.72-11.61,7.11v30.44c-3.13,0-6.26-.05-9.39-.05-.05-10.18-.11-20.42-.16-30.65,3.82-2.28,7.64-4.56,11.45-6.84-3.82-2.28-7.64-4.61-11.45-6.89.05-10.18.11-20.42.16-30.65,3.13,0,6.26,0,9.39-.05Z"/>
      <path class="cls-1" d="M1206.77-.16v30.49c3.87,2.39,7.74,4.72,11.61,7.11-3.87,2.33-7.74,4.72-11.61,7.11v30.44c-3.13,0-6.26-.05-9.39-.05-.05-10.18-.11-20.42-.16-30.65,3.82-2.28,7.64-4.56,11.45-6.84-3.82-2.28-7.64-4.61-11.45-6.89.05-10.18.11-20.42.16-30.65,3.13,0,6.26,0,9.39-.05Z"/>
      <path class="cls-1" d="M1307.47,25.8h-30.49c-2.39,3.87-4.72,7.74-7.11,11.61-2.33-3.87-4.72-7.74-7.11-11.61h-30.44c0-3.13.05-6.26.05-9.39,10.18-.05,20.42-.11,30.65-.16,2.28,3.82,4.56,7.64,6.84,11.45,2.28-3.82,4.61-7.64,6.89-11.45,10.18.05,20.42.11,30.65.16,0,3.13,0,6.26.05,9.39Z"/>
      <path class="cls-1" d="M1312.63,74.99v-30.49c-3.87-2.39-7.74-4.72-11.61-7.11,3.87-2.33,7.74-4.72,11.61-7.11V-.16c3.13,0,6.26.05,9.39.05.05,10.18.11,20.42.16,30.65-3.82,2.28-7.64,4.56-11.45,6.84,3.82,2.28,7.64,4.61,11.45,6.89-.05,10.18-.11,20.42-.16,30.65-3.13,0-6.26,0-9.39.05Z"/>
      <path class="cls-1" d="M1333.8,74.99v-30.49c-3.87-2.39-7.74-4.72-11.61-7.11,3.87-2.33,7.74-4.72,11.61-7.11V-.16c3.13,0,6.26.05,9.39.05.05,10.18.11,20.42.16,30.65-3.82,2.28-7.64,4.56-11.45,6.84,3.82,2.28,7.64,4.61,11.45,6.89-.05,10.18-.11,20.42-.16,30.65-3.13,0-6.26,0-9.39.05Z"/>
      <path class="cls-1" d="M1232.32,49.03h30.49c2.39-3.87,4.72-7.74,7.11-11.61,2.33,3.87,4.72,7.74,7.11,11.61h30.44c0,3.13-.05,6.26-.05,9.39-10.18.05-20.42.11-30.65.16-2.28-3.82-4.56-7.64-6.84-11.45-2.28,3.82-4.61,7.64-6.89,11.45-10.18-.05-20.42-.11-30.65-.16,0-3.13,0-6.26-.05-9.39Z"/>
    </g>
    <g>
      <path class="cls-1" d="M1363.43-.16v30.49c3.87,2.39,7.74,4.72,11.61,7.11-3.87,2.33-7.74,4.72-11.61,7.11v30.44c-3.13,0-6.26-.05-9.39-.05-.05-10.18-.11-20.42-.16-30.65,3.82-2.28,7.64-4.56,11.45-6.84-3.82-2.28-7.64-4.61-11.45-6.89.05-10.18.11-20.42.16-30.65,3.13,0,6.26,0,9.39-.05Z"/>
      <path class="cls-1" d="M1442.96,9.39h-30.49c-2.39,3.87-4.72,7.74-7.11,11.61-2.33-3.87-4.72-7.74-7.11-11.61h-30.44C1367.81,6.26,1367.87,3.13,1367.87,0c10.18-.05,20.42-.11,30.65-.16,2.28,3.82,4.56,7.64,6.84,11.45,2.28-3.82,4.61-7.64,6.89-11.45C1422.44-.11,1432.67-.05,1442.91,0c0,3.13,0,6.26.05,9.39Z"/>
      <path class="cls-1" d="M1448.13,74.99v-30.49c-3.87-2.39-7.74-4.72-11.61-7.11,3.87-2.33,7.74-4.72,11.61-7.11V-.16c3.13,0,6.26.05,9.39.05.05,10.18.11,20.42.16,30.65-3.82,2.28-7.64,4.56-11.45,6.84,3.82,2.28,7.64,4.61,11.45,6.89-.05,10.18-.11,20.42-.16,30.65-3.13,0-6.26,0-9.39.05Z"/>
      <path class="cls-1" d="M1448.13,74.99v-30.49c-3.87-2.39-7.74-4.72-11.61-7.11,3.87-2.33,7.74-4.72,11.61-7.11V-.16c3.13,0,6.26.05,9.39.05.05,10.18.11,20.42.16,30.65-3.82,2.28-7.64,4.56-11.45,6.84,3.82,2.28,7.64,4.61,11.45,6.89-.05,10.18-.11,20.42-.16,30.65-3.13,0-6.26,0-9.39.05Z"/>
      <path class="cls-1" d="M1367.81,65.44h30.49c2.39-3.87,4.72-7.74,7.11-11.61,2.33,3.87,4.72,7.74,7.11,11.61h30.44c0,3.13-.05,6.26-.05,9.39-10.18.05-20.42.11-30.65.16-2.28-3.82-4.56-7.64-6.84-11.45-2.28,3.82-4.61,7.64-6.89,11.45-10.18-.05-20.42-.11-30.65-.16,0-3.13,0-6.26-.05-9.39Z"/>
      <path class="cls-1" d="M1499.27-.16v30.49c3.87,2.39,7.74,4.72,11.61,7.11-3.87,2.33-7.74,4.72-11.61,7.11v30.44c-3.13,0-6.26-.05-9.39-.05-.05-10.18-.11-20.42-.16-30.65,3.82-2.28,7.64-4.56,11.45-6.84-3.82-2.28-7.64-4.61-11.45-6.89.05-10.18.11-20.42.16-30.65,3.13,0,6.26,0,9.39-.05Z"/>
      <path class="cls-1" d="M1478.11-.16v30.49c3.87,2.39,7.74,4.72,11.61,7.11-3.87,2.33-7.74,4.72-11.61,7.11v30.44c-3.13,0-6.26-.05-9.39-.05-.05-10.18-.11-20.42-.16-30.65,3.82-2.28,7.64-4.56,11.45-6.84-3.82-2.28-7.64-4.61-11.45-6.89.05-10.18.11-20.42.16-30.65,3.13,0,6.26,0,9.39-.05Z"/>
      <path class="cls-1" d="M1578.81,25.8h-30.49c-2.39,3.87-4.72,7.74-7.11,11.61-2.33-3.87-4.72-7.74-7.11-11.61h-30.44c0-3.13.05-6.26.05-9.39,10.18-.05,20.42-.11,30.65-.16,2.28,3.82,4.56,7.64,6.84,11.45,2.28-3.82,4.61-7.64,6.89-11.45,10.18.05,20.42.11,30.65.16,0,3.13,0,6.26.05,9.39Z"/>
      <path class="cls-1" d="M1583.97,74.99v-30.49c-3.87-2.39-7.74-4.72-11.61-7.11,3.87-2.33,7.74-4.72,11.61-7.11V-.16c3.13,0,6.26.05,9.39.05.05,10.18.11,20.42.16,30.65-3.82,2.28-7.64,4.56-11.45,6.84,3.82,2.28,7.64,4.61,11.45,6.89-.05,10.18-.11,20.42-.16,30.65-3.13,0-6.26,0-9.39.05Z"/>
      <path class="cls-1" d="M1605.13,74.99v-30.49c-3.87-2.39-7.74-4.72-11.61-7.11,3.87-2.33,7.74-4.72,11.61-7.11V-.16c3.13,0,6.26.05,9.39.05.05,10.18.11,20.42.16,30.65-3.82,2.28-7.64,4.56-11.45,6.84,3.82,2.28,7.64,4.61,11.45,6.89-.05,10.18-.11,20.42-.16,30.65-3.13,0-6.26,0-9.39.05Z"/>
      <path class="cls-1" d="M1503.66,49.03h30.49c2.39-3.87,4.72-7.74,7.11-11.61,2.33,3.87,4.72,7.74,7.11,11.61h30.44c0,3.13-.05,6.26-.05,9.39-10.18.05-20.42.11-30.65.16-2.28-3.82-4.56-7.64-6.84-11.45-2.28,3.82-4.61,7.64-6.89,11.45-10.18-.05-20.42-.11-30.65-.16,0-3.13,0-6.26-.05-9.39Z"/>
    </g>
    <g>
      <path class="cls-1" d="M1635.17-.16v30.49c3.87,2.39,7.74,4.72,11.61,7.11-3.87,2.33-7.74,4.72-11.61,7.11v30.44c-3.13,0-6.26-.05-9.39-.05-.05-10.18-.11-20.42-.16-30.65,3.82-2.28,7.64-4.56,11.45-6.84-3.82-2.28-7.64-4.61-11.45-6.89.05-10.18.11-20.42.16-30.65,3.13,0,6.26,0,9.39-.05Z"/>
      <path class="cls-1" d="M1714.71,9.39h-30.49c-2.39,3.87-4.72,7.74-7.11,11.61-2.33-3.87-4.72-7.74-7.11-11.61h-30.44C1639.56,6.26,1639.62,3.13,1639.62,0c10.18-.05,20.42-.11,30.65-.16,2.28,3.82,4.56,7.64,6.84,11.45,2.28-3.82,4.61-7.64,6.89-11.45C1694.19-.11,1704.42-.05,1714.66,0c0,3.13,0,6.26.05,9.39Z"/>
      <path class="cls-1" d="M1719.88,74.99v-30.49c-3.87-2.39-7.74-4.72-11.61-7.11,3.87-2.33,7.74-4.72,11.61-7.11V-.16c3.13,0,6.26.05,9.39.05.05,10.18.11,20.42.16,30.65-3.82,2.28-7.64,4.56-11.45,6.84,3.82,2.28,7.64,4.61,11.45,6.89-.05,10.18-.11,20.42-.16,30.65-3.13,0-6.26,0-9.39.05Z"/>
      <path class="cls-1" d="M1719.88,74.99v-30.49c-3.87-2.39-7.74-4.72-11.61-7.11,3.87-2.33,7.74-4.72,11.61-7.11V-.16c3.13,0,6.26.05,9.39.05.05,10.18.11,20.42.16,30.65-3.82,2.28-7.64,4.56-11.45,6.84,3.82,2.28,7.64,4.61,11.45,6.89-.05,10.18-.11,20.42-.16,30.65-3.13,0-6.26,0-9.39.05Z"/>
      <path class="cls-1" d="M1639.56,65.44h30.49c2.39-3.87,4.72-7.74,7.11-11.61,2.33,3.87,4.72,7.74,7.11,11.61h30.44c0,3.13-.05,6.26-.05,9.39-10.18.05-20.42.11-30.65.16-2.28-3.82-4.56-7.64-6.84-11.45-2.28,3.82-4.61,7.64-6.89,11.45-10.18-.05-20.42-.11-30.65-.16,0-3.13,0-6.26-.05-9.39Z"/>
      <path class="cls-1" d="M1771.02-.16v30.49c3.87,2.39,7.74,4.72,11.61,7.11-3.87,2.33-7.74,4.72-11.61,7.11v30.44c-3.13,0-6.26-.05-9.39-.05-.05-10.18-.11-20.42-.16-30.65,3.82-2.28,7.64-4.56,11.45-6.84-3.82-2.28-7.64-4.61-11.45-6.89.05-10.18.11-20.42.16-30.65,3.13,0,6.26,0,9.39-.05Z"/>
      <path class="cls-1" d="M1749.86-.16v30.49c3.87,2.39,7.74,4.72,11.61,7.11-3.87,2.33-7.74,4.72-11.61,7.11v30.44c-3.13,0-6.26-.05-9.39-.05-.05-10.18-.11-20.42-.16-30.65,3.82-2.28,7.64-4.56,11.45-6.84-3.82-2.28-7.64-4.61-11.45-6.89.05-10.18.11-20.42.16-30.65,3.13,0,6.26,0,9.39-.05Z"/>
      <path class="cls-1" d="M1850.55,25.8h-30.49c-2.39,3.87-4.72,7.74-7.11,11.61-2.33-3.87-4.72-7.74-7.11-11.61h-30.44c0-3.13.05-6.26.05-9.39,10.18-.05,20.42-.11,30.65-.16,2.28,3.82,4.56,7.64,6.84,11.45,2.28-3.82,4.61-7.64,6.89-11.45,10.18.05,20.42.11,30.65.16,0,3.13,0,6.26.05,9.39Z"/>
      <path class="cls-1" d="M1855.72,74.99v-30.49c-3.87-2.39-7.74-4.72-11.61-7.11,3.87-2.33,7.74-4.72,11.61-7.11V-.16c3.13,0,6.26.05,9.39.05.05,10.18.11,20.42.16,30.65-3.82,2.28-7.64,4.56-11.45,6.84,3.82,2.28,7.64,4.61,11.45,6.89-.05,10.18-.11,20.42-.16,30.65-3.13,0-6.26,0-9.39.05Z"/>
      <path class="cls-1" d="M1876.88,74.99v-30.49c-3.87-2.39-7.74-4.72-11.61-7.11,3.87-2.33,7.74-4.72,11.61-7.11V-.16c3.13,0,6.26.05,9.39.05.05,10.18.11,20.42.16,30.65-3.82,2.28-7.64,4.56-11.45,6.84,3.82,2.28,7.64,4.61,11.45,6.89-.05,10.18-.11,20.42-.16,30.65-3.13,0-6.26,0-9.39.05Z"/>
      <path class="cls-1" d="M1775.41,49.03h30.49c2.39-3.87,4.72-7.74,7.11-11.61,2.33,3.87,4.72,7.74,7.11,11.61h30.44c0,3.13-.05,6.26-.05,9.39-10.18.05-20.42.11-30.65.16-2.28-3.82-4.56-7.64-6.84-11.45-2.28,3.82-4.61,7.64-6.89,11.45-10.18-.05-20.42-.11-30.65-.16,0-3.13,0-6.26-.05-9.39Z"/>
    </g>
    <g>
      <path class="cls-1" d="M1906.51-.16v30.49c3.87,2.39,7.74,4.72,11.61,7.11-3.87,2.33-7.74,4.72-11.61,7.11v30.44c-3.13,0-6.26-.05-9.39-.05-.05-10.18-.11-20.42-.16-30.65,3.82-2.28,7.64-4.56,11.45-6.84-3.82-2.28-7.64-4.61-11.45-6.89.05-10.18.11-20.42.16-30.65,3.13,0,6.26,0,9.39-.05Z"/>
      <path class="cls-1" d="M1986.05,9.39h-30.49c-2.39,3.87-4.72,7.74-7.11,11.61-2.33-3.87-4.72-7.74-7.11-11.61h-30.44C1910.9,6.26,1910.95,3.13,1910.95,0c10.18-.05,20.42-.11,30.65-.16,2.28,3.82,4.56,7.64,6.84,11.45,2.28-3.82,4.61-7.64,6.89-11.45C1965.53-.11,1975.76-.05,1986,0c0,3.13,0,6.26.05,9.39Z"/>
      <path class="cls-1" d="M1991.22,74.99v-30.49c-3.87-2.39-7.74-4.72-11.61-7.11,3.87-2.33,7.74-4.72,11.61-7.11V-.16c3.13,0,6.26.05,9.39.05.05,10.18.11,20.42.16,30.65-3.82,2.28-7.64,4.56-11.45,6.84,3.82,2.28,7.64,4.61,11.45,6.89-.05,10.18-.11,20.42-.16,30.65-3.13,0-6.26,0-9.39.05Z"/>
      <path class="cls-1" d="M1991.22,74.99v-30.49c-3.87-2.39-7.74-4.72-11.61-7.11,3.87-2.33,7.74-4.72,11.61-7.11V-.16c3.13,0,6.26.05,9.39.05.05,10.18.11,20.42.16,30.65-3.82,2.28-7.64,4.56-11.45,6.84,3.82,2.28,7.64,4.61,11.45,6.89-.05,10.18-.11,20.42-.16,30.65-3.13,0-6.26,0-9.39.05Z"/>
      <path class="cls-1" d="M1910.9,65.44h30.49c2.39-3.87,4.72-7.74,7.11-11.61,2.33,3.87,4.72,7.74,7.11,11.61h30.44c0,3.13-.05,6.26-.05,9.39-10.18.05-20.42.11-30.65.16-2.28-3.82-4.56-7.64-6.84-11.45-2.28,3.82-4.61,7.64-6.89,11.45-10.18-.05-20.42-.11-30.65-.16,0-3.13,0-6.26-.05-9.39Z"/>
      <path class="cls-1" d="M2042.36-.16v30.49c3.87,2.39,7.74,4.72,11.61,7.11-3.87,2.33-7.74,4.72-11.61,7.11v30.44c-3.13,0-6.26-.05-9.39-.05-.05-10.18-.11-20.42-.16-30.65,3.82-2.28,7.64-4.56,11.45-6.84-3.82-2.28-7.64-4.61-11.45-6.89.05-10.18.11-20.42.16-30.65,3.13,0,6.26,0,9.39-.05Z"/>
      <path class="cls-1" d="M2021.2-.16v30.49c3.87,2.39,7.74,4.72,11.61,7.11-3.87,2.33-7.74,4.72-11.61,7.11v30.44c-3.13,0-6.26-.05-9.39-.05-.05-10.18-.11-20.42-.16-30.65,3.82-2.28,7.64-4.56,11.45-6.84-3.82-2.28-7.64-4.61-11.45-6.89.05-10.18.11-20.42.16-30.65,3.13,0,6.26,0,9.39-.05Z"/>
      <path class="cls-1" d="M2121.89,25.8h-30.49c-2.39,3.87-4.72,7.74-7.11,11.61-2.33-3.87-4.72-7.74-7.11-11.61h-30.44c0-3.13.05-6.26.05-9.39,10.18-.05,20.42-.11,30.65-.16,2.28,3.82,4.56,7.64,6.84,11.45,2.28-3.82,4.61-7.64,6.89-11.45,10.18.05,20.42.11,30.65.16,0,3.13,0,6.26.05,9.39Z"/>
      <path class="cls-1" d="M2127.06,74.99v-30.49c-3.87-2.39-7.74-4.72-11.61-7.11,3.87-2.33,7.74-4.72,11.61-7.11V-.16c3.13,0,6.26.05,9.39.05.05,10.18.11,20.42.16,30.65-3.82,2.28-7.64,4.56-11.45,6.84,3.82,2.28,7.64,4.61,11.45,6.89-.05,10.18-.11,20.42-.16,30.65-3.13,0-6.26,0-9.39.05Z"/>
      <path class="cls-1" d="M2148.22,74.99v-30.49c-3.87-2.39-7.74-4.72-11.61-7.11,3.87-2.33,7.74-4.72,11.61-7.11V-.16c3.13,0,6.26.05,9.39.05.05,10.18.11,20.42.16,30.65-3.82,2.28-7.64,4.56-11.45,6.84,3.82,2.28,7.64,4.61,11.45,6.89-.05,10.18-.11,20.42-.16,30.65-3.13,0-6.26,0-9.39.05Z"/>
      <path class="cls-1" d="M2046.75,49.03h30.49c2.39-3.87,4.72-7.74,7.11-11.61,2.33,3.87,4.72,7.74,7.11,11.61h30.44c0,3.13-.05,6.26-.05,9.39-10.18.05-20.42.11-30.65.16-2.28-3.82-4.56-7.64-6.84-11.45-2.28,3.82-4.61,7.64-6.89,11.45-10.18-.05-20.42-.11-30.65-.16,0-3.13,0-6.26-.05-9.39Z"/>
    </g>
  </g>
</svg>