<?xml version="1.0" encoding="UTF-8"?>
<svg id="Layer_1" data-name="Layer 1" xmlns="http://www.w3.org/2000/svg" viewBox="0 0 2154.1 190.12">
  <defs>
    <style>
      .cls-1 {
        fill: #eeedf0;
        stroke-width: 0px;
      }
    </style>
  </defs>
  <g>
    <g>
      <g>
        <path class="cls-1" d="M6.6-.16v30.49c3.87,2.39,7.74,4.72,11.61,7.11-3.87,2.33-7.74,4.72-11.61,7.11v30.44c-3.13,0-6.26-.05-9.39-.05-.05-10.18-.11-20.42-.16-30.65,3.82-2.28,7.64-4.56,11.45-6.84-3.82-2.28-7.64-4.61-11.45-6.89.05-10.18.11-20.42.16-30.65C.34-.11,3.47-.11,6.6-.16Z"/>
        <path class="cls-1" d="M86.13,9.39h-30.49c-2.39,3.87-4.72,7.74-7.11,11.61-2.33-3.87-4.72-7.74-7.11-11.61H10.99c0-3.13.05-6.26.05-9.39,10.18-.05,20.42-.11,30.65-.16,2.28,3.82,4.56,7.64,6.84,11.45,2.28-3.82,4.61-7.64,6.89-11.45,10.18.05,20.42.11,30.65.16,0,3.13,0,6.26.05,9.39Z"/>
        <path class="cls-1" d="M91.3,74.99v-30.49c-3.87-2.39-7.74-4.72-11.61-7.11,3.87-2.33,7.74-4.72,11.61-7.11V-.16c3.13,0,6.26.05,9.39.05.05,10.18.11,20.42.16,30.65-3.82,2.28-7.64,4.56-11.45,6.84,3.82,2.28,7.64,4.61,11.45,6.89-.05,10.18-.11,20.42-.16,30.65-3.13,0-6.26,0-9.39.05Z"/>
        <path class="cls-1" d="M91.3,74.99v-30.49c-3.87-2.39-7.74-4.72-11.61-7.11,3.87-2.33,7.74-4.72,11.61-7.11V-.16c3.13,0,6.26.05,9.39.05.05,10.18.11,20.42.16,30.65-3.82,2.28-7.64,4.56-11.45,6.84,3.82,2.28,7.64,4.61,11.45,6.89-.05,10.18-.11,20.42-.16,30.65-3.13,0-6.26,0-9.39.05Z"/>
        <path class="cls-1" d="M10.99,65.44h30.49c2.39-3.87,4.72-7.74,7.11-11.61,2.33,3.87,4.72,7.74,7.11,11.61h30.44c0,3.13-.05,6.26-.05,9.39-10.18.05-20.42.11-30.65.16-2.28-3.82-4.56-7.64-6.84-11.45-2.28,3.82-4.61,7.64-6.89,11.45-10.18-.05-20.42-.11-30.65-.16,0-3.13,0-6.26-.05-9.39Z"/>
        <path class="cls-1" d="M142.44-.16v30.49c3.87,2.39,7.74,4.72,11.61,7.11-3.87,2.33-7.74,4.72-11.61,7.11v30.44c-3.13,0-6.26-.05-9.39-.05-.05-10.18-.11-20.42-.16-30.65,3.82-2.28,7.64-4.56,11.45-6.84-3.82-2.28-7.64-4.61-11.45-6.89.05-10.18.11-20.42.16-30.65,3.13,0,6.26,0,9.39-.05Z"/>
        <path class="cls-1" d="M121.28-.16v30.49c3.87,2.39,7.74,4.72,11.61,7.11-3.87,2.33-7.74,4.72-11.61,7.11v30.44c-3.13,0-6.26-.05-9.39-.05-.05-10.18-.11-20.42-.16-30.65,3.82-2.28,7.64-4.56,11.45-6.84-3.82-2.28-7.64-4.61-11.45-6.89.05-10.18.11-20.42.16-30.65,3.13,0,6.26,0,9.39-.05Z"/>
        <path class="cls-1" d="M221.98,25.8h-30.49c-2.39,3.87-4.72,7.74-7.11,11.61-2.33-3.87-4.72-7.74-7.11-11.61h-30.44c0-3.13.05-6.26.05-9.39,10.18-.05,20.42-.11,30.65-.16,2.28,3.82,4.56,7.64,6.84,11.45,2.28-3.82,4.61-7.64,6.89-11.45,10.18.05,20.42.11,30.65.16,0,3.13,0,6.26.05,9.39Z"/>
        <path class="cls-1" d="M227.15,74.99v-30.49c-3.87-2.39-7.74-4.72-11.61-7.11,3.87-2.33,7.74-4.72,11.61-7.11V-.16c3.13,0,6.26.05,9.39.05.05,10.18.11,20.42.16,30.65-3.82,2.28-7.64,4.56-11.45,6.84,3.82,2.28,7.64,4.61,11.45,6.89-.05,10.18-.11,20.42-.16,30.65-3.13,0-6.26,0-9.39.05Z"/>
        <path class="cls-1" d="M248.31,74.99v-30.49c-3.87-2.39-7.74-4.72-11.61-7.11,3.87-2.33,7.74-4.72,11.61-7.11V-.16c3.13,0,6.26.05,9.39.05.05,10.18.11,20.42.16,30.65-3.82,2.28-7.64,4.56-11.45,6.84,3.82,2.28,7.64,4.61,11.45,6.89-.05,10.18-.11,20.42-.16,30.65-3.13,0-6.26,0-9.39.05Z"/>
        <path class="cls-1" d="M146.83,49.03h30.49c2.39-3.87,4.72-7.74,7.11-11.61,2.33,3.87,4.72,7.74,7.11,11.61h30.44c0,3.13-.05,6.26-.05,9.39-10.18.05-20.42.11-30.65.16-2.28-3.82-4.56-7.64-6.84-11.45-2.28,3.82-4.61,7.64-6.89,11.45-10.18-.05-20.42-.11-30.65-.16,0-3.13,0-6.26-.05-9.39Z"/>
      </g>
      <g>
        <path class="cls-1" d="M277.94-.16v30.49c3.87,2.39,7.74,4.72,11.61,7.11-3.87,2.33-7.74,4.72-11.61,7.11v30.44c-3.13,0-6.26-.05-9.39-.05-.05-10.18-.11-20.42-.16-30.65,3.82-2.28,7.64-4.56,11.45-6.84-3.82-2.28-7.64-4.61-11.45-6.89.05-10.18.11-20.42.16-30.65,3.13,0,6.26,0,9.39-.05Z"/>
        <path class="cls-1" d="M357.47,9.39h-30.49c-2.39,3.87-4.72,7.74-7.11,11.61-2.33-3.87-4.72-7.74-7.11-11.61h-30.44c0-3.13.05-6.26.05-9.39,10.18-.05,20.42-.11,30.65-.16,2.28,3.82,4.56,7.64,6.84,11.45,2.28-3.82,4.61-7.64,6.89-11.45,10.18.05,20.42.11,30.65.16,0,3.13,0,6.26.05,9.39Z"/>
        <path class="cls-1" d="M362.64,74.99v-30.49c-3.87-2.39-7.74-4.72-11.61-7.11,3.87-2.33,7.74-4.72,11.61-7.11V-.16c3.13,0,6.26.05,9.39.05.05,10.18.11,20.42.16,30.65-3.82,2.28-7.64,4.56-11.45,6.84,3.82,2.28,7.64,4.61,11.45,6.89-.05,10.18-.11,20.42-.16,30.65-3.13,0-6.26,0-9.39.05Z"/>
        <path class="cls-1" d="M362.64,74.99v-30.49c-3.87-2.39-7.74-4.72-11.61-7.11,3.87-2.33,7.74-4.72,11.61-7.11V-.16c3.13,0,6.26.05,9.39.05.05,10.18.11,20.42.16,30.65-3.82,2.28-7.64,4.56-11.45,6.84,3.82,2.28,7.64,4.61,11.45,6.89-.05,10.18-.11,20.42-.16,30.65-3.13,0-6.26,0-9.39.05Z"/>
        <path class="cls-1" d="M282.33,65.44h30.49c2.39-3.87,4.72-7.74,7.11-11.61,2.33,3.87,4.72,7.74,7.11,11.61h30.44c0,3.13-.05,6.26-.05,9.39-10.18.05-20.42.11-30.65.16-2.28-3.82-4.56-7.64-6.84-11.45-2.28,3.82-4.61,7.64-6.89,11.45-10.18-.05-20.42-.11-30.65-.16,0-3.13,0-6.26-.05-9.39Z"/>
        <path class="cls-1" d="M413.78-.16v30.49c3.87,2.39,7.74,4.72,11.61,7.11-3.87,2.33-7.74,4.72-11.61,7.11v30.44c-3.13,0-6.26-.05-9.39-.05-.05-10.18-.11-20.42-.16-30.65,3.82-2.28,7.64-4.56,11.45-6.84-3.82-2.28-7.64-4.61-11.45-6.89.05-10.18.11-20.42.16-30.65,3.13,0,6.26,0,9.39-.05Z"/>
        <path class="cls-1" d="M392.62-.16v30.49c3.87,2.39,7.74,4.72,11.61,7.11-3.87,2.33-7.74,4.72-11.61,7.11v30.44c-3.13,0-6.26-.05-9.39-.05-.05-10.18-.11-20.42-.16-30.65,3.82-2.28,7.64-4.56,11.45-6.84-3.82-2.28-7.64-4.61-11.45-6.89.05-10.18.11-20.42.16-30.65,3.13,0,6.26,0,9.39-.05Z"/>
        <path class="cls-1" d="M493.32,25.8h-30.49c-2.39,3.87-4.72,7.74-7.11,11.61-2.33-3.87-4.72-7.74-7.11-11.61h-30.44c0-3.13.05-6.26.05-9.39,10.18-.05,20.42-.11,30.65-.16,2.28,3.82,4.56,7.64,6.84,11.45,2.28-3.82,4.61-7.64,6.89-11.45,10.18.05,20.42.11,30.65.16,0,3.13,0,6.26.05,9.39Z"/>
        <path class="cls-1" d="M498.49,74.99v-30.49c-3.87-2.39-7.74-4.72-11.61-7.11,3.87-2.33,7.74-4.72,11.61-7.11V-.16c3.13,0,6.26.05,9.39.05.05,10.18.11,20.42.16,30.65-3.82,2.28-7.64,4.56-11.45,6.84,3.82,2.28,7.64,4.61,11.45,6.89-.05,10.18-.11,20.42-.16,30.65-3.13,0-6.26,0-9.39.05Z"/>
        <path class="cls-1" d="M519.65,74.99v-30.49c-3.87-2.39-7.74-4.72-11.61-7.11,3.87-2.33,7.74-4.72,11.61-7.11V-.16c3.13,0,6.26.05,9.39.05.05,10.18.11,20.42.16,30.65-3.82,2.28-7.64,4.56-11.45,6.84,3.82,2.28,7.64,4.61,11.45,6.89-.05,10.18-.11,20.42-.16,30.65-3.13,0-6.26,0-9.39.05Z"/>
        <path class="cls-1" d="M418.17,49.03h30.49c2.39-3.87,4.72-7.74,7.11-11.61,2.33,3.87,4.72,7.74,7.11,11.61h30.44c0,3.13-.05,6.26-.05,9.39-10.18.05-20.42.11-30.65.16-2.28-3.82-4.56-7.64-6.84-11.45-2.28,3.82-4.61,7.64-6.89,11.45-10.18-.05-20.42-.11-30.65-.16,0-3.13,0-6.26-.05-9.39Z"/>
      </g>
      <g>
        <path class="cls-1" d="M549.68-.16v30.49c3.87,2.39,7.74,4.72,11.61,7.11-3.87,2.33-7.74,4.72-11.61,7.11v30.44c-3.13,0-6.26-.05-9.39-.05-.05-10.18-.11-20.42-.16-30.65,3.82-2.28,7.64-4.56,11.45-6.84-3.82-2.28-7.64-4.61-11.45-6.89.05-10.18.11-20.42.16-30.65,3.13,0,6.26,0,9.39-.05Z"/>
        <path class="cls-1" d="M629.22,9.39h-30.49c-2.39,3.87-4.72,7.74-7.11,11.61-2.33-3.87-4.72-7.74-7.11-11.61h-30.44c0-3.13.05-6.26.05-9.39,10.18-.05,20.42-.11,30.65-.16,2.28,3.82,4.56,7.64,6.84,11.45,2.28-3.82,4.61-7.64,6.89-11.45,10.18.05,20.42.11,30.65.16,0,3.13,0,6.26.05,9.39Z"/>
        <path class="cls-1" d="M634.39,74.99v-30.49c-3.87-2.39-7.74-4.72-11.61-7.11,3.87-2.33,7.74-4.72,11.61-7.11V-.16c3.13,0,6.26.05,9.39.05.05,10.18.11,20.42.16,30.65-3.82,2.28-7.64,4.56-11.45,6.84,3.82,2.28,7.64,4.61,11.45,6.89-.05,10.18-.11,20.42-.16,30.65-3.13,0-6.26,0-9.39.05Z"/>
        <path class="cls-1" d="M634.39,74.99v-30.49c-3.87-2.39-7.74-4.72-11.61-7.11,3.87-2.33,7.74-4.72,11.61-7.11V-.16c3.13,0,6.26.05,9.39.05.05,10.18.11,20.42.16,30.65-3.82,2.28-7.64,4.56-11.45,6.84,3.82,2.28,7.64,4.61,11.45,6.89-.05,10.18-.11,20.42-.16,30.65-3.13,0-6.26,0-9.39.05Z"/>
        <path class="cls-1" d="M554.07,65.44h30.49c2.39-3.87,4.72-7.74,7.11-11.61,2.33,3.87,4.72,7.74,7.11,11.61h30.44c0,3.13-.05,6.26-.05,9.39-10.18.05-20.42.11-30.65.16-2.28-3.82-4.56-7.64-6.84-11.45-2.28,3.82-4.61,7.64-6.89,11.45-10.18-.05-20.42-.11-30.65-.16,0-3.13,0-6.26-.05-9.39Z"/>
        <path class="cls-1" d="M685.53-.16v30.49c3.87,2.39,7.74,4.72,11.61,7.11-3.87,2.33-7.74,4.72-11.61,7.11v30.44c-3.13,0-6.26-.05-9.39-.05-.05-10.18-.11-20.42-.16-30.65,3.82-2.28,7.64-4.56,11.45-6.84-3.82-2.28-7.64-4.61-11.45-6.89.05-10.18.11-20.42.16-30.65,3.13,0,6.26,0,9.39-.05Z"/>
        <path class="cls-1" d="M664.37-.16v30.49c3.87,2.39,7.74,4.72,11.61,7.11-3.87,2.33-7.74,4.72-11.61,7.11v30.44c-3.13,0-6.26-.05-9.39-.05-.05-10.18-.11-20.42-.16-30.65,3.82-2.28,7.64-4.56,11.45-6.84-3.82-2.28-7.64-4.61-11.45-6.89.05-10.18.11-20.42.16-30.65,3.13,0,6.26,0,9.39-.05Z"/>
        <path class="cls-1" d="M765.07,25.8h-30.49c-2.39,3.87-4.72,7.74-7.11,11.61-2.33-3.87-4.72-7.74-7.11-11.61h-30.44c0-3.13.05-6.26.05-9.39,10.18-.05,20.42-.11,30.65-.16,2.28,3.82,4.56,7.64,6.84,11.45,2.28-3.82,4.61-7.64,6.89-11.45,10.18.05,20.42.11,30.65.16,0,3.13,0,6.26.05,9.39Z"/>
        <path class="cls-1" d="M770.23,74.99v-30.49c-3.87-2.39-7.74-4.72-11.61-7.11,3.87-2.33,7.74-4.72,11.61-7.11V-.16c3.13,0,6.26.05,9.39.05.05,10.18.11,20.42.16,30.65-3.82,2.28-7.64,4.56-11.45,6.84,3.82,2.28,7.64,4.61,11.45,6.89-.05,10.18-.11,20.42-.16,30.65-3.13,0-6.26,0-9.39.05Z"/>
        <path class="cls-1" d="M791.39,74.99v-30.49c-3.87-2.39-7.74-4.72-11.61-7.11,3.87-2.33,7.74-4.72,11.61-7.11V-.16c3.13,0,6.26.05,9.39.05.05,10.18.11,20.42.16,30.65-3.82,2.28-7.64,4.56-11.45,6.84,3.82,2.28,7.64,4.61,11.45,6.89-.05,10.18-.11,20.42-.16,30.65-3.13,0-6.26,0-9.39.05Z"/>
        <path class="cls-1" d="M689.92,49.03h30.49c2.39-3.87,4.72-7.74,7.11-11.61,2.33,3.87,4.72,7.74,7.11,11.61h30.44c0,3.13-.05,6.26-.05,9.39-10.18.05-20.42.11-30.65.16-2.28-3.82-4.56-7.64-6.84-11.45-2.28,3.82-4.61,7.64-6.89,11.45-10.18-.05-20.42-.11-30.65-.16,0-3.13,0-6.26-.05-9.39Z"/>
      </g>
      <g>
        <path class="cls-1" d="M821.02-.16v30.49c3.87,2.39,7.74,4.72,11.61,7.11-3.87,2.33-7.74,4.72-11.61,7.11v30.44c-3.13,0-6.26-.05-9.39-.05-.05-10.18-.11-20.42-.16-30.65,3.82-2.28,7.64-4.56,11.45-6.84-3.82-2.28-7.64-4.61-11.45-6.89.05-10.18.11-20.42.16-30.65,3.13,0,6.26,0,9.39-.05Z"/>
        <path class="cls-1" d="M900.56,9.39h-30.49c-2.39,3.87-4.72,7.74-7.11,11.61-2.33-3.87-4.72-7.74-7.11-11.61h-30.44c0-3.13.05-6.26.05-9.39,10.18-.05,20.42-.11,30.65-.16,2.28,3.82,4.56,7.64,6.84,11.45,2.28-3.82,4.61-7.64,6.89-11.45,10.18.05,20.42.11,30.65.16,0,3.13,0,6.26.05,9.39Z"/>
        <path class="cls-1" d="M905.73,74.99v-30.49c-3.87-2.39-7.74-4.72-11.61-7.11,3.87-2.33,7.74-4.72,11.61-7.11V-.16c3.13,0,6.26.05,9.39.05.05,10.18.11,20.42.16,30.65-3.82,2.28-7.64,4.56-11.45,6.84,3.82,2.28,7.64,4.61,11.45,6.89-.05,10.18-.11,20.42-.16,30.65-3.13,0-6.26,0-9.39.05Z"/>
        <path class="cls-1" d="M905.73,74.99v-30.49c-3.87-2.39-7.74-4.72-11.61-7.11,3.87-2.33,7.74-4.72,11.61-7.11V-.16c3.13,0,6.26.05,9.39.05.05,10.18.11,20.42.16,30.65-3.82,2.28-7.64,4.56-11.45,6.84,3.82,2.28,7.64,4.61,11.45,6.89-.05,10.18-.11,20.42-.16,30.65-3.13,0-6.26,0-9.39.05Z"/>
        <path class="cls-1" d="M825.41,65.44h30.49c2.39-3.87,4.72-7.74,7.11-11.61,2.33,3.87,4.72,7.74,7.11,11.61h30.44c0,3.13-.05,6.26-.05,9.39-10.18.05-20.42.11-30.65.16-2.28-3.82-4.56-7.64-6.84-11.45-2.28,3.82-4.61,7.64-6.89,11.45-10.18-.05-20.42-.11-30.65-.16,0-3.13,0-6.26-.05-9.39Z"/>
        <path class="cls-1" d="M956.87-.16v30.49c3.87,2.39,7.74,4.72,11.61,7.11-3.87,2.33-7.74,4.72-11.61,7.11v30.44c-3.13,0-6.26-.05-9.39-.05-.05-10.18-.11-20.42-.16-30.65,3.82-2.28,7.64-4.56,11.45-6.84-3.82-2.28-7.64-4.61-11.45-6.89.05-10.18.11-20.42.16-30.65,3.13,0,6.26,0,9.39-.05Z"/>
        <path class="cls-1" d="M935.71-.16v30.49c3.87,2.39,7.74,4.72,11.61,7.11-3.87,2.33-7.74,4.72-11.61,7.11v30.44c-3.13,0-6.26-.05-9.39-.05-.05-10.18-.11-20.42-.16-30.65,3.82-2.28,7.64-4.56,11.45-6.84-3.82-2.28-7.64-4.61-11.45-6.89.05-10.18.11-20.42.16-30.65,3.13,0,6.26,0,9.39-.05Z"/>
        <path class="cls-1" d="M1036.4,25.8h-30.49c-2.39,3.87-4.72,7.74-7.11,11.61-2.33-3.87-4.72-7.74-7.11-11.61h-30.44c0-3.13.05-6.26.05-9.39,10.18-.05,20.42-.11,30.65-.16,2.28,3.82,4.56,7.64,6.84,11.45,2.28-3.82,4.61-7.64,6.89-11.45,10.18.05,20.42.11,30.65.16,0,3.13,0,6.26.05,9.39Z"/>
        <path class="cls-1" d="M1041.57,74.99v-30.49c-3.87-2.39-7.74-4.72-11.61-7.11,3.87-2.33,7.74-4.72,11.61-7.11V-.16c3.13,0,6.26.05,9.39.05.05,10.18.11,20.42.16,30.65-3.82,2.28-7.64,4.56-11.45,6.84,3.82,2.28,7.64,4.61,11.45,6.89-.05,10.18-.11,20.42-.16,30.65-3.13,0-6.26,0-9.39.05Z"/>
        <path class="cls-1" d="M1062.73,74.99v-30.49c-3.87-2.39-7.74-4.72-11.61-7.11,3.87-2.33,7.74-4.72,11.61-7.11V-.16c3.13,0,6.26.05,9.39.05.05,10.18.11,20.42.16,30.65-3.82,2.28-7.64,4.56-11.45,6.84,3.82,2.28,7.64,4.61,11.45,6.89-.05,10.18-.11,20.42-.16,30.65-3.13,0-6.26,0-9.39.05Z"/>
        <path class="cls-1" d="M961.26,49.03h30.49c2.39-3.87,4.72-7.74,7.11-11.61,2.33,3.87,4.72,7.74,7.11,11.61h30.44c0,3.13-.05,6.26-.05,9.39-10.18.05-20.42.11-30.65.16-2.28-3.82-4.56-7.64-6.84-11.45-2.28,3.82-4.61,7.64-6.89,11.45-10.18-.05-20.42-.11-30.65-.16,0-3.13,0-6.26-.05-9.39Z"/>
      </g>
    </g>
    <g>
      <g>
        <path class="cls-1" d="M1092.8-.16v30.49c3.87,2.39,7.74,4.72,11.61,7.11-3.87,2.33-7.74,4.72-11.61,7.11v30.44c-3.13,0-6.26-.05-9.39-.05-.05-10.18-.11-20.42-.16-30.65,3.82-2.28,7.64-4.56,11.45-6.84-3.82-2.28-7.64-4.61-11.45-6.89.05-10.18.11-20.42.16-30.65,3.13,0,6.26,0,9.39-.05Z"/>
        <path class="cls-1" d="M1172.34,9.39h-30.49c-2.39,3.87-4.72,7.74-7.11,11.61-2.33-3.87-4.72-7.74-7.11-11.61h-30.44c0-3.13.05-6.26.05-9.39,10.18-.05,20.42-.11,30.65-.16,2.28,3.82,4.56,7.64,6.84,11.45,2.28-3.82,4.61-7.64,6.89-11.45,10.18.05,20.42.11,30.65.16,0,3.13,0,6.26.05,9.39Z"/>
        <path class="cls-1" d="M1177.51,74.99v-30.49c-3.87-2.39-7.74-4.72-11.61-7.11,3.87-2.33,7.74-4.72,11.61-7.11V-.16c3.13,0,6.26.05,9.39.05.05,10.18.11,20.42.16,30.65-3.82,2.28-7.64,4.56-11.45,6.84,3.82,2.28,7.64,4.61,11.45,6.89-.05,10.18-.11,20.42-.16,30.65-3.13,0-6.26,0-9.39.05Z"/>
        <path class="cls-1" d="M1177.51,74.99v-30.49c-3.87-2.39-7.74-4.72-11.61-7.11,3.87-2.33,7.74-4.72,11.61-7.11V-.16c3.13,0,6.26.05,9.39.05.05,10.18.11,20.42.16,30.65-3.82,2.28-7.64,4.56-11.45,6.84,3.82,2.28,7.64,4.61,11.45,6.89-.05,10.18-.11,20.42-.16,30.65-3.13,0-6.26,0-9.39.05Z"/>
        <path class="cls-1" d="M1097.19,65.44h30.49c2.39-3.87,4.72-7.74,7.11-11.61,2.33,3.87,4.72,7.74,7.11,11.61h30.44c0,3.13-.05,6.26-.05,9.39-10.18.05-20.42.11-30.65.16-2.28-3.82-4.56-7.64-6.84-11.45-2.28,3.82-4.61,7.64-6.89,11.45-10.18-.05-20.42-.11-30.65-.16,0-3.13,0-6.26-.05-9.39Z"/>
        <path class="cls-1" d="M1228.64-.16v30.49c3.87,2.39,7.74,4.72,11.61,7.11-3.87,2.33-7.74,4.72-11.61,7.11v30.44c-3.13,0-6.26-.05-9.39-.05-.05-10.18-.11-20.42-.16-30.65,3.82-2.28,7.64-4.56,11.45-6.84-3.82-2.28-7.64-4.61-11.45-6.89.05-10.18.11-20.42.16-30.65,3.13,0,6.26,0,9.39-.05Z"/>
        <path class="cls-1" d="M1207.48-.16v30.49c3.87,2.39,7.74,4.72,11.61,7.11-3.87,2.33-7.74,4.72-11.61,7.11v30.44c-3.13,0-6.26-.05-9.39-.05-.05-10.18-.11-20.42-.16-30.65,3.82-2.28,7.64-4.56,11.45-6.84-3.82-2.28-7.64-4.61-11.45-6.89.05-10.18.11-20.42.16-30.65,3.13,0,6.26,0,9.39-.05Z"/>
        <path class="cls-1" d="M1308.18,25.8h-30.49c-2.39,3.87-4.72,7.74-7.11,11.61-2.33-3.87-4.72-7.74-7.11-11.61h-30.44c0-3.13.05-6.26.05-9.39,10.18-.05,20.42-.11,30.65-.16,2.28,3.82,4.56,7.64,6.84,11.45,2.28-3.82,4.61-7.64,6.89-11.45,10.18.05,20.42.11,30.65.16,0,3.13,0,6.26.05,9.39Z"/>
        <path class="cls-1" d="M1313.35,74.99v-30.49c-3.87-2.39-7.74-4.72-11.61-7.11,3.87-2.33,7.74-4.72,11.61-7.11V-.16c3.13,0,6.26.05,9.39.05.05,10.18.11,20.42.16,30.65-3.82,2.28-7.64,4.56-11.45,6.84,3.82,2.28,7.64,4.61,11.45,6.89-.05,10.18-.11,20.42-.16,30.65-3.13,0-6.26,0-9.39.05Z"/>
        <path class="cls-1" d="M1334.51,74.99v-30.49c-3.87-2.39-7.74-4.72-11.61-7.11,3.87-2.33,7.74-4.72,11.61-7.11V-.16c3.13,0,6.26.05,9.39.05.05,10.18.11,20.42.16,30.65-3.82,2.28-7.64,4.56-11.45,6.84,3.82,2.28,7.64,4.61,11.45,6.89-.05,10.18-.11,20.42-.16,30.65-3.13,0-6.26,0-9.39.05Z"/>
        <path class="cls-1" d="M1233.03,49.03h30.49c2.39-3.87,4.72-7.74,7.11-11.61,2.33,3.87,4.72,7.74,7.11,11.61h30.44c0,3.13-.05,6.26-.05,9.39-10.18.05-20.42.11-30.65.16-2.28-3.82-4.56-7.64-6.84-11.45-2.28,3.82-4.61,7.64-6.89,11.45-10.18-.05-20.42-.11-30.65-.16,0-3.13,0-6.26-.05-9.39Z"/>
      </g>
      <g>
        <path class="cls-1" d="M1364.14-.16v30.49c3.87,2.39,7.74,4.72,11.61,7.11-3.87,2.33-7.74,4.72-11.61,7.11v30.44c-3.13,0-6.26-.05-9.39-.05-.05-10.18-.11-20.42-.16-30.65,3.82-2.28,7.64-4.56,11.45-6.84-3.82-2.28-7.64-4.61-11.45-6.89.05-10.18.11-20.42.16-30.65,3.13,0,6.26,0,9.39-.05Z"/>
        <path class="cls-1" d="M1443.68,9.39h-30.49c-2.39,3.87-4.72,7.74-7.11,11.61-2.33-3.87-4.72-7.74-7.11-11.61h-30.44c0-3.13.05-6.26.05-9.39,10.18-.05,20.42-.11,30.65-.16,2.28,3.82,4.56,7.64,6.84,11.45,2.28-3.82,4.61-7.64,6.89-11.45,10.18.05,20.42.11,30.65.16,0,3.13,0,6.26.05,9.39Z"/>
        <path class="cls-1" d="M1448.85,74.99v-30.49c-3.87-2.39-7.74-4.72-11.61-7.11,3.87-2.33,7.74-4.72,11.61-7.11V-.16c3.13,0,6.26.05,9.39.05.05,10.18.11,20.42.16,30.65-3.82,2.28-7.64,4.56-11.45,6.84,3.82,2.28,7.64,4.61,11.45,6.89-.05,10.18-.11,20.42-.16,30.65-3.13,0-6.26,0-9.39.05Z"/>
        <path class="cls-1" d="M1448.85,74.99v-30.49c-3.87-2.39-7.74-4.72-11.61-7.11,3.87-2.33,7.74-4.72,11.61-7.11V-.16c3.13,0,6.26.05,9.39.05.05,10.18.11,20.42.16,30.65-3.82,2.28-7.64,4.56-11.45,6.84,3.82,2.28,7.64,4.61,11.45,6.89-.05,10.18-.11,20.42-.16,30.65-3.13,0-6.26,0-9.39.05Z"/>
        <path class="cls-1" d="M1368.53,65.44h30.49c2.39-3.87,4.72-7.74,7.11-11.61,2.33,3.87,4.72,7.74,7.11,11.61h30.44c0,3.13-.05,6.26-.05,9.39-10.18.05-20.42.11-30.65.16-2.28-3.82-4.56-7.64-6.84-11.45-2.28,3.82-4.61,7.64-6.89,11.45-10.18-.05-20.42-.11-30.65-.16,0-3.13,0-6.26-.05-9.39Z"/>
        <path class="cls-1" d="M1499.98-.16v30.49c3.87,2.39,7.74,4.72,11.61,7.11-3.87,2.33-7.74,4.72-11.61,7.11v30.44c-3.13,0-6.26-.05-9.39-.05-.05-10.18-.11-20.42-.16-30.65,3.82-2.28,7.64-4.56,11.45-6.84-3.82-2.28-7.64-4.61-11.45-6.89.05-10.18.11-20.42.16-30.65,3.13,0,6.26,0,9.39-.05Z"/>
        <path class="cls-1" d="M1478.82-.16v30.49c3.87,2.39,7.74,4.72,11.61,7.11-3.87,2.33-7.74,4.72-11.61,7.11v30.44c-3.13,0-6.26-.05-9.39-.05-.05-10.18-.11-20.42-.16-30.65,3.82-2.28,7.64-4.56,11.45-6.84-3.82-2.28-7.64-4.61-11.45-6.89.05-10.18.11-20.42.16-30.65,3.13,0,6.26,0,9.39-.05Z"/>
        <path class="cls-1" d="M1579.52,25.8h-30.49c-2.39,3.87-4.72,7.74-7.11,11.61-2.33-3.87-4.72-7.74-7.11-11.61h-30.44c0-3.13.05-6.26.05-9.39,10.18-.05,20.42-.11,30.65-.16,2.28,3.82,4.56,7.64,6.84,11.45,2.28-3.82,4.61-7.64,6.89-11.45,10.18.05,20.42.11,30.65.16,0,3.13,0,6.26.05,9.39Z"/>
        <path class="cls-1" d="M1584.69,74.99v-30.49c-3.87-2.39-7.74-4.72-11.61-7.11,3.87-2.33,7.74-4.72,11.61-7.11V-.16c3.13,0,6.26.05,9.39.05.05,10.18.11,20.42.16,30.65-3.82,2.28-7.64,4.56-11.45,6.84,3.82,2.28,7.64,4.61,11.45,6.89-.05,10.18-.11,20.42-.16,30.65-3.13,0-6.26,0-9.39.05Z"/>
        <path class="cls-1" d="M1605.85,74.99v-30.49c-3.87-2.39-7.74-4.72-11.61-7.11,3.87-2.33,7.74-4.72,11.61-7.11V-.16c3.13,0,6.26.05,9.39.05.05,10.18.11,20.42.16,30.65-3.82,2.28-7.64,4.56-11.45,6.84,3.82,2.28,7.64,4.61,11.45,6.89-.05,10.18-.11,20.42-.16,30.65-3.13,0-6.26,0-9.39.05Z"/>
        <path class="cls-1" d="M1504.37,49.03h30.49c2.39-3.87,4.72-7.74,7.11-11.61,2.33,3.87,4.72,7.74,7.11,11.61h30.44c0,3.13-.05,6.26-.05,9.39-10.18.05-20.42.11-30.65.16-2.28-3.82-4.56-7.64-6.84-11.45-2.28,3.82-4.61,7.64-6.89,11.45-10.18-.05-20.42-.11-30.65-.16,0-3.13,0-6.26-.05-9.39Z"/>
      </g>
      <g>
        <path class="cls-1" d="M1635.89-.16v30.49c3.87,2.39,7.74,4.72,11.61,7.11-3.87,2.33-7.74,4.72-11.61,7.11v30.44c-3.13,0-6.26-.05-9.39-.05-.05-10.18-.11-20.42-.16-30.65,3.82-2.28,7.64-4.56,11.45-6.84-3.82-2.28-7.64-4.61-11.45-6.89.05-10.18.11-20.42.16-30.65,3.13,0,6.26,0,9.39-.05Z"/>
        <path class="cls-1" d="M1715.43,9.39h-30.49c-2.39,3.87-4.72,7.74-7.11,11.61-2.33-3.87-4.72-7.74-7.11-11.61h-30.44c0-3.13.05-6.26.05-9.39,10.18-.05,20.42-.11,30.65-.16,2.28,3.82,4.56,7.64,6.84,11.45,2.28-3.82,4.61-7.64,6.89-11.45,10.18.05,20.42.11,30.65.16,0,3.13,0,6.26.05,9.39Z"/>
        <path class="cls-1" d="M1720.59,74.99v-30.49c-3.87-2.39-7.74-4.72-11.61-7.11,3.87-2.33,7.74-4.72,11.61-7.11V-.16c3.13,0,6.26.05,9.39.05.05,10.18.11,20.42.16,30.65-3.82,2.28-7.64,4.56-11.45,6.84,3.82,2.28,7.64,4.61,11.45,6.89-.05,10.18-.11,20.42-.16,30.65-3.13,0-6.26,0-9.39.05Z"/>
        <path class="cls-1" d="M1720.59,74.99v-30.49c-3.87-2.39-7.74-4.72-11.61-7.11,3.87-2.33,7.74-4.72,11.61-7.11V-.16c3.13,0,6.26.05,9.39.05.05,10.18.11,20.42.16,30.65-3.82,2.28-7.64,4.56-11.45,6.84,3.82,2.28,7.64,4.61,11.45,6.89-.05,10.18-.11,20.42-.16,30.65-3.13,0-6.26,0-9.39.05Z"/>
        <path class="cls-1" d="M1640.28,65.44h30.49c2.39-3.87,4.72-7.74,7.11-11.61,2.33,3.87,4.72,7.74,7.11,11.61h30.44c0,3.13-.05,6.26-.05,9.39-10.18.05-20.42.11-30.65.16-2.28-3.82-4.56-7.64-6.84-11.45-2.28,3.82-4.61,7.64-6.89,11.45-10.18-.05-20.42-.11-30.65-.16,0-3.13,0-6.26-.05-9.39Z"/>
        <path class="cls-1" d="M1771.73-.16v30.49c3.87,2.39,7.74,4.72,11.61,7.11-3.87,2.33-7.74,4.72-11.61,7.11v30.44c-3.13,0-6.26-.05-9.39-.05-.05-10.18-.11-20.42-.16-30.65,3.82-2.28,7.64-4.56,11.45-6.84-3.82-2.28-7.64-4.61-11.45-6.89.05-10.18.11-20.42.16-30.65,3.13,0,6.26,0,9.39-.05Z"/>
        <path class="cls-1" d="M1750.57-.16v30.49c3.87,2.39,7.74,4.72,11.61,7.11-3.87,2.33-7.74,4.72-11.61,7.11v30.44c-3.13,0-6.26-.05-9.39-.05-.05-10.18-.11-20.42-.16-30.65,3.82-2.28,7.64-4.56,11.45-6.84-3.82-2.28-7.64-4.61-11.45-6.89.05-10.18.11-20.42.16-30.65,3.13,0,6.26,0,9.39-.05Z"/>
        <path class="cls-1" d="M1851.27,25.8h-30.49c-2.39,3.87-4.72,7.74-7.11,11.61-2.33-3.87-4.72-7.74-7.11-11.61h-30.44c0-3.13.05-6.26.05-9.39,10.18-.05,20.42-.11,30.65-.16,2.28,3.82,4.56,7.64,6.84,11.45,2.28-3.82,4.61-7.64,6.89-11.45,10.18.05,20.42.11,30.65.16,0,3.13,0,6.26.05,9.39Z"/>
        <path class="cls-1" d="M1856.44,74.99v-30.49c-3.87-2.39-7.74-4.72-11.61-7.11,3.87-2.33,7.74-4.72,11.61-7.11V-.16c3.13,0,6.26.05,9.39.05.05,10.18.11,20.42.16,30.65-3.82,2.28-7.64,4.56-11.45,6.84,3.82,2.28,7.64,4.61,11.45,6.89-.05,10.18-.11,20.42-.16,30.65-3.13,0-6.26,0-9.39.05Z"/>
        <path class="cls-1" d="M1877.6,74.99v-30.49c-3.87-2.39-7.74-4.72-11.61-7.11,3.87-2.33,7.74-4.72,11.61-7.11V-.16c3.13,0,6.26.05,9.39.05.05,10.18.11,20.42.16,30.65-3.82,2.28-7.64,4.56-11.45,6.84,3.82,2.28,7.64,4.61,11.45,6.89-.05,10.18-.11,20.42-.16,30.65-3.13,0-6.26,0-9.39.05Z"/>
        <path class="cls-1" d="M1776.12,49.03h30.49c2.39-3.87,4.72-7.74,7.11-11.61,2.33,3.87,4.72,7.74,7.11,11.61h30.44c0,3.13-.05,6.26-.05,9.39-10.18.05-20.42.11-30.65.16-2.28-3.82-4.56-7.64-6.84-11.45-2.28,3.82-4.61,7.64-6.89,11.45-10.18-.05-20.42-.11-30.65-.16,0-3.13,0-6.26-.05-9.39Z"/>
      </g>
      <g>
        <path class="cls-1" d="M1907.23-.16v30.49c3.87,2.39,7.74,4.72,11.61,7.11-3.87,2.33-7.74,4.72-11.61,7.11v30.44c-3.13,0-6.26-.05-9.39-.05-.05-10.18-.11-20.42-.16-30.65,3.82-2.28,7.64-4.56,11.45-6.84-3.82-2.28-7.64-4.61-11.45-6.89.05-10.18.11-20.42.16-30.65,3.13,0,6.26,0,9.39-.05Z"/>
        <path class="cls-1" d="M1986.76,9.39h-30.49c-2.39,3.87-4.72,7.74-7.11,11.61-2.33-3.87-4.72-7.74-7.11-11.61h-30.44c0-3.13.05-6.26.05-9.39,10.18-.05,20.42-.11,30.65-.16,2.28,3.82,4.56,7.64,6.84,11.45,2.28-3.82,4.61-7.64,6.89-11.45,10.18.05,20.42.11,30.65.16,0,3.13,0,6.26.05,9.39Z"/>
        <path class="cls-1" d="M1991.93,74.99v-30.49c-3.87-2.39-7.74-4.72-11.61-7.11,3.87-2.33,7.74-4.72,11.61-7.11V-.16c3.13,0,6.26.05,9.39.05.05,10.18.11,20.42.16,30.65-3.82,2.28-7.64,4.56-11.45,6.84,3.82,2.28,7.64,4.61,11.45,6.89-.05,10.18-.11,20.42-.16,30.65-3.13,0-6.26,0-9.39.05Z"/>
        <path class="cls-1" d="M1991.93,74.99v-30.49c-3.87-2.39-7.74-4.72-11.61-7.11,3.87-2.33,7.74-4.72,11.61-7.11V-.16c3.13,0,6.26.05,9.39.05.05,10.18.11,20.42.16,30.65-3.82,2.28-7.64,4.56-11.45,6.84,3.82,2.28,7.64,4.61,11.45,6.89-.05,10.18-.11,20.42-.16,30.65-3.13,0-6.26,0-9.39.05Z"/>
        <path class="cls-1" d="M1911.62,65.44h30.49c2.39-3.87,4.72-7.74,7.11-11.61,2.33,3.87,4.72,7.74,7.11,11.61h30.44c0,3.13-.05,6.26-.05,9.39-10.18.05-20.42.11-30.65.16-2.28-3.82-4.56-7.64-6.84-11.45-2.28,3.82-4.61,7.64-6.89,11.45-10.18-.05-20.42-.11-30.65-.16,0-3.13,0-6.26-.05-9.39Z"/>
        <path class="cls-1" d="M2043.07-.16v30.49c3.87,2.39,7.74,4.72,11.61,7.11-3.87,2.33-7.74,4.72-11.61,7.11v30.44c-3.13,0-6.26-.05-9.39-.05-.05-10.18-.11-20.42-.16-30.65,3.82-2.28,7.64-4.56,11.45-6.84-3.82-2.28-7.64-4.61-11.45-6.89.05-10.18.11-20.42.16-30.65,3.13,0,6.26,0,9.39-.05Z"/>
        <path class="cls-1" d="M2021.91-.16v30.49c3.87,2.39,7.74,4.72,11.61,7.11-3.87,2.33-7.74,4.72-11.61,7.11v30.44c-3.13,0-6.26-.05-9.39-.05-.05-10.18-.11-20.42-.16-30.65,3.82-2.28,7.64-4.56,11.45-6.84-3.82-2.28-7.64-4.61-11.45-6.89.05-10.18.11-20.42.16-30.65,3.13,0,6.26,0,9.39-.05Z"/>
        <path class="cls-1" d="M2122.61,25.8h-30.49c-2.39,3.87-4.72,7.74-7.11,11.61-2.33-3.87-4.72-7.74-7.11-11.61h-30.44c0-3.13.05-6.26.05-9.39,10.18-.05,20.42-.11,30.65-.16,2.28,3.82,4.56,7.64,6.84,11.45,2.28-3.82,4.61-7.64,6.89-11.45,10.18.05,20.42.11,30.65.16,0,3.13,0,6.26.05,9.39Z"/>
        <path class="cls-1" d="M2127.78,74.99v-30.49c-3.87-2.39-7.74-4.72-11.61-7.11,3.87-2.33,7.74-4.72,11.61-7.11V-.16c3.13,0,6.26.05,9.39.05.05,10.18.11,20.42.16,30.65-3.82,2.28-7.64,4.56-11.45,6.84,3.82,2.28,7.64,4.61,11.45,6.89-.05,10.18-.11,20.42-.16,30.65-3.13,0-6.26,0-9.39.05Z"/>
        <path class="cls-1" d="M2148.94,74.99v-30.49c-3.87-2.39-7.74-4.72-11.61-7.11,3.87-2.33,7.74-4.72,11.61-7.11V-.16c3.13,0,6.26.05,9.39.05.05,10.18.11,20.42.16,30.65-3.82,2.28-7.64,4.56-11.45,6.84,3.82,2.28,7.64,4.61,11.45,6.89-.05,10.18-.11,20.42-.16,30.65-3.13,0-6.26,0-9.39.05Z"/>
        <path class="cls-1" d="M2047.46,49.03h30.49c2.39-3.87,4.72-7.74,7.11-11.61,2.33,3.87,4.72,7.74,7.11,11.61h30.44c0,3.13-.05,6.26-.05,9.39-10.18.05-20.42.11-30.65.16-2.28-3.82-4.56-7.64-6.84-11.45-2.28,3.82-4.61,7.64-6.89,11.45-10.18-.05-20.42-.11-30.65-.16,0-3.13,0-6.26-.05-9.39Z"/>
      </g>
    </g>
  </g>
  <g>
    <g>
      <g>
        <path class="cls-1" d="M2148.94,190.23v-30.49c-3.87-2.39-7.74-4.72-11.61-7.11,3.87-2.33,7.74-4.72,11.61-7.11v-30.44c3.13,0,6.26.05,9.39.05.05,10.18.11,20.42.16,30.65-3.82,2.28-7.64,4.56-11.45,6.84,3.82,2.28,7.64,4.61,11.45,6.89-.05,10.18-.11,20.42-.16,30.65-3.13,0-6.26,0-9.39.05Z"/>
        <path class="cls-1" d="M2069.4,180.68h30.49c2.39-3.87,4.72-7.74,7.11-11.61,2.33,3.87,4.72,7.74,7.11,11.61h30.44c0,3.13-.05,6.26-.05,9.39-10.18.05-20.42.11-30.65.16-2.28-3.82-4.56-7.64-6.84-11.45-2.28,3.82-4.61,7.64-6.89,11.45-10.18-.05-20.42-.11-30.65-.16,0-3.13,0-6.26-.05-9.39Z"/>
        <path class="cls-1" d="M2064.23,115.08v30.49c3.87,2.39,7.74,4.72,11.61,7.11-3.87,2.33-7.74,4.72-11.61,7.11v30.44c-3.13,0-6.26-.05-9.39-.05-.05-10.18-.11-20.42-.16-30.65,3.82-2.28,7.64-4.56,11.45-6.84-3.82-2.28-7.64-4.61-11.45-6.89.05-10.18.11-20.42.16-30.65,3.13,0,6.26,0,9.39-.05Z"/>
        <path class="cls-1" d="M2064.23,115.08v30.49c3.87,2.39,7.74,4.72,11.61,7.11-3.87,2.33-7.74,4.72-11.61,7.11v30.44c-3.13,0-6.26-.05-9.39-.05-.05-10.18-.11-20.42-.16-30.65,3.82-2.28,7.64-4.56,11.45-6.84-3.82-2.28-7.64-4.61-11.45-6.89.05-10.18.11-20.42.16-30.65,3.13,0,6.26,0,9.39-.05Z"/>
        <path class="cls-1" d="M2144.55,124.63h-30.49c-2.39,3.87-4.72,7.74-7.11,11.61-2.33-3.87-4.72-7.74-7.11-11.61h-30.44c0-3.13.05-6.26.05-9.39,10.18-.05,20.42-.11,30.65-.16,2.28,3.82,4.56,7.64,6.84,11.45,2.28-3.82,4.61-7.64,6.89-11.45,10.18.05,20.42.11,30.65.16,0,3.13,0,6.26.05,9.39Z"/>
        <path class="cls-1" d="M2013.09,190.23v-30.49c-3.87-2.39-7.74-4.72-11.61-7.11,3.87-2.33,7.74-4.72,11.61-7.11v-30.44c3.13,0,6.26.05,9.39.05.05,10.18.11,20.42.16,30.65-3.82,2.28-7.64,4.56-11.45,6.84,3.82,2.28,7.64,4.61,11.45,6.89-.05,10.18-.11,20.42-.16,30.65-3.13,0-6.26,0-9.39.05Z"/>
        <path class="cls-1" d="M2034.25,190.23v-30.49c-3.87-2.39-7.74-4.72-11.61-7.11,3.87-2.33,7.74-4.72,11.61-7.11v-30.44c3.13,0,6.26.05,9.39.05.05,10.18.11,20.42.16,30.65-3.82,2.28-7.64,4.56-11.45,6.84,3.82,2.28,7.64,4.61,11.45,6.89-.05,10.18-.11,20.42-.16,30.65-3.13,0-6.26,0-9.39.05Z"/>
        <path class="cls-1" d="M1933.56,164.27h30.49c2.39-3.87,4.72-7.74,7.11-11.61,2.33,3.87,4.72,7.74,7.11,11.61h30.44c0,3.13-.05,6.26-.05,9.39-10.18.05-20.42.11-30.65.16-2.28-3.82-4.56-7.64-6.84-11.45-2.28,3.82-4.61,7.64-6.89,11.45-10.18-.05-20.42-.11-30.65-.16,0-3.13,0-6.26-.05-9.39Z"/>
        <path class="cls-1" d="M1928.39,115.08v30.49c3.87,2.39,7.74,4.72,11.61,7.11-3.87,2.33-7.74,4.72-11.61,7.11v30.44c-3.13,0-6.26-.05-9.39-.05-.05-10.18-.11-20.42-.16-30.65,3.82-2.28,7.64-4.56,11.45-6.84-3.82-2.28-7.64-4.61-11.45-6.89.05-10.18.11-20.42.16-30.65,3.13,0,6.26,0,9.39-.05Z"/>
        <path class="cls-1" d="M1907.23,115.08v30.49c3.87,2.39,7.74,4.72,11.61,7.11-3.87,2.33-7.74,4.72-11.61,7.11v30.44c-3.13,0-6.26-.05-9.39-.05-.05-10.18-.11-20.42-.16-30.65,3.82-2.28,7.64-4.56,11.45-6.84-3.82-2.28-7.64-4.61-11.45-6.89.05-10.18.11-20.42.16-30.65,3.13,0,6.26,0,9.39-.05Z"/>
        <path class="cls-1" d="M2008.7,141.04h-30.49c-2.39,3.87-4.72,7.74-7.11,11.61-2.33-3.87-4.72-7.74-7.11-11.61h-30.44c0-3.13.05-6.26.05-9.39,10.18-.05,20.42-.11,30.65-.16,2.28,3.82,4.56,7.64,6.84,11.45,2.28-3.82,4.61-7.64,6.89-11.45,10.18.05,20.42.11,30.65.16,0,3.13,0,6.26.05,9.39Z"/>
      </g>
      <g>
        <path class="cls-1" d="M1877.6,190.23v-30.49c-3.87-2.39-7.74-4.72-11.61-7.11,3.87-2.33,7.74-4.72,11.61-7.11v-30.44c3.13,0,6.26.05,9.39.05.05,10.18.11,20.42.16,30.65-3.82,2.28-7.64,4.56-11.45,6.84,3.82,2.28,7.64,4.61,11.45,6.89-.05,10.18-.11,20.42-.16,30.65-3.13,0-6.26,0-9.39.05Z"/>
        <path class="cls-1" d="M1798.06,180.68h30.49c2.39-3.87,4.72-7.74,7.11-11.61,2.33,3.87,4.72,7.74,7.11,11.61h30.44c0,3.13-.05,6.26-.05,9.39-10.18.05-20.42.11-30.65.16-2.28-3.82-4.56-7.64-6.84-11.45-2.28,3.82-4.61,7.64-6.89,11.45-10.18-.05-20.42-.11-30.65-.16,0-3.13,0-6.26-.05-9.39Z"/>
        <path class="cls-1" d="M1792.89,115.08v30.49c3.87,2.39,7.74,4.72,11.61,7.11-3.87,2.33-7.74,4.72-11.61,7.11v30.44c-3.13,0-6.26-.05-9.39-.05-.05-10.18-.11-20.42-.16-30.65,3.82-2.28,7.64-4.56,11.45-6.84-3.82-2.28-7.64-4.61-11.45-6.89.05-10.18.11-20.42.16-30.65,3.13,0,6.26,0,9.39-.05Z"/>
        <path class="cls-1" d="M1792.89,115.08v30.49c3.87,2.39,7.74,4.72,11.61,7.11-3.87,2.33-7.74,4.72-11.61,7.11v30.44c-3.13,0-6.26-.05-9.39-.05-.05-10.18-.11-20.42-.16-30.65,3.82-2.28,7.64-4.56,11.45-6.84-3.82-2.28-7.64-4.61-11.45-6.89.05-10.18.11-20.42.16-30.65,3.13,0,6.26,0,9.39-.05Z"/>
        <path class="cls-1" d="M1873.21,124.63h-30.49c-2.39,3.87-4.72,7.74-7.11,11.61-2.33-3.87-4.72-7.74-7.11-11.61h-30.44c0-3.13.05-6.26.05-9.39,10.18-.05,20.42-.11,30.65-.16,2.28,3.82,4.56,7.64,6.84,11.45,2.28-3.82,4.61-7.64,6.89-11.45,10.18.05,20.42.11,30.65.16,0,3.13,0,6.26.05,9.39Z"/>
        <path class="cls-1" d="M1741.75,190.23v-30.49c-3.87-2.39-7.74-4.72-11.61-7.11,3.87-2.33,7.74-4.72,11.61-7.11v-30.44c3.13,0,6.26.05,9.39.05.05,10.18.11,20.42.16,30.65-3.82,2.28-7.64,4.56-11.45,6.84,3.82,2.28,7.64,4.61,11.45,6.89-.05,10.18-.11,20.42-.16,30.65-3.13,0-6.26,0-9.39.05Z"/>
        <path class="cls-1" d="M1762.91,190.23v-30.49c-3.87-2.39-7.74-4.72-11.61-7.11,3.87-2.33,7.74-4.72,11.61-7.11v-30.44c3.13,0,6.26.05,9.39.05.05,10.18.11,20.42.16,30.65-3.82,2.28-7.64,4.56-11.45,6.84,3.82,2.28,7.64,4.61,11.45,6.89-.05,10.18-.11,20.42-.16,30.65-3.13,0-6.26,0-9.39.05Z"/>
        <path class="cls-1" d="M1662.22,164.27h30.49c2.39-3.87,4.72-7.74,7.11-11.61,2.33,3.87,4.72,7.74,7.11,11.61h30.44c0,3.13-.05,6.26-.05,9.39-10.18.05-20.42.11-30.65.16-2.28-3.82-4.56-7.64-6.84-11.45-2.28,3.82-4.61,7.64-6.89,11.45-10.18-.05-20.42-.11-30.65-.16,0-3.13,0-6.26-.05-9.39Z"/>
        <path class="cls-1" d="M1657.05,115.08v30.49c3.87,2.39,7.74,4.72,11.61,7.11-3.87,2.33-7.74,4.72-11.61,7.11v30.44c-3.13,0-6.26-.05-9.39-.05-.05-10.18-.11-20.42-.16-30.65,3.82-2.28,7.64-4.56,11.45-6.84-3.82-2.28-7.64-4.61-11.45-6.89.05-10.18.11-20.42.16-30.65,3.13,0,6.26,0,9.39-.05Z"/>
        <path class="cls-1" d="M1635.89,115.08v30.49c3.87,2.39,7.74,4.72,11.61,7.11-3.87,2.33-7.74,4.72-11.61,7.11v30.44c-3.13,0-6.26-.05-9.39-.05-.05-10.18-.11-20.42-.16-30.65,3.82-2.28,7.64-4.56,11.45-6.84-3.82-2.28-7.64-4.61-11.45-6.89.05-10.18.11-20.42.16-30.65,3.13,0,6.26,0,9.39-.05Z"/>
        <path class="cls-1" d="M1737.36,141.04h-30.49c-2.39,3.87-4.72,7.74-7.11,11.61-2.33-3.87-4.72-7.74-7.11-11.61h-30.44c0-3.13.05-6.26.05-9.39,10.18-.05,20.42-.11,30.65-.16,2.28,3.82,4.56,7.64,6.84,11.45,2.28-3.82,4.61-7.64,6.89-11.45,10.18.05,20.42.11,30.65.16,0,3.13,0,6.26.05,9.39Z"/>
      </g>
      <g>
        <path class="cls-1" d="M1605.85,190.23v-30.49c-3.87-2.39-7.74-4.72-11.61-7.11,3.87-2.33,7.74-4.72,11.61-7.11v-30.44c3.13,0,6.26.05,9.39.05.05,10.18.11,20.42.16,30.65-3.82,2.28-7.64,4.56-11.45,6.84,3.82,2.28,7.64,4.61,11.45,6.89-.05,10.18-.11,20.42-.16,30.65-3.13,0-6.26,0-9.39.05Z"/>
        <path class="cls-1" d="M1526.31,180.68h30.49c2.39-3.87,4.72-7.74,7.11-11.61,2.33,3.87,4.72,7.74,7.11,11.61h30.44c0,3.13-.05,6.26-.05,9.39-10.18.05-20.42.11-30.65.16-2.28-3.82-4.56-7.64-6.84-11.45-2.28,3.82-4.61,7.64-6.89,11.45-10.18-.05-20.42-.11-30.65-.16,0-3.13,0-6.26-.05-9.39Z"/>
        <path class="cls-1" d="M1521.14,115.08v30.49c3.87,2.39,7.74,4.72,11.61,7.11-3.87,2.33-7.74,4.72-11.61,7.11v30.44c-3.13,0-6.26-.05-9.39-.05-.05-10.18-.11-20.42-.16-30.65,3.82-2.28,7.64-4.56,11.45-6.84-3.82-2.28-7.64-4.61-11.45-6.89.05-10.18.11-20.42.16-30.65,3.13,0,6.26,0,9.39-.05Z"/>
        <path class="cls-1" d="M1521.14,115.08v30.49c3.87,2.39,7.74,4.72,11.61,7.11-3.87,2.33-7.74,4.72-11.61,7.11v30.44c-3.13,0-6.26-.05-9.39-.05-.05-10.18-.11-20.42-.16-30.65,3.82-2.28,7.64-4.56,11.45-6.84-3.82-2.28-7.64-4.61-11.45-6.89.05-10.18.11-20.42.16-30.65,3.13,0,6.26,0,9.39-.05Z"/>
        <path class="cls-1" d="M1601.46,124.63h-30.49c-2.39,3.87-4.72,7.74-7.11,11.61-2.33-3.87-4.72-7.74-7.11-11.61h-30.44c0-3.13.05-6.26.05-9.39,10.18-.05,20.42-.11,30.65-.16,2.28,3.82,4.56,7.64,6.84,11.45,2.28-3.82,4.61-7.64,6.89-11.45,10.18.05,20.42.11,30.65.16,0,3.13,0,6.26.05,9.39Z"/>
        <path class="cls-1" d="M1470.01,190.23v-30.49c-3.87-2.39-7.74-4.72-11.61-7.11,3.87-2.33,7.74-4.72,11.61-7.11v-30.44c3.13,0,6.26.05,9.39.05.05,10.18.11,20.42.16,30.65-3.82,2.28-7.64,4.56-11.45,6.84,3.82,2.28,7.64,4.61,11.45,6.89-.05,10.18-.11,20.42-.16,30.65-3.13,0-6.26,0-9.39.05Z"/>
        <path class="cls-1" d="M1491.17,190.23v-30.49c-3.87-2.39-7.74-4.72-11.61-7.11,3.87-2.33,7.74-4.72,11.61-7.11v-30.44c3.13,0,6.26.05,9.39.05.05,10.18.11,20.42.16,30.65-3.82,2.28-7.64,4.56-11.45,6.84,3.82,2.28,7.64,4.61,11.45,6.89-.05,10.18-.11,20.42-.16,30.65-3.13,0-6.26,0-9.39.05Z"/>
        <path class="cls-1" d="M1390.47,164.27h30.49c2.39-3.87,4.72-7.74,7.11-11.61,2.33,3.87,4.72,7.74,7.11,11.61h30.44c0,3.13-.05,6.26-.05,9.39-10.18.05-20.42.11-30.65.16-2.28-3.82-4.56-7.64-6.84-11.45-2.28,3.82-4.61,7.64-6.89,11.45-10.18-.05-20.42-.11-30.65-.16,0-3.13,0-6.26-.05-9.39Z"/>
        <path class="cls-1" d="M1385.3,115.08v30.49c3.87,2.39,7.74,4.72,11.61,7.11-3.87,2.33-7.74,4.72-11.61,7.11v30.44c-3.13,0-6.26-.05-9.39-.05-.05-10.18-.11-20.42-.16-30.65,3.82-2.28,7.64-4.56,11.45-6.84-3.82-2.28-7.64-4.61-11.45-6.89.05-10.18.11-20.42.16-30.65,3.13,0,6.26,0,9.39-.05Z"/>
        <path class="cls-1" d="M1364.14,115.08v30.49c3.87,2.39,7.74,4.72,11.61,7.11-3.87,2.33-7.74,4.72-11.61,7.11v30.44c-3.13,0-6.26-.05-9.39-.05-.05-10.18-.11-20.42-.16-30.65,3.82-2.28,7.64-4.56,11.45-6.84-3.82-2.28-7.64-4.61-11.45-6.89.05-10.18.11-20.42.16-30.65,3.13,0,6.26,0,9.39-.05Z"/>
        <path class="cls-1" d="M1465.62,141.04h-30.49c-2.39,3.87-4.72,7.74-7.11,11.61-2.33-3.87-4.72-7.74-7.11-11.61h-30.44c0-3.13.05-6.26.05-9.39,10.18-.05,20.42-.11,30.65-.16,2.28,3.82,4.56,7.64,6.84,11.45,2.28-3.82,4.61-7.64,6.89-11.45,10.18.05,20.42.11,30.65.16,0,3.13,0,6.26.05,9.39Z"/>
      </g>
      <g>
        <path class="cls-1" d="M1334.51,190.23v-30.49c-3.87-2.39-7.74-4.72-11.61-7.11,3.87-2.33,7.74-4.72,11.61-7.11v-30.44c3.13,0,6.26.05,9.39.05.05,10.18.11,20.42.16,30.65-3.82,2.28-7.64,4.56-11.45,6.84,3.82,2.28,7.64,4.61,11.45,6.89-.05,10.18-.11,20.42-.16,30.65-3.13,0-6.26,0-9.39.05Z"/>
        <path class="cls-1" d="M1254.97,180.68h30.49c2.39-3.87,4.72-7.74,7.11-11.61,2.33,3.87,4.72,7.74,7.11,11.61h30.44c0,3.13-.05,6.26-.05,9.39-10.18.05-20.42.11-30.65.16-2.28-3.82-4.56-7.64-6.84-11.45-2.28,3.82-4.61,7.64-6.89,11.45-10.18-.05-20.42-.11-30.65-.16,0-3.13,0-6.26-.05-9.39Z"/>
        <path class="cls-1" d="M1249.8,115.08v30.49c3.87,2.39,7.74,4.72,11.61,7.11-3.87,2.33-7.74,4.72-11.61,7.11v30.44c-3.13,0-6.26-.05-9.39-.05-.05-10.18-.11-20.42-.16-30.65,3.82-2.28,7.64-4.56,11.45-6.84-3.82-2.28-7.64-4.61-11.45-6.89.05-10.18.11-20.42.16-30.65,3.13,0,6.26,0,9.39-.05Z"/>
        <path class="cls-1" d="M1249.8,115.08v30.49c3.87,2.39,7.74,4.72,11.61,7.11-3.87,2.33-7.74,4.72-11.61,7.11v30.44c-3.13,0-6.26-.05-9.39-.05-.05-10.18-.11-20.42-.16-30.65,3.82-2.28,7.64-4.56,11.45-6.84-3.82-2.28-7.64-4.61-11.45-6.89.05-10.18.11-20.42.16-30.65,3.13,0,6.26,0,9.39-.05Z"/>
        <path class="cls-1" d="M1330.12,124.63h-30.49c-2.39,3.87-4.72,7.74-7.11,11.61-2.33-3.87-4.72-7.74-7.11-11.61h-30.44c0-3.13.05-6.26.05-9.39,10.18-.05,20.42-.11,30.65-.16,2.28,3.82,4.56,7.64,6.84,11.45,2.28-3.82,4.61-7.64,6.89-11.45,10.18.05,20.42.11,30.65.16,0,3.13,0,6.26.05,9.39Z"/>
        <path class="cls-1" d="M1198.67,190.23v-30.49c-3.87-2.39-7.74-4.72-11.61-7.11,3.87-2.33,7.74-4.72,11.61-7.11v-30.44c3.13,0,6.26.05,9.39.05.05,10.18.11,20.42.16,30.65-3.82,2.28-7.64,4.56-11.45,6.84,3.82,2.28,7.64,4.61,11.45,6.89-.05,10.18-.11,20.42-.16,30.65-3.13,0-6.26,0-9.39.05Z"/>
        <path class="cls-1" d="M1219.83,190.23v-30.49c-3.87-2.39-7.74-4.72-11.61-7.11,3.87-2.33,7.74-4.72,11.61-7.11v-30.44c3.13,0,6.26.05,9.39.05.05,10.18.11,20.42.16,30.65-3.82,2.28-7.64,4.56-11.45,6.84,3.82,2.28,7.64,4.61,11.45,6.89-.05,10.18-.11,20.42-.16,30.65-3.13,0-6.26,0-9.39.05Z"/>
        <path class="cls-1" d="M1119.13,164.27h30.49c2.39-3.87,4.72-7.74,7.11-11.61,2.33,3.87,4.72,7.74,7.11,11.61h30.44c0,3.13-.05,6.26-.05,9.39-10.18.05-20.42.11-30.65.16-2.28-3.82-4.56-7.64-6.84-11.45-2.28,3.82-4.61,7.64-6.89,11.45-10.18-.05-20.42-.11-30.65-.16,0-3.13,0-6.26-.05-9.39Z"/>
        <path class="cls-1" d="M1113.96,115.08v30.49c3.87,2.39,7.74,4.72,11.61,7.11-3.87,2.33-7.74,4.72-11.61,7.11v30.44c-3.13,0-6.26-.05-9.39-.05-.05-10.18-.11-20.42-.16-30.65,3.82-2.28,7.64-4.56,11.45-6.84-3.82-2.28-7.64-4.61-11.45-6.89.05-10.18.11-20.42.16-30.65,3.13,0,6.26,0,9.39-.05Z"/>
        <path class="cls-1" d="M1092.8,115.08v30.49c3.87,2.39,7.74,4.72,11.61,7.11-3.87,2.33-7.74,4.72-11.61,7.11v30.44c-3.13,0-6.26-.05-9.39-.05-.05-10.18-.11-20.42-.16-30.65,3.82-2.28,7.64-4.56,11.45-6.84-3.82-2.28-7.64-4.61-11.45-6.89.05-10.18.11-20.42.16-30.65,3.13,0,6.26,0,9.39-.05Z"/>
        <path class="cls-1" d="M1194.28,141.04h-30.49c-2.39,3.87-4.72,7.74-7.11,11.61-2.33-3.87-4.72-7.74-7.11-11.61h-30.44c0-3.13.05-6.26.05-9.39,10.18-.05,20.42-.11,30.65-.16,2.28,3.82,4.56,7.64,6.84,11.45,2.28-3.82,4.61-7.64,6.89-11.45,10.18.05,20.42.11,30.65.16,0,3.13,0,6.26.05,9.39Z"/>
      </g>
    </g>
    <g>
      <g>
        <path class="cls-1" d="M1062.73,190.23v-30.49c-3.87-2.39-7.74-4.72-11.61-7.11,3.87-2.33,7.74-4.72,11.61-7.11v-30.44c3.13,0,6.26.05,9.39.05.05,10.18.11,20.42.16,30.65-3.82,2.28-7.64,4.56-11.45,6.84,3.82,2.28,7.64,4.61,11.45,6.89-.05,10.18-.11,20.42-.16,30.65-3.13,0-6.26,0-9.39.05Z"/>
        <path class="cls-1" d="M983.2,180.68h30.49c2.39-3.87,4.72-7.74,7.11-11.61,2.33,3.87,4.72,7.74,7.11,11.61h30.44c0,3.13-.05,6.26-.05,9.39-10.18.05-20.42.11-30.65.16-2.28-3.82-4.56-7.64-6.84-11.45-2.28,3.82-4.61,7.64-6.89,11.45-10.18-.05-20.42-.11-30.65-.16,0-3.13,0-6.26-.05-9.39Z"/>
        <path class="cls-1" d="M978.03,115.08v30.49c3.87,2.39,7.74,4.72,11.61,7.11-3.87,2.33-7.74,4.72-11.61,7.11v30.44c-3.13,0-6.26-.05-9.39-.05-.05-10.18-.11-20.42-.16-30.65,3.82-2.28,7.64-4.56,11.45-6.84-3.82-2.28-7.64-4.61-11.45-6.89.05-10.18.11-20.42.16-30.65,3.13,0,6.26,0,9.39-.05Z"/>
        <path class="cls-1" d="M978.03,115.08v30.49c3.87,2.39,7.74,4.72,11.61,7.11-3.87,2.33-7.74,4.72-11.61,7.11v30.44c-3.13,0-6.26-.05-9.39-.05-.05-10.18-.11-20.42-.16-30.65,3.82-2.28,7.64-4.56,11.45-6.84-3.82-2.28-7.64-4.61-11.45-6.89.05-10.18.11-20.42.16-30.65,3.13,0,6.26,0,9.39-.05Z"/>
        <path class="cls-1" d="M1058.34,124.63h-30.49c-2.39,3.87-4.72,7.74-7.11,11.61-2.33-3.87-4.72-7.74-7.11-11.61h-30.44c0-3.13.05-6.26.05-9.39,10.18-.05,20.42-.11,30.65-.16,2.28,3.82,4.56,7.64,6.84,11.45,2.28-3.82,4.61-7.64,6.89-11.45,10.18.05,20.42.11,30.65.16,0,3.13,0,6.26.05,9.39Z"/>
        <path class="cls-1" d="M926.89,190.23v-30.49c-3.87-2.39-7.74-4.72-11.61-7.11,3.87-2.33,7.74-4.72,11.61-7.11v-30.44c3.13,0,6.26.05,9.39.05.05,10.18.11,20.42.16,30.65-3.82,2.28-7.64,4.56-11.45,6.84,3.82,2.28,7.64,4.61,11.45,6.89-.05,10.18-.11,20.42-.16,30.65-3.13,0-6.26,0-9.39.05Z"/>
        <path class="cls-1" d="M948.05,190.23v-30.49c-3.87-2.39-7.74-4.72-11.61-7.11,3.87-2.33,7.74-4.72,11.61-7.11v-30.44c3.13,0,6.26.05,9.39.05.05,10.18.11,20.42.16,30.65-3.82,2.28-7.64,4.56-11.45,6.84,3.82,2.28,7.64,4.61,11.45,6.89-.05,10.18-.11,20.42-.16,30.65-3.13,0-6.26,0-9.39.05Z"/>
        <path class="cls-1" d="M847.35,164.27h30.49c2.39-3.87,4.72-7.74,7.11-11.61,2.33,3.87,4.72,7.74,7.11,11.61h30.44c0,3.13-.05,6.26-.05,9.39-10.18.05-20.42.11-30.65.16-2.28-3.82-4.56-7.64-6.84-11.45-2.28,3.82-4.61,7.64-6.89,11.45-10.18-.05-20.42-.11-30.65-.16,0-3.13,0-6.26-.05-9.39Z"/>
        <path class="cls-1" d="M842.18,115.08v30.49c3.87,2.39,7.74,4.72,11.61,7.11-3.87,2.33-7.74,4.72-11.61,7.11v30.44c-3.13,0-6.26-.05-9.39-.05-.05-10.18-.11-20.42-.16-30.65,3.82-2.28,7.64-4.56,11.45-6.84-3.82-2.28-7.64-4.61-11.45-6.89.05-10.18.11-20.42.16-30.65,3.13,0,6.26,0,9.39-.05Z"/>
        <path class="cls-1" d="M821.02,115.08v30.49c3.87,2.39,7.74,4.72,11.61,7.11-3.87,2.33-7.74,4.72-11.61,7.11v30.44c-3.13,0-6.26-.05-9.39-.05-.05-10.18-.11-20.42-.16-30.65,3.82-2.28,7.64-4.56,11.45-6.84-3.82-2.28-7.64-4.61-11.45-6.89.05-10.18.11-20.42.16-30.65,3.13,0,6.26,0,9.39-.05Z"/>
        <path class="cls-1" d="M922.5,141.04h-30.49c-2.39,3.87-4.72,7.74-7.11,11.61-2.33-3.87-4.72-7.74-7.11-11.61h-30.44c0-3.13.05-6.26.05-9.39,10.18-.05,20.42-.11,30.65-.16,2.28,3.82,4.56,7.64,6.84,11.45,2.28-3.82,4.61-7.64,6.89-11.45,10.18.05,20.42.11,30.65.16,0,3.13,0,6.26.05,9.39Z"/>
      </g>
      <g>
        <path class="cls-1" d="M791.39,190.23v-30.49c-3.87-2.39-7.74-4.72-11.61-7.11,3.87-2.33,7.74-4.72,11.61-7.11v-30.44c3.13,0,6.26.05,9.39.05.05,10.18.11,20.42.16,30.65-3.82,2.28-7.64,4.56-11.45,6.84,3.82,2.28,7.64,4.61,11.45,6.89-.05,10.18-.11,20.42-.16,30.65-3.13,0-6.26,0-9.39.05Z"/>
        <path class="cls-1" d="M711.86,180.68h30.49c2.39-3.87,4.72-7.74,7.11-11.61,2.33,3.87,4.72,7.74,7.11,11.61h30.44c0,3.13-.05,6.26-.05,9.39-10.18.05-20.42.11-30.65.16-2.28-3.82-4.56-7.64-6.84-11.45-2.28,3.82-4.61,7.64-6.89,11.45-10.18-.05-20.42-.11-30.65-.16,0-3.13,0-6.26-.05-9.39Z"/>
        <path class="cls-1" d="M706.69,115.08v30.49c3.87,2.39,7.74,4.72,11.61,7.11-3.87,2.33-7.74,4.72-11.61,7.11v30.44c-3.13,0-6.26-.05-9.39-.05-.05-10.18-.11-20.42-.16-30.65,3.82-2.28,7.64-4.56,11.45-6.84-3.82-2.28-7.64-4.61-11.45-6.89.05-10.18.11-20.42.16-30.65,3.13,0,6.26,0,9.39-.05Z"/>
        <path class="cls-1" d="M706.69,115.08v30.49c3.87,2.39,7.74,4.72,11.61,7.11-3.87,2.33-7.74,4.72-11.61,7.11v30.44c-3.13,0-6.26-.05-9.39-.05-.05-10.18-.11-20.42-.16-30.65,3.82-2.28,7.64-4.56,11.45-6.84-3.82-2.28-7.64-4.61-11.45-6.89.05-10.18.11-20.42.16-30.65,3.13,0,6.26,0,9.39-.05Z"/>
        <path class="cls-1" d="M787,124.63h-30.49c-2.39,3.87-4.72,7.74-7.11,11.61-2.33-3.87-4.72-7.74-7.11-11.61h-30.44c0-3.13.05-6.26.05-9.39,10.18-.05,20.42-.11,30.65-.16,2.28,3.82,4.56,7.64,6.84,11.45,2.28-3.82,4.61-7.64,6.89-11.45,10.18.05,20.42.11,30.65.16,0,3.13,0,6.26.05,9.39Z"/>
        <path class="cls-1" d="M655.55,190.23v-30.49c-3.87-2.39-7.74-4.72-11.61-7.11,3.87-2.33,7.74-4.72,11.61-7.11v-30.44c3.13,0,6.26.05,9.39.05.05,10.18.11,20.42.16,30.65-3.82,2.28-7.64,4.56-11.45,6.84,3.82,2.28,7.64,4.61,11.45,6.89-.05,10.18-.11,20.42-.16,30.65-3.13,0-6.26,0-9.39.05Z"/>
        <path class="cls-1" d="M676.71,190.23v-30.49c-3.87-2.39-7.74-4.72-11.61-7.11,3.87-2.33,7.74-4.72,11.61-7.11v-30.44c3.13,0,6.26.05,9.39.05.05,10.18.11,20.42.16,30.65-3.82,2.28-7.64,4.56-11.45,6.84,3.82,2.28,7.64,4.61,11.45,6.89-.05,10.18-.11,20.42-.16,30.65-3.13,0-6.26,0-9.39.05Z"/>
        <path class="cls-1" d="M576.01,164.27h30.49c2.39-3.87,4.72-7.74,7.11-11.61,2.33,3.87,4.72,7.74,7.11,11.61h30.44c0,3.13-.05,6.26-.05,9.39-10.18.05-20.42.11-30.65.16-2.28-3.82-4.56-7.64-6.84-11.45-2.28,3.82-4.61,7.64-6.89,11.45-10.18-.05-20.42-.11-30.65-.16,0-3.13,0-6.26-.05-9.39Z"/>
        <path class="cls-1" d="M570.84,115.08v30.49c3.87,2.39,7.74,4.72,11.61,7.11-3.87,2.33-7.74,4.72-11.61,7.11v30.44c-3.13,0-6.26-.05-9.39-.05-.05-10.18-.11-20.42-.16-30.65,3.82-2.28,7.64-4.56,11.45-6.84-3.82-2.28-7.64-4.61-11.45-6.89.05-10.18.11-20.42.16-30.65,3.13,0,6.26,0,9.39-.05Z"/>
        <path class="cls-1" d="M549.68,115.08v30.49c3.87,2.39,7.74,4.72,11.61,7.11-3.87,2.33-7.74,4.72-11.61,7.11v30.44c-3.13,0-6.26-.05-9.39-.05-.05-10.18-.11-20.42-.16-30.65,3.82-2.28,7.64-4.56,11.45-6.84-3.82-2.28-7.64-4.61-11.45-6.89.05-10.18.11-20.42.16-30.65,3.13,0,6.26,0,9.39-.05Z"/>
        <path class="cls-1" d="M651.16,141.04h-30.49c-2.39,3.87-4.72,7.74-7.11,11.61-2.33-3.87-4.72-7.74-7.11-11.61h-30.44c0-3.13.05-6.26.05-9.39,10.18-.05,20.42-.11,30.65-.16,2.28,3.82,4.56,7.64,6.84,11.45,2.28-3.82,4.61-7.64,6.89-11.45,10.18.05,20.42.11,30.65.16,0,3.13,0,6.26.05,9.39Z"/>
      </g>
      <g>
        <path class="cls-1" d="M519.65,190.23v-30.49c-3.87-2.39-7.74-4.72-11.61-7.11,3.87-2.33,7.74-4.72,11.61-7.11v-30.44c3.13,0,6.26.05,9.39.05.05,10.18.11,20.42.16,30.65-3.82,2.28-7.64,4.56-11.45,6.84,3.82,2.28,7.64,4.61,11.45,6.89-.05,10.18-.11,20.42-.16,30.65-3.13,0-6.26,0-9.39.05Z"/>
        <path class="cls-1" d="M440.11,180.68h30.49c2.39-3.87,4.72-7.74,7.11-11.61,2.33,3.87,4.72,7.74,7.11,11.61h30.44c0,3.13-.05,6.26-.05,9.39-10.18.05-20.42.11-30.65.16-2.28-3.82-4.56-7.64-6.84-11.45-2.28,3.82-4.61,7.64-6.89,11.45-10.18-.05-20.42-.11-30.65-.16,0-3.13,0-6.26-.05-9.39Z"/>
        <path class="cls-1" d="M434.94,115.08v30.49c3.87,2.39,7.74,4.72,11.61,7.11-3.87,2.33-7.74,4.72-11.61,7.11v30.44c-3.13,0-6.26-.05-9.39-.05-.05-10.18-.11-20.42-.16-30.65,3.82-2.28,7.64-4.56,11.45-6.84-3.82-2.28-7.64-4.61-11.45-6.89.05-10.18.11-20.42.16-30.65,3.13,0,6.26,0,9.39-.05Z"/>
        <path class="cls-1" d="M434.94,115.08v30.49c3.87,2.39,7.74,4.72,11.61,7.11-3.87,2.33-7.74,4.72-11.61,7.11v30.44c-3.13,0-6.26-.05-9.39-.05-.05-10.18-.11-20.42-.16-30.65,3.82-2.28,7.64-4.56,11.45-6.84-3.82-2.28-7.64-4.61-11.45-6.89.05-10.18.11-20.42.16-30.65,3.13,0,6.26,0,9.39-.05Z"/>
        <path class="cls-1" d="M515.26,124.63h-30.49c-2.39,3.87-4.72,7.74-7.11,11.61-2.33-3.87-4.72-7.74-7.11-11.61h-30.44c0-3.13.05-6.26.05-9.39,10.18-.05,20.42-.11,30.65-.16,2.28,3.82,4.56,7.64,6.84,11.45,2.28-3.82,4.61-7.64,6.89-11.45,10.18.05,20.42.11,30.65.16,0,3.13,0,6.26.05,9.39Z"/>
        <path class="cls-1" d="M383.8,190.23v-30.49c-3.87-2.39-7.74-4.72-11.61-7.11,3.87-2.33,7.74-4.72,11.61-7.11v-30.44c3.13,0,6.26.05,9.39.05.05,10.18.11,20.42.16,30.65-3.82,2.28-7.64,4.56-11.45,6.84,3.82,2.28,7.64,4.61,11.45,6.89-.05,10.18-.11,20.42-.16,30.65-3.13,0-6.26,0-9.39.05Z"/>
        <path class="cls-1" d="M404.96,190.23v-30.49c-3.87-2.39-7.74-4.72-11.61-7.11,3.87-2.33,7.74-4.72,11.61-7.11v-30.44c3.13,0,6.26.05,9.39.05.05,10.18.11,20.42.16,30.65-3.82,2.28-7.64,4.56-11.45,6.84,3.82,2.28,7.64,4.61,11.45,6.89-.05,10.18-.11,20.42-.16,30.65-3.13,0-6.26,0-9.39.05Z"/>
        <path class="cls-1" d="M304.27,164.27h30.49c2.39-3.87,4.72-7.74,7.11-11.61,2.33,3.87,4.72,7.74,7.11,11.61h30.44c0,3.13-.05,6.26-.05,9.39-10.18.05-20.42.11-30.65.16-2.28-3.82-4.56-7.64-6.84-11.45-2.28,3.82-4.61,7.64-6.89,11.45-10.18-.05-20.42-.11-30.65-.16,0-3.13,0-6.26-.05-9.39Z"/>
        <path class="cls-1" d="M299.1,115.08v30.49c3.87,2.39,7.74,4.72,11.61,7.11-3.87,2.33-7.74,4.72-11.61,7.11v30.44c-3.13,0-6.26-.05-9.39-.05-.05-10.18-.11-20.42-.16-30.65,3.82-2.28,7.64-4.56,11.45-6.84-3.82-2.28-7.64-4.61-11.45-6.89.05-10.18.11-20.42.16-30.65,3.13,0,6.26,0,9.39-.05Z"/>
        <path class="cls-1" d="M277.94,115.08v30.49c3.87,2.39,7.74,4.72,11.61,7.11-3.87,2.33-7.74,4.72-11.61,7.11v30.44c-3.13,0-6.26-.05-9.39-.05-.05-10.18-.11-20.42-.16-30.65,3.82-2.28,7.64-4.56,11.45-6.84-3.82-2.28-7.64-4.61-11.45-6.89.05-10.18.11-20.42.16-30.65,3.13,0,6.26,0,9.39-.05Z"/>
        <path class="cls-1" d="M379.41,141.04h-30.49c-2.39,3.87-4.72,7.74-7.11,11.61-2.33-3.87-4.72-7.74-7.11-11.61h-30.44c0-3.13.05-6.26.05-9.39,10.18-.05,20.42-.11,30.65-.16,2.28,3.82,4.56,7.64,6.84,11.45,2.28-3.82,4.61-7.64,6.89-11.45,10.18.05,20.42.11,30.65.16,0,3.13,0,6.26.05,9.39Z"/>
      </g>
      <g>
        <path class="cls-1" d="M248.31,190.23v-30.49c-3.87-2.39-7.74-4.72-11.61-7.11,3.87-2.33,7.74-4.72,11.61-7.11v-30.44c3.13,0,6.26.05,9.39.05.05,10.18.11,20.42.16,30.65-3.82,2.28-7.64,4.56-11.45,6.84,3.82,2.28,7.64,4.61,11.45,6.89-.05,10.18-.11,20.42-.16,30.65-3.13,0-6.26,0-9.39.05Z"/>
        <path class="cls-1" d="M168.77,180.68h30.49c2.39-3.87,4.72-7.74,7.11-11.61,2.33,3.87,4.72,7.74,7.11,11.61h30.44c0,3.13-.05,6.26-.05,9.39-10.18.05-20.42.11-30.65.16-2.28-3.82-4.56-7.64-6.84-11.45-2.28,3.82-4.61,7.64-6.89,11.45-10.18-.05-20.42-.11-30.65-.16,0-3.13,0-6.26-.05-9.39Z"/>
        <path class="cls-1" d="M163.6,115.08v30.49c3.87,2.39,7.74,4.72,11.61,7.11-3.87,2.33-7.74,4.72-11.61,7.11v30.44c-3.13,0-6.26-.05-9.39-.05-.05-10.18-.11-20.42-.16-30.65,3.82-2.28,7.64-4.56,11.45-6.84-3.82-2.28-7.64-4.61-11.45-6.89.05-10.18.11-20.42.16-30.65,3.13,0,6.26,0,9.39-.05Z"/>
        <path class="cls-1" d="M163.6,115.08v30.49c3.87,2.39,7.74,4.72,11.61,7.11-3.87,2.33-7.74,4.72-11.61,7.11v30.44c-3.13,0-6.26-.05-9.39-.05-.05-10.18-.11-20.42-.16-30.65,3.82-2.28,7.64-4.56,11.45-6.84-3.82-2.28-7.64-4.61-11.45-6.89.05-10.18.11-20.42.16-30.65,3.13,0,6.26,0,9.39-.05Z"/>
        <path class="cls-1" d="M243.92,124.63h-30.49c-2.39,3.87-4.72,7.74-7.11,11.61-2.33-3.87-4.72-7.74-7.11-11.61h-30.44c0-3.13.05-6.26.05-9.39,10.18-.05,20.42-.11,30.65-.16,2.28,3.82,4.56,7.64,6.84,11.45,2.28-3.82,4.61-7.64,6.89-11.45,10.18.05,20.42.11,30.65.16,0,3.13,0,6.26.05,9.39Z"/>
        <path class="cls-1" d="M112.46,190.23v-30.49c-3.87-2.39-7.74-4.72-11.61-7.11,3.87-2.33,7.74-4.72,11.61-7.11v-30.44c3.13,0,6.26.05,9.39.05.05,10.18.11,20.42.16,30.65-3.82,2.28-7.64,4.56-11.45,6.84,3.82,2.28,7.64,4.61,11.45,6.89-.05,10.18-.11,20.42-.16,30.65-3.13,0-6.26,0-9.39.05Z"/>
        <path class="cls-1" d="M133.62,190.23v-30.49c-3.87-2.39-7.74-4.72-11.61-7.11,3.87-2.33,7.74-4.72,11.61-7.11v-30.44c3.13,0,6.26.05,9.39.05.05,10.18.11,20.42.16,30.65-3.82,2.28-7.64,4.56-11.45,6.84,3.82,2.28,7.64,4.61,11.45,6.89-.05,10.18-.11,20.42-.16,30.65-3.13,0-6.26,0-9.39.05Z"/>
        <path class="cls-1" d="M32.93,164.27h30.49c2.39-3.87,4.72-7.74,7.11-11.61,2.33,3.87,4.72,7.74,7.11,11.61h30.44c0,3.13-.05,6.26-.05,9.39-10.18.05-20.42.11-30.65.16-2.28-3.82-4.56-7.64-6.84-11.45-2.28,3.82-4.61,7.64-6.89,11.45-10.18-.05-20.42-.11-30.65-.16,0-3.13,0-6.26-.05-9.39Z"/>
        <path class="cls-1" d="M27.76,115.08v30.49c3.87,2.39,7.74,4.72,11.61,7.11-3.87,2.33-7.74,4.72-11.61,7.11v30.44c-3.13,0-6.26-.05-9.39-.05-.05-10.18-.11-20.42-.16-30.65,3.82-2.28,7.64-4.56,11.45-6.84-3.82-2.28-7.64-4.61-11.45-6.89.05-10.18.11-20.42.16-30.65,3.13,0,6.26,0,9.39-.05Z"/>
        <path class="cls-1" d="M6.6,115.08v30.49c3.87,2.39,7.74,4.72,11.61,7.11-3.87,2.33-7.74,4.72-11.61,7.11v30.44c-3.13,0-6.26-.05-9.39-.05-.05-10.18-.11-20.42-.16-30.65,3.82-2.28,7.64-4.56,11.45-6.84-3.82-2.28-7.64-4.61-11.45-6.89.05-10.18.11-20.42.16-30.65,3.13,0,6.26,0,9.39-.05Z"/>
        <path class="cls-1" d="M108.07,141.04h-30.49c-2.39,3.87-4.72,7.74-7.11,11.61-2.33-3.87-4.72-7.74-7.11-11.61h-30.44c0-3.13.05-6.26.05-9.39,10.18-.05,20.42-.11,30.65-.16,2.28,3.82,4.56,7.64,6.84,11.45,2.28-3.82,4.61-7.64,6.89-11.45,10.18.05,20.42.11,30.65.16,0,3.13,0,6.26.05,9.39Z"/>
      </g>
    </g>
  </g>
</svg>