<?xml version="1.0" encoding="UTF-8"?>
<svg id="Layer_1" data-name="Layer 1" xmlns="http://www.w3.org/2000/svg" xmlns:xlink="http://www.w3.org/1999/xlink" viewBox="0 0 2154.1 1080">
  <defs>
    <style>
      .cls-1 {
        fill: none;
      }

      .cls-1, .cls-2 {
        stroke-width: 0px;
      }

      .cls-2 {
        fill: url(#Pattern_03.2);
      }

      .cls-3 {
        fill: #eeedf0;
        stroke: #eeedf0;
        stroke-linecap: round;
        stroke-linejoin: round;
        stroke-width: 3px;
      }
    </style>
    <pattern id="Pattern_03.2" x="0" y="0" width="1002.76" height="664.42" patternTransform="translate(2760.75 2222.33)" patternUnits="userSpaceOnUse" viewBox="0 0 1002.76 664.42">
      <g>
        <rect class="cls-1" x="0" y="0" width="1002.76" height="664.42"/>
        <g>
          <path class="cls-3" d="M810.95,693.18h75.03c5.87-9.53,11.61-19.05,17.49-28.58,5.74,9.53,11.61,19.05,17.49,28.58h74.9c0,7.7-.13,15.4-.13,23.1-25.05.13-50.24.26-75.42.39-5.61-9.4-11.22-18.79-16.83-28.19-5.61,9.4-11.35,18.79-16.96,28.19-25.05-.13-50.24-.26-75.42-.39,0-7.7,0-15.4-.13-23.1Z"/>
          <path class="cls-3" d="M874.83,497.47v75.03c9.53,5.87,19.05,11.61,28.58,17.49-9.53,5.74-19.05,11.61-28.58,17.49v74.9c-7.7,0-15.4-.13-23.1-.13-.13-25.05-.26-50.24-.39-75.42,9.4-5.61,18.79-11.22,28.19-16.83-9.4-5.61-18.79-11.35-28.19-16.96.13-25.05.26-50.24.39-75.42,7.7,0,15.4,0,23.1-.13Z"/>
          <path class="cls-3" d="M995.86,484.75h-75.03c-5.87,9.53-11.61,19.05-17.49,28.58-5.74-9.53-11.61-19.05-17.49-28.58h-74.9c0-7.7.13-15.4.13-23.1,25.05-.13,50.24-.26,75.42-.39,5.61,9.4,11.22,18.79,16.83,28.19,5.61-9.4,11.35-18.79,16.96-28.19,25.05.13,50.24.26,75.42.39,0,7.7,0,15.4.13,23.1Z"/>
          <path class="cls-3" d="M995.86,432.69h-75.03c-5.87,9.53-11.61,19.05-17.49,28.58-5.74-9.53-11.61-19.05-17.49-28.58h-74.9c0-7.7.13-15.4.13-23.1,25.05-.13,50.24-.26,75.42-.39,5.61,9.4,11.22,18.79,16.83,28.19,5.61-9.4,11.35-18.79,16.96-28.19,25.05.13,50.24.26,75.42.39,0,7.7,0,15.4.13,23.1Z"/>
          <path class="cls-3" d="M931.99,682.38v-75.03c-9.53-5.87-19.05-11.61-28.58-17.49,9.53-5.74,19.05-11.61,28.58-17.49v-74.9c7.7,0,15.4.13,23.1.13.13,25.05.26,50.24.39,75.42-9.4,5.61-18.79,11.22-28.19,16.83,9.4,5.61,18.79,11.35,28.19,16.96-.13,25.05-.26,50.24-.39,75.42-7.7,0-15.4,0-23.1.13Z"/>
        </g>
        <g>
          <path class="cls-3" d="M674.28,630.36v75.03c9.53,5.87,19.05,11.61,28.58,17.49-9.53,5.74-19.05,11.61-28.58,17.49v74.9c-7.7,0-15.4-.13-23.1-.13-.13-25.05-.26-50.24-.39-75.42,9.4-5.61,18.79-11.22,28.19-16.83-9.4-5.61-18.79-11.35-28.19-16.96.13-25.05.26-50.24.39-75.42,7.7,0,15.4,0,23.1-.13Z"/>
          <path class="cls-3" d="M795.31,617.64h-75.03c-5.87,9.53-11.61,19.05-17.49,28.58-5.74-9.53-11.61-19.05-17.49-28.58h-74.9c0-7.7.13-15.4.13-23.1,25.05-.13,50.24-.26,75.42-.39,5.61,9.4,11.22,18.79,16.83,28.19,5.61-9.4,11.35-18.79,16.96-28.19,25.05.13,50.24.26,75.42.39,0,7.7,0,15.4.13,23.1Z"/>
          <path class="cls-3" d="M795.31,565.57h-75.03c-5.87,9.53-11.61,19.05-17.49,28.58-5.74-9.53-11.61-19.05-17.49-28.58h-74.9c0-7.7.13-15.4.13-23.1,25.05-.13,50.24-.26,75.42-.39,5.61,9.4,11.22,18.79,16.83,28.19,5.61-9.4,11.35-18.79,16.96-28.19,25.05.13,50.24.26,75.42.39,0,7.7,0,15.4.13,23.1Z"/>
          <path class="cls-3" d="M731.43,815.26v-75.03c-9.53-5.87-19.05-11.61-28.58-17.49,9.53-5.74,19.05-11.61,28.58-17.49v-74.9c7.7,0,15.4.13,23.1.13.13,25.05.26,50.24.39,75.42-9.4,5.61-18.79,11.22-28.19,16.83,9.4,5.61,18.79,11.35,28.19,16.96-.13,25.05-.26,50.24-.39,75.42-7.7,0-15.4,0-23.1.13Z"/>
        </g>
        <g>
          <path class="cls-3" d="M810.95,363.01h75.03c5.87-9.53,11.61-19.05,17.49-28.58,5.74,9.53,11.61,19.05,17.49,28.58h74.9c0,7.7-.13,15.4-.13,23.1-25.05.13-50.24.26-75.42.39-5.61-9.4-11.22-18.79-16.83-28.19-5.61,9.4-11.35,18.79-16.96,28.19-25.05-.13-50.24-.26-75.42-.39,0-7.7,0-15.4-.13-23.1Z"/>
          <path class="cls-3" d="M834.44,167.3v75.03c9.53,5.87,19.05,11.61,28.58,17.49-9.53,5.74-19.05,11.61-28.58,17.49v74.9c-7.7,0-15.4-.13-23.1-.13-.13-25.05-.26-50.24-.39-75.42,9.4-5.61,18.79-11.22,28.19-16.83-9.4-5.61-18.79-11.35-28.19-16.96.13-25.05.26-50.24.39-75.42,7.7,0,15.4,0,23.1-.13Z"/>
          <path class="cls-3" d="M995.86,154.58h-75.03c-5.87,9.53-11.61,19.05-17.49,28.58-5.74-9.53-11.61-19.05-17.49-28.58h-74.9c0-7.7.13-15.4.13-23.1,25.05-.13,50.24-.26,75.42-.39,5.61,9.4,11.22,18.79,16.83,28.19,5.61-9.4,11.35-18.79,16.96-28.19,25.05.13,50.24.26,75.42.39,0,7.7,0,15.4.13,23.1Z"/>
          <path class="cls-3" d="M995.86,154.58h-75.03c-5.87,9.53-11.61,19.05-17.49,28.58-5.74-9.53-11.61-19.05-17.49-28.58h-74.9c0-7.7.13-15.4.13-23.1,25.05-.13,50.24-.26,75.42-.39,5.61,9.4,11.22,18.79,16.83,28.19,5.61-9.4,11.35-18.79,16.96-28.19,25.05.13,50.24.26,75.42.39,0,7.7,0,15.4.13,23.1Z"/>
          <path class="cls-3" d="M972.37,352.21v-75.03c-9.53-5.87-19.05-11.61-28.58-17.49,9.53-5.74,19.05-11.61,28.58-17.49v-74.9c7.7,0,15.4.13,23.1.13.13,25.05.26,50.24.39,75.42-9.4,5.61-18.79,11.22-28.19,16.83,9.4,5.61,18.79,11.35,28.19,16.96-.13,25.05-.26,50.24-.39,75.42-7.7,0-15.4,0-23.1.13Z"/>
          <path class="cls-3" d="M810.95,28.75h75.03c5.87-9.53,11.61-19.05,17.49-28.58,5.74,9.53,11.61,19.05,17.49,28.58h74.9c0,7.7-.13,15.4-.13,23.1-25.05.13-50.24.26-75.42.39-5.61-9.4-11.22-18.79-16.83-28.19-5.61,9.4-11.35,18.79-16.96,28.19-25.05-.13-50.24-.26-75.42-.39,0-7.7,0-15.4-.13-23.1Z"/>
          <path class="cls-3" d="M810.95,80.82h75.03c5.87-9.53,11.61-19.05,17.49-28.58,5.74,9.53,11.61,19.05,17.49,28.58h74.9c0,7.7-.13,15.4-.13,23.1-25.05.13-50.24.26-75.42.39-5.61-9.4-11.22-18.79-16.83-28.19-5.61,9.4-11.35,18.79-16.96,28.19-25.05-.13-50.24-.26-75.42-.39,0-7.7,0-15.4-.13-23.1Z"/>
          <path class="cls-3" d="M874.83-166.95v75.03c9.53,5.87,19.05,11.61,28.58,17.49-9.53,5.74-19.05,11.61-28.58,17.49V17.95c-7.7,0-15.4-.13-23.1-.13-.13-25.05-.26-50.24-.39-75.42,9.4-5.61,18.79-11.22,28.19-16.83-9.4-5.61-18.79-11.35-28.19-16.96.13-25.05.26-50.24.39-75.42,7.7,0,15.4,0,23.1-.13Z"/>
          <path class="cls-3" d="M931.99,17.95V-57.08c-9.53-5.87-19.05-11.61-28.58-17.49,9.53-5.74,19.05-11.61,28.58-17.49v-74.9c7.7,0,15.4.13,23.1.13.13,25.05.26,50.24.39,75.42-9.4,5.61-18.79,11.22-28.19,16.83,9.4,5.61,18.79,11.35,28.19,16.96-.13,25.05-.26,50.24-.39,75.42-7.7,0-15.4,0-23.1.13Z"/>
        </g>
        <g>
          <path class="cls-3" d="M610.4,495.89h75.03c5.87-9.53,11.61-19.05,17.49-28.58,5.74,9.53,11.61,19.05,17.49,28.58h74.9c0,7.7-.13,15.4-.13,23.1-25.05.13-50.24.26-75.42.39-5.61-9.4-11.22-18.79-16.83-28.19-5.61,9.4-11.35,18.79-16.96,28.19-25.05-.13-50.24-.26-75.42-.39,0-7.7,0-15.4-.13-23.1Z"/>
          <path class="cls-3" d="M633.89,300.19v75.03c9.53,5.87,19.05,11.61,28.58,17.49-9.53,5.74-19.05,11.61-28.58,17.49v74.9c-7.7,0-15.4-.13-23.1-.13-.13-25.05-.26-50.24-.39-75.42,9.4-5.61,18.79-11.22,28.19-16.83-9.4-5.61-18.79-11.35-28.19-16.96.13-25.05.26-50.24.39-75.42,7.7,0,15.4,0,23.1-.13Z"/>
          <path class="cls-3" d="M795.31,287.47h-75.03c-5.87,9.53-11.61,19.05-17.49,28.58-5.74-9.53-11.61-19.05-17.49-28.58h-74.9c0-7.7.13-15.4.13-23.1,25.05-.13,50.24-.26,75.42-.39,5.61,9.4,11.22,18.79,16.83,28.19,5.61-9.4,11.35-18.79,16.96-28.19,25.05.13,50.24.26,75.42.39,0,7.7,0,15.4.13,23.1Z"/>
          <path class="cls-3" d="M795.31,287.47h-75.03c-5.87,9.53-11.61,19.05-17.49,28.58-5.74-9.53-11.61-19.05-17.49-28.58h-74.9c0-7.7.13-15.4.13-23.1,25.05-.13,50.24-.26,75.42-.39,5.61,9.4,11.22,18.79,16.83,28.19,5.61-9.4,11.35-18.79,16.96-28.19,25.05.13,50.24.26,75.42.39,0,7.7,0,15.4.13,23.1Z"/>
          <path class="cls-3" d="M771.82,485.09v-75.03c-9.53-5.87-19.05-11.61-28.58-17.49,9.53-5.74,19.05-11.61,28.58-17.49v-74.9c7.7,0,15.4.13,23.1.13.13,25.05.26,50.24.39,75.42-9.4,5.61-18.79,11.22-28.19,16.83,9.4,5.61,18.79,11.35,28.19,16.96-.13,25.05-.26,50.24-.39,75.42-7.7,0-15.4,0-23.1.13Z"/>
          <path class="cls-3" d="M610.4,161.64h75.03c5.87-9.53,11.61-19.05,17.49-28.58,5.74,9.53,11.61,19.05,17.49,28.58h74.9c0,7.7-.13,15.4-.13,23.1-25.05.13-50.24.26-75.42.39-5.61-9.4-11.22-18.79-16.83-28.19-5.61,9.4-11.35,18.79-16.96,28.19-25.05-.13-50.24-.26-75.42-.39,0-7.7,0-15.4-.13-23.1Z"/>
          <path class="cls-3" d="M610.4,213.71h75.03c5.87-9.53,11.61-19.05,17.49-28.58,5.74,9.53,11.61,19.05,17.49,28.58h74.9c0,7.7-.13,15.4-.13,23.1-25.05.13-50.24.26-75.42.39-5.61-9.4-11.22-18.79-16.83-28.19-5.61,9.4-11.35,18.79-16.96,28.19-25.05-.13-50.24-.26-75.42-.39,0-7.7,0-15.4-.13-23.1Z"/>
          <path class="cls-3" d="M674.28-34.07V40.96c9.53,5.87,19.05,11.61,28.58,17.49-9.53,5.74-19.05,11.61-28.58,17.49v74.9c-7.7,0-15.4-.13-23.1-.13-.13-25.05-.26-50.24-.39-75.42,9.4-5.61,18.79-11.22,28.19-16.83-9.4-5.61-18.79-11.35-28.19-16.96.13-25.05.26-50.24.39-75.42,7.7,0,15.4,0,23.1-.13Z"/>
          <path class="cls-3" d="M731.43,150.84v-75.03c-9.53-5.87-19.05-11.61-28.58-17.49,9.53-5.74,19.05-11.61,28.58-17.49V-34.07c7.7,0,15.4.13,23.1.13.13,25.05.26,50.24.39,75.42-9.4,5.61-18.79,11.22-28.19,16.83,9.4,5.61,18.79,11.35,28.19,16.96-.13,25.05-.26,50.24-.39,75.42-7.7,0-15.4,0-23.1.13Z"/>
        </g>
        <g>
          <path class="cls-3" d="M409.85,628.78h75.03c5.87-9.53,11.61-19.05,17.49-28.58,5.74,9.53,11.61,19.05,17.49,28.58h74.9c0,7.7-.13,15.4-.13,23.1-25.05.13-50.24.26-75.42.39-5.61-9.4-11.22-18.79-16.83-28.19-5.61,9.4-11.35,18.79-16.96,28.19-25.05-.13-50.24-.26-75.42-.39,0-7.7,0-15.4-.13-23.1Z"/>
          <path class="cls-3" d="M433.34,433.07v75.03c9.53,5.87,19.05,11.61,28.58,17.49-9.53,5.74-19.05,11.61-28.58,17.49v74.9c-7.7,0-15.4-.13-23.1-.13-.13-25.05-.26-50.24-.39-75.42,9.4-5.61,18.79-11.22,28.19-16.83-9.4-5.61-18.79-11.35-28.19-16.96.13-25.05.26-50.24.39-75.42,7.7,0,15.4,0,23.1-.13Z"/>
          <path class="cls-3" d="M594.76,420.35h-75.03c-5.87,9.53-11.61,19.05-17.49,28.58-5.74-9.53-11.61-19.05-17.49-28.58h-74.9c0-7.7.13-15.4.13-23.1,25.05-.13,50.24-.26,75.42-.39,5.61,9.4,11.22,18.79,16.83,28.19,5.61-9.4,11.35-18.79,16.96-28.19,25.05.13,50.24.26,75.42.39,0,7.7,0,15.4.13,23.1Z"/>
          <path class="cls-3" d="M594.76,420.35h-75.03c-5.87,9.53-11.61,19.05-17.49,28.58-5.74-9.53-11.61-19.05-17.49-28.58h-74.9c0-7.7.13-15.4.13-23.1,25.05-.13,50.24-.26,75.42-.39,5.61,9.4,11.22,18.79,16.83,28.19,5.61-9.4,11.35-18.79,16.96-28.19,25.05.13,50.24.26,75.42.39,0,7.7,0,15.4.13,23.1Z"/>
          <path class="cls-3" d="M571.27,617.98v-75.03c-9.53-5.87-19.05-11.61-28.58-17.49,9.53-5.74,19.05-11.61,28.58-17.49v-74.9c7.7,0,15.4.13,23.1.13.13,25.05.26,50.24.39,75.42-9.4,5.61-18.79,11.22-28.19,16.83,9.4,5.61,18.79,11.35,28.19,16.96-.13,25.05-.26,50.24-.39,75.42-7.7,0-15.4,0-23.1.13Z"/>
          <path class="cls-3" d="M409.85,294.52h75.03c5.87-9.53,11.61-19.05,17.49-28.58,5.74,9.53,11.61,19.05,17.49,28.58h74.9c0,7.7-.13,15.4-.13,23.1-25.05.13-50.24.26-75.42.39-5.61-9.4-11.22-18.79-16.83-28.19-5.61,9.4-11.35,18.79-16.96,28.19-25.05-.13-50.24-.26-75.42-.39,0-7.7,0-15.4-.13-23.1Z"/>
          <path class="cls-3" d="M409.85,346.59h75.03c5.87-9.53,11.61-19.05,17.49-28.58,5.74,9.53,11.61,19.05,17.49,28.58h74.9c0,7.7-.13,15.4-.13,23.1-25.05.13-50.24.26-75.42.39-5.61-9.4-11.22-18.79-16.83-28.19-5.61,9.4-11.35,18.79-16.96,28.19-25.05-.13-50.24-.26-75.42-.39,0-7.7,0-15.4-.13-23.1Z"/>
          <path class="cls-3" d="M473.73,98.82v75.03c9.53,5.87,19.05,11.61,28.58,17.49-9.53,5.74-19.05,11.61-28.58,17.49v74.9c-7.7,0-15.4-.13-23.1-.13-.13-25.05-.26-50.24-.39-75.42,9.4-5.61,18.79-11.22,28.19-16.83-9.4-5.61-18.79-11.35-28.19-16.96.13-25.05.26-50.24.39-75.42,7.7,0,15.4,0,23.1-.13Z"/>
          <path class="cls-3" d="M594.76,86.1h-75.03c-5.87,9.53-11.61,19.05-17.49,28.58-5.74-9.53-11.61-19.05-17.49-28.58h-74.9c0-7.7.13-15.4.13-23.1,25.05-.13,50.24-.26,75.42-.39,5.61,9.4,11.22,18.79,16.83,28.19,5.61-9.4,11.35-18.79,16.96-28.19,25.05.13,50.24.26,75.42.39,0,7.7,0,15.4.13,23.1Z"/>
          <path class="cls-3" d="M594.76,34.03h-75.03c-5.87,9.53-11.61,19.05-17.49,28.58-5.74-9.53-11.61-19.05-17.49-28.58h-74.9c0-7.7.13-15.4.13-23.1,25.05-.13,50.24-.26,75.42-.39,5.61,9.4,11.22,18.79,16.83,28.19,5.61-9.4,11.35-18.79,16.96-28.19,25.05.13,50.24.26,75.42.39,0,7.7,0,15.4.13,23.1Z"/>
          <path class="cls-3" d="M530.88,283.72v-75.03c-9.53-5.87-19.05-11.61-28.58-17.49,9.53-5.74,19.05-11.61,28.58-17.49v-74.9c7.7,0,15.4.13,23.1.13.13,25.05.26,50.24.39,75.42-9.4,5.61-18.79,11.22-28.19,16.83,9.4,5.61,18.79,11.35,28.19,16.96-.13,25.05-.26,50.24-.39,75.42-7.7,0-15.4,0-23.1.13Z"/>
        </g>
        <g>
          <path class="cls-3" d="M232.79,565.96v75.03c9.53,5.87,19.05,11.61,28.58,17.49-9.53,5.74-19.05,11.61-28.58,17.49v74.9c-7.7,0-15.4-.13-23.1-.13-.13-25.05-.26-50.24-.39-75.42,9.4-5.61,18.79-11.22,28.19-16.83-9.4-5.61-18.79-11.35-28.19-16.96.13-25.05.26-50.24.39-75.42,7.7,0,15.4,0,23.1-.13Z"/>
          <path class="cls-3" d="M394.21,553.24h-75.03c-5.87,9.53-11.61,19.05-17.49,28.58-5.74-9.53-11.61-19.05-17.49-28.58h-74.9c0-7.7.13-15.4.13-23.1,25.05-.13,50.24-.26,75.42-.39,5.61,9.4,11.22,18.79,16.83,28.19,5.61-9.4,11.35-18.79,16.96-28.19,25.05.13,50.24.26,75.42.39,0,7.7,0,15.4.13,23.1Z"/>
          <path class="cls-3" d="M394.21,553.24h-75.03c-5.87,9.53-11.61,19.05-17.49,28.58-5.74-9.53-11.61-19.05-17.49-28.58h-74.9c0-7.7.13-15.4.13-23.1,25.05-.13,50.24-.26,75.42-.39,5.61,9.4,11.22,18.79,16.83,28.19,5.61-9.4,11.35-18.79,16.96-28.19,25.05.13,50.24.26,75.42.39,0,7.7,0,15.4.13,23.1Z"/>
          <path class="cls-3" d="M370.72,750.86v-75.03c-9.53-5.87-19.05-11.61-28.58-17.49,9.53-5.74,19.05-11.61,28.58-17.49v-74.9c7.7,0,15.4.13,23.1.13.13,25.05.26,50.24.39,75.42-9.4,5.61-18.79,11.22-28.19,16.83,9.4,5.61,18.79,11.35,28.19,16.96-.13,25.05-.26,50.24-.39,75.42-7.7,0-15.4,0-23.1.13Z"/>
          <path class="cls-3" d="M209.3,427.41h75.03c5.87-9.53,11.61-19.05,17.49-28.58,5.74,9.53,11.61,19.05,17.49,28.58h74.9c0,7.7-.13,15.4-.13,23.1-25.05.13-50.24.26-75.42.39-5.61-9.4-11.22-18.79-16.83-28.19-5.61,9.4-11.35,18.79-16.96,28.19-25.05-.13-50.24-.26-75.42-.39,0-7.7,0-15.4-.13-23.1Z"/>
          <path class="cls-3" d="M209.3,479.47h75.03c5.87-9.53,11.61-19.05,17.49-28.58,5.74,9.53,11.61,19.05,17.49,28.58h74.9c0,7.7-.13,15.4-.13,23.1-25.05.13-50.24.26-75.42.39-5.61-9.4-11.22-18.79-16.83-28.19-5.61,9.4-11.35,18.79-16.96,28.19-25.05-.13-50.24-.26-75.42-.39,0-7.7,0-15.4-.13-23.1Z"/>
          <path class="cls-3" d="M273.17,231.7v75.03c9.53,5.87,19.05,11.61,28.58,17.49-9.53,5.74-19.05,11.61-28.58,17.49v74.9c-7.7,0-15.4-.13-23.1-.13-.13-25.05-.26-50.24-.39-75.42,9.4-5.61,18.79-11.22,28.19-16.83-9.4-5.61-18.79-11.35-28.19-16.96.13-25.05.26-50.24.39-75.42,7.7,0,15.4,0,23.1-.13Z"/>
          <path class="cls-3" d="M394.21,218.98h-75.03c-5.87,9.53-11.61,19.05-17.49,28.58-5.74-9.53-11.61-19.05-17.49-28.58h-74.9c0-7.7.13-15.4.13-23.1,25.05-.13,50.24-.26,75.42-.39,5.61,9.4,11.22,18.79,16.83,28.19,5.61-9.4,11.35-18.79,16.96-28.19,25.05.13,50.24.26,75.42.39,0,7.7,0,15.4.13,23.1Z"/>
          <path class="cls-3" d="M394.21,166.92h-75.03c-5.87,9.53-11.61,19.05-17.49,28.58-5.74-9.53-11.61-19.05-17.49-28.58h-74.9c0-7.7.13-15.4.13-23.1,25.05-.13,50.24-.26,75.42-.39,5.61,9.4,11.22,18.79,16.83,28.19,5.61-9.4,11.35-18.79,16.96-28.19,25.05.13,50.24.26,75.42.39,0,7.7,0,15.4.13,23.1Z"/>
          <path class="cls-3" d="M330.33,416.61v-75.03c-9.53-5.87-19.05-11.61-28.58-17.49,9.53-5.74,19.05-11.61,28.58-17.49v-74.9c7.7,0,15.4.13,23.1.13.13,25.05.26,50.24.39,75.42-9.4,5.61-18.79,11.22-28.19,16.83,9.4,5.61,18.79,11.35,28.19,16.96-.13,25.05-.26,50.24-.39,75.42-7.7,0-15.4,0-23.1.13Z"/>
        </g>
        <g>
          <path class="cls-3" d="M193.65,686.12h-75.03c-5.87,9.53-11.61,19.05-17.49,28.58-5.74-9.53-11.61-19.05-17.49-28.58H8.75c0-7.7.13-15.4.13-23.1,25.05-.13,50.24-.26,75.42-.39,5.61,9.4,11.22,18.79,16.83,28.19,5.61-9.4,11.35-18.79,16.96-28.19,25.05.13,50.24.26,75.42.39,0,7.7,0,15.4.13,23.1Z"/>
          <path class="cls-3" d="M193.65,686.12h-75.03c-5.87,9.53-11.61,19.05-17.49,28.58-5.74-9.53-11.61-19.05-17.49-28.58H8.75c0-7.7.13-15.4.13-23.1,25.05-.13,50.24-.26,75.42-.39,5.61,9.4,11.22,18.79,16.83,28.19,5.61-9.4,11.35-18.79,16.96-28.19,25.05.13,50.24.26,75.42.39,0,7.7,0,15.4.13,23.1Z"/>
          <path class="cls-3" d="M8.75,560.29h75.03c5.87-9.53,11.61-19.05,17.49-28.58,5.74,9.53,11.61,19.05,17.49,28.58h74.9c0,7.7-.13,15.4-.13,23.1-25.05.13-50.24.26-75.42.39-5.61-9.4-11.22-18.79-16.83-28.19-5.61,9.4-11.35,18.79-16.96,28.19-25.05-.13-50.24-.26-75.42-.39,0-7.7,0-15.4-.13-23.1Z"/>
          <path class="cls-3" d="M8.75,612.36h75.03c5.87-9.53,11.61-19.05,17.49-28.58,5.74,9.53,11.61,19.05,17.49,28.58h74.9c0,7.7-.13,15.4-.13,23.1-25.05.13-50.24.26-75.42.39-5.61-9.4-11.22-18.79-16.83-28.19-5.61,9.4-11.35,18.79-16.96,28.19-25.05-.13-50.24-.26-75.42-.39,0-7.7,0-15.4-.13-23.1Z"/>
          <path class="cls-3" d="M72.62,364.59v75.03c9.53,5.87,19.05,11.61,28.58,17.49-9.53,5.74-19.05,11.61-28.58,17.49v74.9c-7.7,0-15.4-.13-23.1-.13-.13-25.05-.26-50.24-.39-75.42,9.4-5.61,18.79-11.22,28.19-16.83-9.4-5.61-18.79-11.35-28.19-16.96.13-25.05.26-50.24.39-75.42,7.7,0,15.4,0,23.1-.13Z"/>
          <path class="cls-3" d="M193.65,351.87h-75.03c-5.87,9.53-11.61,19.05-17.49,28.58-5.74-9.53-11.61-19.05-17.49-28.58H8.75c0-7.7.13-15.4.13-23.1,25.05-.13,50.24-.26,75.42-.39,5.61,9.4,11.22,18.79,16.83,28.19,5.61-9.4,11.35-18.79,16.96-28.19,25.05.13,50.24.26,75.42.39,0,7.7,0,15.4.13,23.1Z"/>
          <path class="cls-3" d="M193.65,299.8h-75.03c-5.87,9.53-11.61,19.05-17.49,28.58-5.74-9.53-11.61-19.05-17.49-28.58H8.75c0-7.7.13-15.4.13-23.1,25.05-.13,50.24-.26,75.42-.39,5.61,9.4,11.22,18.79,16.83,28.19,5.61-9.4,11.35-18.79,16.96-28.19,25.05.13,50.24.26,75.42.39,0,7.7,0,15.4.13,23.1Z"/>
          <path class="cls-3" d="M129.78,549.49v-75.03c-9.53-5.87-19.05-11.61-28.58-17.49,9.53-5.74,19.05-11.61,28.58-17.49v-74.9c7.7,0,15.4.13,23.1.13.13,25.05.26,50.24.39,75.42-9.4,5.61-18.79,11.22-28.19,16.83,9.4,5.61,18.79,11.35,28.19,16.96-.13,25.05-.26,50.24-.39,75.42-7.7,0-15.4,0-23.1.13Z"/>
        </g>
        <g>
          <path class="cls-3" d="M209.3,97.24h75.03c5.87-9.53,11.61-19.05,17.49-28.58,5.74,9.53,11.61,19.05,17.49,28.58h74.9c0,7.7-.13,15.4-.13,23.1-25.05.13-50.24.26-75.42.39-5.61-9.4-11.22-18.79-16.83-28.19-5.61,9.4-11.35,18.79-16.96,28.19-25.05-.13-50.24-.26-75.42-.39,0-7.7,0-15.4-.13-23.1Z"/>
          <path class="cls-3" d="M232.79-98.47V-23.43c9.53,5.87,19.05,11.61,28.58,17.49-9.53,5.74-19.05,11.61-28.58,17.49v74.9c-7.7,0-15.4-.13-23.1-.13-.13-25.05-.26-50.24-.39-75.42,9.4-5.61,18.79-11.22,28.19-16.83-9.4-5.61-18.79-11.35-28.19-16.96.13-25.05.26-50.24.39-75.42,7.7,0,15.4,0,23.1-.13Z"/>
          <path class="cls-3" d="M370.72,86.44V11.41c-9.53-5.87-19.05-11.61-28.58-17.49,9.53-5.74,19.05-11.61,28.58-17.49v-74.9c7.7,0,15.4.13,23.1.13.13,25.05.26,50.24.39,75.42-9.4,5.61-18.79,11.22-28.19,16.83,9.4,5.61,18.79,11.35,28.19,16.96-.13,25.05-.26,50.24-.39,75.42-7.7,0-15.4,0-23.1.13Z"/>
        </g>
        <g>
          <path class="cls-3" d="M8.75,230.13h75.03c5.87-9.53,11.61-19.05,17.49-28.58,5.74,9.53,11.61,19.05,17.49,28.58h74.9c0,7.7-.13,15.4-.13,23.1-25.05.13-50.24.26-75.42.39-5.61-9.4-11.22-18.79-16.83-28.19-5.61,9.4-11.35,18.79-16.96,28.19-25.05-.13-50.24-.26-75.42-.39,0-7.7,0-15.4-.13-23.1Z"/>
          <path class="cls-3" d="M32.23,34.42v75.03c9.53,5.87,19.05,11.61,28.58,17.49-9.53,5.74-19.05,11.61-28.58,17.49v74.9c-7.7,0-15.4-.13-23.1-.13-.13-25.05-.26-50.24-.39-75.42,9.4-5.61,18.79-11.22,28.19-16.83-9.4-5.61-18.79-11.35-28.19-16.96.13-25.05.26-50.24.39-75.42,7.7,0,15.4,0,23.1-.13Z"/>
          <path class="cls-3" d="M193.65,21.7h-75.03c-5.87,9.53-11.61,19.05-17.49,28.58-5.74-9.53-11.61-19.05-17.49-28.58H8.75c0-7.7.13-15.4.13-23.1,25.05-.13,50.24-.26,75.42-.39,5.61,9.4,11.22,18.79,16.83,28.19,5.61-9.4,11.35-18.79,16.96-28.19,25.05.13,50.24.26,75.42.39,0,7.7,0,15.4.13,23.1Z"/>
          <path class="cls-3" d="M193.65,21.7h-75.03c-5.87,9.53-11.61,19.05-17.49,28.58-5.74-9.53-11.61-19.05-17.49-28.58H8.75c0-7.7.13-15.4.13-23.1,25.05-.13,50.24-.26,75.42-.39,5.61,9.4,11.22,18.79,16.83,28.19,5.61-9.4,11.35-18.79,16.96-28.19,25.05.13,50.24.26,75.42.39,0,7.7,0,15.4.13,23.1Z"/>
          <path class="cls-3" d="M170.17,219.32v-75.03c-9.53-5.87-19.05-11.61-28.58-17.49,9.53-5.74,19.05-11.61,28.58-17.49V34.42c7.7,0,15.4.13,23.1.13.13,25.05.26,50.24.39,75.42-9.4,5.61-18.79,11.22-28.19,16.83,9.4,5.61,18.79,11.35,28.19,16.96-.13,25.05-.26,50.24-.39,75.42-7.7,0-15.4,0-23.1.13Z"/>
        </g>
      </g>
    </pattern>
  </defs>
  <rect class="cls-2" width="2155.67" height="1080"/>
</svg>