<?xml version="1.0" encoding="UTF-8"?>
<svg id="Layer_1" data-name="Layer 1" xmlns="http://www.w3.org/2000/svg" xmlns:xlink="http://www.w3.org/1999/xlink" viewBox="0 0 2154.1 1080">
  <defs>
    <style>
      .cls-1 {
        fill: #eeedf0;
        stroke: #eeedf0;
        stroke-linecap: round;
        stroke-linejoin: round;
        stroke-width: 2.88px;
      }

      .cls-2 {
        fill: none;
      }

      .cls-2, .cls-3 {
        stroke-width: 0px;
      }

      .cls-3 {
        fill: url(#Pattern_01.2);
      }
    </style>
    <pattern id="Pattern_01.2" x="0" y="0" width="268.92" height="201.44" patternTransform="translate(7247.86 3397.58)" patternUnits="userSpaceOnUse" viewBox="0 0 268.92 201.44">
      <g>
        <rect class="cls-2" width="268.92" height="201.44"/>
        <path class="cls-1" d="M35,12.08v72.1c9.15,5.64,18.31,11.16,27.46,16.8-9.15,5.52-18.31,11.16-27.46,16.8v71.97c-7.4,0-14.8-.13-22.19-.13-.12-24.07-.25-48.27-.38-72.47,9.03-5.39,18.06-10.78,27.08-16.17-9.03-5.39-18.06-10.91-27.08-16.3.13-24.07.25-48.27.38-72.47,7.4,0,14.8,0,22.19-.13Z"/>
        <path class="cls-1" d="M223.04,34.65h-72.1c-5.64,9.15-11.16,18.31-16.8,27.46-5.52-9.15-11.16-18.31-16.8-27.46H45.37c0-7.4.13-14.8.13-22.19,24.07-.12,48.27-.25,72.47-.38,5.39,9.03,10.78,18.06,16.17,27.08,5.39-9.03,10.91-18.06,16.3-27.08,24.07.13,48.27.25,72.47.38,0,7.4,0,14.8.13,22.19Z"/>
        <path class="cls-1" d="M235.26,189.75v-72.1c-9.15-5.64-18.31-11.16-27.46-16.8,9.15-5.52,18.31-11.16,27.46-16.8V12.08c7.4,0,14.8.13,22.19.13.12,24.07.25,48.27.38,72.47-9.03,5.39-18.06,10.78-27.08,16.17,9.03,5.39,18.06,10.91,27.08,16.3-.13,24.07-.25,48.27-.38,72.47-7.4,0-14.8,0-22.19.13Z"/>
        <path class="cls-1" d="M45.37,167.18h72.1c5.64-9.15,11.16-18.31,16.8-27.46,5.52,9.15,11.16,18.31,16.8,27.46h71.97c0,7.4-.13,14.8-.13,22.19-24.07.12-48.27.25-72.47.38-5.39-9.03-10.78-18.06-16.17-27.08-5.39,9.03-10.91,18.06-16.3,27.08-24.07-.13-48.27-.25-72.47-.38,0-7.4,0-14.8-.13-22.19Z"/>
      </g>
    </pattern>
  </defs>
  <rect class="cls-3" x="0" y="0" width="2154.1" height="1080"/>
</svg>