<?xml version="1.0" encoding="UTF-8"?>
<svg id="Layer_1" data-name="Layer 1" xmlns="http://www.w3.org/2000/svg" viewBox="0 0 300 300">
  <defs>
    <style>
      .cls-1 {
        fill: #cea154;
      }

      .cls-1, .cls-2 {
        stroke-width: 4px;
      }

      .cls-1, .cls-2, .cls-3 {
        stroke: #cc9648;
        stroke-miterlimit: 10;
      }

      .cls-2, .cls-3 {
        fill: none;
      }

      .cls-4 {
        fill: #cc9648;
      }

      .cls-4, .cls-5 {
        stroke-width: 0px;
      }

      .cls-5 {
        fill: #d8be9a;
      }
    </style>
  </defs>
  <polygon class="cls-1" points="287.13 162.39 254.09 207 45.91 207 12.87 162.39 22.78 122.74 150 93 277.22 122.74 287.13 162.39"/>
  <polygon class="cls-5" points="149.55 163.81 149.55 94.81 276.55 124.81 149.55 163.81"/>
  <polygon class="cls-5" points="149.55 163.81 149.55 94.81 22.55 124.81 149.55 163.81"/>
  <polygon class="cls-2" points="287.57 162.7 254.53 207.31 46.36 207.31 13.31 162.7 23.22 123.05 150.44 93.31 277.66 123.05 287.57 162.7"/>
  <polygon class="cls-4" points="46.05 206.81 149.05 163.81 254.05 206.81 46.05 206.81"/>
  <path class="cls-3" d="m150.05,93.31c-.33,24.83-.67,49.67-1,74.5"/>
</svg>