<?xml version="1.0" encoding="UTF-8"?>
<svg id="Layer_1" data-name="Layer 1" xmlns="http://www.w3.org/2000/svg" viewBox="0 0 1080 1080">
  <defs>
    <style>
      .cls-1 {
        stroke: #6b5956;
        stroke-width: 25.45px;
      }

      .cls-1, .cls-2, .cls-3, .cls-4, .cls-5 {
        fill: none;
      }

      .cls-1, .cls-3 {
        stroke-linejoin: round;
      }

      .cls-1, .cls-3, .cls-4 {
        stroke-linecap: round;
      }

      .cls-2, .cls-4 {
        stroke: #ebc97f;
        stroke-width: 15.27px;
      }

      .cls-2, .cls-4, .cls-5 {
        stroke-miterlimit: 10;
      }

      .cls-3, .cls-5 {
        stroke: #ddac57;
        stroke-width: 17.81px;
      }

      .cls-6 {
        fill: #7a6661;
      }

      .cls-6, .cls-7, .cls-8, .cls-9 {
        stroke-width: 0px;
      }

      .cls-7 {
        fill: #4b4b4d;
      }

      .cls-8 {
        fill: #39393a;
      }

      .cls-9 {
        fill: #685653;
      }
    </style>
  </defs>
  <path class="cls-7" d="m540.48,37.81c-32.29-.05-149.33,1.67-241.19,95.28-85.62,87.25-90.96,194.79-91.55,220.12v648.27c0,16.69,13.66,30.38,30.38,30.38h603.59c16.69,0,30.36-13.69,30.36-30.38V353.21c-.58-25.25-5.88-132.83-91.55-220.12-91.42-93.13-207.66-95.22-240.02-95.28Zm-.64,647.08c-164.81,0-298.4-133.61-298.4-298.4,0-74.2,27.07-142.04,71.88-194.22-8.32,1.91-16.87,3.77-25.57,5.57,11.83-22.6,33.49-57.02,70.99-86.36,105.34-82.47,279.52-81.12,375.44,7.68,31.25,28.93,47.58,61.04,55.6,79.54-7.23-1.25-14.33-2.52-21.27-3.87,43.51,51.83,69.72,118.68,69.72,191.65,0,164.78-133.61,298.4-298.4,298.4Z"/>
  <path class="cls-7" d="m789.79,198.7c-7.23-1.25-14.33-2.52-21.27-3.87-121.07-23.38-202.34-61.7-212.47-81.73-6.59-13.03-9.97-24.25-10.18-24.94l-.03-.03c-5.85-19.8-5.32-35.04-7.15-35.06-1.83,0-1.07,15.78-7.99,34.66,0,0-.08.18-.2.51-.97,2.49-5.67,13.84-14.55,26.23-13.56,18.93-90.38,52.21-202.62,77.79-8.32,1.91-16.87,3.77-25.57,5.57,11.83-22.6,33.49-57.02,70.99-86.36,105.34-82.47,279.52-81.12,375.44,7.68,31.25,28.93,47.58,61.04,55.6,79.54Z"/>
  <path class="cls-9" d="m838.24,399.77c0,172.12-133.61,311.68-298.4,311.68s-298.4-139.56-298.4-311.68c0-77.5,27.07-148.36,71.88-202.87,112.24-26.71,189.06-61.47,202.62-81.25,8.88-12.94,13.59-24.8,14.55-27.4.13-.35.2-.53.2-.53,6.92-19.72,6.16-36.2,7.99-36.2,1.83.03,1.3,15.95,7.15,36.62l.03.03c.2.72,3.59,12.44,10.18,26.05,10.13,20.92,91.4,60.94,212.47,85.37,43.51,54.14,69.72,123.96,69.72,200.18Z"/>
  <path class="cls-6" d="m838.24,385.47c0,164.78-133.61,298.4-298.4,298.4s-298.4-133.61-298.4-298.4c0-74.2,27.07-142.04,71.88-194.22,112.24-25.57,189.06-58.86,202.62-77.79,8.88-12.39,13.59-23.74,14.55-26.23.13-.33.2-.51.2-.51,6.92-18.88,6.16-34.66,7.99-34.66,1.83.03,1.3,15.27,7.15,35.06l.03.03c.2.69,3.59,11.91,10.18,24.94,10.13,20.03,91.4,58.35,212.47,81.73,43.51,51.83,69.72,118.68,69.72,191.65Z"/>
  <path class="cls-6" d="m530.51,88.25c-.97,2.49-5.67,13.84-14.55,26.23-13.56,18.93-90.38,52.21-202.62,77.79,52.8-61.58,130.33-101.35,217.17-104.02Z"/>
  <path class="cls-6" d="m768.52,194.83c-121.07-23.38-202.34-61.7-212.47-81.73-6.59-13.03-9.97-24.25-10.18-24.94,89.39,1.76,169.13,42.85,222.65,106.67Z"/>
  <path class="cls-1" d="m486.34,559.34c5.16,4.2,25.01,19.36,54.27,18.73,27.07-.58,45.29-14.3,50.74-18.73"/>
  <path class="cls-8" d="m789.26,227.81c-8.7-1.8-17.25-3.66-25.57-5.57-112.24-25.57-189.06-58.85-202.62-77.78-8.88-12.4-13.59-23.74-14.56-26.24-.12-.33-.2-.51-.2-.51-6.66-18.17-6.21-33.43-7.8-34.54-1.59,1.11-1.14,16.37-7.8,34.54,0,0-.08.18-.2.51-.97,2.5-5.68,13.84-14.56,26.24-13.56,18.93-90.38,52.21-202.62,77.78-8.32,1.91-16.87,3.77-25.57,5.57,14.22-23.32,36.82-55.15,70.99-86.36,39.03-35.65,98.54-90,179.95-89.93,81.2.06,140.49,54.23,179.57,89.93,34.17,31.22,56.78,63.06,70.99,86.36Z"/>
  <g>
    <g>
      <circle class="cls-5" cx="360.1" cy="361.29" r="156.91"/>
      <circle class="cls-5" cx="719.56" cy="361.29" r="156.91"/>
    </g>
    <g>
      <circle class="cls-2" cx="360.1" cy="350.37" r="155.08"/>
      <circle class="cls-2" cx="719.56" cy="350.37" r="155.08"/>
    </g>
    <path class="cls-4" d="m562.65,352.87c-2.24-2.1-10.87-9.68-23.59-9.37-11.77.29-19.68,7.15-22.05,9.37"/>
    <path class="cls-3" d="m560.3,358.03c-2.8-2.76-10.45-9.15-21.16-8.87-9.65.25-16.54,5.67-19.78,8.87l-2.38-2.67c3.61-3.56,11.27-9.58,22.08-9.86,11.99-.38,20.51,6.79,23.62,9.86l-2.38,2.67Z"/>
    <path class="cls-4" d="m562.65,352.87c-2.24-2.1-10.87-9.68-23.59-9.37-11.77.29-19.68,7.15-22.05,9.37"/>
  </g>
  <g>
    <path class="cls-7" d="m538.51,51.52c-64.94,1.19-130.02,21.41-179.76,60.35-37.51,29.34-59.16,63.77-70.99,86.36,8.7-1.81,17.25-3.66,25.57-5.57,112.24-25.57,189.06-58.86,202.62-77.79,8.88-12.39,13.59-23.74,14.55-26.23.13-.33.2-.51.2-.51,6.66-18.18,6.21-33.43,7.8-34.55v-2.06Z"/>
    <path class="cls-7" d="m538.51,51.52c64.94,1.19,130.02,21.41,179.76,60.35,37.51,29.34,59.16,63.77,70.99,86.36-8.7-1.81-17.25-3.66-25.57-5.57-112.24-25.57-189.06-58.86-202.62-77.79-8.88-12.39-13.59-23.74-14.55-26.23-.13-.33-.2-.51-.2-.51-6.66-18.18-6.21-33.43-7.8-34.55v-2.06Z"/>
  </g>
</svg>