<?xml version="1.0" encoding="UTF-8"?>
<svg id="Layer_1" data-name="Layer 1" xmlns="http://www.w3.org/2000/svg" viewBox="0 0 1080 1080">
  <defs>
    <style>
      .cls-1 {
        fill: #4b4b4d;
        stroke: #4b4b4d;
        stroke-linecap: round;
        stroke-linejoin: round;
        stroke-width: 41.99px;
      }
    </style>
  </defs>
  <path class="cls-1" d="m540,935.67c-80.89.55-161.7,1.1-242.55,1.61v107.66H30.48V325.56h281.96c75.83,203.38,151.69,406.73,227.56,610.11Z"/>
  <path class="cls-1" d="m503.58,646.9c-55.65-149.38-111.27-298.79-166.92-448.21-20.29-54.48-40.58-108.99-60.87-163.47,0-.04-.04-.12-.04-.16h257.58c33.83,90.74,67.66,181.48,101.53,272.22-19.93,55.41-40.9,111.75-63,168.94-22.53,58.33-45.33,115.23-68.29,170.67Z"/>
  <path class="cls-1" d="m1049.52,151.42v893.52h-266.92v-281.8c-80.85-.51-161.7-1.06-242.59-1.61,75.87-203.38,151.73-406.73,227.56-610.11h281.96Z"/>
</svg>