<?xml version="1.0" encoding="UTF-8"?>
<svg id="Layer_1" data-name="Layer 1" xmlns="http://www.w3.org/2000/svg" viewBox="0 0 1080 1080">
  <defs>
    <style>
      .cls-1 {
        fill: #eeedf0;
        stroke: #eeedf0;
        stroke-linecap: round;
        stroke-linejoin: round;
        stroke-width: 41.89px;
      }
    </style>
  </defs>
  <path class="cls-1" d="m539.54,934.7c-80.69.55-161.31,1.1-241.96,1.61v107.39H31.27V326.09h281.27c75.64,202.89,151.32,405.73,227,608.62Z"/>
  <path class="cls-1" d="m503.21,646.64c-55.52-149.01-111-298.06-166.51-447.12-20.24-54.34-40.48-108.72-60.72-163.07,0-.04-.04-.12-.04-.16h256.95c33.75,90.52,67.5,181.04,101.29,271.56-19.88,55.27-40.8,111.48-62.84,168.53-22.48,58.19-45.22,114.94-68.12,170.25Z"/>
  <path class="cls-1" d="m1047.81,152.37v891.33h-266.27v-281.11c-80.65-.51-161.31-1.06-242-1.61,75.68-202.89,151.36-405.73,227-608.62h281.27Z"/>
</svg>